<svg id="Layer_1" data-name="Layer 1" xmlns="http://www.w3.org/2000/svg" viewBox="0 0 1019.56 527.43"><defs><style>.cls-1{fill:#f89c26;}.cls-2,.cls-20{fill:#3e3935;}.cls-12,.cls-16,.cls-19,.cls-3{fill:#fff;}.cls-4{fill:#60cbf1;}.cls-11,.cls-5{fill:#ee92bd;}.cls-10,.cls-14,.cls-5{stroke:#3e3935;stroke-linecap:round;stroke-linejoin:round;}.cls-5{stroke-width:3.5px;}.cls-6{fill:#fffffe;}.cls-18,.cls-7{fill:#ffc43f;}.cls-8{fill:#ef504e;}.cls-14,.cls-9{fill:#649ad2;}.cls-10,.cls-15{fill:none;stroke-width:5px;}.cls-12{font-size:52.03px;}.cls-12,.cls-16,.cls-19,.cls-20{font-family:"ff-netto-web", NettoOT-Bold, Netto OT, sans-serif;font-weight:400;}.cls-13{letter-spacing:-0.01em;}.cls-14{stroke-width:10px;}.cls-15{stroke:#fff;stroke-miterlimit:10;}.cls-16,.cls-20{font-size:60.51px;}.cls-17{letter-spacing:-0.01em;}.cls-18{letter-spacing:-0.01em;}.cls-19{font-size:158.66px;}</style></defs><title>everyone is talking</title><polygon class="cls-1" points="548.06 389.77 548.06 402.33 537.66 411.18 548.06 420.04 548.06 500.85 645.46 500.85 645.46 389.77 548.06 389.77"/><path class="cls-2" d="M818.24,595.84h-97.4a1.65,1.65,0,0,1-1.65-1.65V514.13l-9.82-8.35a1.65,1.65,0,0,1,0-2.52l9.82-8.35v-11.8a1.65,1.65,0,0,1,1.65-1.65h97.4a1.65,1.65,0,0,1,1.65,1.65V594.19A1.65,1.65,0,0,1,818.24,595.84Zm-95.74-3.31h94.09V484.76H722.5v10.91a1.66,1.66,0,0,1-.58,1.26L713,504.52l8.92,7.59a1.66,1.66,0,0,1,.58,1.26Zm-1.65-96.86h0Z" transform="translate(-172.78 -93.33)"/><line class="cls-3" x1="572.64" y1="412.78" x2="622.44" y2="412.78"/><path class="cls-2" d="M795.23,507.77h-49.8a1.65,1.65,0,0,1,0-3.31h49.8a1.65,1.65,0,1,1,0,3.31Z" transform="translate(-172.78 -93.33)"/><line class="cls-3" x1="572.64" y1="431.41" x2="622.44" y2="431.41"/><path class="cls-2" d="M795.23,526.4h-49.8a1.65,1.65,0,0,1,0-3.31h49.8a1.65,1.65,0,1,1,0,3.31Z" transform="translate(-172.78 -93.33)"/><line class="cls-3" x1="572.64" y1="450.04" x2="622.44" y2="450.04"/><path class="cls-2" d="M795.23,545h-49.8a1.65,1.65,0,0,1,0-3.31h49.8a1.65,1.65,0,0,1,0,3.31Z" transform="translate(-172.78 -93.33)"/><line class="cls-3" x1="572.64" y1="468.68" x2="622.44" y2="468.68"/><path class="cls-2" d="M795.23,563.67h-49.8a1.65,1.65,0,0,1,0-3.31h49.8a1.65,1.65,0,1,1,0,3.31Z" transform="translate(-172.78 -93.33)"/><polygon class="cls-4" points="744.31 113.97 754.8 101.63 836.41 101.63 836.41 1.99 723.22 1.99 723.22 101.63 733.81 101.63 744.31 113.97"/><path class="cls-2" d="M894,195V95.32a2,2,0,0,1,2-2h113.19a2,2,0,0,1,2,2V195a2,2,0,0,1-2,2H928.5l-9.9,11.63a2,2,0,0,1-3,0L905.68,197H896A2,2,0,0,1,894,195Zm4-97.66V193h8.61a2,2,0,0,1,1.51.7l9,10.55,9-10.55a2,2,0,0,1,1.51-.7h79.62V97.31Z" transform="translate(-172.78 -93.33)"/><path class="cls-5" d="M959.87,489.31" transform="translate(-172.78 -93.33)"/><path class="cls-5" d="M959.87,520.2" transform="translate(-172.78 -93.33)"/><polygon class="cls-6" points="294.85 7.98 141.57 7.98 141.57 161.26 166.58 161.26 179.35 176.28 192.13 161.26 294.85 161.26 294.85 7.98"/><path class="cls-2" d="M352.14,272.09a2.48,2.48,0,0,1-1.89-.87l-12-14.14H314.35a2.48,2.48,0,0,1-2.48-2.48V101.32a2.48,2.48,0,0,1,2.48-2.48H467.63a2.48,2.48,0,0,1,2.48,2.48V254.6a2.48,2.48,0,0,1-2.48,2.48H366.06l-12,14.14A2.48,2.48,0,0,1,352.14,272.09Zm-35.31-20h22.54a2.48,2.48,0,0,1,1.89.87l10.89,12.8L363,253a2.48,2.48,0,0,1,1.89-.87H465.16V103.79H316.83Z" transform="translate(-172.78 -93.33)"/><line class="cls-3" x1="160.2" y1="144.68" x2="234.72" y2="144.68"/><path class="cls-2" d="M407.5,240.49H333a2.48,2.48,0,1,1,0-5H407.5a2.48,2.48,0,0,1,0,5Z" transform="translate(-172.78 -93.33)"/><circle class="cls-7" cx="216.61" cy="78.41" r="50.07"/><path class="cls-2" d="M389.39,225a53.28,53.28,0,1,1,53.29-53.29A53.35,53.35,0,0,1,389.39,225Zm0-100.14a46.85,46.85,0,1,0,46.85,46.85A46.9,46.9,0,0,0,389.39,124.89Z" transform="translate(-172.78 -93.33)"/><path class="cls-2" d="M376.83,183.74a12.56,12.56,0,1,0,25.12,0Z" transform="translate(-172.78 -93.33)"/><path class="cls-2" d="M389.39,199.52a15.79,15.79,0,0,1-15.78-15.78,3.22,3.22,0,0,1,3.22-3.22H402a3.22,3.22,0,0,1,3.22,3.22A15.8,15.8,0,0,1,389.39,199.52ZM380.62,187a9.34,9.34,0,0,0,17.54,0Z" transform="translate(-172.78 -93.33)"/><path class="cls-8" d="M447.62,156.33a9.62,9.62,0,0,0-13.61,0l-5.39,5.39-5.39-5.39a9.62,9.62,0,0,0-13.61,13.61l5.39,5.39h0l13.61,13.61h0l13.61-13.61h0l5.39-5.39A9.62,9.62,0,0,0,447.62,156.33Z" transform="translate(-172.78 -93.33)"/><path class="cls-2" d="M428.62,192.15a3.21,3.21,0,0,1-2.27-.94l-19-19a12.84,12.84,0,0,1,18.16-18.16l3.11,3.11,3.11-3.11a12.84,12.84,0,0,1,18.16,18.16l-19,19A3.21,3.21,0,0,1,428.62,192.15Zm-12.19-35.42a6.4,6.4,0,0,0-4.53,10.93l16.72,16.72,16.72-16.72a6.42,6.42,0,0,0,0-9.06,6.56,6.56,0,0,0-9.06,0L430.9,164a3.22,3.22,0,0,1-4.55,0L421,158.6A6.39,6.39,0,0,0,416.43,156.73Z" transform="translate(-172.78 -93.33)"/><path class="cls-8" d="M369.15,156.33a9.62,9.62,0,0,0-13.61,0l-5.39,5.39-5.39-5.39a9.62,9.62,0,0,0-13.61,13.61l5.39,5.39h0l13.61,13.61h0l13.61-13.61h0l5.39-5.39A9.62,9.62,0,0,0,369.15,156.33Z" transform="translate(-172.78 -93.33)"/><path class="cls-2" d="M350.16,192.15a3.21,3.21,0,0,1-2.27-.94l-19-19A12.84,12.84,0,0,1,347,154.06l3.11,3.11,3.11-3.11a12.84,12.84,0,0,1,18.16,18.16l-19,19A3.21,3.21,0,0,1,350.16,192.15ZM338,156.73a6.4,6.4,0,0,0-4.53,10.93l16.72,16.72,16.72-16.72a6.41,6.41,0,0,0-9.06-9.06L352.43,164a3.22,3.22,0,0,1-4.55,0l-5.39-5.39A6.39,6.39,0,0,0,338,156.73Z" transform="translate(-172.78 -93.33)"/><path class="cls-6" d="M599.21,555.62h87.37a11.56,11.56,0,0,0,11.56-11.56V456.68a11.56,11.56,0,0,0-11.56-11.56H657.7l-14.8-17.39-14.8,17.39H599.21a11.56,11.56,0,0,0-11.56,11.56v87.37A11.56,11.56,0,0,0,599.21,555.62Z" transform="translate(-172.78 -93.33)"/><path class="cls-2" d="M642.9,425a2.77,2.77,0,0,1,2.1,1l14,16.42h27.61a14.34,14.34,0,0,1,14.33,14.33v87.37a14.34,14.34,0,0,1-14.33,14.33H599.21a14.34,14.34,0,0,1-14.33-14.33V456.68a14.34,14.34,0,0,1,14.33-14.33h27.61l14-16.42A2.77,2.77,0,0,1,642.9,425Zm43.69,127.89a8.81,8.81,0,0,0,8.8-8.8V456.68a8.81,8.81,0,0,0-8.8-8.8H657.7a2.77,2.77,0,0,1-2.1-1L642.9,432l-12.69,14.92a2.77,2.77,0,0,1-2.1,1H599.21a8.81,8.81,0,0,0-8.8,8.8v87.37a8.81,8.81,0,0,0,8.8,8.8Z" transform="translate(-172.78 -93.33)"/><path class="cls-8" d="M673.74,482.49a15.63,15.63,0,0,0-22.1,0l-8.75,8.75-8.75-8.75a15.63,15.63,0,0,0-22.1,22.1l8.75,8.75h0l22.1,22.1h0l22.1-22.1h0l8.75-8.75A15.63,15.63,0,0,0,673.74,482.49Z" transform="translate(-172.78 -93.33)"/><path class="cls-2" d="M642.9,540.66a5.21,5.21,0,0,1-3.69-1.53l-30.84-30.84a20.85,20.85,0,1,1,29.48-29.48l5.05,5.05L648,478.8a20.85,20.85,0,0,1,29.48,29.48l-30.84,30.84A5.21,5.21,0,0,1,642.9,540.66Zm-19.79-57.51a10.4,10.4,0,0,0-7.36,17.75L642.9,528l27.15-27.15a10.4,10.4,0,0,0-14.71-14.71l-8.75,8.75a5.22,5.22,0,0,1-7.39,0l-8.75-8.75A10.38,10.38,0,0,0,623.11,483.14Z" transform="translate(-172.78 -93.33)"/><path class="cls-9" d="M808.25,182.94H523.87a17.18,17.18,0,0,0-17.18,17.18V223a17.18,17.18,0,0,0,17.18,17.18h35.82l15.85,18.63,15.85-18.63H808.25A17.18,17.18,0,0,0,825.43,223V200.12A17.18,17.18,0,0,0,808.25,182.94Z" transform="translate(-172.78 -93.33)"/><path class="cls-2" d="M575.53,261.55a2.77,2.77,0,0,1-2.1-1l-15-17.65H523.87A20,20,0,0,1,503.92,223V200.12a20,20,0,0,1,19.94-19.94H808.25a20,20,0,0,1,19.94,19.94V223a20,20,0,0,1-19.94,19.94H592.65l-15,17.65A2.77,2.77,0,0,1,575.53,261.55ZM523.87,185.7a14.43,14.43,0,0,0-14.42,14.42V223a14.43,14.43,0,0,0,14.42,14.42h35.82a2.77,2.77,0,0,1,2.1,1l13.74,16.15,13.74-16.15a2.77,2.77,0,0,1,2.1-1H808.25A14.43,14.43,0,0,0,822.67,223V200.12a14.43,14.43,0,0,0-14.42-14.42Z" transform="translate(-172.78 -93.33)"/><line class="cls-10" x1="357.97" y1="130.07" x2="582.27" y2="130.07"/><line class="cls-10" x1="357.97" y1="109.13" x2="630.21" y2="109.13"/><path class="cls-11" d="M874.33,582.19H1171.5a18,18,0,0,0,18-18V522.18a18,18,0,0,0-18-18H928.37l-16.56-19.46-16.56,19.46H874.33a18,18,0,0,0-18,18v42.05A18,18,0,0,0,874.33,582.19Z" transform="translate(-172.78 -93.33)"/><path class="cls-2" d="M911.81,481.88a2.89,2.89,0,0,1,2.2,1l15.69,18.45h241.8a20.86,20.86,0,0,1,20.84,20.84v42.05a20.86,20.86,0,0,1-20.84,20.84H874.33a20.86,20.86,0,0,1-20.84-20.84V522.18a20.86,20.86,0,0,1,20.84-20.84h19.58l15.69-18.45A2.89,2.89,0,0,1,911.81,481.88Zm259.7,97.42a15.08,15.08,0,0,0,15.06-15.06V522.18a15.08,15.08,0,0,0-15.06-15.06H928.37a2.89,2.89,0,0,1-2.2-1l-14.36-16.88L897.45,506.1a2.89,2.89,0,0,1-2.2,1H874.33a15.08,15.08,0,0,0-15.06,15.06v42.05a15.08,15.08,0,0,0,15.06,15.06Z" transform="translate(-172.78 -93.33)"/><path class="cls-2" d="M1050.39,532.33a11.32,11.32,0,0,0-7.08-2.57q-26.37-.31-52.74,0a11.92,11.92,0,0,0-7.34,2.76c-2.4,2.21-4.54,4.33-7.92,4.68v2l3.43,1c0,1.84-.08,3.55,0,5.24.53,10,7.74,16.27,16.86,14.69a23.65,23.65,0,0,0,18.9-19A3.7,3.7,0,0,1,1017,539c.59-.12,2,1.27,2.19,2.13,1.76,10.49,8.46,16.27,18.2,18.85,8.16,2.16,15.7-2.93,17.1-11.27.47-2.76.5-5.59.74-8.46l3.32-1v-2C1055,537,1052.84,534.65,1050.39,532.33Zm-35.09,3.33c-.8.13-1.84-1.15-2.76-1.79l.46-.78h7.92C1020.39,537.37,1017.24,535.35,1015.3,535.66Z" transform="translate(-172.78 -93.33)"/><path class="cls-2" d="M1153.46,532.33a11.32,11.32,0,0,0-7.08-2.57q-26.37-.31-52.74,0a11.92,11.92,0,0,0-7.34,2.76c-2.4,2.21-4.54,4.33-7.92,4.68v2l3.43,1c0,1.84-.08,3.55,0,5.24.53,10,7.74,16.27,16.86,14.69a23.65,23.65,0,0,0,18.9-19,3.7,3.7,0,0,1,2.5-2.25c.59-.12,2,1.27,2.19,2.13,1.76,10.49,8.46,16.27,18.2,18.85,8.16,2.16,15.7-2.93,17.1-11.27.47-2.76.5-5.59.74-8.46l3.32-1v-2C1158,537,1155.92,534.65,1153.46,532.33Zm-35.09,3.33c-.8.13-1.84-1.15-2.76-1.79l.46-.78H1124C1123.46,537.37,1120.32,535.35,1118.37,535.66Z" transform="translate(-172.78 -93.33)"/><path class="cls-2" d="M947.31,532.33a11.32,11.32,0,0,0-7.08-2.57q-26.37-.31-52.74,0a11.92,11.92,0,0,0-7.34,2.76c-2.4,2.21-4.54,4.33-7.92,4.68v2l3.43,1c0,1.84-.08,3.55,0,5.24.53,10,7.74,16.27,16.86,14.69a23.65,23.65,0,0,0,18.9-19,3.7,3.7,0,0,1,2.5-2.25c.59-.12,2,1.27,2.19,2.13,1.76,10.49,8.46,16.27,18.2,18.85,8.16,2.16,15.7-2.93,17.1-11.27.47-2.76.5-5.59.74-8.46l3.32-1v-2C951.9,537,949.77,534.65,947.31,532.33Zm-35.09,3.33c-.8.13-1.84-1.15-2.76-1.79l.46-.78h7.92C917.31,537.37,914.17,535.35,912.22,535.66Z" transform="translate(-172.78 -93.33)"/><path class="cls-6" d="M879.69,543.88a1.14,1.14,0,0,1-.73-2l7.94-6.7a1.14,1.14,0,0,1,1.47,1.74l-7.94,6.7A1.15,1.15,0,0,1,879.69,543.88Z" transform="translate(-172.78 -93.33)"/><path class="cls-6" d="M883.15,547.34a1.14,1.14,0,0,1-.73-2l7.94-6.7a1.14,1.14,0,1,1,1.47,1.74l-7.94,6.7A1.15,1.15,0,0,1,883.15,547.34Z" transform="translate(-172.78 -93.33)"/><path class="cls-6" d="M983.36,543.88a1.14,1.14,0,0,1-.73-2l7.94-6.7a1.14,1.14,0,1,1,1.47,1.74l-7.94,6.7A1.15,1.15,0,0,1,983.36,543.88Z" transform="translate(-172.78 -93.33)"/><path class="cls-6" d="M986.82,547.34a1.14,1.14,0,0,1-.73-2l7.94-6.7a1.14,1.14,0,1,1,1.47,1.74l-7.94,6.7A1.15,1.15,0,0,1,986.82,547.34Z" transform="translate(-172.78 -93.33)"/><path class="cls-6" d="M1086.39,543.88a1.14,1.14,0,0,1-.73-2l7.94-6.7a1.14,1.14,0,0,1,1.47,1.74l-7.94,6.7A1.15,1.15,0,0,1,1086.39,543.88Z" transform="translate(-172.78 -93.33)"/><path class="cls-6" d="M1089.84,547.34a1.14,1.14,0,0,1-.73-2l7.94-6.7a1.14,1.14,0,0,1,1.47,1.74l-7.94,6.7A1.15,1.15,0,0,1,1089.84,547.34Z" transform="translate(-172.78 -93.33)"/><text class="cls-12" transform="translate(46.27 271.29)">unlimi<tspan class="cls-13" x="136.37" y="0">t</tspan><tspan x="153.9" y="0">ed talk and </tspan><tspan class="cls-13" x="413.43" y="0">t</tspan><tspan x="430.96" y="0">exts only</tspan></text><path class="cls-14" d="M880.51,295.29H217.82c-22.11,0-40,15-40,33.48v44.55c0,18.49,17.92,33.48,40,33.48h83.46l36.93,36.3,36.93-36.3H880.51c22.11,0,40-15,40-33.48V328.77C920.54,310.28,902.62,295.29,880.51,295.29Z" transform="translate(-172.78 -93.33)"/><path class="cls-1" d="M1140.27,220.86H906c-20.39,0-36.91,19.94-36.91,44.54V400.74c0,24.6,16.53,44.54,36.91,44.54h82.28l28.77,40.81,28.77-40.81h94.44c20.39,0,36.91-19.94,36.91-44.54V265.41C1177.18,240.81,1160.66,220.86,1140.27,220.86Z" transform="translate(-172.78 -93.33)"/><path class="cls-2" d="M1017.06,492.82a5.25,5.25,0,0,1-4.25-2.37L985.72,452H906c-23.43,0-42.49-23-42.49-51.27V265.41c0-28.27,19.06-51.28,42.49-51.28h234.26c23.43,0,42.49,23,42.49,51.28V400.74c0,28.27-19.06,51.27-42.49,51.27h-91.87l-27.1,38.44A5.25,5.25,0,0,1,1017.06,492.82ZM906,227.59c-17.28,0-31.33,17-31.33,37.82V400.74c0,20.85,14.06,37.81,31.33,37.81h82.28a5.25,5.25,0,0,1,4.25,2.37l24.52,34.78,24.52-34.78a5.25,5.25,0,0,1,4.25-2.37h94.44c17.28,0,31.33-17,31.33-37.81V265.41c0-20.85-14.06-37.82-31.33-37.82Z" transform="translate(-172.78 -93.33)"/><path class="cls-9" d="M228.35,525.5H512.74a17.18,17.18,0,0,0,17.18-17.18V485.45a17.18,17.18,0,0,0-17.18-17.18H476.92l-15.85-18.63-15.85,18.63H228.35a17.18,17.18,0,0,0-17.18,17.18v22.86A17.18,17.18,0,0,0,228.35,525.5Z" transform="translate(-172.78 -93.33)"/><path class="cls-2" d="M461.08,446.88a2.77,2.77,0,0,1,2.1,1l15,17.65h34.54a20,20,0,0,1,19.94,19.94v22.86a20,20,0,0,1-19.94,19.94H228.35a20,20,0,0,1-19.94-19.94V485.45a20,20,0,0,1,19.94-19.94H444l15-17.65A2.77,2.77,0,0,1,461.08,446.88Zm51.66,75.85a14.43,14.43,0,0,0,14.42-14.42V485.45A14.43,14.43,0,0,0,512.74,471H476.92a2.77,2.77,0,0,1-2.1-1l-13.74-16.15-13.74,16.15a2.77,2.77,0,0,1-2.1,1H228.35a14.43,14.43,0,0,0-14.42,14.42v22.86a14.43,14.43,0,0,0,14.42,14.42Z" transform="translate(-172.78 -93.33)"/><circle class="cls-7" cx="304.7" cy="405.04" r="17.93"/><path class="cls-2" d="M477.48,517.46a19.09,19.09,0,1,1,19.09-19.09A19.11,19.11,0,0,1,477.48,517.46Zm0-35.87a16.78,16.78,0,1,0,16.78,16.78A16.8,16.8,0,0,0,477.48,481.59Z" transform="translate(-172.78 -93.33)"/><path class="cls-2" d="M492.07,485.42a4.94,4.94,0,0,0-3.09-1.12q-11.5-.14-23,0a5.2,5.2,0,0,0-3.2,1.2c-1,1-2,1.89-3.45,2v.89l1.5.45c0,.8,0,1.55,0,2.28.23,4.36,3.38,7.09,7.35,6.4a10.31,10.31,0,0,0,8.24-8.28,1.61,1.61,0,0,1,1.09-1c.26-.05.89.55,1,.93.77,4.58,3.69,7.09,7.94,8.22a5.91,5.91,0,0,0,7.46-4.91c.2-1.2.22-2.44.32-3.69l1.45-.42v-.89C494.07,487.45,493.14,486.43,492.07,485.42Zm-15.3,1.45c-.35.06-.8-.5-1.2-.78l.2-.34h3.45C479,487.61,477.62,486.73,476.77,486.87Z" transform="translate(-172.78 -93.33)"/><path class="cls-6" d="M462.58,490.45a.5.5,0,0,1-.32-.88l3.46-2.92a.5.5,0,0,1,.64.76l-3.46,2.92A.5.5,0,0,1,462.58,490.45Z" transform="translate(-172.78 -93.33)"/><path class="cls-6" d="M464.09,492a.5.5,0,0,1-.32-.88l3.46-2.92a.5.5,0,0,1,.64.76l-3.46,2.92A.5.5,0,0,1,464.09,492Z" transform="translate(-172.78 -93.33)"/><circle class="cls-7" cx="248.75" cy="403.33" r="17.46"/><path class="cls-2" d="M421.53,515.25a18.59,18.59,0,1,1,18.59-18.59A18.61,18.61,0,0,1,421.53,515.25Zm0-34.93a16.34,16.34,0,1,0,16.34,16.34A16.36,16.36,0,0,0,421.53,480.32Z" transform="translate(-172.78 -93.33)"/><path class="cls-2" d="M417.15,500.85a4.38,4.38,0,1,0,8.76,0Z" transform="translate(-172.78 -93.33)"/><path class="cls-2" d="M421.53,506.35a5.51,5.51,0,0,1-5.5-5.5,1.12,1.12,0,0,1,1.12-1.12h8.76a1.12,1.12,0,0,1,1.12,1.12A5.51,5.51,0,0,1,421.53,506.35ZM418.47,502a3.26,3.26,0,0,0,6.12,0Z" transform="translate(-172.78 -93.33)"/><path class="cls-8" d="M441.84,491.29a3.36,3.36,0,0,0-4.75,0l-1.88,1.88-1.88-1.88a3.36,3.36,0,0,0-4.75,4.75l1.88,1.88h0l4.75,4.75h0l4.75-4.75h0l1.88-1.88A3.36,3.36,0,0,0,441.84,491.29Z" transform="translate(-172.78 -93.33)"/><path class="cls-2" d="M435.22,503.79a1.12,1.12,0,0,1-.79-.33l-6.63-6.63a4.48,4.48,0,0,1,6.33-6.33l1.09,1.09,1.09-1.09a4.48,4.48,0,1,1,6.33,6.33L436,503.46A1.12,1.12,0,0,1,435.22,503.79ZM431,491.43a2.23,2.23,0,0,0-1.58,3.81l5.83,5.83,5.83-5.83a2.24,2.24,0,0,0,0-3.16,2.29,2.29,0,0,0-3.16,0L436,494a1.12,1.12,0,0,1-1.59,0l-1.88-1.88A2.23,2.23,0,0,0,431,491.43Z" transform="translate(-172.78 -93.33)"/><path class="cls-8" d="M414.47,491.29a3.36,3.36,0,0,0-4.75,0l-1.88,1.88L406,491.29a3.36,3.36,0,0,0-4.75,4.75l1.88,1.88h0l4.75,4.75h0l4.75-4.75h0l1.88-1.88A3.36,3.36,0,0,0,414.47,491.29Z" transform="translate(-172.78 -93.33)"/><path class="cls-2" d="M407.84,503.79a1.12,1.12,0,0,1-.79-.33l-6.63-6.63a4.48,4.48,0,1,1,6.33-6.33l1.09,1.09,1.09-1.09a4.48,4.48,0,1,1,6.33,6.33l-6.63,6.63A1.12,1.12,0,0,1,407.84,503.79Zm-4.25-12.36a2.23,2.23,0,0,0-1.58,3.81l5.83,5.83,5.83-5.83a2.23,2.23,0,1,0-3.16-3.16L408.64,494a1.12,1.12,0,0,1-1.59,0l-1.88-1.88A2.23,2.23,0,0,0,403.59,491.43Z" transform="translate(-172.78 -93.33)"/><circle class="cls-7" cx="137.34" cy="403.33" r="17.46"/><path class="cls-2" d="M310.12,515.25a18.59,18.59,0,1,1,18.59-18.59A18.61,18.61,0,0,1,310.12,515.25Zm0-34.93a16.34,16.34,0,1,0,16.34,16.34A16.36,16.36,0,0,0,310.12,480.32Z" transform="translate(-172.78 -93.33)"/><path class="cls-2" d="M305.74,500.85a4.38,4.38,0,1,0,8.76,0Z" transform="translate(-172.78 -93.33)"/><path class="cls-2" d="M310.12,506.35a5.51,5.51,0,0,1-5.5-5.5,1.12,1.12,0,0,1,1.12-1.12h8.76a1.12,1.12,0,0,1,1.12,1.12A5.51,5.51,0,0,1,310.12,506.35ZM307.06,502a3.26,3.26,0,0,0,6.12,0Z" transform="translate(-172.78 -93.33)"/><path class="cls-8" d="M330.43,491.29a3.36,3.36,0,0,0-4.75,0l-1.88,1.88-1.88-1.88a3.36,3.36,0,0,0-4.75,4.75l1.88,1.88h0l4.75,4.75h0l4.75-4.75h0l1.88-1.88A3.36,3.36,0,0,0,330.43,491.29Z" transform="translate(-172.78 -93.33)"/><path class="cls-2" d="M323.8,503.79a1.12,1.12,0,0,1-.79-.33l-6.63-6.63a4.48,4.48,0,0,1,6.33-6.33l1.09,1.09,1.09-1.09a4.48,4.48,0,0,1,6.33,6.33l-6.63,6.63A1.12,1.12,0,0,1,323.8,503.79Zm-4.25-12.36a2.23,2.23,0,0,0-1.58,3.81l5.83,5.83,5.83-5.83a2.24,2.24,0,0,0,0-3.16,2.29,2.29,0,0,0-3.16,0L324.6,494a1.12,1.12,0,0,1-1.59,0l-1.88-1.88A2.23,2.23,0,0,0,319.55,491.43Z" transform="translate(-172.78 -93.33)"/><path class="cls-8" d="M303.06,491.29a3.36,3.36,0,0,0-4.75,0l-1.88,1.88-1.88-1.88a3.36,3.36,0,0,0-4.75,4.75l1.88,1.88h0l4.75,4.75h0l4.75-4.75h0l1.88-1.88A3.36,3.36,0,0,0,303.06,491.29Z" transform="translate(-172.78 -93.33)"/><path class="cls-2" d="M296.43,503.79a1.12,1.12,0,0,1-.79-.33L289,496.83a4.48,4.48,0,0,1,6.33-6.33l1.09,1.09,1.09-1.09a4.48,4.48,0,0,1,6.33,6.33l-6.63,6.63A1.12,1.12,0,0,1,296.43,503.79Zm-4.25-12.36a2.23,2.23,0,0,0-1.58,3.81l5.83,5.83,5.83-5.83a2.23,2.23,0,1,0-3.16-3.16L297.23,494a1.12,1.12,0,0,1-1.59,0l-1.88-1.88A2.23,2.23,0,0,0,292.18,491.43Z" transform="translate(-172.78 -93.33)"/><circle class="cls-7" cx="193.04" cy="405.04" r="17.93"/><path class="cls-2" d="M365.82,517.46a19.09,19.09,0,1,1,19.09-19.09A19.11,19.11,0,0,1,365.82,517.46Zm0-35.87a16.78,16.78,0,1,0,16.78,16.78A16.8,16.8,0,0,0,365.82,481.59Z" transform="translate(-172.78 -93.33)"/><path class="cls-3" d="M354,499a11.82,11.82,0,0,0,23.64,0Z" transform="translate(-172.78 -93.33)"/><circle class="cls-7" cx="80.17" cy="405.04" r="17.93"/><path class="cls-2" d="M253,517.46A19.09,19.09,0,1,1,272,498.37,19.11,19.11,0,0,1,253,517.46Zm0-35.87a16.78,16.78,0,1,0,16.78,16.78A16.8,16.8,0,0,0,253,481.59Z" transform="translate(-172.78 -93.33)"/><path class="cls-2" d="M267.54,485.42a4.94,4.94,0,0,0-3.09-1.12q-11.5-.14-23,0a5.2,5.2,0,0,0-3.2,1.2c-1,1-2,1.89-3.45,2v.89l1.5.45c0,.8,0,1.55,0,2.28.23,4.36,3.38,7.09,7.35,6.4a10.31,10.31,0,0,0,8.24-8.28,1.61,1.61,0,0,1,1.09-1c.26-.05.89.55,1,.93.77,4.58,3.69,7.09,7.94,8.22a5.91,5.91,0,0,0,7.46-4.91c.2-1.2.22-2.44.32-3.69l1.45-.42v-.89C269.54,487.45,268.61,486.43,267.54,485.42Zm-15.3,1.45c-.35.06-.8-.5-1.2-.78l.2-.34h3.45C254.46,487.61,253.09,486.73,252.24,486.87Z" transform="translate(-172.78 -93.33)"/><path class="cls-6" d="M238.05,490.45a.5.5,0,0,1-.32-.88l3.46-2.92a.5.5,0,0,1,.64.76l-3.46,2.92A.5.5,0,0,1,238.05,490.45Z" transform="translate(-172.78 -93.33)"/><path class="cls-6" d="M239.56,492a.5.5,0,0,1-.32-.88l3.46-2.92a.5.5,0,1,1,.64.76l-3.46,2.92A.5.5,0,0,1,239.56,492Z" transform="translate(-172.78 -93.33)"/><path class="cls-3" d="M241.13,499a11.82,11.82,0,1,0,23.64,0Z" transform="translate(-172.78 -93.33)"/><path class="cls-3" d="M465.66,499a11.82,11.82,0,1,0,23.64,0Z" transform="translate(-172.78 -93.33)"/><path class="cls-2" d="M380.41,485.42a4.94,4.94,0,0,0-3.09-1.12q-11.5-.14-23,0a5.2,5.2,0,0,0-3.2,1.2c-1,1-2,1.89-3.45,2v.89l1.5.45c0,.8,0,1.55,0,2.28.23,4.36,3.38,7.09,7.35,6.4a10.31,10.31,0,0,0,8.24-8.28,1.61,1.61,0,0,1,1.09-1c.26-.05.89.55,1,.93.77,4.58,3.69,7.09,7.94,8.22a5.91,5.91,0,0,0,7.46-4.91c.2-1.2.22-2.44.32-3.69l1.45-.42v-.89C382.41,487.45,381.48,486.43,380.41,485.42Zm-15.3,1.45c-.35.06-.8-.5-1.2-.78l.2-.34h3.45C367.33,487.61,366,486.73,365.11,486.87Z" transform="translate(-172.78 -93.33)"/><path class="cls-6" d="M350.92,490.45a.5.5,0,0,1-.32-.88l3.46-2.92a.5.5,0,0,1,.64.76l-3.46,2.92A.5.5,0,0,1,350.92,490.45Z" transform="translate(-172.78 -93.33)"/><path class="cls-6" d="M352.43,492a.5.5,0,0,1-.32-.88l3.46-2.92a.5.5,0,1,1,.64.76l-3.46,2.92A.5.5,0,0,1,352.43,492Z" transform="translate(-172.78 -93.33)"/><path class="cls-3" d="M465.66,499a11.82,11.82,0,1,0,23.64,0Z" transform="translate(-172.78 -93.33)"/><path class="cls-1" d="M267.27,618.88H461.61a11.74,11.74,0,0,0,11.74-11.74v-27.5a11.74,11.74,0,0,0-11.74-11.74h-159l-10.83-12.73-10.83,12.73H267.27a11.74,11.74,0,0,0-11.74,11.74v27.5A11.74,11.74,0,0,0,267.27,618.88Z" transform="translate(-172.78 -93.33)"/><path class="cls-2" d="M291.77,553.27a1.89,1.89,0,0,1,1.44.66L303.48,566H461.61a13.64,13.64,0,0,1,13.63,13.63v27.5a13.64,13.64,0,0,1-13.63,13.63H267.27a13.64,13.64,0,0,1-13.63-13.63v-27.5A13.64,13.64,0,0,1,267.27,566h12.81l10.26-12.07A1.89,1.89,0,0,1,291.77,553.27ZM461.61,617a9.86,9.86,0,0,0,9.85-9.85v-27.5a9.86,9.86,0,0,0-9.85-9.85h-159a1.89,1.89,0,0,1-1.44-.66l-9.39-11-9.39,11a1.89,1.89,0,0,1-1.44.66H267.27a9.86,9.86,0,0,0-9.85,9.85v27.5a9.86,9.86,0,0,0,9.85,9.85Z" transform="translate(-172.78 -93.33)"/><line class="cls-15" x1="95.06" y1="504.48" x2="243.08" y2="504.48"/><line class="cls-15" x1="95.06" y1="490.66" x2="274.73" y2="490.66"/><rect class="cls-3" x="749.39" y="42.03" width="16.31" height="34.04" rx="0.82" ry="0.82"/><path class="cls-3" d="M986.43,160.59a22.39,22.39,0,0,1,.34,3.69,6.3,6.3,0,0,1-3.26,4.84,7.83,7.83,0,0,1-4.36,1.2c-9.35,0-18.7,0-28.05,0a13.46,13.46,0,0,1-13.36-10.86,13.09,13.09,0,0,1-.26-2.61c0-4.72,0-9.45,0-14.17a13.43,13.43,0,0,1,2.7-8.09q8.12-11.15,16.26-22.3a14.44,14.44,0,0,1,1.48-1.8,5,5,0,0,1,7.52.27,6.81,6.81,0,0,1,1.43,7.64c-1.65,4.07-3.42,8.09-5.15,12.14l-.34.82h1q8.55.06,17.09.13a9.28,9.28,0,0,1,4.1.85,5.73,5.73,0,0,1,3.25,6.12v.07a2.34,2.34,0,0,0,1,2.93c2.58,1.87,2.72,5.88.56,8.49l-.56.67a6.05,6.05,0,0,1-1.38,10Zm-21.5,6.68H978.8c.37,0,.73,0,1.1,0a3.89,3.89,0,0,0,3.57-5.36A7.38,7.38,0,0,0,983,161a1.62,1.62,0,0,1,.71-2.29,14.27,14.27,0,0,0,1.39-.8,3.51,3.51,0,0,0,1.59-2.18c.31-1.56-.27-2.65-1.82-3.52a1.48,1.48,0,0,1-.91-1.78,2.56,2.56,0,0,1,.83-1.12c1.27-1,2.21-2.2,1.92-4a3.48,3.48,0,0,0-2.23-2.59,1.63,1.63,0,0,1-1-2c.11-.79.23-1.59.31-2.39a3.05,3.05,0,0,0-2.88-3.69,8.73,8.73,0,0,0-1.23-.11c-6.7-.05-13.39-.15-20.09-.11a1.76,1.76,0,0,1-1.73-2.65C960,127,962,122.23,964,117.46a4.36,4.36,0,0,0,0-3.34,3.05,3.05,0,0,0-2.41-2.09c-1.09-.19-1.75.54-2.33,1.33Q951,124.8,942.68,136.26a10.2,10.2,0,0,0-2.16,6q0,7.45,0,14.9a8.77,8.77,0,0,0,.24,2A10.38,10.38,0,0,0,951,167.26C955.62,167.29,960.27,167.27,964.92,167.27Z" transform="translate(-172.78 -93.33)"/><path class="cls-2" d="M968.36,172.26H951.09a15.51,15.51,0,0,1-15.27-12.41,14.91,14.91,0,0,1-.29-3q0-4.72,0-9.45v-4.72a15.45,15.45,0,0,1,3.07-9.24l16.26-22.3a16.24,16.24,0,0,1,1.69-2A7.08,7.08,0,0,1,961.6,107a7.43,7.43,0,0,1,5.25,2.45,8.75,8.75,0,0,1,1.81,9.71c-1.15,2.84-2.37,5.67-3.58,8.49l-.78,1.81,15.15.12a11.07,11.07,0,0,1,4.95,1.05,7.72,7.72,0,0,1,4.32,8.15,3.13,3.13,0,0,0-.15.81h0a1.68,1.68,0,0,0,.38.34,7,7,0,0,1,2.81,4.88,8.45,8.45,0,0,1-1.41,5.78,7.79,7.79,0,0,1,1.33,5.81,7.58,7.58,0,0,1-3.16,5.22,13.28,13.28,0,0,1,.19,2.83c-.18,2.53-1.58,4.67-4.15,6.32a9.72,9.72,0,0,1-5.39,1.52H968.36Zm-7-58.31s-.12.13-.43.55l-16.64,22.91a8.26,8.26,0,0,0-1.79,4.87q0,7.44,0,14.89a6.86,6.86,0,0,0,.19,1.56,8.39,8.39,0,0,0,8.33,6.59c3.22,0,6.43,0,9.64,0h18.18a7.31,7.31,0,0,0,.93,0,2.23,2.23,0,0,0,1.78-.91,2.07,2.07,0,0,0,.12-1.85l-.35-.7a3.57,3.57,0,0,1,1.53-4.88,12.53,12.53,0,0,0,1.19-.69c.62-.43.75-.74.79-1,.1-.5.17-.86-.85-1.44a3.4,3.4,0,0,1-1.83-4.05,4.53,4.53,0,0,1,1.47-2.07c1.16-1,1.33-1.49,1.22-2.15-.05-.34-.18-.67-1.16-1.14a3.54,3.54,0,0,1-2.12-4c.11-.77.22-1.54.3-2.31.12-1-.16-1.4-1.23-1.55a6.45,6.45,0,0,0-1-.09l-4.46,0c-5.2-.05-10.39-.11-15.58-.07h0a3.7,3.7,0,0,1-3.49-5.4c1.55-3.45,3-6.93,4.52-10.41l1.66-3.88a2.39,2.39,0,0,0,0-1.89C962,114.14,961.66,114,961.33,113.95Zm25.92,35.69,1.11.32-.82-.68Z" transform="translate(-172.78 -93.33)"/><path class="cls-3" d="M975.6,160c0-.4.21-.72.47-.72h7a1.83,1.83,0,0,1,.7-.64,14.28,14.28,0,0,0,1.39-.8,3.51,3.51,0,0,0,1.59-2.18c.31-1.56-.27-2.65-1.82-3.52a2.05,2.05,0,0,1-.83-.78H971.5c-.26,0-.47-.32-.47-.72s.21-.72.47-.72h12.7a3,3,0,0,1,.61-.68c1.27-1,2.21-2.2,1.92-4a3.28,3.28,0,0,0-1.88-2.41H971.5c-.26,0-.47-.32-.47-.72s.21-.72.47-.72h11.95a2.67,2.67,0,0,1,0-.73c.11-.79.23-1.59.31-2.39a3.05,3.05,0,0,0-2.88-3.69,8.73,8.73,0,0,0-1.23-.11c-6.7-.05-13.39-.15-20.09-.11a1.76,1.76,0,0,1-1.73-2.65C960,127,962,122.23,964,117.46a4.36,4.36,0,0,0,0-3.34,3.05,3.05,0,0,0-2.41-2.09c-1.09-.19-1.75.54-2.33,1.33Q951,124.8,942.68,136.26a10.2,10.2,0,0,0-2.16,6q0,7.45,0,14.9a8.76,8.76,0,0,0,.24,2A10.38,10.38,0,0,0,951,167.26c4.65,0,9.3,0,14,0H978.8c.37,0,.73,0,1.09,0a3.89,3.89,0,0,0,3.57-5.36A7.37,7.37,0,0,0,983,161a2,2,0,0,1-.08-.2h-6.87C975.81,160.77,975.6,160.45,975.6,160Z" transform="translate(-172.78 -93.33)"/><path class="cls-3" d="M971,142.17c0,.4.21.72.47.72h13.36l-.35-.18a1.6,1.6,0,0,1-1.06-1.26H971.5C971.24,141.45,971,141.77,971,142.17Z" transform="translate(-172.78 -93.33)"/><path class="cls-3" d="M971,150.68c0,.4.21.72.47.72h12.56a1.27,1.27,0,0,1-.08-1,1.82,1.82,0,0,1,.22-.44H971.5C971.24,150,971,150.28,971,150.68Z" transform="translate(-172.78 -93.33)"/><path class="cls-3" d="M983,159.32h-7c-.26,0-.47.32-.47.72s.21.72.47.72h6.87A1.57,1.57,0,0,1,983,159.32Z" transform="translate(-172.78 -93.33)"/><path class="cls-2" d="M971.5,144.85h20.33l-6.45-3.65-.23-1.69H971.5a2.69,2.69,0,0,0,0,5.35Z" transform="translate(-172.78 -93.33)"/><path class="cls-2" d="M971.5,148a2.69,2.69,0,0,0,0,5.35h15.84L986,150.82l1.81-2.81Z" transform="translate(-172.78 -93.33)"/><path class="cls-2" d="M976.07,157.37a2.68,2.68,0,0,0,0,5.34h6.87l2.73-.07-.87-2.46,1.78-2.81Z" transform="translate(-172.78 -93.33)"/><path class="cls-3" d="M929.95,169.34a10.13,10.13,0,0,1-10.12-10.12V142.14a10.12,10.12,0,1,1,20.23,0v17.08A10.13,10.13,0,0,1,929.95,169.34Zm0-34a6.78,6.78,0,0,0-6.77,6.77v17.08a6.77,6.77,0,1,0,13.55,0V142.14A6.78,6.78,0,0,0,929.95,135.37Z" transform="translate(-172.78 -93.33)"/><path class="cls-2" d="M929.95,171.29a12.08,12.08,0,0,1-12.07-12.07V142.14a12.06,12.06,0,1,1,24.13,0v17.08A12.08,12.08,0,0,1,929.95,171.29Zm0-34a4.83,4.83,0,0,0-4.82,4.82v17.08a4.82,4.82,0,1,0,9.64,0V142.14A4.83,4.83,0,0,0,929.95,137.31Z" transform="translate(-172.78 -93.33)"/><text class="cls-16" transform="translate(51.55 279.13)">unlimi<tspan class="cls-17" x="158.58" y="0">t</tspan><tspan x="178.97" y="0">ed </tspan><tspan class="cls-7" x="257.75" y="0">talk</tspan><tspan x="353.59" y="0" xml:space="preserve"> and </tspan><tspan class="cls-18" x="480.77" y="0">t</tspan><tspan class="cls-7" x="501.16" y="0">ext</tspan></text><text class="cls-19" transform="translate(723.59 314.59)">$25</text><text class="cls-20" transform="translate(795.99 187.9)">only</text></svg>