<?xml version="1.0" encoding="utf-8"?>
<!-- Generator: Adobe Illustrator 18.0.0, SVG Export Plug-In . SVG Version: 6.00 Build 0)  -->
<!DOCTYPE svg PUBLIC "-//W3C//DTD SVG 1.1//EN" "http://www.w3.org/Graphics/SVG/1.1/DTD/svg11.dtd">
<svg version="1.1" id="Layer_1" xmlns="http://www.w3.org/2000/svg" xmlns:xlink="http://www.w3.org/1999/xlink" x="0px" y="0px"
	 viewBox="124.9 147.7 772.9 467.8" enable-background="new 124.9 147.7 772.9 467.8" xml:space="preserve">
<path fill="#F69B1F" d="M135.2,147.7v444.4c0,10.6,12.7,23.3,23.8,23.3H820l77.8-77.4V147.7H135.2z"/>
<path fill="#EA7225" d="M124.9,147.7v434.2c0,10.6,8.6,19.3,19.3,19.3h668.5l70.9-70.5v-383H124.9z"/>
<g>
	<g>
		<g>
			<g>
				<path fill="#FFFFFF" d="M588.2,389.3c-17.2,0-27.4-11.5-27.4-27.4v-35.2h15.6v36c0,3.3,1.2,11.9,11.5,11.9
					c7,0,11.9-4.9,11.9-11.9v-36h15.6v35.6C616,377.4,605,389.3,588.2,389.3z"/>
				<path fill="#FFFFFF" d="M657.8,389.3c-18.4,0-31.5-14.3-31.5-31.9v-58.2h16v33.2c4.5-4.9,10.6-7,18-7
					c16.4,0,29.5,14.3,29.5,31.9C689.4,375,676.2,389.3,657.8,389.3z M657.8,339.8c-8.6,0-15.6,7.8-15.6,17.6
					c0,9.4,7,17.2,15.6,17.2s15.6-7.4,15.6-17.2C673.4,347.1,666.4,339.8,657.8,339.8z"/>
				<path fill="#FFFFFF" d="M786.4,389.3c-18.4,0-31.9-14.3-31.9-31.9c0-17.6,13.1-32.4,31.9-32.4c14.7,0,26.2,8.2,29.5,22.1h-16.8
					c-2-4.1-7-7.8-12.7-7.8c-8.6,0-15.6,8.2-15.6,18c0,9.8,7,17.6,15.6,17.6c5.7,0,11.1-3.7,12.7-7.8h16.8
					C812.2,381.1,801.2,389.3,786.4,389.3z"/>
				<path fill="#FFFFFF" d="M528,355.7h-15.6v32.4h-15.2v-61.4c0-16,12.7-29.1,29.5-29.1c16.8,0,29.9,13.1,29.9,29.1
					C556.2,343.4,542.7,355.7,528,355.7z M526.7,311.9c-7.8,0-14.3,7-14.3,15.2v15.2h14.3c8.2,0,14.7-7,14.7-15.2
					C541.1,318.5,534.5,311.9,526.7,311.9z"/>
				<rect x="698.4" y="299.2" fill="#FFFFFF" width="16" height="88.9"/>
				<circle fill="#FFFFFF" cx="736.9" cy="309.9" r="11.1"/>
				<path fill="#FFFFFF" d="M747.5,335.3c0-5.7-4.9-10.2-10.6-10.2l0,0l0,0c-5.7,0-10.6,4.5-10.6,10.2c0,9.4,2,26.6,3.7,38.9
					l1.2,13.9h10.6l1.2-13.9C745.5,361.5,747.5,344.3,747.5,335.3z"/>
			</g>
		</g>
	</g>
	<g>
		<g>
			<g>
				<path fill="#FFFFFF" d="M498.1,406.5h6.6l20.9,31.5l20.9-31.5h6.6v57.8h-6.6v-46.7l-20.9,30.7h-0.4l-20.9-30.7v46.7h-6.6v-57.8
					H498.1z"/>
				<path fill="#FFFFFF" d="M566.9,435.6L566.9,435.6c0-16,11.9-29.9,29.5-29.9c17.6,0,29.5,13.9,29.5,29.5l0,0
					c0,16-11.9,29.9-29.5,29.9C578.8,465.1,566.9,451.6,566.9,435.6z M618.9,435.6L618.9,435.6c0-13.1-9.4-23.8-22.5-23.8
					c-13.1,0-22.5,10.6-22.5,23.8l0,0c0,13.1,9.4,23.8,22.5,23.8C609.5,459,618.9,448.7,618.9,435.6z"/>
				<path fill="#FFFFFF" d="M639.4,406.5H664c6.6,0,11.9,2,15.2,4.9c2.5,2.5,3.7,5.3,3.7,9l0,0c0,7.4-4.5,11.5-9,13.5
					c7,2,12.3,6.1,12.3,13.9l0,0c0,9.8-8.2,15.6-20.9,15.6h-25.8L639.4,406.5L639.4,406.5z M663.1,432.3c7.8,0,13.1-3.7,13.1-10.2
					l0,0c0-5.7-4.5-9.4-12.7-9.4h-17.6v19.7H663.1z M665.2,458.1c8.6,0,14.3-3.7,14.3-10.2l0,0c0-6.1-5.3-9.8-15.2-9.8h-18v20.5
					h18.8V458.1z"/>
				<path fill="#FFFFFF" d="M699.6,406.5h6.6v57.8h-6.6V406.5z"/>
				<path fill="#FFFFFF" d="M722.9,406.5h6.6v51.6h32.4v6.1h-38.9V406.5z"/>
			</g>
			<path fill="#FFFFFF" d="M773.7,406.5h41.8v5.7h-35.2v19.7h31.5v6.1h-31.5v20.1h35.6v5.7h-42.2L773.7,406.5L773.7,406.5z"/>
		</g>
		<g>
			<path fill="#FFFFFF" d="M822.5,408.2h-2.9v-1.6h7.4v1.6h-2.9v16.4h-1.6L822.5,408.2L822.5,408.2z"/>
			<path fill="#FFFFFF" d="M828.6,406.5h2l2.9,9l2.9-9h2v18h-1.6v-14.3l-3.3,9.4l0,0l-3.3-9.4v14.3h-1.6V406.5z"/>
		</g>
	</g>
</g>
<g>
	<g>
		<path fill="#F69B1F" d="M457.5,440.5c0,37.7-30.7,68.4-68.4,68.4H266.2c-37.7,0-68.4-30.7-68.4-68.4V318.5
			c0-37.7,30.7-68.4,68.4-68.4h122.9c37.7,0,68.4,30.7,68.4,68.4V440.5z"/>
	</g>
	<g>
		<circle fill="#FFFFFF" cx="270.7" cy="334" r="17.2"/>
		<circle fill="#FFFFFF" cx="384.2" cy="334" r="17.2"/>
		<path fill="#FFFFFF" d="M389.1,245.1H266.2c-40.6,0-73.3,32.8-73.3,73.3v121.7c0,40.6,32.8,73.3,73.3,73.3h122.9
			c40.6,0,73.3-32.8,73.3-73.3V318.5C462.4,278.3,429.3,245.1,389.1,245.1z M265.8,255h49.6v40.6c-5.3,3.7-8.6,9.8-8.6,16.4
			c0,11.1,9,20.5,20.5,20.5c11.1,0,20.5-9,20.5-20.5c0-11.1-9-20.5-20.5-20.5c-1.6,0-3.3,0.4-4.9,0.8V255h66.8
			c34.8,0,63.5,28.7,63.5,63.5V402h-53.2c1.2-11.1,2-21.3,2-28.7c0-1.2,0-2-0.4-3.3c-1.6-7.4-8.6-12.7-16.4-12.7l0,0l0,0
			c-8.2,0-14.7,5.3-16.4,12.7c-0.4,0.8-0.4,2-0.4,3.3c0,14.7,3.7,42.6,6.1,62.3h-34c3.3-22.9,7.8-58.2,7.8-77c0-1.2,0-2.5-0.4-3.7
			c-1.6-8.6-9.8-15.2-19.3-15.2l0,0l0,0c-9.4,0-17.6,6.6-19.3,15.2c0,0.8,0,1.6-0.4,2.5h-36.9l0,0l0,0l0,0
			c-8.2,0-14.7,5.3-16.4,12.7c-0.4,0.8-0.4,2-0.4,3.3c0,1.6,0,3.3,0,4.9h-52.4v-59.8C202.3,283.6,231,255,265.8,255z M202.3,440.5
			v-55.3H254c2,27.4,8.6,70.5,9,71.7l0,0h15.2l0,0c0.4-1.2,9.4-59.4,9.4-83.6c0-1.2,0-2-0.4-3.3c-0.4-2-1.6-4.1-2.9-6.1h22.9
			c1.2,30.7,10.6,91.3,11.1,93l0,0h13.5v46.7h-65.5C231,504,202.3,475.3,202.3,440.5z M389.1,504h-50.8v-61.4h36
			c1.2,8.6,2,14.3,2,14.7l0,0h15.2l0,0c0-0.8,4.1-24.6,6.6-48.3h54.1v31.5C452.6,475.3,423.9,504,389.1,504z"/>
	</g>
</g>
</svg>
