<svg id="air-canada-logo" xmlns="http://www.w3.org/2000/svg" viewBox="0 0 228.671 29.802"><defs><style>.cls-2{fill:#2e2a25}</style></defs><path id="Path_215" data-name="Path 215" d="M15.761 21.205c0-1 .43-1.146 1.433-.573 1.719 1 3.439 1.863 3.439 1.863 0-.573.573-1 1.576-.716a17.144 17.144 0 0 0 2.006.43s-.573-1.289-.86-1.863c-.43-1 0-1.576.43-1.719 0 0-.573-.43-1-.716-.86-.573-.716-1.289.143-1.576 1.146-.573 2.722-1.146 2.722-1.146a1.425 1.425 0 0 1-.43-2.006c.573-.86 1.576-2.149 1.576-2.149h-2.725a1.3 1.3 0 0 1-1.29-1.434s-1.576 1.146-2.722 1.863c-1 .716-1.863 0-1.719-1.146.287-1.719.43-3.725.43-3.725a1.4 1.4 0 0 1-2.149-.43c-.716-1.433-1.433-3.152-1.433-3.152s-.716 1.719-1.433 3.152a1.369 1.369 0 0 1-2.006.573s.143 2.006.43 3.725a1.027 1.027 0 0 1-1.719 1C9.313 10.746 7.594 9.6 7.594 9.6A1.377 1.377 0 0 1 6.3 11.032H3.582s1 1.289 1.576 2.149a1.466 1.466 0 0 1-.43 2.006 24.618 24.618 0 0 0 2.722 1.147c.86.43 1.146 1 .143 1.576a7.165 7.165 0 0 1-1 .716c.573.143 1 .716.573 1.719-.287.573-.86 1.863-.86 1.863a17.309 17.309 0 0 1 2.006-.43 1.151 1.151 0 0 1 1.576.716s1.719-1 3.439-1.863c.86-.573 1.433-.287 1.433.573v2.436a9.064 9.064 0 0 1-.716 3.725A13.037 13.037 0 0 1 2.149 14.614 12.969 12.969 0 0 1 15.331 1.863a12.969 12.969 0 0 1 13.181 12.751 13.007 13.007 0 0 1-11.749 12.752v1.719c7.737-.716 13.755-6.877 13.755-14.471C30.518 6.447 23.641 0 15.187 0 6.877 0 0 6.447 0 14.471a14.688 14.688 0 0 0 12.322 14.185A4.771 4.771 0 0 1 14.9 29.8c.716-1.433.86-4.3.86-5.874v-2.721z" fill="#f01428"/><path id="Path_216" data-name="Path 216" class="cls-2" d="M53.9 20.174V4.7h7.594c4.012 0 5.874 1.719 6.018 3.868a3.674 3.674 0 0 1-.86 2.722 7.912 7.912 0 0 1-2.292 1.719l5.731 7.307h-4.156l-5.158-6.591h-3.438v6.447zm3.439-8.453h1.576c4.155 0 5.015-.716 5.015-2.722s-1.863-2.292-4.585-2.292h-2.006z" transform="translate(23.327 2.034)"/><path id="Path_217" data-name="Path 217" class="cls-2" d="M30.2 20.174L36.934 4.7h4.155l6.734 15.474h-4.155l-1.863-4.155h-7.163l-1.863 4.155zm5.3-6.161h5.3l-2.72-6.161z" transform="translate(13.07 2.034)"/><path id="Rectangle_12" data-name="Rectangle 12" class="cls-2" transform="translate(65.621 6.734)" d="M0 0h3.582v15.474H0z"/><g id="Group_29" data-name="Group 29" transform="translate(103.017 6.304)"><path id="Path_218" data-name="Path 218" class="cls-2" d="M88.09 19.731a16.933 16.933 0 0 1-6.448 1 10.957 10.957 0 0 1-7.164-2.149 7.4 7.4 0 0 1-2.578-6.015 7.213 7.213 0 0 1 2.579-6.018C76.2 5.116 78.634 4.4 81.929 4.4a30.836 30.836 0 0 1 6.161.573v2.579a20.964 20.964 0 0 0-6.018-1 6.577 6.577 0 0 0-4.585 1.576 6.206 6.206 0 0 0-1.576 4.442 5.936 5.936 0 0 0 1.719 4.442 6.962 6.962 0 0 0 4.728 1.576 16.336 16.336 0 0 0 5.731-1.146v2.292z" transform="translate(-71.9 -4.4)"/></g><path id="Path_219" data-name="Path 219" class="cls-2" d="M86.3 20.174L93.034 4.7h4.155l6.734 15.474h-4.155l-1.863-4.155h-7.163l-1.863 4.155zm5.445-6.161h5.3l-2.578-6.161z" transform="translate(37.349 2.034)"/><path id="Path_220" data-name="Path 220" class="cls-2" d="M117.6 20.174L124.334 4.7h4.155l6.734 15.474h-4.155l-1.863-4.155h-7.164l-1.863 4.155zm5.3-6.161h5.3l-2.72-6.161z" transform="translate(50.895 2.034)"/><path id="Path_221" data-name="Path 221" class="cls-2" d="M155.18 7.852l2.722 6.161h-5.3zM154.034 4.7L147.3 20.174h2.579l1.863-4.155h7.164l1.863 4.155h4.155L158.189 4.7z" transform="translate(63.748 2.034)"/><path id="Path_222" data-name="Path 222" class="cls-2" d="M102.2 20.174V4.7h4.155l9.745 11.032V4.7h3.009v15.474h-3.868L105.209 8.568v11.606z" transform="translate(44.23 2.034)"/><g id="Group_30" data-name="Group 30" transform="translate(191.132 6.734)"><path id="Path_223" data-name="Path 223" class="cls-2" d="M133.4 20.174V4.7h7.45a9.569 9.569 0 0 1 6.161 1.863 7.017 7.017 0 0 1 2.149 5.445c0 2.579-.716 4.585-2.292 5.874a8.852 8.852 0 0 1-6.3 2.149H133.4zm3.582-2.149h2.718a5.788 5.788 0 0 0 4.3-1.433 5.577 5.577 0 0 0 1.433-4.3 6.386 6.386 0 0 0-1.146-3.725 4.371 4.371 0 0 0-1.863-1.433 8.714 8.714 0 0 0-3.152-.43h-2.149v11.321z" transform="translate(-133.4 -4.7)"/></g></svg>