<?xml version="1.0" encoding="utf-8"?>
<!-- Generator: Adobe Illustrator 19.1.0, SVG Export Plug-In . SVG Version: 6.00 Build 0)  -->
<svg version="1.1" id="Layer_1" xmlns="http://www.w3.org/2000/svg" xmlns:xlink="http://www.w3.org/1999/xlink" x="0px" y="0px"
	 viewBox="-63 51 193 89" style="enable-background:new -63 51 193 89;" xml:space="preserve">
<style type="text/css">
	.st0{fill:#FFFFFF;}
</style>
<g>
	<path class="st0" d="M76.8,64.7h2.3l3,9.5h0l3.1-9.5h2.3v11.9h-1.4V66.4h0l-3.4,10.3h-1.1l-3.2-10.3h0v10.3h-1.4V64.7z"/>
	<path class="st0" d="M95.4,74.8c0,0.6,0.1,1.3,0.1,1.9h-1.4L94,75.3h0c-0.5,1-1.2,1.4-2.2,1.4c-1.5,0-2.5-0.9-2.5-2.8v-6h1.4v5.6
		c0,1.4,0.5,2,1.4,2c1.1,0,1.8-0.8,1.8-2.4v-5.2h1.4V74.8z"/>
	<path class="st0" d="M98.1,63.8h1.4v12.8h-1.4V63.8z"/>
	<path class="st0" d="M106,76.5c-0.3,0.1-0.8,0.2-1.2,0.2c-1.3,0-2-0.5-2-2.1v-5.6h-1.4v-1.2h1.4v-1.8l1.4-0.4v2.2h1.8v1.2h-1.8v5.1
		c0,1,0.3,1.4,0.9,1.4c0.4,0,0.6-0.1,0.9-0.2V76.5z"/>
	<path class="st0" d="M107.7,64.3v1.7h1.6v-1.7H107.7z M107.8,76.6h1.4v-8.7h-1.4V76.6z"/>
	<path class="st0" d="M111.4,69.5c0-0.5-0.1-1.1-0.1-1.6h1.4l0.1,1.3h0c0.4-0.7,1-1.4,2.3-1.4c1.8,0,3,1.5,3,4.5c0,3-1.2,4.5-3,4.5
		c-1,0-1.6-0.4-2.2-1.3h0v4.9h-1.4V69.5z M114.7,75.6c1.3,0,1.9-1.1,1.9-3.3c0-2.2-0.6-3.3-1.9-3.3c-1.3,0-1.9,1.1-1.9,3.3
		C112.8,74.5,113.4,75.6,114.7,75.6z"/>
	<path class="st0" d="M120.3,63.8h1.4v12.8h-1.4V63.8z"/>
	<path class="st0" d="M125.4,72.7c0,2,0.8,3,2.4,3c0.7,0,1.5-0.4,2-0.7l0.1,1.3c-0.7,0.3-1.6,0.5-2.4,0.5c-2.3,0-3.5-1.7-3.5-4.5
		c0-2.7,1.2-4.5,3.4-4.5c2,0,3.1,1.6,3.1,4.1v0.8H125.4z M128.9,71.6c0-1.8-0.6-2.7-1.7-2.7c-0.9,0-1.7,0.7-1.8,2.7H128.9z"/>
	<path class="st0" d="M78.7,83.4c-0.6-0.3-1.3-0.5-2-0.5c-1.1,0-1.9,0.8-1.9,1.8c0,0.8,0.3,1.2,2,2.2c1.8,1.1,2.5,2.1,2.5,3.5
		c0,1.9-1.2,3.4-3.5,3.4c-1,0-1.9-0.2-2.5-0.5v-1.6c0.7,0.4,1.6,0.8,2.3,0.8c1.3,0,2.1-0.9,2.1-1.9c0-0.9-0.2-1.5-1.8-2.4
		c-2.2-1.3-2.6-2-2.6-3.6c0-2,1.5-3,3.3-3c0.8,0,1.6,0.2,2.2,0.4V83.4z"/>
	<path class="st0" d="M86.7,86.4c-0.5-0.3-1-0.4-1.7-0.4c-1.4,0-2.4,1-2.4,3.3c0,2,1,3.2,2.4,3.2c0.7,0,1.3-0.2,1.8-0.5l0.1,1.3
		c-0.4,0.2-1.2,0.4-1.8,0.4c-2.6,0-3.9-1.9-3.9-4.4c0-2.8,1.5-4.6,3.9-4.6c0.6,0,1.3,0.1,1.7,0.3L86.7,86.4z"/>
	<path class="st0" d="M88.4,80.8h1.4v12.8h-1.4V80.8z"/>
	<path class="st0" d="M93.6,89.7c0,2,0.8,3,2.4,3c0.7,0,1.5-0.4,2-0.7l0.1,1.3c-0.7,0.3-1.6,0.5-2.4,0.5c-2.3,0-3.5-1.7-3.5-4.5
		c0-2.7,1.2-4.5,3.4-4.5c2,0,3.1,1.6,3.1,4.1v0.8H93.6z M97.1,88.6c0-1.8-0.6-2.7-1.7-2.7c-0.9,0-1.7,0.7-1.8,2.7H97.1z"/>
	<path class="st0" d="M100.5,86.8c0-0.6-0.1-1.3-0.1-1.9h1.4l0.1,1.4h0c0.5-1.1,1.2-1.5,2.5-1.5v1.4c-0.2,0-0.4-0.1-0.5-0.1
		c-1.1,0-1.9,1-1.9,2.9v4.6h-1.4V86.8z"/>
	<path class="st0" d="M109.1,84.8c2.3,0,3.5,1.7,3.5,4.5c0,2.7-1.2,4.5-3.5,4.5c-2.3,0-3.5-1.7-3.5-4.5
		C105.6,86.5,106.8,84.8,109.1,84.8z M109.1,92.6c1.4,0,2-1.1,2-3.3c0-2.2-0.6-3.3-2-3.3c-1.4,0-2,1.1-2,3.3
		C107.1,91.4,107.7,92.6,109.1,92.6z"/>
	<path class="st0" d="M114.3,91.9c0.6,0.4,1.3,0.7,2,0.7c1.1,0,1.7-0.6,1.7-1.2c0-0.6-0.3-1-1.1-1.4l-1-0.4
		c-1.2-0.6-1.7-1.1-1.7-2.2c0-1.4,1.1-2.5,2.8-2.5c0.7,0,1.3,0.1,1.8,0.3l-0.1,1.2c-0.4-0.2-1.1-0.4-1.7-0.4c-0.9,0-1.4,0.5-1.4,1.2
		c0,0.7,0.5,1.1,1.5,1.5l0.5,0.2c1.1,0.4,1.7,1.1,1.7,2.2c0,1.5-0.8,2.7-2.8,2.7c-0.9,0-1.7-0.2-2.4-0.5L114.3,91.9z"/>
	<path class="st0" d="M123,81.3V83h-1.6v-1.7H123z M121.5,84.9h1.4v8.7h-1.4V84.9z"/>
	<path class="st0" d="M125.2,91.9c0.6,0.4,1.3,0.7,2.1,0.7c1.1,0,1.7-0.6,1.7-1.2c0-0.6-0.3-1-1.1-1.4l-1-0.4
		c-1.2-0.6-1.7-1.1-1.7-2.2c0-1.4,1.1-2.5,2.8-2.5c0.7,0,1.3,0.1,1.8,0.3l-0.1,1.2c-0.4-0.2-1.1-0.4-1.7-0.4c-0.9,0-1.4,0.5-1.4,1.2
		c0,0.7,0.5,1.1,1.5,1.5l0.5,0.2c1.1,0.4,1.7,1.1,1.7,2.2c0,1.5-0.8,2.7-2.8,2.7c-0.9,0-1.7-0.2-2.4-0.5L125.2,91.9z"/>
	<path class="st0" d="M69.9,100.4c-0.6-0.3-1.3-0.5-2-0.5c-1.1,0-1.9,0.8-1.9,1.8c0,0.8,0.3,1.2,2,2.2c1.8,1.1,2.5,2.1,2.5,3.5
		c0,1.9-1.2,3.4-3.5,3.4c-1,0-1.9-0.2-2.5-0.5v-1.6c0.7,0.4,1.6,0.8,2.3,0.8c1.3,0,2.1-0.9,2.1-1.9c0-0.9-0.2-1.5-1.8-2.4
		c-2.2-1.3-2.6-2-2.6-3.6c0-2,1.5-3,3.3-3c0.8,0,1.6,0.2,2.2,0.4V100.4z"/>
	<path class="st0" d="M75.5,101.7c2.3,0,3.5,1.7,3.5,4.5s-1.2,4.5-3.5,4.5c-2.3,0-3.5-1.7-3.5-4.5S73.2,101.7,75.5,101.7z
		 M75.5,109.5c1.4,0,2-1.1,2-3.3c0-2.2-0.6-3.3-2-3.3c-1.4,0-2,1.1-2,3.3C73.5,108.4,74.1,109.5,75.5,109.5z"/>
	<path class="st0" d="M86.2,103.4c-0.5-0.3-1-0.4-1.7-0.4c-1.4,0-2.4,1-2.4,3.3c0,2,1,3.2,2.4,3.2c0.7,0,1.3-0.2,1.8-0.5l0.1,1.3
		c-0.4,0.2-1.2,0.4-1.8,0.4c-2.6,0-3.9-1.9-3.9-4.4c0-2.8,1.5-4.6,3.9-4.6c0.6,0,1.3,0.1,1.7,0.3L86.2,103.4z"/>
	<path class="st0" d="M89.4,98.3v1.7h-1.6v-1.7H89.4z M87.9,101.8h1.4v8.7h-1.4V101.8z"/>
	<path class="st0" d="M93.1,106.6c0,2,0.8,3,2.4,3c0.7,0,1.5-0.4,2-0.7l0.1,1.3c-0.7,0.3-1.6,0.5-2.4,0.5c-2.3,0-3.5-1.7-3.5-4.5
		s1.2-4.5,3.4-4.5c2,0,3.1,1.6,3.1,4.1v0.8H93.1z M96.6,105.5c0-1.8-0.6-2.7-1.7-2.7c-0.9,0-1.7,0.7-1.8,2.7H96.6z"/>
	<path class="st0" d="M103.9,110.4c-0.3,0.1-0.8,0.2-1.2,0.2c-1.3,0-2-0.5-2-2.1V103h-1.4v-1.2h1.4v-1.8l1.4-0.4v2.2h1.8v1.2h-1.8
		v5.1c0,1,0.3,1.4,0.9,1.4c0.4,0,0.6-0.1,0.9-0.2V110.4z"/>
	<path class="st0" d="M108.6,112.3c-0.4,1.5-1,2-2.1,2c-0.3,0-0.7,0-1-0.1l0.1-1.3c0.2,0.1,0.5,0.2,0.8,0.2c0.4,0,0.7-0.2,1-1.1
		l0.3-1.3l-2.8-8.8h1.5l1.9,7.1h0l1.8-7.1h1.4L108.6,112.3z"/>
	<path class="st0" d="M120.2,101.7c2.3,0,3.5,1.7,3.5,4.5s-1.2,4.5-3.5,4.5c-2.3,0-3.5-1.7-3.5-4.5S117.8,101.7,120.2,101.7z
		 M120.2,109.5c1.4,0,2-1.1,2-3.3c0-2.2-0.6-3.3-2-3.3c-1.4,0-2,1.1-2,3.3C118.2,108.4,118.8,109.5,120.2,109.5z"/>
	<path class="st0" d="M126.4,103H125v-1.2h1.4v-1.9c0-1.4,0.6-2.4,2.2-2.4c0.4,0,0.8,0.1,1.1,0.1v1.2c-0.2-0.1-0.5-0.2-0.8-0.2
		c-0.8,0-1,0.4-1,1.3v1.8h1.6v1.2h-1.6v7.5h-1.4V103z"/>
	<path class="st0" d="M88.1,127.3c-0.7,0.2-1.5,0.4-2.2,0.4c-3.8,0-5.4-2.9-5.4-6.1c0-3.7,2.2-6.1,5.3-6.1c0.9,0,1.7,0.2,2.3,0.4
		v1.5c-0.7-0.4-1.4-0.6-2.2-0.6c-1.9,0-3.7,1.6-3.7,4.5c0,3.1,1.2,5.1,3.8,5.1c0.8,0,1.5-0.2,2.1-0.6V127.3z"/>
	<path class="st0" d="M90.7,119.4c0.7-0.5,1.6-0.7,2.5-0.7c1.3,0,2,0.5,2.3,0.8c0.4,0.4,0.8,0.9,0.8,2.1v4.5c0,0.5,0,1,0.1,1.3H95
		l-0.1-1.2h0c-0.4,0.7-1.1,1.3-2.4,1.3c-1.4,0-2.5-0.8-2.5-2.5c0-1.7,1.1-2.9,4.1-2.9h0.8v-0.4c0-0.7-0.1-1-0.3-1.4
		c-0.3-0.4-0.9-0.5-1.5-0.5c-0.9,0-1.7,0.4-2.2,0.9L90.7,119.4z M94.9,123.2c-0.3,0-0.6,0-1,0c-1.7,0-2.5,0.8-2.5,1.8
		c0,0.9,0.5,1.5,1.5,1.5c1.2,0,2-1,2-2.2V123.2z"/>
	<path class="st0" d="M98.7,120.7c0-0.6-0.1-1.3-0.1-1.9h1.4l0.1,1.3h0c0.5-1,1.2-1.4,2.2-1.4c1.5,0,2.5,0.9,2.5,2.8v6h-1.4v-5.6
		c0-1.4-0.5-2-1.4-2c-1.1,0-1.8,0.8-1.8,2.4v5.2h-1.4V120.7z"/>
	<path class="st0" d="M107.7,119.4c0.7-0.5,1.6-0.7,2.5-0.7c1.3,0,2.1,0.5,2.3,0.8c0.4,0.4,0.8,0.9,0.8,2.1v4.5c0,0.5,0,1,0.1,1.3
		H112l-0.1-1.2h0c-0.4,0.7-1.1,1.3-2.4,1.3c-1.4,0-2.5-0.8-2.5-2.5c0-1.7,1.1-2.9,4.1-2.9h0.8v-0.4c0-0.7-0.1-1-0.3-1.4
		c-0.3-0.4-0.9-0.5-1.5-0.5c-0.9,0-1.7,0.4-2.2,0.9L107.7,119.4z M111.9,123.2c-0.3,0-0.6,0-1,0c-1.7,0-2.5,0.8-2.5,1.8
		c0,0.9,0.5,1.5,1.5,1.5c1.2,0,2-1,2-2.2V123.2z"/>
	<path class="st0" d="M121.7,125.9c0,0.5,0.1,1.1,0.1,1.6h-1.4l-0.1-1.3h0c-0.4,0.7-1,1.4-2.3,1.4c-1.8,0-3-1.5-3-4.5
		c0-3,1.2-4.5,3-4.5c1,0,1.6,0.4,2.2,1.3h0v-5.3h1.4V125.9z M118.3,119.8c-1.3,0-1.9,1.1-1.9,3.3c0,2.2,0.6,3.3,1.9,3.3
		c1.3,0,1.9-1.1,1.9-3.3C120.2,121,119.6,119.8,118.3,119.8z"/>
	<path class="st0" d="M124.4,119.4c0.7-0.5,1.6-0.7,2.5-0.7c1.3,0,2.1,0.5,2.3,0.8c0.4,0.4,0.8,0.9,0.8,2.1v4.5c0,0.5,0,1,0.1,1.3
		h-1.3l-0.1-1.2h0c-0.4,0.7-1.1,1.3-2.4,1.3c-1.4,0-2.5-0.8-2.5-2.5c0-1.7,1.1-2.9,4.1-2.9h0.8v-0.4c0-0.7-0.1-1-0.3-1.4
		c-0.3-0.4-0.9-0.5-1.5-0.5c-0.9,0-1.7,0.4-2.2,0.9L124.4,119.4z M128.5,123.2c-0.3,0-0.6,0-1,0c-1.7,0-2.5,0.8-2.5,1.8
		c0,0.9,0.5,1.5,1.5,1.5c1.2,0,2-1,2-2.2V123.2z"/>
</g>
<polygon class="st0" points="129.9,140 129.9,135.9 6.5,135.9 4.1,140 "/>
<polygon class="st0" points="-63,135.9 -63,140 -2.3,140 0.1,135.9 "/>
<polygon class="st0" points="-62.9,51.3 -62.9,55.4 46.4,55.4 48.7,51.3 "/>
<polygon class="st0" points="129.9,55.4 129.9,51.3 55.1,51.3 52.8,55.4 "/>
<g>
	<g>
		<path class="st0" d="M19.4,100C15,98.2,4.6,93.8,4.6,82.5c0-11.5,11.2-18,21.4-18c6.1,0,12.6,2.2,16.6,6.9
			c3.6,4.5,3.9,8.6,4.1,12.1H31.2c-0.3-2.1-0.9-6-5.7-6c-2.7,0-5.4,1.9-5.4,4.8c0,2.9,1,3.9,6.9,6.7l-6.6,11.4
			C19.7,100.1,19.4,100,19.4,100"/>
		<path class="st0" d="M3.7,108.5v-2h15.5c0,7.1,4.4,8.4,6.4,8.4c3.7,0,6-3.1,6-5.9c0-3-1.4-4.3-5.9-6.4l6.4-11.2
			c0.3,0.1,0.8,0.2,0.8,0.2c11.4,5.1,14.3,10.4,14.3,17.5c0,8.9-5.2,18.8-21.4,18.8C8.1,128,3.7,116.4,3.7,108.5"/>
	</g>
	<polyline class="st0" points="-62.9,127 -62.9,92 -48.9,104.3 -48.6,127 -62.9,127 	"/>
	<polyline class="st0" points="-15.9,127 -15.4,97.1 -15.6,96.9 -32.2,111.6 -62.9,84.7 -62.9,64.4 -32.3,91.2 -32.1,91.2 
		-1.5,64.4 -1.5,127 -15.9,127 	"/>
	<g>
		<path class="st0" d="M54.7,116.9c3.1,0,5.6,2.5,5.6,5.6c0,3.1-2.5,5.6-5.6,5.6c-3.1,0-5.6-2.5-5.6-5.6
			C49.1,119.4,51.6,116.9,54.7,116.9z M54.7,127.2c2.6,0,4.5-2.1,4.5-4.7c0-2.7-1.9-4.7-4.5-4.7c-2.6,0-4.5,2.1-4.5,4.7
			C50.1,125.2,52.1,127.2,54.7,127.2z M52.5,119.2H55c1.5,0,2.2,0.6,2.2,1.8c0,1-0.7,1.8-1.7,1.8l1.8,2.9h-1.1l-1.8-2.9h-0.9v2.9
			h-1.1V119.2z M53.6,122h1.3c0.8,0,1.3-0.2,1.3-1c0-0.7-0.7-1-1.3-1h-1.3V122z"/>
	</g>
</g>
</svg>
