<svg xmlns="http://www.w3.org/2000/svg" viewBox="0 0 200 78" enable-background="new 0 0 200 78"><path fill="#7C6755" d="M21 68v.02c0 .008-.393.029-.492.063-.176.066-.261.183-.261.356l.034.223.096.281 1.701 4.419 1.242-3.293-.55-1.441c-.104-.26-.132-.434-.339-.523-.123-.053-.431-.082-.431-.085v-.02h3v.02c0 .003-.55.024-.66.063-.177.066-.29.199-.29.402l.01.18.108.319 1.696 4.407 1.468-3.988c.084-.226.141-.426.172-.602l.029-.241c0-.218.043-.37-.163-.454-.115-.049-.37-.078-.37-.086v-.02h2v.02l-.464.144c-.199.11-.339.303-.438.574l-1.225 3.504-.473 1.495-.742 2.263h-.182l-.513-1.487-1.361-3.548-1.805 5.035h-.177l-.876-2.577-.992-2.826c-.409-1.137-.763-1.868-.925-2.126-.162-.258-.827-.433-.827-.451v-.02h3zM29.85 70.984c.484-.526 1.106-.79 1.869-.79.756 0 1.384.249 1.882.747.497.497.746 1.158.746 1.985 0 .761-.241 1.424-.723 1.985-.483.564-1.106.845-1.872.845-.733 0-1.355-.27-1.864-.81-.509-.539-.764-1.216-.764-2.031 0-.761.241-1.405.726-1.931m.917-.147c-.384.348-.575.949-.575 1.801 0 .681.154 1.317.461 1.905.309.59.738.885 1.287.885.429 0 .759-.197.992-.591.232-.394.347-.911.347-1.549 0-.663-.147-1.287-.442-1.872-.296-.585-.723-.877-1.283-.877-.303 0-.564.1-.787.298"/><path fill="#7C6755" d="M35 75.429c1-.027.583-.076.684-.15.153-.112.316-.333.316-.666v-2.966c0-.284.115-.469.042-.558-.075-.087-.122-.131-.295-.131l.107.012.146.04v-.202l.164-.138.611-.269.477-.196-.111.029-.141.11v.775c1-.344.82-.582 1.096-.714.275-.133.615-.199.907-.199.393 0 .736.134.97.402.122.145.237.342.318.591.283-.287.536-.5.747-.637.364-.238.739-.356 1.117-.356.616 0 1.243.251 1.449.752.12.283.396.73.396 1.343v2.382c0 .27-.356.455-.235.553l.235.193v.571h-2v-.584c0-.031.644-.098.749-.2.105-.104.251-.313.251-.631v-2.474c0-.371-.226-.645-.306-.82-.142-.313-.511-.471-.925-.471-.249 0-.749.083-.993.246-.142.097.224.249-.776.46v2.938c0 .31.127.544.236.706.108.161.764.246.764.259v.571h-2v-.571l.272-.264c.099-.131-.272-.451-.272-.965v-1.604l.125-1.213c-.127-.376-.274-.562-.684-.562-.234 0-.541.064-.767.193-.226.127-.674.294-.674.5v3.14c0 .29.143.49.244.602.101.112.756.17.756.173v.571h-3v-.571zM49.128 70.584c.405.373.608 1.416.608 1.416h-3.644c.038 1 .24 1.701.604 2.106.362.405.793.692 1.291.692.4 0 .74-.061 1.015-.272.277-.209.53-.488.764-.873l.2.081c-.156.486-.449.942-.88 1.354-.431.414-.958.625-1.581.625-.72 0-1.274-.271-1.667-.815-.393-.542-.588-1.168-.588-1.876 0-.769.228-1.431.683-1.991.455-.559 1.048-.924 1.779-.924.538.002 1.011.105 1.416.477m-2.748.622c-.123.206-.211.794-.265.794h2.422c-.043 0-.115-.681-.219-.869-.186-.336-.501-.504-.941-.504-.435 0-.768.193-.997.579"/><path fill="#7C6755" d="M51 75.417c0-.035.594-.102.704-.203.108-.101.296-.329.296-.68v-2.915c0-.243-.137-.414-.183-.513-.073-.144-.28-.215-.505-.215l-.142.005-.17.016v-.202c0-.046.535-.163 1.12-.356l.543-.177.189.029.148.08v.843c0-.329.488-.555.687-.677.298-.186.537-.281.858-.281.26 0 .56.075.773.225.413.29.682.808.682 1.554v2.682c0 .275.196.474.306.596.11.122-.306.186.694.189v.583h-3v-.583c0-.038.598-.115.709-.232.11-.118.291-.37.291-.761v-2.451c0-.329-.149-.6-.271-.817-.121-.215-.389-.324-.716-.324-.225 0-.366.076-.599.229-.129.088-.414.233-.414.437v3.213c0 .275.18.46.302.553.122.095-.302.145.698.153v.583h-3v-.583zM60 76v-.64c1-.035.702-.148.852-.342.151-.193.497-.553.864-1.418l2.534-5.6h.235l2.928 6.495c.196.442.118.629.234.735.116.104.353.092.353.13v.64h-3v-.64c1-.031.805-.067.904-.112.099-.043.268-.151.268-.322 0-.058.042-.159.003-.303-.038-.145-.062-.314-.131-.475l-.44-1.148h-3.097c-.306 1-.487 1.255-.547 1.425-.06.17-.089.313-.089.412 0 .197.243.339.403.416.1.044-.274.084.726.107v.64h-3zm5.405-3l-1.346-3.236-1.353 3.236h2.699zM70.333 73.035c-.193-.295-.289-.625-.289-.993 0-.448.177-.872.533-1.274.356-.402.859-.602 1.51-.602.278 0 .587.066.923.199.338.131.662.197.97.197.081 0 .202.225.365.22.162-.007.28.218.353.218h.302-1.226c.069 0 .122.306.16.423.064.222.098.435.098.633 0 .437-.18.838-.542 1.204-.362.365-.848.549-1.461.549-.095 0-.267-.017-.516-.052-.112 0-.258.095-.442.281-.183.188-.275.341-.275.46 0 .122.134.212.402.269.176.038.371.058.587.058.984 0 1.653.055 2.005.167.579.18.868.565.868 1.158 0 .605-.338 1.086-1.011 1.447-.677.359-1.358.539-2.046.539-.628 0-1.126-.127-1.493-.382-.367-.255-.552-.521-.552-.801 0-.138.049-.272.147-.405.096-.131.289-.327.575-.588l.377-.338.069-.069c-.176-.069-.306-.136-.394-.202-.151-.118-.228-.255-.228-.408 0-.141.066-.296.199-.466.131-.171.414-.448.846-.83-.35-.114-.62-.317-.814-.612m.609 4.269c.361.122.775.183 1.242.183.634 0 1.151-.108 1.549-.33.397-.22.596-.49.596-.811 0-.257-.16-.428-.483-.51-.199-.05-.578-.078-1.132-.087l-.449-.014-.431-.02-.408-.046-.42-.069c-.046 0-.157.121-.335.361-.181.245-.271.472-.271.679 0 .321.18.542.542.664m1.822-3.942c.229-.183.344-.503.344-.958 0-.364-.092-.773-.278-1.228-.185-.455-.495-.683-.926-.683-.376 0-.634.179-.775.533-.073.188-.11.42-.11.695 0 .468.113.886.339 1.256.225.371.518.556.877.556.211 0 .387-.056.529-.171"/><path fill="#7C6755" d="M76.934 73.046c.351-.229 1.066-.541 2.066-.935v-.487c0-.39.001-.662-.075-.814-.131-.257-.381-.385-.79-.385-.194 0-.371.049-.546.15-.176.102-.259.244-.259.425l.032.232.03.209c0 .214-.071.364-.212.448-.081.049-.177.075-.287.075-.173 0-.304-.058-.396-.17-.092-.113-.137-.238-.137-.376 0-.267.165-.549.497-.84.33-.293.814-.44 1.455-.44.741 0 1.229.241 1.494.723.138.263.194.648.194 1.152v2.303c0 .222.03.374.06.458.05.15.161.225.318.225.089 0 .213-.015.271-.041.057-.026.35-.092.35-.196v.299c0 .15-.302.272-.444.367-.214.147-.457.219-.678.219-.26 0-.461-.084-.577-.252-.116-.17-.186-.37-.199-.604-.29.252-.542.44-.749.562-.348.206-.681.31-.995.31-.328 0-.615-.115-.855-.347-.241-.232-.382-.526-.382-.882.001-.554.258-1.017.814-1.388m2.066-.648c0 .145-.764.306-1.05.483-.552.341-.807.726-.807 1.158 0 .348.124.605.354.77.148.105.32.16.505.16.252 0 .457-.072.689-.214.231-.141.31-.321.31-.538v-1.819zM82 75.417c0-.038.699-.108.808-.209.107-.101.192-.376.192-.824v-2.738c0-.248-.179-.42-.212-.516-.058-.156-.259-.235-.442-.235l-.062.012c-.039.007-.284.037-.284.091v-.177l.144-.081c.669-.219 1.086-.382 1.349-.494.107-.046.32-.069.351-.069l.156.086v4.121c0 .435.116.709.223.821.104.111-.223.181.777.212v.583h-3v-.583zm.657-7.674c.115-.118.255-.177.425-.177.163 0 .304.058.422.174.116.116.174.258.174.426 0 .163-.058.303-.174.419-.118.116-.258.174-.422.174-.17 0-.31-.058-.425-.174-.116-.116-.173-.255-.173-.419s.057-.305.173-.423"/><path fill="#7C6755" d="M86 75.417c0-.035.094-.102.204-.203.108-.101-.204-.329-.204-.68v-2.915l.088-.513c-.073-.144-.144-.215-.369-.215l.154.005.127.016v-.202c0-.046.307-.163.891-.356l.43-.177-.14.029-.181.08v.843c1-.329.76-.555.958-.677.298-.186.673-.281.994-.281.261 0 .356.075.57.225.413.29.478.808.478 1.554v2.682c0 .275.196.474.306.596.11.122.694.186.694.189v.583h-2v-.583c0-.038.098-.115.209-.232.112-.118-.209-.37-.209-.761v-2.451c0-.329.122-.6 0-.817-.121-.215-.254-.324-.581-.324-.225 0-.569.076-.801.229-.129.088.382.233-.618.437v3.213c0 .275.18.46.302.553.122.095.698.145.698.153v.583h-2v-.583zM92 74h.635c.087 0 .206.657.354.889.267.428.659.586 1.173.586.286 0 .513-.108.678-.267.167-.159.249-.378.249-.632 0-.16-.047-.322-.144-.472-.095-.15-.263-.298-.504-.441l-.643-.368c-.471-.252-.816-.508-1.039-.763-.22-.257-.333-.56-.333-.908 0-.428.153-.781.46-1.056.306-.275.691-.413 1.154-.413.203 0 .426.038.669.115l.41.115c.069 0 .119-.141.15-.161l.079-.224h.138l.041 2h-.179c-.076-1-.179-.728-.31-.934-.237-.382-.579-.608-1.027-.608-.267 0-.478.066-.631.231-.153.163-.229.349-.229.571 0 .353.264.662.791.937l.758.406c.814.443 1.222.96 1.222 1.548 0 .451-.17.82-.507 1.107-.338.287-.779.429-1.326.429-.229 0-.489-.038-.779-.115-.29-.076-.461-.115-.515-.115-.046 0-.086.205-.121.237l-.079.306h-.595v-2zM100 70v1h-1.188l-.011 3.156c0 .29.023.435.073.583.092.266.272.36.539.36.138 0 .257-.051.359-.117.101-.066.217-.177.347-.32l.15.122-.127.169c-.199.267-.41.456-.631.569-.222.11-.435.164-.643.164-.451 0-.666-.2-.828-.602-.086-.218-.04-.519-.04-.907v-3.177h-.806l-.043-.184-.015-.121.026-.126.163-.165c.264-.219.454-.405.571-.541.116-.134.39-.498.824-1.08l.177.01.103.082v1.125h1zM105 75.36c0-.05.726-.159.864-.33.138-.17.136-.565.136-1.184v-4.77c0-.425-.01-.701-.145-.828-.133-.128-.855-.205-.855-.228v-.02h1.85l2.698 5.855 2.633-5.855h2.819v.019c-1 .031-1.2.11-1.327.238s-.673.4-.673.817v5.223c0 .429.546.703.673.824s.327.2 1.327.238v.641h-4v-.64c1-.038.739-.124.855-.255.118-.133.145-.446.145-.944v-5.275l-2.719 7.114h-.162l-3.119-6.839v4.685c0 .642.042 1.06.23 1.256.122.125.77.212.77.258v.64h-2v-.64zM117 70v3.937c0 .26.15.468.223.625.141.29.459.437.838.437.26 0 .386-.087.637-.258.139-.096.302-.229.302-.397v-3.145c0-.295-.128-.487-.243-.579-.115-.092.243-.147-.757-.167v-.453h2v4.303c0 .261.178.439.273.536.093.098.727.141.727.13v.16c0 .057-.347.101-.446.128l-.488.159-.649.246-.223-.026-.194-.06v-.924c0 .31-.308.539-.522.689-.325.229-.574.344-.938.344-.332 0-.723-.119-1.018-.356-.298-.234-.523-.626-.523-1.178v-2.981c0-.303.3-.506.172-.61l-.172-.136v-.424h1.001zM122 75.417c0-.035.64-.107.767-.215s.233-.322.233-.64v-5.606c0-.252-.007-.426-.05-.523-.076-.16-.224-.241-.46-.241l-.213.018c-.062.01-.277.027-.277.05v-.188c1-.139 1.181-.322 1.908-.552l.067.035.025.148v6.88c0 .333.116.549.23.646.115.098.77.16.77.186v.585h-3v-.583zM129 70v1h-1.454l-.012 3.156c0 .29.024.435.075.583.092.266.272.36.539.36.137 0 .257-.051.359-.117.101-.066.217-.177.347-.32l.15.122-.127.169c-.199.267-.41.456-.631.569-.222.11-.435.164-.642.164-.452 0-.534-.2-.695-.602-.089-.219.091-.52.091-.908v-3.176h-1.072l-.043-.184-.015-.121.026-.126.163-.165c.264-.219.454-.405.571-.541.116-.134.391-.498.824-1.08l.31.01c.009.008.236.034.236.083v1.124h1zM130 75.417c0-.038.701-.108.808-.209.107-.101.192-.376.192-.824v-2.738c0-.248-.146-.42-.18-.516-.058-.156-.243-.235-.426-.235l-.086.012c-.038.007-.308.037-.308.091v-.177l.177-.081c.669-.219 1.102-.382 1.366-.494.105-.046.293-.069.326-.069l.131.086v4.121c0 .435.115.709.222.821.104.112-.222.182.778.212v.583h-3v-.583zm.722-7.674c.115-.118.255-.177.425-.177.163 0 .304.058.422.174.116.116.176.258.176.426 0 .163-.06.303-.176.419-.118.116-.258.174-.422.174-.17 0-.31-.058-.425-.174-.115-.116-.173-.255-.173-.419s.058-.305.173-.423M133 77.948c1-.023.672-.101.768-.229.096-.13.232-.335.232-.614v-5.51c0-.29.124-.477.052-.559-.07-.082-.126-.124-.32-.124l.154.006.114.022v-.189l.312-.177c.02-.005.289-.136 1.038-.396l-.161.024-.189.061v.775c1-.252.621-.44.812-.562.344-.214.771-.321 1.133-.321.529 0 1.02.223 1.399.672.382.449.59 1.065.59 1.843 0 .766-.219 1.459-.677 2.083-.455.622-1.027.934-1.72.934-.214 0-.549-.026-.708-.079-.243-.081.171-.228-.829-.443v1.882c0 .387.056.623.181.712.125.089.819.147.819.179v.062h-3v-.052zm2.599-2.85c.199.128.508.193.774.193.414 0 .806-.205 1.097-.616.293-.411.459-.984.459-1.717 0-.703-.143-1.227-.447-1.575-.304-.348-.652-.521-1.054-.521-.283 0-.693.086-.927.26-.231.173-.501.344-.501.512v2.882c0 .261.403.455.599.582"/><path fill="#7C6755" d="M140 75.417c0-.035.641-.107.767-.215.127-.108.233-.322.233-.64v-5.606c0-.252.004-.426-.038-.523-.078-.16-.22-.241-.454-.241l-.222.018c-.062.01-.286.027-.286.05v-.188c1-.139 1.193-.322 1.92-.552l.061.035.019.148v6.88c0 .333.116.549.23.646.115.098.77.16.77.186v.585h-3v-.583zM147.858 70.584c.406.373.608 1.416.608 1.416h-3.644c.04 1 .24 1.701.602 2.106.365.405.795.692 1.291.692.402 0 .741-.061 1.016-.272.277-.209.532-.488.764-.873l.2.081c-.156.486-.451.942-.88 1.354-.431.414-.958.625-1.581.625-.72 0-1.274-.271-1.667-.815-.391-.542-.588-1.168-.588-1.876 0-.769.228-1.431.683-1.991.455-.559 1.048-.924 1.779-.924.538.002 1.012.105 1.417.477m-2.749.622c-.122.206-.209.794-.264.794h2.422c-.041 0-.115-.681-.219-.869-.186-.336-.5-.504-.941-.504-.436 0-.769.193-.998.579"/><path fill="#7C6755" d="M153.837 73c.199 1 .432 1.055.7 1.369.465.549 1.044.874 1.736.874.374 0 .698-.091.97-.329.275-.237.411-.554.411-.978 0-.384-.138-.708-.414-.993-.179-.18-.556-.446-1.132-.805l-1.004-.625c-.301-.191-.541-.383-.721-.578-.333-.371-.5-.78-.5-1.228 0-.593.197-1.086.591-1.48.393-.394.915-.591 1.566-.591.267 0 .59.067.967.199.377.131.591.197.646.197l.301.08.13-.111h.24l.258 2h-.281c-.191-1-.498-1.212-.92-1.51-.425-.298-.842-.413-1.254-.413-.322 0-.604.112-.84.301-.24.189-.359.461-.359.797 0 .303.092.565.273.779.183.218.469.448.856.685l1.031.638c.645.399 1.102.765 1.368 1.098.261.336.391.734.391 1.194 0 .616-.232 1.131-.698 1.543-.463.413-1.057.62-1.78.62-.365 0-.744-.069-1.14-.208-.396-.136-.623-.206-.68-.206-.138 0-.231.186-.278.27-.049.083-.081.411-.095.411h-.258l-.35-3h.269zM164.361 70.535c.347.246.52.516.52.81 0 .125-.043.243-.133.351-.087.109-.223.163-.406.163-.133 0-.252-.046-.353-.138-.101-.093-.176-.226-.222-.402l-.069-.277c-.049-.203-.134-.345-.258-.429-.127-.081-.293-.121-.5-.121-.435 0-.804.191-1.105.571-.299.38-.449.888-.449 1.52 0 .578.165 1.097.497 1.557.33.46.776.689 1.339.689.399 0 .752-.13 1.062-.391.176-.148.376-.387.597-.712l.16.098c-.219.458-.448.822-.689 1.091-.461.513-.999.77-1.607.77-.596 0-1.125-.235-1.583-.706-.46-.471-.689-1.111-.689-1.918 0-.791.251-1.471.752-2.043.503-.57 1.135-.854 1.899-.854.479.002.892.125 1.237.371"/><path fill="#7C6755" d="M166 75.417c1-.035.64-.107.767-.215s.233-.322.233-.64v-5.606c0-.252.059-.426.018-.523-.078-.16-.192-.241-.426-.241l-.264.018c-.063.01-.328.027-.328.05v-.188c1-.139 1.248-.322 1.976-.552l.033.035-.008.148v6.88c0 .333.116.549.23.646.115.098.77.16.77.186v.585h-3v-.583zM173.968 70.584c.406.373.608 1.416.608 1.416h-3.644c.04 1 .24 1.701.604 2.106.364.405.795.692 1.291.692.402 0 .74-.061 1.016-.272.275-.209.53-.488.762-.873l.2.081c-.156.486-.449.942-.88 1.354-.431.414-.957.625-1.58.625-.72 0-1.276-.271-1.669-.815-.391-.542-.588-1.168-.588-1.876 0-.769.229-1.431.683-1.991.457-.559 1.05-.924 1.78-.924.539.002 1.014.105 1.417.477m-2.748.622c-.123.206-.21.794-.265.794h2.422c-.041 0-.115-.681-.217-.869-.186-.336-.501-.504-.941-.504-.437 0-.77.193-.999.579"/><path fill="#7C6755" d="M176 75.388c0-.031.649-.093.764-.186.115-.095.236-.293.236-.599v-2.588c0-.379-.242-.649-.312-.813-.072-.162-.303-.244-.489-.244l-.077.015-.121.037v-.19c0-.076.313-.154.54-.235l.412-.171c.191-.073.356-.156.558-.248.028 0 .26.009.266.029.005.02.224.06.224.121v.941c0-.341.25-.607.478-.798.228-.193.35-.287.596-.287.194 0 .296.058.419.174.122.118.156.264.156.44 0 .157-.062.289-.155.396-.095.107-.22.16-.36.16-.147 0-.297-.067-.442-.2-.148-.134-.266-.202-.35-.202-.134 0-.075.108-.271.324-.196.217-.069.44-.069.669v2.588c0 .329.079.558.233.686.151.128-.233.188.767.18v.613h-3v-.612zM181.191 70.984c.483-.526 1.106-.79 1.869-.79.756 0 1.383.249 1.881.747.497.497.747 1.158.747 1.985 0 .761-.241 1.424-.724 1.985-.481.564-1.105.845-1.87.845-.735 0-1.357-.27-1.866-.81-.509-.539-.762-1.216-.762-2.031-.001-.761.241-1.405.725-1.931m.917-.147c-.385.348-.575.949-.575 1.801 0 .681.153 1.317.46 1.905.309.59.738.885 1.287.885.429 0 .761-.197.992-.591.232-.394.348-.911.348-1.549 0-.663-.148-1.287-.443-1.872-.295-.585-.721-.877-1.282-.877-.304 0-.566.1-.787.298"/><path fill="#7C6755" d="M187 74h.433c.087 0 .206.657.356.889.266.428.659.586 1.173.586.284 0 .512-.108.678-.267.165-.159.248-.378.248-.632 0-.16-.047-.322-.144-.472-.095-.15-.263-.298-.504-.441l-.642-.368c-.472-.252-.817-.508-1.039-.763-.222-.257-.335-.56-.335-.908 0-.428.154-.781.46-1.056.307-.275.692-.413 1.154-.413.203 0 .426.038.669.115l.41.115c.069 0 .119-.141.15-.161l.079-.223h.139l.04 2h-.179c-.075-1-.179-.728-.309-.934-.237-.382-.581-.608-1.028-.608-.267 0-.478.066-.631.231-.153.163-.229.349-.229.571 0 .353.264.662.791.937l.758.406c.816.443 1.222.96 1.222 1.548 0 .451-.17.82-.506 1.107-.339.287-.781.429-1.328.429-.228 0-.487-.038-.779-.115-.29-.076-.461-.115-.515-.115-.046 0-.086.205-.121.237l-.079.306h-.392v-2.001zM192 75.417c0-.038.699-.108.807-.209.105-.101.193-.376.193-.824v-2.738c0-.248-.038-.42-.074-.516-.057-.156-.188-.235-.371-.235l-.166.012c-.04.008-.389.038-.389.092v-.177l.283-.081c.669-.219 1.155-.382 1.418-.494l.248-.069.051.086v4.121c0 .435.116.709.223.821.104.112-.223.182.777.212v.582h-3v-.583zm.934-7.674c.115-.118.255-.177.425-.177.163 0 .304.058.422.174.116.116.176.258.176.426 0 .163-.06.303-.176.419-.118.116-.258.174-.422.174-.17 0-.31-.058-.425-.174-.115-.116-.173-.255-.173-.419s.058-.305.173-.423"/><path fill="#7C6755" d="M196 74h.447c.087 0 .206.657.356.889.267.428.659.586 1.173.586.286 0 .513-.108.678-.267.165-.159.249-.378.249-.632 0-.16-.047-.322-.144-.472-.095-.15-.264-.298-.506-.441l-.642-.368c-.471-.252-.817-.508-1.039-.763-.222-.257-.333-.56-.333-.908 0-.428.153-.781.458-1.056.307-.275.692-.413 1.154-.413.205 0 .426.038.669.115l.41.115c.07 0 .119-.141.15-.161l.081-.223h.138l.04 2h-.177c-.076-1-.18-.728-.31-.934-.237-.382-.579-.608-1.028-.608-.266 0-.477.066-.63.231-.153.163-.231.349-.231.571 0 .353.264.662.791.937l.758.406c.814.443 1.222.96 1.222 1.548 0 .451-.17.82-.506 1.107-.339.287-.781.429-1.328.429-.228 0-.487-.038-.779-.115-.289-.076-.461-.115-.515-.115-.046 0-.086.205-.121.237l-.079.306h-.406v-2.001zM114.078 1.054c0 .602-.373.946-1.118.946h-.504c-.746 0-1.684-.188-2.815-.188-5.533 0-12.205 2.468-20.021 7.45-4.449 2.839-8.176 5.74-11.183 8.723-3.102 3.057-8.333 9.055-15.692 18.006-8.899 10.806-15.849 18.044-20.85 21.726-1.661 1.227-2.622 1.84-2.886 1.84-.131 0-.209-.05-.234-.146 0-.024.348-.385 1.047-1.084 3.057-3.105 6.211-9.148 9.461-18.128 2.912-8.016 5.218-13.866 6.914-17.55 1.698-3.682 3.51-6.752 5.435-9.207.457-.578.686-.903.686-.975-.168-.047-.348.049-.541.289l-.361.361-.903 1.12c-1.563 1.95-5.232 6.729-11.004 14.335-9.117 12.35-17.116 21.234-23.995 26.649-3.705 2.889-5.858 4.335-6.459 4.335-.131-.049-.209-.121-.235-.217 0-.072.156-.241.469-.504 4.715-4.309 9.232-10.775 13.55-19.402 4.316-8.627 6.477-15.515 6.477-20.666 0-3.513-.854-6.298-2.562-8.355-1.708-2.058-4.041-3.086-7-3.086-6.231 0-12.419 3.476-18.565 10.428-6.147 6.952-9.22 13.964-9.22 21.035 0 2.935.799 5.305 2.399 7.108 1.6 1.805 3.687 2.706 6.262 2.706 5.435 0 10.583-3.716 15.443-11.149 3.151-4.834 4.726-9.14 4.726-12.917 0-1.78-.439-3.212-1.316-4.294-.879-1.083-2.04-1.624-3.482-1.624-.866 0-1.708.211-2.527.633-.817.42-1.225.848-1.225 1.28 0 .144.072.217.215.217.073 0 .193-.024.361-.073.602-.095.999-.144 1.192-.144 1.082 0 1.623.613 1.623 1.84 0 .746-.287 1.389-.865 1.931-.578.541-1.251.811-2.021.811-1.491 0-2.237-.805-2.237-2.417 0-1.276.553-2.387 1.661-3.339 1.105-.949 2.381-1.424 3.824-1.424 1.659 0 2.989.6 3.986 1.803.998 1.204 1.497 2.804 1.497 4.799 0 4.523-2.069 9.623-6.207 15.299-4.595 6.255-9.502 9.382-14.722 9.382-3.03 0-5.527-1.163-7.487-3.487-1.96-2.326-2.94-5.258-2.94-8.799 0-3.317.883-6.779 2.651-10.385 1.769-3.606 4.191-6.888 7.272-9.845 6.903-6.708 13.53-10.062 19.882-10.062 3.728 0 6.86 1.465 9.398 4.397 2.538 2.931 3.808 6.535 3.808 10.812 0 4.599-1.901 10.181-5.701 16.742-3.802 6.563-8.408 12.202-13.82 16.922-.529.481-.795.747-.795.795.024.096.073.145.145.145.746 0 3.14-2.095 7.183-6.283 5.728-5.947 13.464-15.335 23.211-28.166 2.792-3.682 5.534-6.98 8.231-9.894 2.694-2.912 4.355-4.37 4.981-4.37.144 0 .217.079.217.235 0 .072-.073.193-.217.361-1.517 2.021-2.744 4.08-3.684 6.173-1.059 2.382-2.66 6.859-4.802 13.428-2.359 7.172-4.503 12.635-6.428 16.387-2.023 3.875-4.562 7.377-7.62 10.505l-.144.252c.023.073.072.121.144.145.41 0 2.13-1.577 5.16-4.729 2.116-2.19 8.034-9.168 17.753-20.935 5.027-6.087 9.525-10.894 13.495-14.419 3.97-3.525 8.431-6.671 13.386-9.44 6.76-3.802 12.653-5.68 17.68-5.68 1.709 0 2.563.36 2.563 1.032"/><path fill="#AC162C" d="M66.423 28l9.11 25.864c.481 1.349.935 2.225 1.363 2.831.426.605 1.025.936 1.419 1.095.391.158.685.213 1.685.268v-.058h-10v.058c1 0 1.646-.096 2.198-.289.55-.193.748-.717.748-1.571 0-.468-.171-1.094-.432-1.879l-.102-.245-2.725-8.074h-10.535l-2.416 7.475c-.332 1.019-.497 1.837-.497 2.457 0 .854.365 1.42.791 1.703.427.283.97.423 1.97.423v-.058h-7v.058c1-.096 1.61-.484 2.223-1.166.613-.683 1.035-1.514 1.489-2.905l8.48-25.987h2.231zm-6.92 17h9.687l-4.957-15h-.082l-4.648 15zM115 28v.314c-1 .069-1.04.127-1.287.176-.248.049-.547.19-.849.423-.469.358-.773.695-.891 1.013-.118.316-.195.866-.223 1.652-.041.124-.044.248-.003.371l1.053 22.598c.026.95.119 1.769.546 2.458.426.688 1.653 1.039 2.653 1.053v-.058h-10v.059c2-.138 2.376-.512 2.83-1.126.454-.613.75-1.41.683-2.705l-.949-23.228h-.082l-10.742 27.694-10.162-26.694h-.083l-1.096 21.416c-.055 1.184.018 2.028.219 2.682.199.655.749 1.086 1.19 1.368.441.283 1.193.455 2.193.593v-.059h-8v.059c1-.014 1.659-.249 2.169-.703.509-.454.812-1.022.971-1.704.157-.681.263-1.615.345-2.799l1.212-22.308c0-.082-.086-.231-.253-.445-.165-.212-.37-.426-.61-.64-.241-.212-.473-.382-.693-.506-.468-.289-1.112-.457-1.457-.506-.344-.048-.684-.093-1.684-.134v-.314h7.539l9.42 24.89 9.563-24.89h6.478zM135 34h.048c-.194-2-.837-2.86-1.933-3.969-1.094-1.108-2.536-1.71-4.327-1.71-1.17 0-2.209.251-3.119.803-.909.55-1.612 1.288-2.107 2.239-.495.95-.744 2.032-.744 3.258 0 .95.148 1.791.445 2.527.296.736.733 1.386 1.313 1.951.578.565 1.259 1.09 2.044 1.579.785.489 1.844 1.106 3.181 1.848 2.231 1.225 3.965 2.448 5.206 3.667 1.239 1.218 1.86 2.888 1.86 5.009 0 1.294-.335 2.544-1.002 3.748-.669 1.206-1.678 2.194-3.027 2.964-1.349.772-3.024 1.158-5.019 1.158-1.253 0-2.362-.134-3.326-.403-.963-.269-1.941-.645-2.932-1.126-.413-.138-.695-.206-.847-.206-.29 0-.48.108-.568.315-.09.208-.211.349-.362 1.349h-.784v-8h.782c.495 3 1.459 4.101 2.892 5.244 1.432 1.143 3.174 1.806 5.226 1.806 1.542 0 2.778-.243 3.708-.822.927-.578 1.572-1.258 1.931-2.084.358-.825.536-1.64.536-2.467 0-1.707-.52-3.096-1.558-4.178-1.041-1.08-2.62-2.182-4.741-3.313-1.459-.798-2.541-1.415-3.244-1.857-.701-.44-1.415-1.011-2.138-1.714-.723-.703-1.299-1.531-1.724-2.489-.428-.957-.642-2.055-.642-3.294 0-1.432.379-2.802 1.137-4.11.756-1.309 1.832-2.359 3.222-3.151 1.39-.791 2.967-1.187 4.731-1.187 1.335 0 2.706.226 4.11.681.22.11.516.014.889.014.454 0 .764-.08.929-1.08h-.046v7z"/></svg>