<?xml version="1.0" encoding="utf-8"?>
<!-- Generator: Adobe Illustrator 19.2.1, SVG Export Plug-In . SVG Version: 6.00 Build 0)  -->
<svg version="1.1" id="Layer_1" xmlns="http://www.w3.org/2000/svg" xmlns:xlink="http://www.w3.org/1999/xlink" x="0px" y="0px"
	 viewBox="0 0 208 105.7" style="enable-background:new 0 0 208 105.7;" xml:space="preserve">
<metadata><?xpacket begin="﻿" id="W5M0MpCehiHzreSzNTczkc9d"?>
<x:xmpmeta xmlns:x="adobe:ns:meta/" x:xmptk="Adobe XMP Core 5.6-c111 79.158366, 2015/09/25-01:12:00        ">
   <rdf:RDF xmlns:rdf="http://www.w3.org/1999/02/22-rdf-syntax-ns#">
      <rdf:Description rdf:about=""/>
   </rdf:RDF>
</x:xmpmeta>
                                                                                                    
                                                                                                    
                                                                                                    
                                                                                                    
                                                                                                    
                                                                                                    
                                                                                                    
                                                                                                    
                                                                                                    
                                                                                                    
                                                                                                    
                                                                                                    
                                                                                                    
                                                                                                    
                                                                                                    
                                                                                                    
                                                                                                    
                                                                                                    
                                                                                                    
                                                                                                    
                           
<?xpacket end="w"?></metadata>
<style type="text/css">
	.st0{clip-path:url(#SVGID_2_);fill:#FFFFFF;}
	.st1{clip-path:url(#SVGID_4_);fill:#FFFFFF;}
</style>
<g>
	<defs>
		<rect id="SVGID_1_" x="13.3" width="181.9" height="105.7"/>
	</defs>
	<clipPath id="SVGID_2_">
		<use xlink:href="#SVGID_1_"  style="overflow:visible;"/>
	</clipPath>
	<path class="st0" d="M90.8,68.1c-4.1-1.7-13.9-5.8-13.9-16.4c0-10.9,10.5-17,20.1-17c5.7,0,11.8,2.1,15.6,6.5
		c3.4,4.2,3.7,8.1,3.8,11.4h-14.6c-0.3-2-0.8-5.6-5.3-5.6c-2.5,0-5,1.8-5,4.5c0,2.7,1,3.7,6.4,6.3l-6.2,10.7
		C91.1,68.2,90.9,68.1,90.8,68.1"/>
</g>
<g>
	<defs>
		<rect id="SVGID_3_" x="13.3" width="181.9" height="105.7"/>
	</defs>
	<clipPath id="SVGID_4_">
		<use xlink:href="#SVGID_3_"  style="overflow:visible;"/>
	</clipPath>
	<path class="st1" d="M76.1,76.1v-1.8h14.6c0,6.7,4.2,7.9,6,7.9c3.5,0,5.6-2.9,5.6-5.6c0-2.8-1.3-4.1-5.6-6l6-10.6
		c0.3,0.1,0.7,0.2,0.7,0.2c10.7,4.8,13.5,9.8,13.5,16.5c0,8.4-4.8,17.7-20.1,17.7C80.2,94.4,76.1,83.5,76.1,76.1 M13.4,93.5v-33
		l13.2,11.6l0.4,21.4 M57.6,93.5l0.5-28.2l-0.2-0.2L42.3,79L13.4,53.7v-19l28.8,25.2h0.1l28.8-25.2v58.9 M144.9,34.9h2.2l2.8,8.9h0
		l2.9-8.9h2.1v11.2h-1.3v-9.7h0l-3.2,9.7h-1l-3-9.7h0v9.7h-1.3 M162.3,44.4c0,0.6,0.1,1.2,0.1,1.8h-1.3l0-1.2h0
		c-0.4,0.9-1.1,1.3-2.1,1.3c-1.4,0-2.4-0.8-2.4-2.6v-5.7h1.4v5.3c0,1.3,0.5,1.9,1.4,1.9c1.1,0,1.7-0.8,1.7-2.2v-4.9h1.4L162.3,44.4
		L162.3,44.4z M164.8,34.1h1.3v12h-1.3V34.1z M172.3,46c-0.3,0.1-0.8,0.2-1.1,0.2c-1.2,0-1.9-0.5-1.9-1.9V39h-1.3v-1.1h1.3v-1.7
		l1.4-0.4v2.1h1.7V39h-1.7v4.9c0,0.9,0.2,1.3,0.8,1.3c0.3,0,0.6-0.1,0.8-0.2V46L172.3,46z M173.9,46.1h1.3v-8.2h-1.3V46.1z
		 M173.9,36.2h1.5v-1.6h-1.5V36.2L173.9,36.2z M180.5,45.1c1.2,0,1.8-1,1.8-3.1c0-2.1-0.6-3.1-1.8-3.1c-1.2,0-1.8,1-1.8,3.1
		C178.7,44.1,179.2,45.1,180.5,45.1 M177.3,39.4c0-0.5-0.1-1-0.1-1.5h1.3l0.1,1.2h0c0.4-0.6,1-1.3,2.2-1.3c1.7,0,2.8,1.4,2.8,4.2
		c0,2.8-1.1,4.2-2.8,4.2c-0.9,0-1.5-0.4-2.1-1.2h0v4.6h-1.4L177.3,39.4L177.3,39.4z M185.7,34.1h1.4v12h-1.4L185.7,34.1z
		 M193.8,41.4c0-1.7-0.5-2.5-1.6-2.5c-0.9,0-1.6,0.6-1.7,2.5H193.8z M190.6,42.4c0,1.9,0.7,2.8,2.2,2.8c0.7,0,1.4-0.3,1.9-0.7
		l0.1,1.2c-0.6,0.3-1.5,0.5-2.3,0.5c-2.2,0-3.3-1.6-3.3-4.2c0-2.6,1.1-4.2,3.2-4.2c1.9,0,2.9,1.5,2.9,3.9v0.7L190.6,42.4L190.6,42.4
		z M146.6,52.5c-0.5-0.3-1.2-0.5-1.9-0.5c-1,0-1.8,0.7-1.8,1.7c0,0.7,0.3,1.2,1.9,2.1c1.7,1,2.3,2,2.3,3.3c0,1.8-1.1,3.2-3.2,3.2
		c-0.9,0-1.8-0.2-2.4-0.5v-1.4c0.7,0.4,1.5,0.7,2.1,0.7c1.3,0,2-0.8,2-1.7c0-0.9-0.2-1.4-1.7-2.3c-2-1.2-2.5-1.9-2.5-3.4
		c0-1.8,1.4-2.8,3.1-2.8c0.7,0,1.5,0.2,2,0.4L146.6,52.5L146.6,52.5z M154.1,55.3c-0.5-0.3-0.9-0.4-1.5-0.4c-1.3,0-2.3,0.9-2.3,3.1
		c0,1.9,0.9,3,2.2,3c0.6,0,1.2-0.2,1.7-0.5l0.1,1.3c-0.4,0.2-1.1,0.3-1.7,0.3c-2.4,0-3.6-1.8-3.6-4.1c0-2.7,1.4-4.3,3.7-4.3
		c0.6,0,1.2,0.1,1.6,0.3L154.1,55.3L154.1,55.3z M155.8,50h1.4v12.1h-1.4V50z M163.9,57.3c0-1.7-0.6-2.5-1.6-2.5
		c-0.8,0-1.6,0.6-1.6,2.5H163.9z M160.6,58.4c0,1.9,0.7,2.8,2.2,2.8c0.7,0,1.4-0.3,1.9-0.7l0.1,1.2c-0.6,0.3-1.5,0.5-2.3,0.5
		c-2.2,0-3.3-1.7-3.3-4.2c0-2.6,1.1-4.2,3.2-4.2c1.8,0,2.9,1.5,2.9,3.9v0.7H160.6L160.6,58.4z M167.1,55.6c0-0.6,0-1.2,0-1.8h1.3
		l0.1,1.3h0c0.4-1,1.1-1.4,2.3-1.4v1.3c-0.2,0-0.3,0-0.5,0c-1,0-1.8,0.9-1.8,2.7v4.3h-1.4L167.1,55.6L167.1,55.6z M175.2,61.1
		c1.3,0,1.9-1,1.9-3.1c0-2.1-0.6-3.1-1.9-3.1c-1.3,0-1.9,1.1-1.9,3.1C173.3,60,173.9,61.1,175.2,61.1 M175.2,53.8
		c2.2,0,3.3,1.6,3.3,4.2c0,2.6-1.1,4.2-3.3,4.2c-2.1,0-3.3-1.7-3.3-4.2C171.9,55.4,173,53.8,175.2,53.8 M180.1,60.5
		c0.6,0.4,1.3,0.6,1.9,0.6c1,0,1.5-0.5,1.5-1.2c0-0.6-0.3-1-1-1.3l-0.9-0.4c-1.2-0.5-1.6-1-1.6-2.1c0-1.3,1-2.4,2.6-2.4
		c0.7,0,1.3,0.1,1.7,0.3l-0.1,1.2c-0.4-0.2-1-0.4-1.6-0.4c-0.9,0-1.4,0.5-1.4,1.1c0,0.7,0.5,1,1.4,1.4l0.5,0.2
		c1,0.4,1.6,1.1,1.6,2.1c0,1.4-0.8,2.5-2.6,2.5c-0.9,0-1.6-0.2-2.2-0.5L180.1,60.5L180.1,60.5z M186.9,53.9h1.4v8.2h-1.4L186.9,53.9
		L186.9,53.9z M188.3,52.1h-1.5v-1.6h1.5L188.3,52.1L188.3,52.1z M190.4,60.5c0.6,0.4,1.3,0.6,1.9,0.6c1,0,1.6-0.5,1.6-1.2
		c0-0.6-0.3-1-1.1-1.3l-0.9-0.4c-1.2-0.5-1.6-1-1.6-2.1c0-1.3,1-2.4,2.6-2.4c0.7,0,1.3,0.1,1.7,0.3l-0.1,1.2c-0.4-0.2-1-0.4-1.6-0.4
		c-0.9,0-1.3,0.5-1.3,1.1c0,0.7,0.5,1,1.4,1.4l0.5,0.2c1,0.4,1.6,1.1,1.6,2.1c0,1.4-0.8,2.5-2.6,2.5c-0.9,0-1.6-0.2-2.2-0.5
		L190.4,60.5L190.4,60.5z M138.4,68.4c-0.5-0.3-1.2-0.5-1.9-0.5c-1.1,0-1.8,0.7-1.8,1.7c0,0.7,0.3,1.2,1.9,2.1c1.7,1,2.3,2,2.3,3.3
		c0,1.8-1.1,3.2-3.3,3.2c-0.9,0-1.8-0.2-2.4-0.5v-1.5c0.7,0.4,1.5,0.7,2.1,0.7c1.3,0,2-0.9,2-1.8c0-0.9-0.2-1.4-1.7-2.3
		c-2-1.2-2.5-1.9-2.5-3.4c0-1.8,1.4-2.8,3.1-2.8c0.7,0,1.5,0.2,2,0.4L138.4,68.4L138.4,68.4z M143.6,77c1.3,0,1.9-1,1.9-3.1
		c0-2.1-0.6-3.1-1.9-3.1c-1.3,0-1.9,1.1-1.9,3.1C141.7,76,142.3,77,143.6,77 M143.6,69.7c2.2,0,3.3,1.7,3.3,4.2
		c0,2.6-1.1,4.2-3.3,4.2c-2.2,0-3.3-1.6-3.3-4.2C140.3,71.4,141.4,69.7,143.6,69.7 M153.7,71.3c-0.5-0.3-0.9-0.4-1.6-0.4
		c-1.3,0-2.2,0.9-2.2,3.1c0,1.9,0.9,3,2.2,3c0.6,0,1.2-0.2,1.7-0.4l0.1,1.2c-0.4,0.2-1.1,0.3-1.7,0.3c-2.4,0-3.6-1.8-3.6-4.1
		c0-2.7,1.4-4.3,3.7-4.3c0.6,0,1.2,0.1,1.6,0.3L153.7,71.3L153.7,71.3z M155.3,69.8h1.4V78h-1.4L155.3,69.8L155.3,69.8z M156.7,68.1
		h-1.5v-1.6h1.5L156.7,68.1L156.7,68.1z M163.4,73.3c0-1.7-0.5-2.6-1.6-2.6c-0.9,0-1.6,0.6-1.7,2.6H163.4L163.4,73.3z M160.1,74.3
		c0,1.9,0.7,2.8,2.2,2.8c0.7,0,1.4-0.3,1.9-0.7l0.1,1.2c-0.6,0.3-1.5,0.5-2.3,0.5c-2.2,0-3.3-1.6-3.3-4.2c0-2.6,1.1-4.2,3.2-4.2
		c1.8,0,2.9,1.5,2.9,3.9v0.7H160.1z M170.3,77.9c-0.3,0.1-0.8,0.2-1.1,0.2c-1.2,0-1.9-0.5-1.9-1.9v-5.3H166v-1.1h1.3v-1.7l1.3-0.4
		v2.1h1.7v1.1h-1.7v4.9c0,0.9,0.2,1.3,0.9,1.3c0.3,0,0.6-0.1,0.8-0.2L170.3,77.9L170.3,77.9z M174.7,79.7c-0.4,1.4-1,1.9-2,1.9
		c-0.3,0-0.7,0-0.9-0.1l0.1-1.2c0.2,0.1,0.5,0.2,0.7,0.2c0.4,0,0.7-0.2,0.9-1l0.3-1.2l-2.6-8.3h1.4l1.8,6.7h0l1.7-6.7h1.3
		L174.7,79.7L174.7,79.7z M185.6,77c1.3,0,1.9-1,1.9-3.1c0-2.1-0.6-3.1-1.9-3.1c-1.3,0-1.9,1.1-1.9,3.1C183.7,76,184.3,77,185.6,77
		 M185.6,69.7c2.2,0,3.3,1.7,3.3,4.2c0,2.6-1.1,4.2-3.3,4.2c-2.2,0-3.3-1.6-3.3-4.2C182.3,71.4,183.4,69.7,185.6,69.7 M191.4,70.9
		h-1.3v-1.1h1.3V68c0-1.3,0.6-2.2,2-2.2c0.4,0,0.8,0,1.1,0.1v1.2c-0.1-0.1-0.5-0.2-0.8-0.2c-0.8,0-1,0.4-1,1.2v1.7h1.5v1.1h-1.5V78
		h-1.4L191.4,70.9L191.4,70.9z M155.5,93.7c-0.7,0.2-1.4,0.3-2,0.3c-3.6,0-5-2.7-5-5.7c0-3.5,2.1-5.7,5-5.7c0.8,0,1.6,0.2,2.1,0.4
		v1.4c-0.6-0.4-1.3-0.6-2.1-0.6c-1.8,0-3.5,1.5-3.5,4.2c0,2.9,1.2,4.8,3.6,4.8c0.7,0,1.4-0.2,2-0.5L155.5,93.7L155.5,93.7z
		 M161.9,90c-0.2,0-0.6,0-0.9,0c-1.6,0-2.4,0.8-2.4,1.7c0,0.9,0.4,1.4,1.4,1.4c1.2,0,1.9-0.9,1.9-2.1L161.9,90L161.9,90z
		 M157.9,86.3c0.7-0.4,1.5-0.7,2.3-0.7c1.2,0,1.9,0.5,2.2,0.8c0.4,0.3,0.7,0.8,0.7,2v4.3c0,0.5,0,1,0,1.3H162l-0.1-1.1h0
		c-0.4,0.6-1,1.2-2.3,1.2c-1.3,0-2.4-0.8-2.4-2.4c0-1.6,1-2.8,3.9-2.8h0.8v-0.4c0-0.6-0.1-1-0.3-1.3c-0.3-0.4-0.8-0.5-1.3-0.5
		c-0.8,0-1.6,0.4-2.1,0.9L157.9,86.3L157.9,86.3z M165.5,87.5c0-0.6-0.1-1.2-0.1-1.8h1.3l0.1,1.2h0c0.5-0.9,1.1-1.3,2.1-1.3
		c1.4,0,2.4,0.8,2.4,2.6V94h-1.3v-5.3c0-1.3-0.5-1.8-1.4-1.8c-1.1,0-1.7,0.7-1.7,2.2V94h-1.3L165.5,87.5L165.5,87.5z M177.8,90
		c-0.2,0-0.6,0-1,0c-1.6,0-2.3,0.8-2.3,1.7c0,0.9,0.5,1.4,1.4,1.4c1.2,0,1.9-0.9,1.9-2.1V90L177.8,90z M173.9,86.3
		c0.7-0.4,1.5-0.7,2.3-0.7c1.2,0,1.9,0.5,2.2,0.8c0.3,0.3,0.7,0.8,0.7,2v4.3c0,0.5,0,1,0.1,1.3H178l-0.1-1.1h0
		c-0.4,0.6-1,1.2-2.3,1.2c-1.4,0-2.4-0.8-2.4-2.4c0-1.6,1-2.8,3.9-2.8h0.8v-0.4c0-0.6-0.1-1-0.3-1.3c-0.3-0.4-0.8-0.5-1.4-0.5
		c-0.8,0-1.6,0.4-2.1,0.9L173.9,86.3L173.9,86.3z M183.9,86.8c-1.2,0-1.8,1.1-1.8,3.1c0,2.1,0.6,3.1,1.8,3.1c1.2,0,1.8-1.1,1.8-3.1
		C185.7,87.8,185.1,86.8,183.9,86.8 M187,92.5c0,0.5,0.1,1,0.1,1.5h-1.3l0-1.2h0c-0.4,0.6-1,1.3-2.2,1.3c-1.7,0-2.8-1.4-2.8-4.2
		c0-2.8,1.1-4.2,2.8-4.2c0.9,0,1.6,0.4,2.1,1.2h0v-5h1.4L187,92.5L187,92.5z M193.5,90c-0.2,0-0.6,0-1,0c-1.6,0-2.3,0.8-2.3,1.7
		c0,0.9,0.4,1.4,1.4,1.4c1.2,0,1.9-0.9,1.9-2.1L193.5,90L193.5,90z M189.5,86.3c0.7-0.4,1.5-0.7,2.3-0.7c1.2,0,1.9,0.5,2.2,0.8
		c0.4,0.3,0.7,0.8,0.7,2v4.3c0,0.5,0,1,0.1,1.3h-1.2l-0.1-1.1h0c-0.3,0.6-1,1.2-2.3,1.2c-1.4,0-2.4-0.8-2.4-2.4
		c0-1.6,1.1-2.8,3.9-2.8h0.8v-0.4c0-0.6-0.1-1-0.3-1.3c-0.3-0.4-0.8-0.5-1.4-0.5c-0.8,0-1.6,0.4-2.1,0.9L189.5,86.3L189.5,86.3z
		 M194.7,105.7v-3.8h-116l-2.2,3.8 M13.3,101.9v3.8h57.1l2.2-3.8 M13.5,22.3v3.8h102.7l2.2-3.8 M194.7,26.1v-3.8h-70.3l-2.2,3.8
		 M123.1,87.7h1.2c0.8,0,1.2-0.2,1.2-1c0-0.7-0.6-0.9-1.2-0.9h-1.2L123.1,87.7L123.1,87.7z M122.1,85h2.3c1.4,0,2.1,0.6,2.1,1.7
		c0,1-0.6,1.7-1.6,1.7l1.7,2.7h-1l-1.7-2.7h-0.8v2.7h-1V85L122.1,85z M124.2,92.6c2.4,0,4.2-1.9,4.2-4.5c0-2.5-1.8-4.5-4.2-4.5
		c-2.4,0-4.3,1.9-4.3,4.5C119.9,90.6,121.7,92.6,124.2,92.6 M124.1,82.9c2.9,0,5.2,2.4,5.2,5.2c0,2.9-2.3,5.2-5.2,5.2
		c-2.9,0-5.2-2.3-5.2-5.2C118.9,85.2,121.3,82.9,124.1,82.9 M15.6,5.2c0.3,0.1,0.6,0.1,1,0.1c1.4,0,2.3-0.7,2.3-2
		c0-1.2-0.9-1.8-2.2-1.8c-0.5,0-0.9,0-1.1,0.1C15.6,1.6,15.6,5.2,15.6,5.2z M14.4,0.8c0.6-0.1,1.3-0.2,2.3-0.2
		c1.2,0,2.1,0.3,2.6,0.8c0.5,0.4,0.8,1.1,0.8,1.9c0,0.8-0.3,1.5-0.7,2c-0.6,0.7-1.7,1-2.9,1c-0.4,0-0.7,0-1-0.1v3.7h-1.2V0.8z
		 M21.4,5.3c0-0.8,0-1.4-0.1-2.1h1.1l0,1.3h0.1c0.3-0.9,1-1.5,1.9-1.5c0.1,0,0.2,0,0.3,0v1.1c-0.1,0-0.2,0-0.4,0
		c-0.8,0-1.5,0.7-1.6,1.6c0,0.2-0.1,0.4-0.1,0.6v3.5h-1.2C21.4,9.9,21.4,5.3,21.4,5.3z M26.5,6.6c0,1.5,0.8,2.6,2,2.6
		c1.2,0,2-1.1,2-2.6c0-1.1-0.6-2.6-2-2.6C27.2,4,26.5,5.3,26.5,6.6 M31.8,6.5c0,2.5-1.7,3.6-3.3,3.6c-1.8,0-3.2-1.3-3.2-3.4
		c0-2.2,1.4-3.5,3.3-3.5C30.5,3.1,31.8,4.5,31.8,6.5 M38.9,8.1c0,0.7,0,1.3,0.1,1.8h-1.1l-0.1-1.1h0c-0.3,0.6-1,1.3-2.2,1.3
		c-1,0-2.3-0.6-2.3-2.9V3.3h1.2v3.7c0,1.3,0.4,2.1,1.5,2.1c0.8,0,1.4-0.6,1.6-1.1c0.1-0.2,0.1-0.4,0.1-0.6V3.3h1.2L38.9,8.1
		L38.9,8.1z M45.5,6c0-0.2,0-0.3-0.1-0.5c-0.2-0.8-0.8-1.4-1.7-1.4c-1.2,0-2,1.1-2,2.6c0,1.4,0.7,2.5,2,2.5c0.8,0,1.6-0.5,1.8-1.5
		c0-0.2,0.1-0.3,0.1-0.5L45.5,6L45.5,6z M46.7,0.1v8.1c0,0.6,0,1.3,0.1,1.7h-1.1l-0.1-1.2h0c-0.4,0.7-1.2,1.3-2.3,1.3
		c-1.6,0-2.9-1.4-2.9-3.4c0-2.2,1.4-3.6,3-3.6c1,0,1.7,0.5,2,1h0v-4L46.7,0.1L46.7,0.1z M52.8,5.2c0.3,0.1,0.6,0.1,1,0.1
		c1.5,0,2.3-0.7,2.3-2c0-1.2-0.9-1.8-2.2-1.8c-0.5,0-0.9,0-1.1,0.1L52.8,5.2L52.8,5.2z M51.6,0.8c0.6-0.1,1.3-0.2,2.3-0.2
		c1.2,0,2.1,0.3,2.6,0.8c0.5,0.4,0.8,1.1,0.8,1.9c0,0.8-0.2,1.5-0.7,2c-0.6,0.7-1.7,1-2.8,1c-0.3,0-0.7,0-1-0.1v3.7h-1.2V0.8z
		 M62.1,6.5c-1.3,0-2.8,0.2-2.8,1.5c0,0.8,0.5,1.2,1.2,1.2c0.9,0,1.4-0.6,1.6-1.1c0-0.1,0-0.3,0-0.4V6.5L62.1,6.5z M63.2,8.3
		c0,0.6,0,1.1,0.1,1.6h-1.1l-0.1-0.8h0c-0.4,0.5-1.1,1-2,1c-1.4,0-2-1-2-1.9c0-1.6,1.4-2.5,4-2.5V5.5C62.1,5,61.9,4,60.5,4
		c-0.6,0-1.3,0.2-1.7,0.5l-0.3-0.8c0.5-0.4,1.3-0.6,2.2-0.6c2,0,2.5,1.4,2.5,2.7L63.2,8.3L63.2,8.3z M65.2,5.3c0-0.8,0-1.4,0-2.1
		h1.1l0,1.3h0.1c0.3-0.9,1-1.5,1.9-1.5c0.1,0,0.2,0,0.3,0v1.1c-0.1,0-0.3,0-0.4,0c-0.8,0-1.5,0.7-1.6,1.6c0,0.2-0.1,0.4-0.1,0.6v3.5
		h-1.2C65.2,9.9,65.2,5.3,65.2,5.3z M71.5,1.7v1.6h1.7v0.9h-1.7v3.6c0,0.8,0.2,1.3,0.9,1.3c0.3,0,0.5,0,0.7-0.1l0,0.9
		c-0.2,0.1-0.6,0.2-1.1,0.2c-0.6,0-1-0.2-1.3-0.5c-0.3-0.4-0.5-0.9-0.5-1.7V4.2h-1V3.3h1V2L71.5,1.7L71.5,1.7z M74.6,5.1
		c0-0.7,0-1.2-0.1-1.8h1.1l0,1.1h0c0.3-0.6,1.1-1.2,2.2-1.2c0.9,0,2.4,0.6,2.4,2.8v4H79V6.1c0-1.1-0.4-2-1.5-2
		c-0.8,0-1.4,0.6-1.6,1.2c0,0.2-0.1,0.4-0.1,0.6v4h-1.2V5.1L74.6,5.1z M86.4,5.9c0-0.8-0.3-2-1.7-2c-1.2,0-1.8,1.1-1.8,2H86.4z
		 M82.9,6.8c0,1.6,1.1,2.3,2.3,2.3C86,9.1,86.6,9,87,8.8l0.2,0.9c-0.4,0.2-1.1,0.4-2.2,0.4c-2.1,0-3.3-1.4-3.3-3.4
		c0-2,1.2-3.6,3.1-3.6c2.2,0,2.8,1.9,2.8,3.1c0,0.2,0,0.4,0,0.6L82.9,6.8L82.9,6.8z M89.1,5.3c0-0.8,0-1.4-0.1-2.1h1.1l0,1.3h0.1
		c0.3-0.9,1-1.5,1.8-1.5c0.1,0,0.2,0,0.3,0v1.1c-0.1,0-0.2,0-0.4,0c-0.8,0-1.4,0.7-1.6,1.6c0,0.2,0,0.4,0,0.6v3.5h-1.2
		C89.1,9.9,89.1,5.3,89.1,5.3z M97.3,6.6c0,1.5,0.8,2.6,2,2.6c1.1,0,2-1.1,2-2.6c0-1.1-0.6-2.6-2-2.6C97.9,4,97.3,5.3,97.3,6.6
		 M102.6,6.5c0,2.5-1.7,3.6-3.3,3.6c-1.8,0-3.2-1.3-3.2-3.4c0-2.2,1.4-3.5,3.3-3.5C101.3,3.1,102.6,4.5,102.6,6.5 M104.2,9.9V4.2
		h-0.9V3.3h0.9V2.9c0-0.9,0.2-1.8,0.8-2.3c0.5-0.4,1-0.6,1.6-0.6c0.4,0,0.8,0.1,1,0.2l-0.2,0.9C107.3,1,107.1,1,106.7,1
		c-1,0-1.3,0.9-1.3,1.9v0.4h1.6v0.9h-1.6v5.7H104.2z"/>
</g>
</svg>
