<svg  id="ms-walk-logo" viewBox="0 0 134 26.5" xmlns="http://www.w3.org/2000/svg">
    <path d="M57.8 16.1h.1l4.2-13h4.2l4 13 3.8-13h5.5l-6.5 20.1h-5.3l-3.6-11.7-4 11.7h-5.3l-6-20.1h5.4zM83.9 19.7l-1.4 3.5h-5.6L84.7 3h5.7L98 23.2h-5.6l-1.3-3.5h-7.2zm3.6-10.4l-2.2 6.4h4.4l-2.2-6.4zM104.9 18.8h6.3v4.4H99.6V3.1h5.3zM124.5 3.1h6.5l-8 9.5 8.7 10.6H125l-6.8-8.7h-.1v8.7h-5.2V3.1h5.2v8.3h.1z" fill="#212121"></path>
    <path d="M29.1 14.5c-1.4-.6-4.8-2-4.8-5.7 0-3.8 3.6-5.9 7-5.9 2 0 4.1.7 5.4 2.3C37.9 6.7 38 8 38 9.2h-5c-.1-.7-.3-2-1.8-2-.9 0-1.8.6-1.8 1.6 0 .9.3 1.3 2.2 2.2l-2.2 3.7c-.2-.2-.3-.2-.3-.2" fill="#EF3E32"></path>
    <path d="M24 17.3v-.6h5c0 2.3 1.4 2.7 2.1 2.7 1.2 0 1.9-1 1.9-1.9 0-1-.5-1.4-1.9-2.1l2.1-3.7c.1 0 .2.1.2.1 3.7 1.7 4.7 3.4 4.7 5.7 0 2.9-1.7 6.1-7 6.1-5.7 0-7.1-3.8-7.1-6.3M2.3 23.3V11.9l4.5 4 .1 7.4zM17.6 23.3l.1-9.8-5.4 4.8-10-8.8V2.9l10 8.7 10-8.7v20.4zM40.6 19.6c1 0 1.8.8 1.8 1.8s-.8 1.8-1.8 1.8-1.8-.8-1.8-1.8.8-1.8 1.8-1.8m0 3.4c.8 0 1.5-.7 1.5-1.5 0-.9-.6-1.5-1.5-1.5-.8 0-1.5.7-1.5 1.5.1.8.7 1.5 1.5 1.5m-.7-2.6h.8c.5 0 .7.2.7.6 0 .3-.2.6-.5.6l.6.9h-.4l-.6-.9h-.3v.9h-.3v-2.1zm.4.9h.4c.3 0 .4-.1.4-.3 0-.2-.2-.3-.4-.3h-.4v.6z" fill="#EF3E32"></path>
</svg>