<svg version="1.1" xmlns="http://www.w3.org/2000/svg" xmlns:xlink="http://www.w3.org/1999/xlink" width="752" height="752" viewBox="0 0 752 752">
    <svg  id="svg__logo" viewBox="0 0 27.517 14.287">
        <path d="M0 0v4.541l6.87 6.04 3.708-3.296.035.047-.111 6.72h3.221V0L6.888 6.016h-.035zm19.88 0c-2.297 0-4.788 1.462-4.788 4.047 0 2.55 2.321 3.52 3.303 3.925a2.3 2.311 0 0 0 .228.1l1.48-2.556c-1.304-.628-1.533-.863-1.533-1.51 0-.64.59-1.074 1.199-1.074 1.07 0 1.187.869 1.263 1.345h3.455c-.035-.788-.092-1.71-.905-2.72C22.687.499 21.232 0 19.88 0zm1.358 6.05l-1.433 2.521c1.012.464 1.322.764 1.322 1.433a1.324 1.33 0 0 1-1.334 1.328c-.45 0-1.432-.275-1.432-1.873h-3.474v.44c0 1.763.978 4.364 4.942 4.359 3.625 0 4.777-2.215 4.777-4.218 0-1.592-.649-2.785-3.198-3.936 0 0-.106-.036-.17-.053zM0 6.187v7.867h3.216l-.088-5.094L0 6.186zm26.271 5.599a1.247 1.252 0 0 0-1.245 1.25 1.245 1.251 0 1 0 1.245-1.25zm.034.187a1.06 1.064 0 1 1-.034 2.127 1.01 1.015 0 0 1-1.011-1.063 1.06 1.064 0 0 1 1.045-1.064zm-.513.33v1.462h.24v-.646h.198l.403.646h.252l-.415-.646a.37.372 0 0 0 .374-.405c0-.277-.164-.412-.497-.412zm.24.187h.28c.152 0 .298.047.298.212 0 .193-.117.229-.298.229h-.28z" />
    </svg>
    <svg id="svg__background" height="100%" width="100%" viewBox="0 0 508 269.875" preserveAspectRatio="xMidYMid slice">
        <path opacity=".5" d="M.003 6.962s74.368 4.412 151.09 26.27c72.25 20.585 118.04 40.823 203.05 39.763C453.893 71.748 508.003 0 508.003 0v269.88s-67.941-10.792-149.33-18.094c-64.72-5.81-117.42-15.35-200.56-42.4-91.517-29.77-158.11-20.93-158.11-20.93z" />
        <path opacity=".5" d="M.003 66.964s77.474-24.104 156.52-4.787c111.05 27.138 113.81 36.298 192.49 45.498 104.17 12.17 158.99-16.61 158.99-16.61v105.23s-52.328 49.725-129.12 47.942c-59.03-1.37-136.68-14.92-220.17-42.38-100.22-32.96-158.71-41.14-158.71-41.14z" />
    </svg>
    <svg id="svg__location" viewBox="0 0 17.88 17.88">
	    <path d="M8.94 0A8.939 8.939 0 0 0 0 8.94c0 4.937 4.002 8.94 8.94 8.94a8.942 8.942 0 0 0 8.94-8.94C17.88 4.001 13.878 0 8.94 0zm0 1c4.378 0 7.94 3.561 7.94 7.94 0 4.378-3.562 7.94-7.94 7.94C4.56 16.88 1 13.319 1 8.94 1 4.56 4.561 1 8.94 1zm5.216 2.973L2.196 9.289v.664h5.98v5.98h.664l5.316-11.96z" />
	</svg>
    <svg id="svg__chewron_down" viewBox="0 0 48.988 26.993">
	    <path d="M2.547 0L0 1.775l24.494 16.961 24.494-16.96L46.441 0 24.494 15.2zm0 8.256L0 10.03l24.494 16.961 24.494-16.96-2.547-1.776-21.947 15.2z"  />
	</svg>
    
</svg>