<svg xmlns="http://www.w3.org/2000/svg" width="792" height="792" viewBox="0 0 792 792">
    <path d="M396.012 0c-6.832 0-12.375 5.543-12.375 12.375v47.953c0 6.832 5.543 12.375 12.375 12.375 6.833 0 12.377-5.543 12.377-12.375V12.375C408.389 5.543 402.846 0 396.012 0zm165.425 44.29c-4.376-.102-8.672 2.124-10.994 6.165l-23.976 41.533c-3.377 5.904-1.343 13.457 4.535 16.834 5.904 3.377 13.459 1.341 16.838-4.537l23.976-41.533c3.377-5.904 1.365-13.457-4.539-16.834a12.303 12.303 0 0 0-5.84-1.629zm-330.85.024a12.31 12.31 0 0 0-5.84 1.627c-5.88 3.377-7.915 10.933-4.538 16.811l23.977 41.533c3.377 5.878 10.93 7.914 16.808 4.537 5.905-3.378 7.916-10.93 4.54-16.808l-23.952-41.535c-2.322-4.042-6.617-6.266-10.994-6.165zm165.477 83.536c-29.752 0-58.214 5.956-84.2 16.732v.025a220.453 220.453 0 0 0-71.493 47.748c-20.083 20.057-36.377 44.187-47.566 71l-.233.49c-10.776 25.989-16.73 54.453-16.73 84.204 0 23.744 3.815 46.74 10.828 68.242 7.244 22.249 17.994 43.027 31.53 61.54 23.28 31.838 41.894 52.233 56.357 68.062l.025-.026.027.026c25.575 28.025 37.098 40.632 37.098 81.882 0 6.832 5.57 12.375 12.402 12.375H468.975c6.832 0 12.375-5.543 12.375-12.375 0-41.662 11.292-54.142 37.048-82.63 14.31-15.854 32.743-36.247 55.456-67.313 13.535-18.512 24.285-39.267 31.529-61.516a220.176 220.176 0 0 0 10.828-68.27c0-60.791-24.674-115.86-64.506-155.692-20.213-20.212-44.522-36.583-71.488-47.772a219.46 219.46 0 0 0-84.153-16.732zm-.052 24.775c26.556 0 51.822 5.258 74.767 14.771 23.822 9.85 45.351 24.39 63.422 42.463 35.344 35.373 57.235 84.228 57.235 138.188 0 21.218-3.378 41.61-9.618 60.685a194.946 194.946 0 0 1-27.922 54.553c-22.25 30.422-40.013 50.095-53.832 65.383-27.663 30.577-41.095 45.479-43.209 86.754H336.148c-2.14-40.992-15.83-56.05-43.365-86.137l.028-.023c-14.154-15.52-32.356-35.45-54.71-66.026a196.194 196.194 0 0 1-27.947-54.58c-6.188-19-9.564-39.417-9.564-60.61 0-26.528 5.284-51.795 14.771-74.714l.258-.67c9.875-23.564 24.339-44.91 42.23-62.803 18.074-18.073 39.575-32.614 63.397-42.463l.053-.025v.025c22.92-9.513 48.184-14.771 74.713-14.771zm285.67 12.55c-1.99.047-3.996.574-5.84 1.63l-41.533 23.976c-5.878 3.377-7.916 10.93-4.538 16.834 3.377 5.88 10.93 7.916 16.834 4.54l41.534-23.977c5.879-3.377 7.916-10.958 4.539-16.836-2.323-4.042-6.62-6.267-10.996-6.166zm-571.368.022c-4.376-.107-8.672 2.111-10.994 6.17-3.377 5.878-1.34 13.434 4.565 16.81l41.533 23.977c5.878 3.377 13.434 1.34 16.81-4.539 3.378-5.904 1.34-13.457-4.539-16.834l-41.533-23.95a12.348 12.348 0 0 0-5.842-1.634zm285.698 13.21c-10.957 0-21.942 1.132-32.64 3.298a160.964 160.964 0 0 0-31.247 9.645c-9.9 4.176-19.258 9.254-27.818 15.029v.025c-8.92 6.006-17.118 12.762-24.44 20.084a165.844 165.844 0 0 0-20.11 24.414l.026.026-.025.025a165.165 165.165 0 0 0-15.03 27.768c-2.63 6.264.31 13.508 6.575 16.138 6.265 2.63 13.51-.309 16.138-6.574 3.48-8.224 7.787-16.112 12.813-23.564l.025.025c4.976-7.399 10.751-14.386 17.12-20.754 6.444-6.446 13.405-12.22 20.7-17.119h.028c7.502-5.053 15.39-9.357 23.562-12.812 8.404-3.557 17.3-6.367 26.504-8.198 8.792-1.753 18.125-2.707 27.819-2.707 6.833 0 12.375-5.543 12.375-12.375s-5.541-12.375-12.375-12.375zm76.63 138.597c-1.215.01-2.45.204-3.667.596-8.612 2.785-16.063 6.523-22.967 10.004l-.672.36c-10.777 5.389-19.698 9.641-26.35 4.227l-14.863-12.117c-4.429-3.89-11.163-4.141-15.896-.308l-15.211 12.4c-6.651 5.414-15.598 1.185-26.348-4.228l-.672-.362c-6.883-3.455-14.332-7.191-22.943-9.976-6.498-2.063-13.434 1.495-15.522 7.992a12.352 12.352 0 0 0-.316 6.285l.012.049c.08.38.177.754.293 1.123.008.028.02.056.029.084.114.355.242.702.387 1.045.024.056.053.111.078.168.143.325.298.645.468.957.011.02.019.039.03.058 22.609 40.735 35.346 73.762 42.46 109.391 7.194 36.043 8.689 74.972 8.74 127.076 0 6.805 5.517 12.322 12.323 12.322s12.322-5.515 12.322-12.322c-.05-53.934-1.624-94.307-9.125-131.896-5.64-28.34-14.618-55.098-28.73-84.762 14.058 6.158 26.965 8.433 42.059-3.848l7.423-6.052 7.455 6.078c15.095 12.302 28.017 10.012 42.07 3.847-14.104 29.654-23.077 56.406-28.716 84.737-7.502 37.614-9.074 77.96-9.127 131.896 0 6.805 5.517 12.322 12.322 12.322 6.805 0 12.325-5.515 12.325-12.322.026-52.103 1.545-91.033 8.714-127.076 7.073-35.388 19.71-68.266 42.065-108.662a12.31 12.31 0 0 0 1.402-10.498c-1.676-5.278-6.584-8.635-11.851-8.588zM244.16 330.26c-6.806 0-12.375 5.543-12.375 12.375 0 10.983 1.16 21.914 3.3 32.613a162.276 162.276 0 0 0 9.644 31.272c2.63 6.264 9.873 9.204 16.138 6.574 6.265-2.63 9.204-9.876 6.574-16.14a137.688 137.688 0 0 1-8.173-26.526c-1.78-8.817-2.733-18.125-2.733-27.793 0-6.806-5.543-12.375-12.375-12.375zm79.922 338.789c-6.858 0-12.4 5.543-12.4 12.375s5.568 12.375 12.4 12.375h143.86c6.831 0 12.374-5.543 12.374-12.375s-5.543-12.375-12.375-12.375H324.082zm15.984 49.113c-6.806 0-12.375 5.543-12.375 12.375s5.543 12.375 12.375 12.375h111.891c6.832 0 12.375-5.543 12.375-12.375s-5.543-12.375-12.375-12.375h-111.89zm15.985 49.088c-6.832 0-12.375 5.543-12.375 12.375S349.219 792 356.05 792h79.924c6.832 0 12.375-5.543 12.375-12.375s-5.543-12.375-12.375-12.375H356.05z" />
</svg>