<svg xmlns="http://www.w3.org/2000/svg" width="614.5" height="614.5" viewBox="0 0 614.5 614.5">
    <path d="M163.8 0c-5.26 0-9.56 4.301-9.54 9.563V47.85H60.22c-16.162 0-30.907 6.66-41.609 17.363l-.6.66C7.67 76.535 1.249 91.037 1.249 106.82v53.432c0 5.28 4.302 9.58 9.563 9.56H603.67c5.26 0 9.562-4.28 9.562-9.56V106.82c0-16.183-6.681-30.906-17.343-41.588l-.66-.6c-10.661-10.341-25.205-16.763-40.97-16.763h-65.394c-5.26 0-9.56 4.282-9.56 9.563 0 5.26 4.28 9.562 9.56 9.562h65.395c10.663 0 20.463 4.32 27.646 11.281l.46.48c7.22 7.222 11.741 17.163 11.741 28.065v43.87H20.375v-43.87c0-10.642 4.342-20.441 11.303-27.603l.459-.461c7.26-7.242 17.224-11.764 28.086-11.764h94.037v45.73c0 5.262 4.28 9.561 9.56 9.561 5.261 0 9.563-4.28 9.563-9.56V9.563C173.383 4.3 169.082 0 163.8 0zm286.876 0c-5.26 0-9.56 4.301-9.541 9.563v38.306H202.027c-5.28 0-9.56 4.282-9.56 9.563 0 5.28 4.3 9.56 9.56 9.56h239.108v45.73c0 5.262 4.281 9.561 9.562 9.561 5.261 0 9.563-4.28 9.563-9.56h-.022V9.562c0-5.26-4.281-9.562-9.562-9.562zM10.832 200.1c-5.261 0-9.562 4.28-9.562 9.56v345.867c0 16.224 6.641 30.988 17.304 41.649C29.236 607.858 44 614.498 60.223 614.498H554.3c16.222 0 30.963-6.638 41.646-17.322 10.662-10.662 17.305-25.423 17.305-41.647V209.66c0-5.26-4.302-9.56-9.563-9.56-5.262 0-9.562 4.28-9.562 9.56v345.87c0 10.94-4.48 20.901-11.703 28.124-7.222 7.222-17.184 11.725-28.125 11.725H60.223c-10.942 0-20.904-4.503-28.125-11.725-7.202-7.223-11.703-17.184-11.703-28.125V209.66c0-5.26-4.302-9.56-9.563-9.56zm74.094 24.705c-5.28 0-9.58 4.3-9.56 9.56V357.87c0 5.261 4.28 9.563 9.562 9.563h111.16c5.26 0 9.56-4.282 9.56-9.563V234.365c0-5.26-4.28-9.56-9.56-9.56H84.926zm166.732 0c-5.262 0-9.561 4.3-9.562 9.56V357.87c0 5.261 4.281 9.563 9.562 9.563H362.842c5.26 0 9.56-4.282 9.56-9.563V234.365c0-5.26-4.28-9.56-9.56-9.56H251.658zm166.754 0c-5.262 0-9.562 4.3-9.562 9.56V357.87c0 5.261 4.302 9.563 9.582 9.563H529.594c5.26 0 9.562-4.282 9.562-9.563V234.365c0-5.26-4.281-9.56-9.562-9.56H418.412zM94.486 243.928h92.04v104.379h-92.04v-104.38zm166.735 0h92.037v104.379H261.22v-104.38zm166.773 0h92.037v104.379h-92.037v-104.38zM84.926 397.736c-5.28 0-9.58 4.302-9.56 9.584V530.824c0 5.261 4.28 9.563 9.562 9.563h111.16c5.26 0 9.56-4.283 9.56-9.563V407.3c0-5.26-4.28-9.563-9.56-9.563H84.926zm166.732 0c-5.262 0-9.561 4.302-9.562 9.584V530.824c0 5.261 4.281 9.563 9.562 9.563H362.842c5.26 0 9.56-4.283 9.56-9.563V407.3c0-5.26-4.28-9.563-9.56-9.563H251.658zm166.754 0c-5.262 0-9.562 4.302-9.562 9.584V530.824c0 5.261 4.302 9.563 9.582 9.563H529.594c5.26 0 9.562-4.283 9.562-9.563V407.3c0-5.26-4.281-9.563-9.562-9.563H418.412zM94.486 416.883h92.04v104.379h-92.04v-104.38zm166.735 0h92.037v104.379H261.22v-104.38zm166.773 0h92.037v104.379h-92.037v-104.38z" />
</svg>