<svg xmlns="http://www.w3.org/2000/svg" viewBox="0 0 496 496">
    <path d="M136 0C87.48 0 48 39.48 48 88v8c0 18.28 9.128 35.352 24 45.768v.457c0 20.16 9.392 38.143 24 49.879v17.128L60.168 215.2C25.304 221 0 250.873 0 286.217V352h141.504C114.264 362.696 96 388.848 96 418.912V496h304v-77.088c0-30.064-18.264-56.216-45.504-66.912H496v-65.783c0-28.064-15.984-52.625-40-64.48V96c0-52.936-43.064-96-96-96s-96 43.064-96 96v9.455c-10.12-1.728-20.64-1.911-31.217-.271-.568.088-1.127.24-1.695.336.552-3.136.912-6.304.912-9.52V64c0-12.656-9.84-23.056-22.28-23.936C193.546 15.232 165.713 0 136 0zm0 16c25.552 0 49.423 13.8 62.287 36.008L200.6 56h7.4c4.416 0 8 3.584 8 8v32c0 5.016-1.009 9.903-2.88 14.607a94.971 94.971 0 0 0-13.136 6.416l-.033-25.488-11.344 5.225c-.168.072-16.151 7.24-52.607 7.24s-52.44-7.167-52.535-7.207L72 91.297v28.584c-5.088-6.808-8-15.161-8-23.881v-8c0-39.704 32.296-72 72-72zm224 0c44.112 0 80 35.888 80 80v120.08c-1.384-.312-2.752-.649-4.168-.889L400 209.225v-17.13c14.608-11.743 24-29.718 24-49.878l-.057-50.69-11.343 5.225c-.16.08-16.144 7.248-52.6 7.248s-52.44-7.167-52.535-7.207L296 91.297v25.654c-5.08-2.936-10.456-5.342-16-7.31V96c0-44.112 35.888-80 80-80zM88 114.96c9.512 2.393 25.2 5.04 48 5.04s38.488-2.647 48-5.04v13.72c-16.6 14.984-28.04 35.617-31.08 58.369-5.44 2.072-11.104 3.176-16.92 3.176-26.472-.008-48-21.536-48-48.008V114.96zm224 0c9.512 2.393 25.2 5.04 48 5.04s38.488-2.647 48-5.04v27.257c0 26.472-21.528 48-48 48-2.68 0-5.344-.296-8-.752V177.68c0-12.44-8.888-22.832-20.656-25.184-5.2-9.128-11.784-17.12-19.344-23.896v-13.64zm-63.922 5.065c29.771.13 57.302 16.652 71.106 43.616l2.24 4.359h4.889c5.344 0 9.687 4.344 9.687 9.68V208c0 16.512-5.824 32.449-16.008 45.137l-.04-49.08-11.056 4.566c-.176.08-18.344 7.377-60.896 7.377s-60.72-7.296-60.848-7.352L176 203.871v30.697c-6.472-13.448-9.184-28.576-7.48-43.808 3.92-35.072 31.969-64.408 66.697-69.768a81.652 81.652 0 0 1 12.861-.967zM112 201.504a63.563 63.563 0 0 0 24 4.713c5.536 0 10.96-.793 16.248-2.201.216 4.864.736 9.687 1.672 14.423l-17.64 11.76L112 212v-10.496zm272 .008v13.2l-24 72-14.96-44.888C349.486 231.192 352 219.736 352 208v-2.36c2.656.337 5.328.585 8 .585a63.563 63.563 0 0 0 24-4.713zm-282.064 22.935l19.744 14.809-22.936 13.767-15.297-25.488 18.489-3.088zm295.496.56l12.64 2.104 5.24 26.256-41.007 41.018 23.127-69.377zM192 226.673c10.456 2.44 28.616 5.328 56 5.328s45.544-2.888 56-5.328V264c0 30.872-25.128 56-56 56s-56-25.128-56-56v-37.328zm234.943 3.256l6.264 1.049c27.112 4.52 46.793 27.752 46.793 55.24V336h-32v-24h-16v24H296v-18.488c9.032-8.112 16-18.448 20.04-30.168L360 331.313l72.688-72.68-5.745-28.705zm-360.455.431l26.768 44.618 9.84-5.905 8.591 12.889L104.936 336H64v-24H48v24H16v-49.783c0-27.496 19.681-50.728 46.793-55.24l3.695-.618zm92.145 4.168c1.808 4.672 3.903 9.232 6.431 13.584l-14.113-8.47 7.682-5.114zM136 249.328l19.168 11.496-11.473 17.207 7.24 57.969h-29.878l7.24-57.96-11.473-17.208L136 249.328zm198.4 11.168l11.295 33.897-21.912-21.913c3.944-3.664 7.441-7.704 10.617-11.984zm-165.496 8.568l7.84 4.704c2.36 17.296 10.864 32.616 23.256 43.744V336h-32.936l-6.76-54.04 8.6-12.896zM216 328.4c9.656 4.816 20.496 7.6 32 7.6 11.504 0 22.344-2.776 32-7.6v11.752l-32 25.6-32-25.6V328.4zm73.977 24.264l17.302 3.992-21.703 32.56-23.592-14.16 27.993-22.392zm-83.954.008l27.993 22.392-23.592 14.16-21.703-32.56 17.302-3.992zm-33.966 7.84l33.52 50.271 9.519-5.71 8.633 12.943-6.89 61.984H160v-40h-16v40h-32v-61.088c0-26.232 17.848-48.672 43.408-54.56l16.649-3.84zm151.886 0l16.649 3.84C366.152 370.24 384 392.68 384 418.912V480h-32v-40h-16v40h-56.84l-6.889-61.984 8.633-12.944 9.52 5.711 33.52-50.271zM248 385.328l19.168 11.496-11.44 17.16L263.065 480h-30.12l7.335-66.016-11.44-17.16L248 385.328z" />
</svg>