<svg xmlns="http://www.w3.org/2000/svg" width="189" height="89" viewBox="0 0 50.006 23.548"><path d="M50.006.001a9.515 9.515 0 0 0-.6.163l.02-.044c-.127.075-.392.146-.488.164.008-.021-.011-.045.093-.084-.714.255-.13.24-.683.511a.677.677 0 0 1 .142-.054c.135-.066.276-.065.233-.021.259-.171.292-.102.286-.236.167-.125.394-.103.197.015.17-.083.345-.16.522-.232-.111.023-.224.041-.334.07.06-.135.533-.108.612-.252zm-1.78.384c-.23.017-.582.261-.762.31.286-.015-.146.152.34.004a6.5 6.5 0 0 0-.167.245c-.133.062-.263.13-.393.198.02.042-.222.248-.021.164.03-.029.091-.087.15-.118.01.106-.448.36-.285.373.261-.214.319-.22.454-.4.273-.152.485-.237.632-.267.076-.055.06-.117.163-.177l-.071.037-.076-.131c-.077.073-.168.1-.266.154.125-.13.256-.259.393-.384-.027-.008-.058-.01-.09-.008zm-1.152.5a.462.462 0 0 0-.073.03c-.507.38-.82.703-1.032 1.108.238-.253.523-.528.783-.661l-.04.15c-.307.128-.423.304-.662.507.186-.146.38-.282.575-.415.314-.134.143.01-.046.185.05-.038.099-.07.122-.066-.003-.049.555-.55.038-.195-.048-.105.297-.281.425-.394-.117.046.013-.094-.04-.107-.063.06-.132.14-.25.215-.082-.004.073-.157.224-.232-.18.057.088-.154-.024-.124zm-.404.94a6.47 6.47 0 0 0-.243.116c.003-.008.018-.022.029-.035-.086.083-.156.158-.162.194-.26.297-.492.346-.574.355-.154.11-.036-.132-.092-.157-.2.229-.113.289-.303.52-.074.06-.054 0-.031-.035l-.109.2c-.03-.013-.378.361-.231.088.032-.032.083-.098.13-.143-.332.265-.832.795-.9.714-.155.17-.078.149-.315.426-.035.18.128.076-.052.427l.207-.232c.024-.06.04-.114.071-.177l-.179.267c.089-.186.036-.18.012-.27.286-.411.477-.44.66-.617-.053.156-.227.357-.095.333-.213.15-.103.264-.329.453l.013-.059c-.077.23-.166.206-.222.4-.006-.022-.03-.007-.053.007-.197.366.114-.073-.043.32-.21.3-.189.019-.28.08.24-.586-.137-.073.159-.69-.101-.068-.269.144-.453.458.172-.17.068.223.308.007-.24.485-.016.571-.419 1.019l-.008-.022-.049.254-.211.263c-.006-.244.178-.432.2-.61-.321.285-.173.536-.415.935-.32.266.165-.455.06-.515-.02.098-.203.289-.218.245.261-.359.067-.272.378-.662-.088.228.053-.012.076.055-.001-.082.223-.49.419-.756-.035-.112-.216.202-.36.358-.123.385-.477.646-.53.962-.197.37-.09-.016-.112 0-.223.307-.016.18-.058.294-.219.526-.398.498-.598.845-.057.351-.48 1.038-.759 1.52-.003-.08-.068-.032-.12-.022-.017.37-.017.234-.131.644l.225-.274c-.121.254-.134.508-.343.682.305-.214-.133.445-.2.645-.197.212-.26.51-.424.586l.016-.035-.246.326-.091-.124c-.204.194-.32.527-.23.478-.206.21-.116.063-.196.055.068-.16.169-.511.323-.526-.023.013-.06.06-.054.082.485-.582-.005-.302.174-.633-.117.157-.257.237-.344.427a8.458 8.458 0 0 0-.317.613c.12-.258.246-.324.415-.467-.116.138-.066.212-.197.306l.01-.055-.078.188c-.087-.028-.368.413-.26.11-.152.226.004.122-.13.334.114-.119.223-.242.331-.364l.069.064c-.062.18-.14.174-.262.331l.09.053-.29.217c.08.01-.117.2-.155.266-.158.122-.195-.079-.346.228l.024-.01c-.1.164-.16.26-.365.44-.003-.023.038-.087.058-.119-.292.243-.612.782-.842.792-.035-.08.109-.156.05-.228.495-.324.182-.39.696-.835.177.119.293-.504.529-.469-.192.186-.338.533-.29.513.158-.19.382-.455.509-.574-.15.071-.206-.04-.19-.17-.209.344-.795.785-1.2 1.166l.133.043c-.277.406-.041-.124-.312.136l-.054.184-.024.009-.124.273c.138-.14.012-.142.203-.255.164-.105.06.073.069.163-.122.065-.444.406-.292.145-.095.15-.196.293-.295.441-.027-.037.042-.128.065-.181l-.263.264-.001-.022c-.188.24-.508.51-.633.722.457-.253-.125.236-.05.262-.154.106-.328-.031-.08-.343.129-.008.276-.252.421-.383-.223.128-.244.226-.395.354.073-.13-.251.108-.277.068-.001-.045-.003-.18.221-.303.295-.234.104.064.177-.022.153.028.39-.356.582-.482.026-.008-.022.052-.045.082.146-.133.45-.416.417-.497l-.322.377c-.098.053.062-.157-.084-.09-.07.089-.164.185-.285.266l-.004-.045c-.268.144-.608.457-.86.693.05.19-.023.39-.03.637-.416.316-.87.623-1.356.892a.126.126 0 0 1 .04.106c-.159.044-.385.23-.427.145-.095.167-.473.476-.35.506l-.052.038c-.227.014-.528.1-1.022.336-.096.049-.081.11-.02.177-.114.031-.223.057-.323.105.057-.075.082-.146.223-.224-.256.12-.515.238-.775.35l.041-.066-.277.199c.163-.1.435-.207.411-.092-.315.23-.553.23-.801.471-.066-.155-.177-.134-.117-.266.02-.008.031-.009.038-.008.075-.131.266-.328.436-.432-.658.243-.47.222-1.05.428-.086-.069.477-.318.32-.323l.54-.193c-.084.048-.086.073-.122.107.33-.229.496-.213.713-.443.188-.043-.23.195-.038.119a.872.872 0 0 0-.3.37c.426-.162.18-.22.506-.429l.295-.055c.146-.095-.074-.018-.096-.04.177-.117.275-.102.418-.175-.052.003-.16.03-.152-.015.269-.057.473-.226.755-.228-.156.014.058-.227.144-.3l-.504.13c-.537.345-.917.472-1.51.828l.013-.066c-1.053.299-.713.614-1.584.972-.073-.115-.399.174-.412.04.267-.093.195-.12.098-.148-.135.103-.203.228-.516.292.086-.103-.194-.06.087-.192-.41.12-.628.207-.799.386-.629.325-.24-.069-.88.197l.083-.077-.407.139.154.024-.47.213c-.285.152.145.047.12.11l.077-.122c.206-.031.461-.195.521-.142-.319.11-.22.159-.34.233l.3-.128.12.04c.31-.09.55-.15.706-.288-.137.008-.184.134-.313.118.112-.163.487-.296.837-.464.019.025.137-.009.096.031-.003.014-.068.035-.105.043a.024.024 0 0 0-.012-.008c-.026.015-.011.014.012.009.044.041-.146.145.207.055-.094.124-.306.349-.288.373-.196.09-.48.195-.652.217l.008-.02c-.18.044-.532.242-.586.167-.103.052-.4.163-.077.122l-.497.19c.044-.17-.442-.073.028-.33-.011.005-.185.07-.33.122.147-.15-.119-.108-.396-.05l-.046.101c-.25.01-.411-.032-.722.076l.358-.258.072-.097-.454.195c.054-.055-.172.007-.082-.063-.035.015-.203.067-.151.079l.096-.024c-.226.174-.063.19-.466.367.276.02.378-.07.505-.154.044-.019.081-.03.12-.044-.227.16-.457.317-.69.472l-.22.063c-.109-.031-.439.064-.324-.058-.04-.034.069-.074.218-.081.024.006-.01.02.015.026.032-.06.037-.126-.15-.152.183-.02.209-.015.327-.076l-.184.022c.267-.068.653-.272.631-.345-.06.122-.253.054-.4.062.107-.04.329-.146.147-.122-.054.055-.532.207-.177.182-.142.056-.332.144-.505.144.188-.087.052-.1.094-.18-.163.093-.145.166-.167.206-.519-.005-.747-.163-1.303-.015-.072.024.339-.078.294 0-.398.177-.554-.059-.906.032l.115.107c-.11.034-.38.081-.514.103-.038-.036-.43-.084-.148-.146-.622-.018-.527.302-1.244.304.332.014.37.004.63-.015-.274.085-.04.057-.065.14-.171-.063-.705.032-.345-.085-.221.008-.665.016-.766.067l.196.035c-.321.01-.636.087-.767.174.4-.018.383-.167.89-.171.555.058-.128.092.24.192l.389-.108-.186-.001c.053-.12.608-.027.548-.168.405.08.518.003.964.062.099-.06-.062-.045-.186-.04.223-.018.22-.158.518-.106.148.002.033-.105-.225-.074.222-.02.43-.067.676-.083l-.26-.06.256-.034-.223-.024c.489-.074 1.048-.141 1.325-.066-.406.166-1.12.226-1.349.406.1.032.328-.151.47-.04l.118-.102c.146-.049.486-.134.53-.055-.4.127-.498.215-.699.317.001.018-.035.033-.095.045l-.007.002.004-.002c-.122.024-.325.04-.438.075-.149-.002-.053-.063-.04-.083-.51-.05-.83.26-1.37.227-.01-.074-.422-.065-.297-.112-.31-.002-.475.099-.678.16-.047-.066-.474-.006-.32-.085l-.281.12c-.197-.036-.604.024-.671-.056-.215.023-.061.119-.358.078.013-.018-.01-.03.052-.024-.133-.038-.46-.047-.602.004.209.03.047.023.296.046-.006.047-.29.107-.571.039.39-.1-.298-.126-.115-.182-.608-.042-.968.086-1.489.145-.605-.04-1.34-.19-1.822-.172l.06.014-.29.017c-.16-.03.02-.12-.235-.136.103-.089.437.062.704.025-.419-.172.42-.039.144-.169-.2.19-.93-.122-1.326-.091-.36-.102.185-.055.007-.106l-.13.042c-.14-.05-.183-.083-.169-.128a4.257 4.257 0 0 0-1.162-.199c.425.068-.169.062.24.172-.134.005-.406-.05-.658-.124.25.042-.279-.244.246-.05-.045-.125-.27-.058-.503-.149.133.002.422.02.4.001-.402.038-1.108-.45-1.273-.408-.285-.004-.7-.087-1.042-.137-.272-.203-.626-.31-.946-.501l.078-.007c-.177-.115-.486-.228-.745-.398l-.02-.103a6.137 6.137 0 0 1-.808-.459c-.029.037.227.193.078.163.135.089.257.151.235.078.136.086.103.153.198.254a16.544 16.544 0 0 1-.562-.288c-.039-.032-.05-.047-.05-.055l-.085.047c-.136-.093-.163-.137-.12-.152-.31-.172-.477-.152-.763-.399.171.037.283.06.498.212L5.13 18c.2.057.791.49.762.308-.415-.21-1.001-.557-1.38-.744-.102-.215-.423-.336-.654-.616-.02-.05-.08-.145-.003-.129l.073.067c-.326-.34-.74-.687-1.067-.961l-.061-.23c-.416-.588-.044.211-.517-.363-.028-.203-.48-.78-.42-.854-.08-.112-.11-.168-.174-.149.057.112.223.335.076.242-.161-.2-.177-.332-.282-.504.021.004.143.1.092.04-.293-.402-.694-1.224-1.028-1.6.084.161.151.152.216.384-.045.016-.089-.103-.132-.142-.067.062.152.203.202.454-.092-.11-.18-.223-.27-.338l.025.25c-.204-.26-.4-.53-.587-.808.24.782.695.977.89 1.605-.07-.078-.045.022-.05.055a.998.998 0 0 0-.11-.115c.081.127.104.136.11.115.136.164.258.38.373.46l.17.284c-.04.021-.208-.026-.378-.322.605 1.04 1.338 1.625 2.087 2.539.019.051-.13-.096-.078-.02.13.096.336.26.35.232-.024.003-.07.007-.145-.065.465.402.617.72.965.926-.021.059-.256-.168-.231-.12.434.435.794.49 1.286.843-.21-.05.062.147.174.278.451.23 1.376.76 2.082 1.034-.27.101.757.365.748.54.155.069.41.14.452.086-.1-.004-.29-.142-.249-.162.23.085.582.215.642.15l.255.185c.04-.054.156-.095.312-.04.298.276-.002-.118.472.132-.136.028-.254.04-.312.077.24.097.218.048.396.087.042.066-.214.079-.412.048l.302.15c.339.003.908.02 1.396.176-.095.038-.257-.005-.147.11.221.032.533-.008.805.11-.04-.004-.019.013-.059.011.52.02.372.106.827.206-.009.007-.012.018-.027.025l.29-.01c.61-.048.638.204.986.314l-.08.003c.21.132.94.122 1.14.18-.247-.089-.078-.07-.252-.194-.224-.002-.171.132-.537.045.06-.093.53-.073.634-.143a.421.421 0 0 1 .348.246c.52.03.809.109 1.448.1.232-.06.409-.267.936-.123l-.03.035c.02-.065.258.019.366-.031-.183-.106.225-.07.002-.169.308-.01.362.133.394.22.216-.15.616.065 1.087-.041-.082.066-.6.098-.383.16l.602-.195-.27.016c.455-.134.59-.014.862.012.056.04-.118.068-.25.074.142-.003.367-.037.549-.086-.036.015-.052.028-.029.036.052-.03.09-.039.142-.068-.02.007-.047.014-.072.02.162-.058.584-.151.76-.246h.078a.061.061 0 0 1-.033.023 1.01 1.01 0 0 0 .098-.023l.245-.005-.046.025.092-.027.253-.01.124-.051-.063.004c.009-.113.297-.236.652-.277-.025-.002-.21.014-.48.034l.083-.048c.399-.032.774-.072 1.123-.114a1.648 1.648 0 0 1-.408.099c.39.057.928-.226 1.132-.114-.542.242-.829.218-1.424.358-.325-.066.377-.129.385-.197l-.345.024c.057.062-.657.138-.46.263.759-.052 1.51-.164 2.152-.3-.154.297-.314.592-.478.886v.001c-.007-.033-.136.021-.283.07.025-.04.051-.087-.126-.05-.368.002-.54.188-.805.211l.078-.025c-.25.004-.564.055-.745.142-.216-.106.707-.126.308-.19.278.007.65-.15.858-.19-.355.027-.675-.06-.587-.152-.736.19.042.291-.61.431l-.46.027-.142.167c-.275.031.156-.138-.264-.082-.108.082-.388.044-.467.096.009-.035.012-.071-.205-.057-.013.019.01.075-.16.087-.129-.138.435-.065.225-.182-.512.036-.277.163-.384.22.014-.018.04-.008.106-.01-.002.048-.211.022-.186.077.084 0 .166-.02.237-.04-.145.06.249.08.397.067.334-.1 1.032-.141 1.494-.223-.04.012-.118.036-.065.052.66-.096.94-.093 1.683-.265l.07-.121c.65-.131.255-.356.407-.414.141-.037.249-.129.383-.101l-.058.055c.394-.126.101-.138.461-.205.273-.13-.256.043-.087-.062.387-.064.188-.256.796-.31-.02.04.097.106-.245.206l.357-.009c-.39.14-.148.068-.556.179-.164.15-.103.208-.259.338.15-.063.1-.14.333-.19.287-.042-.032.063-.051.104.342-.213.441.008.743-.194-.096-.106-.031-.118-.288-.136.224-.1.542-.098.55.015l.021-.11c.061.01.247-.041.266-.02l.065-.07c-.192-.025-.338-.022-.624.093.102-.097-.205-.121.17-.245.164-.044.035.05.053.076.83-.316.907-.086 1.557-.361-.15.1-.58.171-.88.336.22.026.41-.155.601-.205-.153.098-.171.14.039.116l.063-.084c.118-.038.325-.116.35-.093 0-.023-.058-.02-.17-.003.269-.176.803-.405 1.331-.561.01.137-.71.343-.3.297.205-.1.326-.295.715-.372-.127.13.194.004.207.049l.443-.352c.248-.087.529-.202.73-.342a1.238 1.238 0 0 1-.286.139c.274-.292.641-.236 1.035-.502l-.171.141c.332-.128.563-.3.79-.475l.035.087c-.025-.13.497-.447.594-.55-.715.497-.696.272-1.397.737.223-.257.413-.38.655-.645.118-.052.173-.058.195-.037.072-.097.061-.184.218-.311l.078.015c.52-.236.339-.437.82-.68.154.045-.313.38-.567.608.278-.033-.446.317-.107.304l.106-.147c.148-.085.164-.019.073.037.184-.134.15-.085.192-.18.737-.458 0 .186.755-.218-.065.079-.27.2-.195.234l-.41.213.04.084c.507-.292.735-.578.872-.852-.39.36-.1-.05-.353.058a.314.314 0 0 1 .217-.132c.017-.044.227-.201.17-.225.228.125 1.16-.528 1.08-.195.306-.136 1.037-.847 1.557-1.325l-.105.174c.69-.338.39-.55.666-.88-.222.317.31-.158.464-.22.192-.291.3-.57.631-.91.132-.01.253.084.466-.137l.078-.208c.21-.222.418-.577.586-.69l-.021.036c.255-.234.153-.332-.027-.138l.16-.286.03.01c.218-.37.35-.78.701-1.351-.022.203.427-.333.113.193.06-.172-.129.03-.182.037-.141.17-.177.391-.227.477.085-.029.148.097.134.236.156-.444.938-1.409.774-1.627.293-.451.586-1.085.92-1.59-.022.017-.064.049-.072.028l.345-.403-.04.115.233-.263c.052-.011.022.124-.037.252-.028.078-.092.126-.066.05-.108.362.182-.25.143.003-.057.072-.096.184-.131.24.26-.339.216-.585.461-.744.025-.214.144-.611.39-.905-.023.155.189-.36.192-.143.022-.154.255-.405.222-.49-.005.058-.087.2-.165.285.053-.148.005-.197.11-.353.022-.016.03.005.03.005.072-.24-.157-.188.061-.558.54-.987.124.262.249.15-.025-.064.193-.508.355-.666l-.007.058c.042-.107.094-.272.205-.341-.038-.107-.035-.263-.042-.363l.272-.417-.02.112c.049-.105.105-.187.16-.27.081.007-.02.113-.085.252.096-.03.152-.111.166-.245l-.04.047c.042-.125.245-.557.003-.277.115-.263.278-.245.368-.414.056.021-.038.167.054.12.124-.133.207-.22.283-.35-.108.098-.013-.066-.188.086.033-.088.176-.273.15-.284-.04.065-.055.12-.168.196.137-.21.31-.403.517-.553.003.016-.005.043-.016.072.153-.308.532-.622.627-.849l-.09.045a.544.544 0 0 1-.224.208c.164-.191-.203.041-.04-.173.242-.286.575-.386.66-.607-.291.193-.696.454-.763.594l.173-.147a9.666 9.666 0 0 0-.274.462c-.056-.029-.294.345-.353.276.11-.14.225-.254.319-.357-.053-.007-.353.32-.487.451l.185-.149c-.236.355-.6.748-.802 1.11.138-.302-.298.286-.203.034.024-.115.19-.203.142-.177-.046-.077-.167.19-.265.22.016.067-.206.426-.01.261-.11.088-.212.381-.364.501.111.008-.14.323-.14.404a.664.664 0 0 1-.15.149l.232-.568c.06-.066.155-.2.11-.172l-.028-.023c.173-.414.367-.822.477-1.025l-.028.116c.111-.338.422-.518.584-.833.004.023-.017.056.028.012.298-.3.304-.538.608-.718l.005.068c.016-.025.137-.194.067-.21-.2.209-.222.265-.416.435.04-.109.178-.3.304-.416l-.05-.082c.101-.224.366-.262.478-.475zm.225.83c.006-.007.013-.016.015-.023l-.024.03zm-6.257 9.754a.104.104 0 0 0-.05.034c.02.006.036-.008.05-.034zm-13.68 9.43l-.046.051c.043-.03.054-.044.047-.051zm-4.732.226l-.04.016c.014.028.376.04.36-.034zm-.345.038c-.161.043-.35.081-.578.145l.427-.064zm-.15.081c-.233.127-.468.25-.705.372.249-.007.223-.1.46-.145a.134.134 0 0 0-.077.058c.384-.04.767-.088 1.15-.141-.041-.034-.378-.039-.16-.092-.104-.03-.4.045-.437.103l.077-.07c-.256.11-.454-.024-.287-.088zm-.705.372l-.088-.003c-.006.023-.033.054-.079.087zm-.167.084l-.225.112a.937.937 0 0 0 .225-.112zm1.32-1.536l.095-.045c0-.005.001-.01-.006-.016l-.092.06zm11.53-4.116h-.001zm-.001 0c.066-.144.338-.361.655-.573l-.109.13c.266-.157.32-.283.401-.387-.001.023.025.019.076.008.209-.179.262-.347.11-.316l-.053.079-.203.04c.042.18-.466.423-.68.653.133-.181.195-.407.471-.48l-.074-.053c.183-.143.386-.184.439-.33l-.206.176-.023-.04c-.153.114-.308.318-.485.373-.095.136-.167.295-.53.504l.003-.022c-.155.288-.722.333-.871.498-.026.202.43-.176.585-.195-.119.146-.327.169-.148.172-.317.28-.282.007-.523.274l.188-.062c-.096.142-.341.23-.443.37.035.107.23-.127.503-.244l-.072.14c.157-.124.312-.252.464-.38.077-.21-.06-.125.198-.403.141-.017.265.007.327.068zm.319-.72l.014-.02-.026.025zm.014-.02l.135-.136a.648.648 0 0 0-.135.136zm4.556-3.643a.516.516 0 0 0 .094-.06c-.015-.005-.049.018-.094.06zm1.822-1.97c.022-.094-.045-.128-.118.052.044-.028.125-.11.118-.052zm3.605-6.372l-.013.031.017-.036zm3.871-2.41c-.079.004-.23.078-.37.166.167.102-.268.25-.24.45.325-.227.336-.425.61-.616zm-.37.166l-.001-.001-.008.006.008-.005zm-.01.005c-.186.116-.353.258-.308.327a.867.867 0 0 1 .309-.327zm-.955-.029c.05.053-.315.284-.157.259.05-.089.236-.235.157-.259zm.16.024l-.212.2.157-.092c.001-.024-.027-.04.054-.108zm-.47.355l-.008.008.008.016zm1.109.102l-.023.004-.148.17.024-.006zm-1.072.098zm.031.978c-.028.062-.053.115-.028.105a.518.518 0 0 1 .028-.105zm-3.52 2.045c-.06-.01-.089.148-.118.225.037-.055.097-.126.118-.225zm-.254 2.388l-.013.14a.861.861 0 0 1-.071.29.635.635 0 0 1 .136-.201l-.103.58c.16-.233.026-.354.22-.64.085.074.145.083.039.443-.172.27-.048-.047-.168.073 0 .278-.25.219-.241.518-.143.276-.165.153-.251.218.143-.275-.168.072.001-.279-.211.244-.01.258-.179.468l-.12-.02c-.148.194-.46.616-.567.934.205-.2-.019.177.062.174-.06-.093.195-.384.232-.357-.09.203-.363.693-.447.775l.276-.326c-.025.157-.218.664-.214.686-.13.115-.257.33-.357.367l.102-.303.12-.053.019-.2c-.135.152-.42.467-.538.494.271-.378.606-1.011.855-1.854 0 0 .01.02-.005.059.218-.38.23-.417.387-.727l-.01.117c.091-.02.163-.303.295-.553.006-.093.06-.271.158-.345l.026.064c.065-.02.203-.265.356-.542zm-.54.823v.026c.02-.016.047-.091.06-.129-.022.034-.042.068-.06.103zm.453-.384a1.4 1.4 0 0 1-.226.349c.043-.034.108-.083.138-.078.05-.09.05-.173.088-.271zm.293 1.15l-.137.3.128-.18zm-.246.02l-.023.156.04-.113zm-1.882.26c-.42.48-.274.807-.66 1.181l.207-.104c.207-.423.231-.652.453-1.077zm-.58.635l-.17.057c.133-.006-.085.366.017.354.147-.276-.007-.177.152-.41zm-.27.225c-.037.053-.062.094-.08.13a.709.709 0 0 0 .08-.13zm1.43.355c-.015.037-.197.24-.076.185zm-1.102.862l.007.021c-.107.21-.093.28.007.218-.033.076-.099.186-.128.259-.086.096-.283.404-.37.372.166-.212.14-.2.022-.136-.103.255-.46.604-.344.669-.24.288-.092.071-.303.241-.053 0-.013-.09.024-.18a23.82 23.82 0 0 1-.69.834c.04.108.543-.45.382-.089-.042.089.08.187-.212.427-.013-.006.002-.036.023-.067-.105.135-.15.131-.294.248-.107-.028.11-.21.147-.345-.069.098-.132.222-.231.307l-.003-.047-.263.292c-.064.166.218-.202.273-.177l-.138.22c-.19.217-.74.763-1.031.824-.283.182-.101.17-.126.271-.103.192-.313.233-.447.383.053.054-.134.197-.083.276l-.271.184c-.061.221.326-.218.43-.227.213-.013-.163.183-.03.17.189-.168.163-.23.245-.323.106-.099.184-.124.21-.084-.343.217-.107.216-.376.408l-.026-.016c.052.08-.356.325-.47.466-.353.13.149-.288.12-.306l-.332.288c.115-.164-.074-.097.095-.296-.196.182-.271.132-.442.33.152-.282-.352.119-.427.065.227-.202.764-.415.708-.358-.024-.015.273-.225.407-.283l.084-.229c-.186.142-.405.378-.4.239l-.22.235c.16-.33.15-.318.337-.555-.557.26-.773.769-1.257.948l.057-.055c-.8.581-1.1.542-1.377.483.12-.086.234-.17.335-.247l.07.057c.589-.332.86-.785 1.44-1.156-.03.12-.27.239-.218.25.347-.234.172-.372.562-.533-.446.38.313-.19-.056.196.505-.547 1.214-.915 1.557-1.265-.127.042.092-.193.09-.215.098-.08.104-.011.03.06.216-.135.295-.115.313-.035-.121.121-.246.239-.37.357.139-.096.247-.112.353-.198a.656.656 0 0 0 .144-.161c.044-.082.022-.08-.005-.109l.301-.593.003.022c.121-.136.246-.27.363-.41l-.015.078.167-.285c.063.069.099-.044.134.013.257-.042.43-.58.76-.873l-.009.08c.084-.24.524-.642.764-.938zm-4.136 4.529l.023-.012.004-.022zm2.797-4.291l-.013.055zm-.013.055l-.172.156.16-.101zm1.78.477l-.044.01c.151-.06-.228.33.006.15.109-.159.08-.167.038-.16zm-40.341.277c.077.172.239.533.339.604-.08-.07-.152-.365-.249-.44l.022.006zm37.612.32l-.023.01-.124.193.024-.01zm.564 1.035c-.117.066-.14.11-.199.194.072-.075.167-.126.199-.194zm.22.078l-.064.089c.02-.025.04-.053.064-.09zm-35.925.198a.28.28 0 0 0 .043.126zm36.164.28l-.084.228.047-.068zm-1.328.218l-.039.078c-.114.103-.18.169-.13.175l.073-.059c-.043.095-.013.06.028-.022.072-.069.05-.085.046-.106zm-.396.4c-.064.058-.44.306-.42.21-.12.133-.364.247-.428.318.259-.14.08.048-.052.197-.157.088-.025-.085-.156-.004l-.317.261.29-.209-.024.145.023-.03c.445-.418.133.084.575-.364-.012.024-.013.04-.017.057.172-.192.552-.47.526-.582zm-.526.58a.498.498 0 0 0-.06.082c.043-.038.054-.06.06-.081zm.105-.37a.255.255 0 0 0 .06-.099.27.27 0 0 0-.06.1zm-2.885.627c-.285.202-.36.217-.704.459.292-.147.373-.18.392-.115.271-.154.171-.22.312-.344zm-29.61.044c.354.321.683.619 1.293 1.045a13.4 13.4 0 0 1-1.292-1.045zm28.648.538c-.054-.01-.219.123-.172.099.054-.027.136-.08.188-.085a.019.019 0 0 0-.016-.014zm1.89.321c-.11.066-.262.026-.301.168.051.014.22-.13.302-.168zm-29.122.28l-.085.048c.053.01.23.087.27.156l-.098.004.355.097a14.62 14.62 0 0 1-.442-.305zm-.1.047c-.001.001 0 .003.004.006l.01-.006a.032.032 0 0 0-.013 0zm28.616.002l-.228.168.052-.007zm-1.967.05c-.026-.004-.08.02-.178.093.056-.024.158-.033.148.034.04-.044.074-.123.03-.128zm2.862.223c-.545.269.1.067-.278.302.233-.12.392-.115.388-.074.183-.217-.461.09-.11-.229zM5.96 17.91c-.038.066.25.209.32.236l.136-.156c-.253-.12-.298-.028-.197.097-.24-.103-.051-.167-.259-.177zm28.603.132s-.028-.002-.065.004c-.007.015.01.016.065-.004zm-27.922.102c.048.035.112.09.18.116.028-.038-.11-.088-.18-.116zm23.78.208l-.068.048a.364.364 0 0 0 .069-.048zm-24.428.163l-.04.022c.034-.002.13.037.04-.022zm26.287.069c.093.068.134.122.025.152l.221-.038-.275.176c.158.01.326-.157.472-.238.194-.038-.343.274-.468.482-.138.142-.54.254-.497.183.052.132-.511.332-.69.488-.497.226-.4-.016-.825.223l.19.002c-.384.196-.548.283-1.006.418-.089-.07.212-.056.294-.143l-.244-.01c.095-.04.251-.19.279-.1-.014-.046.108-.175-.156-.027l.183-.15a.14.14 0 0 0-.056-.007l.182-.088c.09-.002.23-.066.38-.05.02.023-.106.088-.175.132.203-.043.365-.128.464-.196-.302.11-.162 0-.258-.045.167-.108.466-.221.565-.289.259-.083.5-.096.366.045.142-.107.322-.155.45-.311-.268.231-.092-.174-.431.126-.172-.062.296-.23.521-.286-.095.072.012.067.002.111.283-.192.097-.205-.132-.126l.318-.24-.036.016zm1.562.062c-.192.21-.793.541-.701.62.207-.085.424-.248.495-.346l-.088.033zm-26.165.03l-.003.124.253.147c.004-.08.005-.163-.25-.272zm.25.271c-.002.035-.005.069.014.103l.154-.007zm-.253-.147l-.183-.11.182.125zm22.624-.035a.175.175 0 0 0-.017.03c.02-.014.028-.027.017-.03zm-1.575.122l-.196.06c.061-.005-.009.111.059.04zm3.42.127c-.054.002-.35.13-.306.172.119-.051.21-.1.305-.172zm-23.958.024l-.09.005.171.094zm.539.151c-.143-.009.194.201-.05.187.378.168.931.45 1.01.34-.02.012-.058.035.016.079l.26-.019-.202-.108c.26-.013.984.249 1.102.348-.432-.096-.261.095-.824-.168.015.04.104.132-.034.103.697.2 1.311.44 2.072.506-.552-.24.396.006.245-.17l-.321-.029.034-.029-.38-.083c.061.08.12.098.087.156-.5-.156-.142-.114-.488-.294l-.558-.152.05-.005c-.047-.013-.07-.011-.089-.006a19.045 19.045 0 0 1-1.836-.637.525.525 0 0 0-.094-.018zm19.076.238l-.279.102.027.003zm-1.566.28l-.205.1.052.008.203-.1zm-16.349.21a.77.77 0 0 0 .117.034zm18.99.046a.142.142 0 0 1 .074 0c.02.022-.6.553-.803.7-.274.11-.573.205-.754.232l.082-.043c1.32-.43.705-.399-.14-.356.437-.122.898-.25 1.35-.395l-.073-.027c.111-.026.19-.092.264-.11zm-2.477.01l-.164.068a.69.69 0 0 0 .164-.068zm-14.486.159l.246.059a1.742 1.742 0 0 0-.246-.059zm17.428.043c-.023.056.051.08-.211.154.01-.03-.011-.038-.05-.036zm-17.182.017c.171.054.314.125.49.182-.295.053.293.082.193.17a.885.885 0 0 1-.41-.086c-.052.044.091.124.06.183.442.162.56-.078.996.04-.028.06-.176.092.118.134h-.077c.48.007.344.204.666.074l-.02.09c.223-.038.64.015.878.027l-.017.017c.672-.04.374.02 1.122.032l-.352.082c.255.065.321-.05.505-.025-.014.017.025.088-.152.093.307-.034.612-.074.916-.118.218-.063-.042-.07-.073-.111v-.001c.081-.056.47-.01.49.047-.053.023-.267.042-.134.082l.313-.141c.411.098-.316.191-.524.234.422.032.55-.063.997-.061-.132-.013-.215-.051-.285-.084-.014-.104.401-.054.698-.068-.19-.043-.08-.082.056-.125a.135.135 0 0 0 .053-.018l.047-.015h-.036c.002-.012-.006-.025-.032-.045-.247.036-.437-.052-.596-.053.157.172-.543.036-.744.08l-.232.01-.086-.003c-.017-.02.008-.041.141-.07-.111.03-.477.002-.446.057-.279-.013-.557-.03-.835-.052a.224.224 0 0 1-.07-.034c-.03.008-.035.017-.032.026a24.657 24.657 0 0 1-3.586-.55zm6.554.633l.305-.008c.003.036-.05.078-.038.11l.457-.024c-.158-.041.114-.071.14-.11l-.559.024c-.002-.026-.038-.05-.163-.063-.018.025-.077.05-.142.072zm7.1-.616c.018-.002.03.001.039.013l-.155.057.01-.018a.088.088 0 0 0 .033-.037c.03-.006.054-.013.073-.015zm1.177.798c.028 0 .044.005.037.022.01.114-.35.222-.434.344-.082.056-.509.17-.434.068.308-.042.213-.28.526-.213.025-.077-.054-.084-.164-.068.032-.024.05-.045.049-.061l.306-.077a.807.807 0 0 1 .114-.015zm-8.846.128a.997.997 0 0 0 .167.003zm10.696.023l-.359.131c.121.054.1-.037.315-.09l-.201.166c.19-.054.3-.203.245-.207zm-17.901.229l.011.018c-.03.017-.262-.018-.225.036l.35.065c-.08-.025-.1-.061-.124-.1.006-.005.006-.01-.012-.02zm17.416.015c0 .003.002.005.001.008 0-.003.003-.007-.001-.008zm-3.505.043l-.046.093c-.08-.005-.107-.033-.134-.064zm-.58.09l-.026.007a.731.731 0 0 1-.166.02zm-11.374.392l-.087.002c.05.009.074.005.087-.002zm4.656.583a1.848 1.848 0 0 0-.225.002c.123.058.36.02.44.007-.137 0-.175-.006-.215-.009zm3.352.002l-.026.039.06.002c.005-.02-.003-.035-.034-.04zm-8 .03c-.062-.002-.12 0-.176.005-.253.07-.144.253-.176.419.027.048.634.175.678.068-.271-.12.408-.03-.113-.151-.035-.075.226-.12.467-.048-.03.062-.247.002-.105.092.176-.047.23.011.188-.093.285-.018.325-.083.52-.12-.297 0-.854-.159-1.283-.172zm1.283.171a.4.4 0 0 0 .15-.02 1.385 1.385 0 0 0-.15.02zm5.56-.118c-.9.155-1.502.482-2.372.627-.03-.085-.708-.083-1.036-.125.13-.085.375-.099.628-.108l-.632-.043-.094.177c-.916-.043.234-.13-.184-.193-.254 0-.348.061-.508.07.73-.003-.117.222.62.237-.112.119-.541.1-.788.042-.272-.145.255-.065.328-.179-.296-.005-.246.021-.377.077-.46-.07-.977.045-1.231-.158-.338-.02-.324.04-.526.073-.053.111.392.138.558.228-.013-.01-.02-.022-.012-.03l.288.064c-.271-.079.055-.122.204-.115.107.01.321.027.288.06l-.166.01c.206.064.471-.045.686.044.01.03-.075.036-.09.053.256-.066.495-.041.866-.08l-.221.113c.303-.119.963-.044 1.423.04-.05-.024-.142-.041-.086-.065.27-.023.474.066.347.132.265-.1 1.013.093 1.37-.058a31.168 31.168 0 0 0 1.605-.735c-.059.02-.123.039-.19.05-.155-.102-.232-.084.017-.207-.248.077-.146.16-.526.188.146-.065.175-.195-.188-.189zm-4.911.047c-.108 0-.178.021-.183.08.146.008.382.039.6.007l-.018.168c.317.021.05-.124.496-.087l-.13-.019c.324-.026.884.035 1.265.044-.045.05.229.072.182.15.262-.009.52-.022.656-.103.16.03.406-.042.61-.01-.086-.048.291-.164-.206-.103.04-.007.015-.018.055-.025-.32-.067-.449.045-.725.041-.164-.05.271-.071.115-.094-.345.042-1.075-.094-1.061.085-.252-.002-.284-.044-.357-.081-.309.128-.976-.054-1.3-.053zm2.212.343l-.081.004.077.005c.003-.003.003-.006.004-.01zm1.916-.315l-.105.006-.158.03zm4.873.064a.538.538 0 0 1-.242.027zm-5.522.138a.19.19 0 0 0 .07.016.515.515 0 0 0-.07-.016zm-2.6.03l-.244.022.025.013.244-.021zm1.94.2l-.268.027.024.01zm-3.836.165c-.049.003-.11.012-.164.005.132.028.174.026.257.024-.007-.03-.044-.033-.093-.03z"/></svg>