<svg xmlns="http://www.w3.org/2000/svg" width="78" height="11" viewBox="0 0 20.637 2.91">
    <path d="M20.13 1.012c.046-.01.087.045.069.07.095-.067.097.009.11-.12.06-.064.126.024.056.076l.176-.079-.105-.02c.028-.108.168.032.202-.093l-.191.01.01-.036c-.044.04-.128.023-.157.008.004-.018.001-.047.035-.05-.23-.008-.062.189-.253.224.012-.002.027 0 .047.01M19.934.749l-.08.134-.136-.034c0 .046-.099.084-.032.125.013-.007.038-.021.059-.017-.015.1-.18.05-.14.152.107-.027.123-.005.189-.087.098.01.169.033.214.07.03-.015.033-.077.07-.09l-.025.004-.004-.151c-.03.032-.06.017-.094.02l.158-.177c-.051-.141-.206-.058-.268-.117.077.127-.061.063.089.168M20.078 1.003h.004zM8.301 1.887c-.033.002-.043.038-.048.056l.377-.003c-.012-.04-.12-.089-.048-.113-.032-.044-.13-.006-.145.048l.027-.06c-.087.077-.146-.076-.09-.121h-.007l-.24.3c.088.017.068-.104.174-.107M.551 1.737c.05-.014.055-.028.05-.043a.193.193 0 0 0-.05.043M8.07 2.063l-.075.094a.332.332 0 0 0 .075-.094M8.592.64c0-.004.002-.008 0-.015l-.034.047zM6.358 2.415l-.024.007a.078.078 0 0 0 .024-.007M9.615.106l-.168.09c.022-.043-.059-.03-.023-.08-.013.007-.073.024-.057.046l.034-.003c-.088.124-.034.172-.181.267.09.073.131.006.18-.05.016-.01.029-.013.043-.018l.14-.173zM2.889 1.032l.002-.01c-.002.003-.002.007-.002.01M2.898.982l-.008.04c.01-.02.044-.039.008-.04M8.098 1.983a.224.224 0 0 1-.028.08l.057-.07c-.008-.001-.019-.006-.029-.01M8.226 1.712l.141-.018.052-.064c-.054.024-.117.04-.193.082" />
    <path d="M6.582 2.488c-.293.02.072-.146-.063-.181-.081.017-.11.086-.16.108.231-.06-.032.228.202.191-.033.126-.169.137-.248.104-.09-.121.078-.089.098-.208-.093.02-.077.042-.117.11-.147-.028-.305.148-.393-.02-.107.027-.1.085-.161.149-.012.129.159.068.198.17-.008-.012-.024-.033-.02-.052l.093.028c-.088-.045.012-.13.059-.14.034-.002.102-.008.093.028l-.052.027c.066.041.147-.094.217-.024.003.03-.023.043-.027.06.078-.088.154-.083.27-.145l-.067.128c.093-.141.304-.101.45-.027-.016-.021-.046-.036-.028-.061.086-.03.15.057.11.125.085-.107.32.089.434-.049l.525-.652a.17.17 0 0 1-.063.035c-.047-.112-.073-.099.01-.205-.082.06-.05.15-.173.155.048-.057.06-.186-.058-.2-.295.113-.491.434-.767.597-.01-.087-.227-.062-.332-.083.04-.093.118-.12.2-.138-.052-.006-.14-.008-.204-.013z" />
    <path d="M7.267 2.196a.083.083 0 0 0-.022-.016c.004.007.01.013.022.016M6.836 2.32l.001-.01-.025.008zM8.029 1.787c.017-.025.03-.032.048-.056-.011.008-.024.014-.038.022-.012.012-.018.024-.01.034M8.088 1.94l-.01.035.02.008c.002-.02 0-.035-.01-.043M5.463 1.704l-.029.019c.017-.002.025-.01.029-.02" />
    <path d="M6.255 2.34c.102-.008.012-.129.157-.13l-.043-.007c.103-.056.285-.03.408-.035-.014.052.074.063.06.143.084-.019.167-.037.21-.12.052.028.131-.045.197-.011-.027-.048.094-.164-.066-.105.013-.006.004-.017.017-.024-.103-.068-.145.047-.234.048-.053-.047.087-.076.037-.096-.112.045-.35-.057-.343.123-.08.013-.092-.027-.116-.06-.128.191-.477-.082-.475.163.047-.01.123-.005.192-.057zM7.858 1.8c-.007-.001-.015 0-.02-.003a.09.09 0 0 0 .02.003M9.017 2.54l-.078-.014c.019.025.047.024.078.015m.126-.032l-.043.16c-.242.039-.33-.006-.542 0-.016-.021.01-.035.023-.043-.15.02-.372-.014-.48.06-.048-.002-.173-.053-.125-.1-.024.014-.05.028-.077.023-.007-.058.06-.017.061-.064-.02-.004-.029-.015-.034.003.036-.05-.037-.195.129-.192.064.135-.115.016-.077.165.055 0 .048-.057.053-.075.07.003.068.04.064.075.027-.047.115.017.152-.052.135-.012-.008.111.08.11l.052-.15.147.027c.214-.053-.03-.26.213-.344-.032.078.066.21.18.24-.068.007-.194.105-.281.06.123.118-.17.014-.106.15.061-.065.163-.073.242-.04l-.026.015c.085.016.148-.141.265-.082.058-.004.047.038.037.073.049-.022.093-.052.093-.019M18.85.768l.024.013c-.005-.008-.014-.01-.024-.013M11.974.713l.045.005c-.017-.005-.031-.006-.045-.005M12.981.216l.066-.035c-.026.002-.046.016-.066.035M18.315.758l-.002-.001-.01.008zM15.001.567c.01.013.022.024.037.033-.002-.015-.016-.026-.037-.033" />
    <path d="M12.97.222l.003.003.009-.01zM11.53.274l-.028.015a.057.057 0 0 0 .029-.015M11.594.7a.094.094 0 0 0-.028.015zM10.043.409L9.982.43a.101.101 0 0 0 .06-.021M11.434.602l-.009.02c.008-.004.012-.013.01-.02M19.234 1.216h-.003l-.002.018zM19.381.997l.053-.012a.093.093 0 0 0-.053.012M15.879.809c.016.021.053.047.036.072.03-.031.028-.107-.036-.072M18.94 2.157c.01-.02.022-.036.033-.05-.022.021-.041.04-.033.05M18.974 2.106l.032-.034a.272.272 0 0 0-.032.034M15.472 2.056c-.003-.01-.01-.018-.018-.021.002.02.01.025.018.021" />
    <path d="M19.477 1.009c.01-.036.24-.114.046-.132.007-.112.125-.052.176-.08-.037-.025.019-.07.008-.11-.026.013-.057.045-.099.037-.02-.051.045-.086.095-.067-.062-.058.079-.088-.01-.133-.186.039-.319.08-.45.243.107-.027.226-.06.313-.016l-.036.097c-.1-.085-.16-.022-.258-.03l.219.05c.102.081.034.1-.047.117.02.001.038.007.043.024M19.33 1.856l.003.002c.004-.003.008-.005.01-.01zM10.054 2.361l-.019.037c.016-.017.02-.028.02-.037M19.2 1.388c-.002.001-.003.001 0 0M10.522 2.368l-.003.009.003-.009M10.646.288c0-.004-.001-.009-.003-.013-.01.006-.005.01.003.013M10.522 2.36v0M12.795 2.005s-.007-.017-.018-.033c-.004.01 0 .02.018.033M12.347 1.862l-.009-.01zM15.773.374a.154.154 0 0 0-.053.005.104.104 0 0 0 .053-.005M13.48 1.517l-.015.01.009.005z" />
    <path d="M13.714 1.588c-.008.011-.012.022-.016.032.083-.04.237.004.255-.099-.029.003-.176-.058-.15-.118-.06.026-.145-.046-.177-.03.096.057.011.087-.054.122-.058-.03.011-.082-.04-.101l-.135.01.118.014-.036.1.012-.01c.2-.046.018.144.223.08M13.697 1.62a.099.099 0 0 0-.032.024c.02-.001.026-.01.032-.024M14.516 1.783a.188.188 0 0 0 .035-.016zM8.52 1.646c.003.03.12.089.118.013l-.105-.024zM16.744 1.341a.143.143 0 0 0-.039-.002l-.008.012c.009.011.034-.003.047-.01" />
    <path d="M13.838 1.368c-.021.011-.03.023-.036.035a.069.069 0 0 0 .036-.035M16.752 1.522c.016.021.04.054.044.083.034 0 .058-.039.092-.053-.039.011-.084.003-.136-.03M16.89 1.55l-.002.002z" />
    <path d="M9.67.523L9.665.521l.005.001zm2.39.787l-.13.03.012.002-.13.07c.08.034.133.129.021.173.01-.036-.023-.08.016-.1-.075-.052-.238-.103-.196.028.144-.123.034.166.146.075-.06.085-.12.047-.177.085.06-.071-.014-.161-.103-.196-.04.022-.144.001-.209.036.023.08-.033.126.072.146a.157.157 0 0 1-.165-.004c.026-.014.073-.023.07-.052-.044-.074-.094-.07-.122-.102l-.067.013a.08.08 0 0 1 .017.027l-.074.07c.098-.037.045.038.044.085.002-.094-.064-.013-.097-.01l.073.1c-.035.049-.125-.072-.106.026.155.039.215.022.355-.007l-.057-.077c.159-.054.098.132.276.128.074-.07.268-.005.271-.145-.022.042.11.124.172.06.067-.128.271-.145.21-.203-.056-.002-.13.068-.174-.015l.107-.027-.07-.07c.036.025.032-.043.015-.146m.443-.108c.07.198.147.373.47.339l-.025.013c.163.125.319-.164.518-.026-.097.074-.092.067-.198.239l.103-.056c-.029.107.075.051.15.057l-.066.128c-.046-.037-.164-.05-.16-.021.025-.014-.157-.162-.255-.125.01.087.218.052.126.194.081-.06.092.027.178-.003-.083.06-.02.118-.082.181l.14-.03c.004.03-.204.065-.09.172.058-.046.208.011.21-.082l.004.029c.106.02.046-.133.176-.08.002-.047-.023-.079-.07-.07-.039.021-.045.086-.126.099-.036-.073.098.01.042-.115-.028-.061-.213.054-.155-.085l.106.02c.003-.094.079-.089.077-.164.064-.035.125.07.19-.01.028-.061-.02-.174.089-.125.085.139.336.111.43.092l.081-.06c-.007-.057-.157.008-.104-.067l.128-.022-.01.035c.043.009.086-.03.125-.05-.04.067-.133.04-.114.137.06.02.07.056.125.037-.012.007-.023.017-.021.03.121.042.117-.11.148-.141.122-.127-.124-.118-.108-.218l.357-.054c-.03.032-.06.063-.05.103.088.045.002.076.125.071-.008-.133.155-.083.242-.16.04.055.049.066-.04.067.01.087.13.054.172.062.024-.022.066-.035.093-.054-.036-.043-.02-.097.056-.134l.005-.018c-.126-.024-.322-.119-.402-.03l.023-.043c-.146-.075-.318.156-.385-.008.006-.064-.03-.015-.027-.108l-.108.073.023-.042-.183.02.005-.017-.21.21c0 .041.006.054-.023.084-.029.02-.05.023-.07.018-.046-.012-.076-.07-.13-.095l.169-.01c.014-.069 0-.14-.084-.19.034-.002.048-.056.006-.064-.004.018-.111.044-.07.1-.162.025-.423-.157-.669-.025.176-.08-.141-.093.055-.122-.137-.11-.118.11-.257.093-.012-.04.076.005.108-.074-.232-.044-.391.18-.615.146l-.01-.087zm3.759.122c.013-.007.018-.025.018-.025-.283.205-.515.264-.668.256.03.082.166.144.231.178l-.057.092-.036-.072-.1.084c.028.062.109.049.163.097.004-.018.177-.126.225-.183l-.138-.064c.037.026.22.005.293-.019.001-.046-.124-.118-.14-.017-.014-.069.13-.07.038-.143.108-.074.28-.012.36.021l.014.116c.087.045.059-.14.162-.072-.127.022.022.127-.08.135.033.044.001.122.103.114.085-.153.107.096.187-.04.054.048-.057.093.048.113.12-.08.114-.138.121-.25-.112-.03-.127.146-.219.118l.184-.19c-.034-.027-.06-.03-.08-.022a.186.186 0 0 0 .095-.079l.043-.057c-.105 0-.197-.003-.214-.05l.015-.055c-.037-.05-.097-.01-.125.03-.093.005-.186.08-.207.01l.036-.05c-.115.016-.128.023-.272.024m1.454.196l.026.066-.07.055c-.127-.024-.228-.184-.342-.046-.053-.035-.082-.108-.11-.169.027.005.051.01.072.02.319-.202.166.213.424.074m-7.736.293c.037-.096.16-.1.167-.212.008-.029-.018-.04-.047-.05l-.104-.008a.078.078 0 0 1-.02.045c.036.014.06.042.046.11-.094-.149-.084.107-.184.069-.032.079.112.078.142.046m-.582-.264l.02-.081-.06-.01c.008.037.014.07.04.09m-.182-.107l.01-.003-.065-.01c.009.007.025.012.055.013m1.737.055c-.01-.001-.019-.003-.023-.009zm-.077.112c.089.025.069-.024.082-.068l-.094.017c.012.01.018.027.012.051m-.113-.369c-.157-.016-.316-.047-.467-.06.273.22.465.387.01.383l-.03.016c.059.027.162.03.258.014.078-.078.33-.365.328-.39-.028-.063-.068.005-.119-.014zm-9.969.35a.132.132 0 0 0 .017-.038c-.005.016 0 .027-.017.039m7.657.024l-.032.016.017-.02-.08-.023a.134.134 0 0 1-.034.011c.005-.002.01-.01.012-.018l-.026-.01c-.064.08-.223.137-.269.183a.335.335 0 0 1-.181.047c.043.001.1-.015.083-.058-.088-.045-.13-.176-.282-.063l.09-.002-.2.169c-.07-.07.099-.085.127-.145-.155.083-.284-.14-.357.007-.01-.087-.027-.231-.128-.223.073.099-.062.064-.001.17-.035.05-.114-.032-.12.033l.01-.036c-.174-.137-.23.078-.305.149-.209.035-.304-.021-.474-.006-.007-.058-.053-.218-.121-.212-.032.079-.186.115-.201.215.122.043.1-.084.172-.107.061.105.006.104.089.167-.067-.041-.303.055-.376-.044L5.89 1.8c-.117-.06-.14-.308-.334-.158l-.093.062c.004-.01.005-.022.007-.031-.152-.01-.11-.125-.279-.034.013-.008.005-.019.018-.025-.096-.057-.192.057-.264.08-.045-.084.01-.082.037-.143-.168-.032-.35.112-.455.214l-.109-.05c.065-.034.144-.122.124-.173-.06.017-.048.057-.132.04.014-.053.05-.103.089-.17-.175-.09-.039.19-.161.025-.055-.001-.087.077-.093.142l-.1-.085c-.01.083-.134.087-.214.1-.01.036.065.088.095.056-.006.065-.091.095-.146.094-.02-.173-.36.025-.296-.179-.247.057-.595.074-.758.147-.054-.048-.163-.05-.098-.132-.199 0-.301.177-.499.13-.016-.022.09-.002.082-.06-.129.07-.235-.073-.435-.026.034-.003.043-.04.048-.057.004.029-.082.06-.134.087-.029-.014.04-.02.023-.043-.387-.083-.682.152-1.067.144.11.002.151-.112.152-.16l-.107-.001c-.042.057-.123.057-.19.1-.009-.022-.042-.045-.008-.072-.213-.116-.332.21-.593.15l.316-.231-.079-.08.139-.106c-.083-.063-.155.083-.165-.004.018-.024.06-.016.061-.063-.08-.034-.086.03-.146.048.158-.177.467-.175.634-.218.026-.014-.023.043-.027.06.067-.005.108.05.194.02.053-.076-.04-.056-.083-.064.006-.064.027-.06.074-.07.01.086.258.03.318.136.25-.027-.04-.224.205-.187l.073.1c.142-.078.325-.145.486-.124l-.034.003c-.022.042.015.069.031.09.122.042.231-.078.305.021.138-.105.369-.183.527-.237.043.13-.206.11-.272.192h.144c-.089.001-.124.05-.177.125.126.025.167-.09.287-.123-.01.035.007.057.062.058l.016-.086c.001.007.007.013.024.019l.213-.053C3.081.96 3.08.885 3.023.884c.02.05-.026.06-.081.06.048-.057-.054-.048-.053-.095.11.002.246-.01.319-.033l.023.08c.105.02.217-.025.288-.002l-.022.043c.126.024.25-.027.362.05.113-.09.255-.167.347-.262.049-.103.33.13.457-.016.009.011-.087.077-.13.117.084.015.151-.113.178-.004-.19-.037.01.086-.075.117.089-.002.182-.021.226-.06-.144 0 .05-.15-.095-.103a.464.464 0 0 1 .4-.092c0 .046.016.068.066.088l.04-.068c.064.012-.12.08.006.104.13-.116.392.066.449-.149.099.085-.19.086-.04.19-.086.078-.206-.011-.235.096.085-.03.031.09.086.092L5.634.97 5.613.967c.16-.102.413-.053.616-.07.173-.108.291-.265.499-.253-.062.063.172.061.041.177.096.056.19-.01.193-.057C6.877.748 6.932.75 6.86.726c.048-.057.158-.054.203-.017-.02-.005-.012.006-.017.024.1.039.048-.056.121-.08.023.08.16.021.227.062L7.49.602c-.053.075.093.027.108.096.069-.053.127-.145.232-.125-.044.039.096.056.098.132.18.072.298-.207.468-.098-.005.017-.04.067.01.086.04-.021.109-.012.15-.02v.002l.001-.002c.021-.005.034-.014.035-.032.072-.074.109-.15.25-.213-.01-.086-.13-.053-.182-.025L8.616.49c-.042-.131-.127.023-.16-.021.085-.154.33-.116.477-.21-.09-.121-.285-.14-.454-.125l.074.052-.088.002.086.092c-.084-.016-.157.007-.233.002.089-.002.124.117.073.099-.1-.085-.103.055-.179.05.042.008.097.01.062.059-.15-.104-.19-.036-.326-.147.017.144-.17.014-.19.132l.063.012-.134.088c-.124-.118.11-.12-.079-.203-.173-.015-.169.137-.305.148a.307.307 0 0 1 .263-.156L7.499.32c.035-.049.188-.039.264-.034-.126.098.058.03.115.107.011-.083-.07-.07.026-.136-.09.002-.103.008-.216-.023.245.038.22-.287.434-.217-.099.037.034.119.047.159.046-.01.14-.03.179-.05l-.036-.12c.125-.052.168.202.312.078.02-.071-.126-.024-.1-.037.196-.076.267.117.442.207.01-.036.008-.112.07-.175-.02.071.025.108-.044.16.059.031.128-.021.18-.05-.122-.042.05-.103.072-.146.062.012-.02.072-.058.093.05.019.11.124.14.017.001.076-.142.199-.236.218l.063.013C9.11.423 9.102.412 9.04.4c.061.059.055.124.041.178-.008-.011.004-.018-.003-.03-.05-.018-.09.002-.078.042-.045.102.07.064.105.114l.076-.02.263-.326c.112-.038.163.04.247.09L9.713.36c.098.009.19.037.127.147C9.837.478 9.824.485 9.802.48a.058.058 0 0 1-.013.028l-.005.015c.104-.028.17-.047.175-.05-.177.127-.008.158-.038.313l.18-.05c-.11-.05-.003-.076.036-.097.01.087.144 0 .207.011l-.005.018c.059.03.16.022.233-.002-.003-.029.09-.171.135-.257-.125-.032-.05-.067-.06-.121.012.005.035.006.038-.005.017-.025-.025-.033-.028-.062-.132.04-.268.052-.322.174.04.054.07-.053.114-.016-.065.081-.15.065-.26.063l-.036-.073-.11.04c.046-.039.018-.115.134-.13-.015-.068-.115.016-.186-.007L9.954.37c.014-.054-.138-.064-.03-.138L10.1.152l-.049-.066.15-.018-.036.05c.239-.067.07.192.311.078.075-.117.156-.13.303-.102-.106.027-.01.083-.05.15.108.05.145-.047.201-.093.028.062.048.113-.05.104-.012.129.128-.023.137.11.322-.004.258-.43.634-.264l-.014.054c.24-.067.377-.002.599-.045l.174.137c-.04.02-.144.123-.095.189-.085-.139-.175-.09-.266-.164-.01.036.028.061.044.084-.055-.002-.083-.063-.155-.04.003.03.083.063.023.08l-.1-.085c-.132.04-.065.204-.22.165.029-.076.088-.186.148-.204-.071-.017.095-.046.03-.091-.103.112-.152.023-.288.093.016-.015.02-.037.053-.044l-.197-.048c.049.066-.163.073-.145.17.21.04.149-.018.389.037-.068.022-.156.122-.197.213-.002-.004-.005-.007-.013-.009-.036.097.001.123 0 .292.11-.12.183-.021.312-.09.025-.093-.075-.119-.139-.094l.114-.062-.023.042.29.032c-.055.005-.074.059-.102.099a.273.273 0 0 1 .113.055c-.008-.089-.003-.151.033-.15.186.022.29.101.358.202L12.4.913c-.031-.091.132-.163.19-.256-.003.094.095.056.149.104a.448.448 0 0 0-.075-.343c-.126.098-.07.099-.13.238l-.201.093.045-.086c-.1-.037-.198.076-.19-.036.053-.074.14-.029.193-.104l-.066-.04c.117-.11.06.106.202.029-.052-.095.013-.007.074-.07-.049-.067-.25.027-.208-.134.074-.071.25.188.347.028l-.005.018c.145.021.195-.07.25-.129.06.052.146-.021.212-.027l-.002.047.094-.02c-.044.086-.11-.002-.19.01l.01.087c-.093-.103-.155.054-.227.13.104-.076.296.02.32-.15l.066.088.03-.031c.05.066 0 .169-.094.189-.016-.022-.025-.033-.02-.051-.043.038-.083.106-.188.086l.056-.046c-.131-.006-.25.027-.296.113.19.036.376.044.554.04.052-.197.114-.307.141-.49.12-.034.281-.06.385.008l-.01.036a.16.16 0 0 0 .137-.012c.053.048-.037.096 0 .122l.171-.061c-.01.083-.154.083-.222.089.013-.007.039-.02.03-.032-.08-.034-.227.107-.262-.012-.039.02.079-.089-.053-.095-.087-.045-.116.062-.125.098-.001.047.138.064.09.12.068-.005.095-.065.182-.02-.067.006-.16.1-.195.028-.134.087-.115.307-.052.32-.015-.07.244-.086.069-.176.079-.088.223-.09.326-.144l-.005.017.128-.022c-.018.024-.056.046-.058.092l.178-.125c-.1.084.061.058.107.095.019-.071.088-.124.022-.165-.075-.052-.044.039-.112.044l.096-.112.009.01.057-.092c.131.006-.057.215.111.125l-.022-.127c.195.019.444.16.582.102-.038.072-.055.188-.003.256a.685.685 0 0 0-.263-.005c-.016-.022.106-.15.198-.122-.044-.207-.232.124-.243-.085-.235-.073-.175.202-.375.08-.002.092-.056.045-.067.127.06.153.267-.005.397.048-.013.007-.038.021-.044.039.093.027.131.006.196-.029l-.008-.01c.113-.092.07.069.136.11.026-.013.119.013.104-.055l.12.088-.006-.104c.068-.006.083.063.145 0l.003-.094-.17-.032c.086-.031.025-.09.119-.11-.105.103.074.052.084.14l.07-.054-.018.025c.054.049.064-.034.127-.022-.074-.052-.123-.118-.218-.051a.788.788 0 0 1 .24-.114c.073-.04.124.032.192.042-.13.038.046.284-.216.216.005-.017.026-.014.034-.003-.035-.119-.157.008-.213.054.014.068-.045.085.055.123-.033-.044.085-.153.18-.096l-.016.146.14.018-.014.007c.053.095.149-.019.245.037.07-.052.335-.01.22-.164.087.091.162-.026.256-.045l-.117-.06c.138-.106.099-.038.21-.205.01.04.035.073.013.116.186.007.451.048.56-.072.132.006.152.18.336.112.04-.021-.03-.138.092-.096.008.011-.117.11.018.098.097-.113.228.062.353-.036.067.04.182.025.158.114-.105-.02-.254 0-.277.042.015-.054-.075-.052.003-.094-.16-.067-.103.056-.246.01-.01.035.074.099.104.067 0 .122-.281.059-.154.205.152.011.197-.244.33-.115-.054.074-.137.011-.204.14l.109.048.079-.088-.005.018c.192.112.177-.126.349-.187-.1-.085.022-.212-.052-.264.114-.016.199 0 .2.123-.215.1-.013.13-.211.251.032.044-.047.18.07.193.134-.087-.04-.102.094-.143.008.011.016.022.011.04.061-.063.071.023.145-.047l-.017.025c.091.073.1-.085.178-.004-.031-.09.053-.074.101-.13-.08-.035-.122-.165-.28-.158-.018.072-.007.111-.071.146l.102-.009c-.022.012-.039.03-.06.045L18.216.72c.124-.051.067-.128.12-.203.113.031.094-.02.165.004-.007.105.22.18.35.247-.02-.004-.046-.001-.06-.004-.096.067.065.088.069.117l.069-.053c-.014.007-.031.032-.002.047.094-.02.089-.124.182-.144.007.058-.072.146-.014.177.02.05.084.185.209.133.008-.022.04-.034.078-.044-.005.003-.012.006-.014.01l.083.063c-.07.099-.143-.047-.214.053l-.005.094a.23.23 0 0 0-.165.09c.084.015.102-.009.196-.029.013.06-.053.104-.063.11l.014-.053c-.112-.078-.167.09-.306.073-.021-.004-.009-.011-.004-.03-.113.092-.224-.033-.333.087l.036-.05c-.075.04-.221.133-.367.223l-.001.037c.016.022-.038.02-.068.006V1.68a4.578 4.578 0 0 1-.2.117.124.124 0 0 0 .068.047c.023-.043.157-.008.14-.106.06.06.16-.025.206.012-.083-.063.058-.093.072-.147.028.062.123-.004.112.079.017.021-.04-.055-.076-.006-.086.078.16.068.051.142.138-.059.319-.033.46-.11l-.079-.034c.063.013.212-.006.224.034-.047.01-.102.009-.162.026-.003.093.144-.001.15.057l.175-.155-.076-.005c.048-.057.207.011.325.024-.068.128-.178.004-.302.055-.09.048.055.124-.03.154.022.03.078.026.106-.006l.033.023c-.076.117-.247.091-.36.191a.106.106 0 0 0 .021-.039.317.317 0 0 0-.262-.012c.045.036.063.011.089-.002.003.029-.077.04-.108.073.08.034.015.069.065.088-.051.027-.093.02-.156.007-.033-.044.026-.06.02-.118-.065.035-.095-.103-.19-.036.127.024-.033.125-.077.164l.022.004c-.04.067-.074.07-.102.008.051-.028.102-.008.087-.077a.253.253 0 0 0-.107.027l.035-.05-.17.014c-.027.061-.072.147-.095.236-.04-.055-.098-.01-.136.012l.018-.025c-.075-.052-.242-.009-.256.045-.053-.048.378-.341 0-.292-.144 0-.09.171-.172.23 0 0 .005-.017-.003-.028-.063-.013-.07.053-.121.08.038.026.092.027.11.003-.02.071-.131-.007-.18.05.063-.11-.121-.042-.073-.1-.125-.07-.258.017-.324.099-.085-.139-.15.018-.287-.046.021.004.06-.016.09-.001.078-.088-.144-.047-.023-.127-.026.014-.001.046.025.033.046-.01.09-.049.078-.089l-.112-.077.04-.021-.171-.108c-.005.018.011.04.02.05-.199-.047-.425.013-.598-.001-.033.248-.426.106-.566.258.037-.07.057-.196.034-.248.032-.01.095-.11.166-.09.012.04.1.085.043.131.195-.029-.027-.109.03-.201-.216.024-.343.17-.48.228l-.003-.03-.104.056c.085.016.08.157-.028.108l.013-.007c-.062-.06-.191.01-.288.001l-.066.081c-.097-.009-.101-.16-.133-.25-.152-.011-.24.113-.348.186-.049-.066-.277-.081-.156-.161-.138.058-.11.411-.345.216l.06-.064c-.224.013-.545.14-.649.073.083-.228-.281-.232-.321-.456.01.05-.074.068-.086.095-.019-.026-.05-.051-.082-.005.087.045-.062.232.106.142-.085.153-.194.274-.38.266l.002-.093.147.028c-.015-.07.061-.064.092-.096-.274-.052.036-.219-.244-.206-.027.06-.01.035-.082.06.034-.004.04-.068-.015-.07l-.053.075c-.098-.156.162-.101.079-.211.108-.073.295-.112.26-.232-.177-.043-.159.223-.343.17l-.02-.051c-.065.034-.075.117-.111.166-.003-.029-.02-.05-.062-.059-.11.12-.182.144-.283.275.27-.098.23.091.508.004-.044.038-.24.067-.251.196l.003-.093c-.09.048-.181.096-.295.066l.07-.053c-.15.065-.25-.142-.369.014.042.008.076.005.102-.009-.078.042-.175.032-.259.017l-.174.154c.001-.046-.109-.049-.056-.123-.125-.071-.184.068-.256.092-.129-.1.11-.045.123-.174-.177-.043-.364-.004-.464.08.036.019.054.035.052.058-.005-.03-.077-.022-.116-.023l-.028.06c-.066-.04-.056-.076 0-.122-.063-.012-.139.105-.204.018.108-.074.245-.01.302-.055-.226.06-.227-.186-.513-.109-.004-.029.044-.085-.01-.086-.128.023-.034.125-.074.193.099-.038.145 0 .201.076l-.026.05c-.004-.026-.065-.028-.084-.052l-.016.1c.008-.111-.091-.196-.169-.154.079.08.058.076.079.203-.109.12-.123-.118-.246.01.01-.037.116-.063.024-.09-.076-.005-.066.081-.117.11.057-.094.042-.163.105-.273.136-.011.055.001.188-.039L9.705 2.1c.115-.016.084-.106.093-.142-.196-.094-.148.14-.274.117-.06.063.118.013.023.08-.118-.014-.027.06-.16.1l.023-.042c-.04-.055-.081.013-.128.022-.051.028.059.322-.154.329a.158.158 0 0 0 .015-.054l.207-.778a3.347 3.347 0 0 1-.712-.072c-.059-.152.177-.126.162-.194l.114.03c-.007.065-.238.021-.136.135.2-.046.292.028.482-.105-.059-.153-.25.027-.374-.091a.206.206 0 0 0 .138-.029l-.372-.064-.03.037c.09.017.15.03.159.036a.2.2 0 0 0-.226.182l.021.005-.043.034z" />
    <path d="M19.297 1.229c.03-.033.107-.027.092-.096.002.076-.136.012-.092.096M19.388 1.303c.005-.018.001-.047.035-.05l-.094.02zM19.483 1.819c.048-.056.08-.088.155-.083.029.184-.124.052-.159.223.14.018.182-.143.297-.159-.057-.077-.289-.121-.293.019M19.421 2.052l.078-.042L19.49 2l-.077.041zM17.744.45c-.007-.057-.055 0-.08.014.02.004.05.019.08-.013M2.534.395l-.59.056c.17-.014.326-.022.59-.056M15.785.828c.158-.054.229-.154.39-.179-.212-.116-.28.181-.459.063zM15.84.368c.027.109-.121.127-.099.207.107-.026.05-.103.147-.094zM16.56 2.162l-.048.056.038-.02zM15.118.465l.018-.025-.08-.034zM15.153.415l-.017.026zM16.498 2.395l.072.023.035-.05zM15.867 1.813l.064-.035c-.012.006-.1-.038-.064.035M14.633.419l-.078.042.008.01.077-.041zM15.367 2.112c.044.083-.128.022-.037.096.081-.013.048-.056.037-.096M14.428 1.547a.047.047 0 0 0-.032.012.172.172 0 0 0 .032-.012M14.428 1.547c.034 0 .068.031.091.007-.042-.037-.057-.023-.09-.007M14.04 1.566l.03.006c-.03.041-.015.035.013.002.032-.003.03-.03.034-.047l.02-.033-.027.03c-.05 0-.08.004-.07.042M12.598.16c.114.032.143.047.137.112.108.02.09-.091.156-.117-.122.012-.147-.018-.293.006" />
    <path d="M12.89.155l.044-.006a.084.084 0 0 0-.043.006M14.494 2.274l-.07.099.026-.013zM12.43.128c.021.004.055.002.071.024.006-.065-.092-.028-.07-.024M12.868 1.398c.011.04.084.016.113.031-.042-.009-.076-.128-.113-.031M12.105.395c.02.005.053.048.04.102.03-.032.071-.146-.04-.102M12.66 1.386l.017.022.077-.042zM12.938 2.342c.087-.077-.139-.186.011-.251-.194-.081.015.11-.128.096.084.027.125.125.117.155M12.821 2.188a.129.129 0 0 0-.04-.007.275.275 0 0 0 .04.007M11.593 1.699a.123.123 0 0 0 .029-.026.12.12 0 0 0-.03.026M12.364 2.252l.131-.116c-.087.076-.307.072-.293.188a.181.181 0 0 0 .192-.058zM10.862.157l.057-.046-.071-.013c.02.017-.016.102.014.06M10.834.096l.014.002c-.003-.003-.007-.004-.014-.002M11.84 1.643a.161.161 0 0 0 .115-.016c-.016-.022-.122-.042-.115.016M10.464.325l.093-.02-.101.009zM10.029.129l-.016-.022-.078.042.016.021zM10.599 2.402c.063.012.112-.091.096-.113l-.123.004c.031.09.034-.002.105.02zM6.797.3c.027-.061.162-.026.169.032-.018.025-.091.049-.045.085l.106-.149c.141.093-.108.196-.177.25.144.018.186-.08.339-.08-.045-.013-.073-.05-.098-.082-.005-.105.138-.058.24-.066-.065-.046-.028-.084.02-.126a.034.034 0 0 0 .018-.016l.016-.014h-.012a.095.095 0 0 0-.011-.046c-.085.03-.15-.057-.206-.058.055.17-.187.04-.256.092l-.08.017h-.03c-.007-.019.002-.042.048-.076-.039.034-.165.022-.154.077l-.289.002A.09.09 0 0 1 6.37.114c-.01.011-.011.02-.01.028L5.098.154c.063.013.116.052.18.071-.096.113.106.02.078.127-.044.04-.107.027-.145.001-.014.054.04.102.034.167.159.068.183-.191.339-.152-.006.065-.054.122.047.113l-.026.014c.163-.073.127.146.23-.032l-.003.094c.075-.07.218-.071.3-.084l-.005.018c.227-.107.127-.023.383-.068l-.118.11C6.48.578 6.5.459 6.563.47c-.004.018.01.086-.05.104l.31-.167C6.898.338 6.809.34 6.798.3M7.189.439a.124.124 0 0 0 .057.003.366.366 0 0 0-.057-.003M5.01.155l.088-.001a.192.192 0 0 0-.088 0M7.633.234c-.054-.048.04-.067.05-.103L7.49.133c.001.036-.018.076-.014.109zM7.435.065a.162.162 0 0 1-.05.069L7.49.132c0-.026-.012-.05-.055-.067M7.456 1.987l-.035.004-.05.028zM6.923 1.83c.04.054.118.012.143-.001-.088 0-.05-.02-.143 0M7.033 2.415l-.086.03.008.011zM4.355.523L4.313.53c.019 0 .032-.002.042-.006" />
    <path d="M5.09.434c-.204-.105.135-.088.07-.222L5.05.256l.01-.035-.136.011c.028.062.049.066.042.13-.18-.024-.057-.076-.19-.158l-.202.012.016-.02a.034.034 0 0 0-.03.02l-.683.041c-.124.051.069.117-.023.212.144 0 .358.069.37-.06-.005.017-.014.053.015.068l.083-.106-.08-.034c.085-.106.355-.083.404-.017-.154.036-.077.164-.291.095.01.033.05.09 0 .108.252-.038.477.021.737-.09M2.573.497l.002-.012c-.004.006-.006.01-.002.012M2.657.512L2.78.386l-.19.01-.014.089c.017-.023.084-.068.11-.033zM2.922.31c-.099.037-.093.141-.04.19-.09.048-.048-.113-.11-.002.002.075.114.03.14.017zM3.648.364l-.027.043.068.012zM3.62.407L3.554.396c.005.032.01.064.02.086zM3.375.366a.516.516 0 0 0-.099-.017zM3.453.392L3.45.378 3.375.366c.028.008.053.017.078.026M3.553.396c-.011-.074-.024-.15-.122-.13l.02.113zM6.409 2.304l-.078.042.009.01.077-.04zM5.962 2.237a.269.269 0 0 0-.047.04.085.085 0 0 0 .047-.04M5.63 2.738c-.091-.074.125-.097-.043-.13-.015-.069.064-.157.144-.123-.007.065-.078.041-.03.107.054-.075.074-.024.055-.121.089-.06.099-.13.159-.193-.107.043-.333-.057-.469.068-.075.117-.03.276-.03.446.012.04.206.058.214-.054M5.773 2.907c.043.008.055.001.081-.013-.007-.057-.047.01-.08.013M4.804 1.634c-.008.024-.085.054-.068.096l.115-.03c-.027-.005-.036-.034-.047-.066M4.902 1.686l-.05.013c.012.002.028-.001.05-.013" />
    <path d="M4.798 1.62l.006.014c.001-.005.001-.01-.006-.015M3.095.324c.001-.047-.05-.019-.076-.005.02.004.05.02.076.005M1.154.507L1.11.47c.016.022.024.033.045.037M.453 1.774a.059.059 0 0 1-.01.024.047.047 0 0 0 .01-.024M.444 1.798c-.031.039-.127-.021-.162.037l.004-.018-.064.035c.06-.005.187.002.222-.054" />
</svg>