<svg xmlns="http://www.w3.org/2000/svg" width="93" height="76" viewBox="0 0 24.606 20.108">
    <path d="M13.72.002c-1.34-.063-2.577 1.642-3.265 2.53A20.365 20.365 0 0 1 7.95 5.239c-.87.771-1.847 1.342-2.672 2.165-.145.145-.617.527-1.135.98-.288.116-.62.322-.908.405-1.044.304-1.805-.476-2.543.702-.466.744.018 1.8.197 2.55.301 1.26.705 2.348 1.492 3.4.49.652.698.853.842 1.647.19 1.05.506 2.409 1.604 2.825.332.126 1.678.366 1.948.004.366-.492-.432-1.064-.713-1.346-.947-.95-.715-2.413-1.274-3.57-.456-.943-1.613-1.408-2.247-2.21-.254-.322-.417-1.002-.268-1.437.1-.291.275-.331.444-.494.586-.015 2.57-.365 2.712-.365l.338-.423c.425-.613 1.66-1.147 2.291-1.54.748-.466 1.552-.833 2.26-1.36.503-.374.986-.893 1.608-1.074.76-.22 1.5-.028 2.112.394a9.018 9.018 0 0 1 2.272 2.225c.427.603.384.74 1.052.591.77-.172 1.87-.586 2.07-1.538.148-.708-.342-1.787-.713-2.306-.367-.514-.96-.23-1.48-.616-.763-.564-1.328-1.875-1.692-2.73-.3-.708-.781-1.901-1.558-2.08a1.52 1.52 0 0 0-.269-.036zM6.627 11.9a2.272 2.272 0 0 0-.178.01c-.135.805.305 1.938 1.172 2.49.99.631 2.635-.007 3.904.088 1.176.089 2.436.302 3.57-.05 2.03-.629-1.153-1.208-1.797-1.425-.992-.333-2.34-1.414-3.356-1.008-.504.201-.543.443-1.173.415-.778-.034-1.278-.538-2.142-.52z" opacity=".6" fill="#fff" />
    <path d="M14.09.447c-.682 0-1.338.622-1.833 1.164-.335.366-.666.735-.996 1.104-1.96 2.19-3.813 4.257-6.414 5.63a.41.41 0 0 0-.075.053c-.931.283-1.771.549-2.566.812-.132.044-.274.084-.424.127-.468.13-.998.28-1.354.595-.864.767-.19 2.495.032 3.063.328.84 1.007 2.287 1.878 2.543.205.06.455.053.786-.026.135.28.267.563.4.846.36.771.733 1.568 1.167 2.316l.106.187c.304.54.65 1.154 1.279 1.154.114 0 .235-.021.36-.063.959-.316 2.173-1.283 1.874-2.442-.103-.396-.379-.718-.646-1.03-.122-.142-.238-.276-.336-.416-.346-.493-.612-1.021-.848-1.523.116-.036.232-.072.342-.108 1.388-.27 2.617-.402 3.759-.402.52 0 1.034.028 1.528.083 1.168.129 2.337.394 3.467.651.408.092.816.185 1.225.272.125.027.272.066.428.108.396.106.89.238 1.329.238.515 0 .864-.176 1.07-.537.456-.802.05-2.153-.247-3.14a16.033 16.033 0 0 1-.164-.568 41.376 41.376 0 0 0-.538-1.87c.059-.04.118-.078.18-.116.391-.251.796-.51.98-.932.23-.532.01-1.102-.216-1.594-.22-.482-.492-.937-.982-1.002a1.855 1.855 0 0 0-.25-.016c-.302 0-.615.061-.918.12l-.062.013a42.718 42.718 0 0 0-1.386-3.031c-.058-.116-.118-.245-.181-.38-.282-.598-.632-1.343-1.15-1.694a1.064 1.064 0 0 0-.604-.19zm4.534.025c-.204 0-.412.137-.413.397a95.27 95.27 0 0 0-.002 1.029c0 .32.001.64-.001.959a.383.383 0 0 0 .107.28.425.425 0 0 0 .301.12c.204 0 .412-.138.414-.399.003-.327.003-.654.002-.981 0-.336-.001-.67.001-1.006a.382.382 0 0 0-.107-.28.427.427 0 0 0-.302-.12zm-4.546.808c.087.006.17.031.25.077.199.114.389.513.527.805.046.095.087.182.123.246.596 1.086 1.167 2.328 1.8 3.908a42.504 42.504 0 0 1 1.633 4.864c.05.188.11.39.174.601.214.719.456 1.533.412 2.194-.017.263-.132.431-.351.514-.412-2.316-1.15-4.834-2.138-7.289-.128-.32-.256-.647-.385-.976-.66-1.685-1.343-3.425-2.322-4.902a.702.702 0 0 1 .277-.042zm-.803.375c.99 1.498 1.684 3.279 2.355 5.002l.346.88c.935 2.352 1.642 4.771 2.047 7-.393-.041-.844-.17-1.21-.276-.186-.053-.361-.104-.5-.135l-.62-.138c-1.21-.271-2.461-.552-3.719-.677-.45-.044-.917-.067-1.39-.067-1.078 0-2.243.116-3.561.354a125.552 125.552 0 0 1-1.579-4.68c2.751-1.512 4.905-3.879 6.876-6.175.06-.07.128-.157.204-.251.21-.264.469-.587.751-.837zm9.368.685a.37.37 0 0 0-.278.13l-1.093 1.195a.398.398 0 0 0-.074.44c.07.16.225.267.384.267.103 0 .199-.046.276-.13l1.093-1.195a.4.4 0 0 0 .075-.441.434.434 0 0 0-.383-.266zm-4.328 3.913c.327-.008.483.11.689.515.227.446.445.955.16 1.361-.147.209-.405.365-.654.516l-.025.016a43.329 43.329 0 0 0-.839-2.324c.173-.029.344-.055.518-.074.054-.006.104-.009.151-.01zm4.322.121c-.261 0-.383.205-.386.394-.003.207.132.42.397.428.185.005.37.01.555.013.329.006.668.012 1.001.033h.029c.248 0 .367-.194.373-.376.007-.209-.127-.43-.395-.446-.332-.02-.67-.026-.998-.032a36.297 36.297 0 0 1-.576-.013zM4.877 9.191c.48 1.515.996 3.044 1.535 4.547-.93.297-1.771.54-2.567.74-.34.087-.619.145-.87.145-.443 0-.774-.185-1.074-.602a5.795 5.795 0 0 1-.63-1.133 5.768 5.768 0 0 1-.381-1.241c-.142-.78.182-1.226 1.118-1.54.899-.302 1.838-.601 2.869-.916zm16.517.338c-.159 0-.304.118-.36.294a.422.422 0 0 0 .154.485c.466.335.898.716 1.26 1.044.08.072.174.11.274.11.173 0 .345-.12.409-.284a.359.359 0 0 0-.106-.411 15.923 15.923 0 0 0-1.41-1.162.374.374 0 0 0-.22-.076zM2.73 10.839a.29.29 0 0 0-.128.02l-1.005.39a.325.325 0 0 0-.2.373c.027.146.134.244.266.244a.3.3 0 0 0 .112-.022l1.005-.389a.325.325 0 0 0 .2-.373c-.026-.14-.128-.234-.25-.243zm.283.807a.317.317 0 0 0-.146.03 7.12 7.12 0 0 1-1.052.401.3.3 0 0 0-.215.342c.023.16.142.271.29.271.03 0 .062-.004.093-.014a8.342 8.342 0 0 0 1.19-.458.267.267 0 0 0 .156-.31.343.343 0 0 0-.316-.262zm2.868 3.081c.287.61.647 1.316 1.146 1.972.035.046.078.097.122.15.066.078.135.16.177.224.435.683.407 1.07-.124 1.653-.142.157-.43.343-.63.439-.135.064-.24.104-.326.124.068-.128.126-.263.173-.402a.275.275 0 0 0-.03-.256.33.33 0 0 0-.269-.13.308.308 0 0 0-.3.213 1.93 1.93 0 0 1-.153.336 1.947 1.947 0 0 1-.112-.126l.001-.001a1.1 1.1 0 0 1 .093-.187l.059-.107c.059-.117.112-.244.162-.389a.276.276 0 0 0-.03-.256.332.332 0 0 0-.269-.13.31.31 0 0 0-.3.213 2.03 2.03 0 0 1-.112.255 7.92 7.92 0 0 1-.117-.227l.333-.727c.076-.164.028-.336-.114-.42a.315.315 0 0 0-.158-.04c-.121 0-.228.062-.272.158l-.135.296c-.026-.055-.052-.109-.078-.16l-.038-.08-.01-.021a.385.385 0 0 0 .03-.043l.333-.574a.29.29 0 0 0 .006-.297.345.345 0 0 0-.29-.168.29.29 0 0 0-.254.152l-.149.255-.029-.06-.09-.188a.332.332 0 0 0 .025-.028c.098-.13.196-.265.29-.402a.282.282 0 0 0 .039-.222.325.325 0 0 0-.147-.208.322.322 0 0 0-.425.108c-.027.04-.055.078-.083.116a38.33 38.33 0 0 0-.098-.206c.116-.037.226-.071.325-.096a41.206 41.206 0 0 0 1.828-.512z" fill="#1a1a1a" />
</svg>