<svg xmlns="http://www.w3.org/2000/svg" width="100" height="78" viewBox="0 0 26.458 20.638">
    <path d="M11.38 2.982c-1.47-.013-3.09.571-4.092 1.483C5.92 5.71 4.885 8.22 3.572 9.47c-.094.09.652.387.78.335 1.379-.547 1.937-1.783 2.699-2.961.856-1.326 2.11-2 3.535-2.347-.037.019-.072.038-.109.06-.248.151-.195.53.083.611.094.028.216.037.345.042-.123.641-.033 1.342.14 1.944.076.262.3.518.578.574l.093.017c.192.04.417.021.58-.1.371.179.812.19 1.215-.002.804-.383.23-1.735-.615-1.443-.093.033-.054.081-.168-.046a1.655 1.655 0 0 1-.248-.403c.006-.356.062-.71.067-1.066.005-.34-.223-.572-.501-.65 1.12-.262.534-.896.318-.945a4.728 4.728 0 0 0-.985-.108zm9.911.342c-.064.001-.13.008-.197.022a.773.773 0 0 0-.226.08l-.034.014c-.044.012-.09.026-.134.037-.019-.003-.114 0-.126 0-.084 0-.166.002-.25-.006a.495.495 0 0 0-.424.193c-.5-.338-1.323.097-1.208.867.155 1.036-.083 2.006-.923 2.69-.81.66-1.857 1.056-2.729 1.637-1.582 1.053-2.804 2.435-3.171 4.341-.03.155.183.264.266.111.57-1.034 1.281-2.044 2.165-2.832.837-.747 1.711-1.016 2.688-1.337-.26.136-.529.266-.806.389-1.603.708-3.207 1.901-3.286 3.823-.005.11.126.141.2.08.778-.652 1.156-1.68 2.037-2.234.934-.588 2.163-.586 3.16-1.082 1.57-.779 2.719-2.274 3.29-3.91a.584.584 0 0 0 .054.158.72.72 0 0 0-.036.643 1.412 1.412 0 0 0-.173.037c-.35.095-.375.55-.094.736.602.399 3.565.818 4.268.742.696-.075.85-.955.405-1.263.193-.428-.072-.988-.54-1.123-.26-.075-.475-.05-.717.005a13.7 13.7 0 0 0-.53-2.119c-.077-.227-2.22-.615-2.408-.538a.871.871 0 0 0-.52-.16zm-.949 1.473c.121.075.252.135.386.177a.666.666 0 0 0-.377.306c.006-.161.007-.321-.009-.483zm1.323.123a8.367 8.367 0 0 1-.02.38.721.721 0 0 0-.3-.273 1 1 0 0 0 .32-.108zm-11.413 6.228a.6.6 0 0 0-.357.1c-1.168.74-2.692 1.773-4.155 1.426-.081-.02-.187.042-.178.136.085.892 1.157 1.03 1.876.953 1.166-.125 2.411-.673 3.261-1.482.438-.418.055-1.106-.447-1.132zm4.31 1.28c-.111.008-.206.082-.187.225.15 1.131.308 2.256.616 3.358.085.308.154.583.187.861a.764.764 0 0 0-.279-.005c-.908.153-1.783.39-2.709.47-.858.074-1.723.039-2.577.155-.128.017-.216.198-.073.271 1.541.787 3.793.864 5.5.494-.084.403-.16.798-.123 1.228.093 1.087 1.8 1.092 1.709-.007-.096-1.161.258-2.219-.258-3.327v.001a50.173 50.173 0 0 1-1.526-3.563c-.044-.115-.17-.17-.28-.161zm-5.997 1.42a.837.837 0 0 0-.178.022c-1.22.272-2.43.607-3.657.847-.337.066-.259.62.085.6 1.25-.074 2.508-.051 3.76-.093.93-.032.826-1.388-.01-1.375z" opacity=".6" fill="#fff" />
    <path d="M15.356 0a18.24 18.24 0 0 0-1.97.083c-1.311.132-2.611.436-3.831.944a11.703 11.703 0 0 0-3.34 2.103 12.124 12.124 0 0 0-2.457 3.087 12.433 12.433 0 0 0-.832 1.796 8.423 8.423 0 0 0-.293.952c-.106.366.021.757.26 1.032a1.504 1.504 0 0 0 1.25.49c-.007.05-.016.1-.02.15a3.51 3.51 0 0 0 .067 1.151c.19.748.641 1.429 1.251 1.871.032.024.066.044.098.066-.338.006-.685.013-1.036.087-.375.072-.763.323-.922.696-.078.181-.11.378-.109.565.008.204.11.398.276.499.326.187.695.18 1.047.18h.027v.001c1.274-.094 2.56.006 3.833-.114l.956-.063.486-.034a.802.802 0 0 0 .5-.265c.27-.288.244-.806-.083-1.051-.315-.237-.673-.23-.984-.284a.405.405 0 0 0-.436.458.4.4 0 0 0 .203.294c.037.021.052.024.07.032l.014.004.031.007.034.007.128.019.02.003-1.75.115-1.911.126-.956.064-.12.008c-.016 0-.049.003-.051.002h-.058c-.078 0-.156-.002-.232-.007a1.843 1.843 0 0 1-.22-.026.568.568 0 0 1-.082-.021.474.474 0 0 1 .172-.31c.115-.08.28-.122.45-.145.346-.046.708-.035 1.08-.052.184-.01.38-.028.565-.07.087-.009.244-.086.301-.203a3.602 3.602 0 0 0 .742.073l.02.001.052-.001h.007a3.401 3.401 0 0 0 2.03-.698c.376-.283.683-.658.902-1.082.05.347.166.686.36.979.147.221.357.432.612.518l.018.005c.033.01.067.02.101.026.005 0 .01 0 .015.002.035.005.07.01.105.01-.023 0-.045-.004-.067-.007.022.002.045.005.067.005v.001a.787.787 0 0 0 .23-.032.858.858 0 0 0 .199-.081 1 1 0 0 0 .206-.15l.031-.03c.022-.022.045-.04.065-.063.187-.21.323-.457.45-.705.248-.5.459-1.019.733-1.504.272-.485.606-.947 1.059-1.273.223-.165.472-.291.734-.378.262-.091.54-.114.815-.177 1.094-.245 2.142-.772 2.938-1.582.396-.405.721-.886.927-1.42a3.78 3.78 0 0 0 .236-1.04l.095-.003c.188-.033.392-.133.584-.126l.01-.001h-.01c.106-.003.215.023.327.045.03.534.053 1.069.141 1.597.017.087.01.154.052.27a.342.342 0 0 0 .243.202c.178.02.34.027.51.036.204.007.408.007.611.01.132.006.264.009.396.009.025 0 .09-.004.123-.005l1.767-.058c.318-.015.621-.013.956-.051a.36.36 0 0 0 .245-.185.371.371 0 0 0 .007-.316.38.38 0 0 0-.244-.211c-.142-.028-.196 0-.277.002-.62.042-1.247.097-1.873.11-.586.015-1.182.028-1.753-.024a146.673 146.673 0 0 1-.23-3.893l-.097-2.008-.011-.217.894.002.492-.011.244-.004a.406.406 0 0 0 .402-.326c.007-.033.005-.044.008-.067 0-.06-.005-.07-.012-.107a.415.415 0 0 0-.23-.273c-.158-.058-.213-.025-.3-.033l-.247.006c-.646.018-1.303.008-1.955.01l-3.92-.022zm-.361.808l6.138.017.015.309.187 3.691c-.153.02-.314.022-.48.018a9.92 9.92 0 0 0-.49-.006c-.063-.522-.281-1.012-.491-1.467-.033-.063-.043-.12-.112-.214a.4.4 0 0 0-.266-.143.4.4 0 0 0-.436.358c-.013.117.04.218.063.268l.087.191c.059.126.116.252.169.378.445.979.243 2.18-.409 3.03-.648.866-1.649 1.441-2.697 1.719-.26.073-.532.103-.819.176a3.39 3.39 0 0 0-.807.327c-.51.288-.924.715-1.249 1.185-.328.47-.574.985-.805 1.494-.117.254-.23.508-.359.747a2.325 2.325 0 0 1-.211.332c-.073.099-.179.176-.241.187-.07.025-.154-.045-.237-.136a1.32 1.32 0 0 1-.198-.321 1.88 1.88 0 0 1-.16-.758c-.002-.54.109-1.078.31-1.582.404-1.014 1.126-1.88 1.934-2.627.1-.094.204-.185.308-.275l.158-.134.081-.067.04-.034a.403.403 0 0 0 .087-.513l-.036-.053-.032-.041a8.45 8.45 0 0 1-1.365-2.524l-.062-.197c-.026-.07-.026-.12-.083-.227a.396.396 0 0 0-.323-.196l-.041-.002-.027.002-.105.004a9.914 9.914 0 0 0-1.684.217c-1.107.24-2.184.75-3 1.562-.83.8-1.34 1.847-1.84 2.83-.26.477-.528.996-.97 1.233a1.07 1.07 0 0 1-.347.108.86.86 0 0 1-.365-.016c-.227-.061-.425-.23-.426-.433a10.05 10.05 0 0 1 .652-1.79c.274-.585.593-1.15.957-1.683a11.088 11.088 0 0 1 2.677-2.768A11.035 11.035 0 0 1 11.16 1.32C12.4.964 13.699.813 14.995.807zm-3.069 3.686c.076.222.157.442.247.659.103.238.214.471.334.7.123.229.254.452.392.67.132.202.27.399.416.592-.337.295-.662.61-.967.943a.305.305 0 0 0-.089-.067c-.243-.095-.481-.138-.707-.21-.229-.047-.429-.12-.56-.28-.133-.159-.212-.378-.266-.603-.104-.456-.13-.942-.148-1.423-.006-.24-.012-.486-.005-.72l.003-.07c.443-.1.897-.16 1.35-.19zm-2.162.432c0 .19.003.378.008.568.017.49.05.983.148 1.474.05.246.119.492.232.727.113.232.283.459.513.605.422.225.857.181 1.273.222l.008.001a6.932 6.932 0 0 0-1.1 1.874 3.466 3.466 0 0 0-.293-.938 3.115 3.115 0 0 0-1.68-1.537c-.69-.268-1.446-.299-2.159-.158.125-.233.254-.462.397-.682a5.455 5.455 0 0 1 1.272-1.414 5.07 5.07 0 0 1 1.381-.743zM7.53 8.487c.356-.002.71.055 1.042.18a2.293 2.293 0 0 1 1.392 1.48 2.935 2.935 0 0 1-.137 2.074 2.478 2.478 0 0 1-1.56 1.328c-.671.192-1.446.117-2.051-.234a2.627 2.627 0 0 1-1.226-1.656 2.785 2.785 0 0 1-.05-1.053 2.79 2.79 0 0 1 .09-.39c.245-.152.453-.354.622-.574a5.942 5.942 0 0 0 .535-.863c.015-.008.03-.019.046-.026.08-.037.16-.07.24-.097.34-.108.7-.167 1.057-.169zm-.667.47a.368.368 0 0 0-.36.382l.003.037c.006.04.006.034.01.054.01.055.027.108.044.159l.053.142.005.016c-.182.15-.337.339-.418.572a1.135 1.135 0 0 0-.053.528c.025.18.119.371.276.486.155.12.333.163.508.184.164.017.337.009.496-.01.156-.017.309-.038.443-.03.066.004.13.018.166.04.038.023.044.032.05.081.043.178-.308.335-.552.322a.55.55 0 0 1-.353-.133c-.117-.083-.23-.215-.416-.292a.364.364 0 0 0-.344.068.348.348 0 0 0-.118.31c.011.055.03.109.065.15.014.022.041.044.063.062l.058.034c.065.028.128.069.195.113.174.13.378.22.589.263l.015.003c.027.005.054.012.081.016l.008.072.027.144c.014.046.01.077.041.155.046.06.121.09.185.09.064.002.11-.005.154-.005h.012c.042 0 .086.007.146.003a.245.245 0 0 0 .184-.09c.023-.03.02-.067.029-.105a.375.375 0 0 0-.003-.101l-.03-.14a.888.888 0 0 1-.016-.11c.126-.043.247-.1.359-.183a.836.836 0 0 0 .303-.408.926.926 0 0 0 .005-.532.8.8 0 0 0-.353-.423 1.113 1.113 0 0 0-.513-.145c-.34-.023-.65.077-.923.042-.066-.003-.117-.037-.102-.027.001.004-.003-.006-.003-.048.002-.03.003-.059.01-.087a.541.541 0 0 1 .208-.302c.216-.168.512-.263.797-.295.038-.005.06 0 .125-.012a.371.371 0 0 0 .281-.218.402.402 0 0 0 .028-.103c0-.028.005-.02 0-.078a.367.367 0 0 0-.367-.337c-.065 0-.09.004-.136.008a2.55 2.55 0 0 0-.545.115l-.015-.04c-.015-.04-.016-.06-.039-.14a.369.369 0 0 0-.363-.257zm-4.68 2.485a.41.41 0 0 0-.382.23c-.008.021-.01.02-.023.06l-.015.048-.124.39-.25.777-.507 1.552-.524 1.546-.27.77-.069.199a.373.373 0 0 0-.015.159c.003.036.008.046.012.063.01.041.011.04.018.06l.13.389c.16.52.375 1.02.564 1.531.098.254.183.513.265.772.043.13.07.264.107.395a.281.281 0 0 0 .047.121l.02.028c.011.014.022.027.035.039a.262.262 0 0 0 .05.032c.01.005.02.013.03.017a.26.26 0 0 0 .095.018l.02-.002.034-.003c.01-.002.018-.01.028-.013.005 0 .008-.004.012-.005a.267.267 0 0 0 .171-.303l-.089-.467c-.06-.311-.127-.622-.196-.933a18.52 18.52 0 0 0-.24-.922l-.194-.581c1.126-.076 2.256-.05 3.383-.048a99.696 99.696 0 0 1 3.741-.036c1.247.01 2.495.037 3.743.07l1.872.052.937.027c.044 0 .066.005.129.001a.388.388 0 0 0 .28-.139l-.013.603c.006.252.03.505.051.757l.083.754.042.376c.01.059.043.11.085.15l.002.003c.05.045.114.074.182.071h.014c.015-.001.027-.007.04-.01a.278.278 0 0 0 .22-.287c-.005-.15.003-.298.008-.447.009-.299.04-.596.057-.894.027-.297.033-.594.033-.891l.003-.223.003-.112a.527.527 0 0 0-.014-.146l-.145-.435a40.427 40.427 0 0 1-.985-3.425 33.483 33.483 0 0 1-.194-.868l-.044-.22a.402.402 0 0 0-.802.023c-.004.04-.001.059 0 .075l.006.042.006.028.045.22.095.439c.064.292.134.583.206.873.245.98.534 1.948.85 2.906-.022-.007-.044-.016-.063-.02-.026-.002-.026-.004-.072-.007-2.496-.072-4.994-.153-7.495-.155a92.373 92.373 0 0 0-3.751.066c-.625.047-1.248.11-1.87.185l-.66.077c.535-1.52 1.037-3.05 1.526-4.584l.717.023.204.002h.103a.404.404 0 0 0 .184-.764.386.386 0 0 0-.146-.04c-.06-.006-.075-.002-.115-.004l-.405-.006zm8.485 1.592l.007.019-.007-.019zm1.825.66c-.007.008-.012.017-.02.025l-.012.012.032-.037zm-1.148.265l.034.02-.034-.02zm.11.056l.042.018-.042-.018zm.509.036l-.05.01a.504.504 0 0 0 .05-.01zm-.38.006l.036.009c-.012-.002-.024-.006-.037-.01z" fill="#1a1a1a" />
</svg>