<svg xmlns="http://www.w3.org/2000/svg" width="505" height="826" viewBox="0 0 133.615 218.546"><path d="M0 0v218.546h46.455c-1.809-2.039-3.634-4.068-5.435-6.115a222.97 222.97 0 0 1-3.117-3.612 133.946 133.946 0 0 1-3.004-3.69 95.175 95.175 0 0 1-2.836-3.802 73.887 73.887 0 0 1-2.611-3.952 60.996 60.996 0 0 1-2.33-4.139 53.188 53.188 0 0 1-1.992-4.362 61.898 61.898 0 0 1-1.15-3.094 65.53 65.53 0 0 1-.997-3.185 68.874 68.874 0 0 1-.846-3.262 71.818 71.818 0 0 1-.693-3.326 74.268 74.268 0 0 1-.93-6.79 77.24 77.24 0 0 1-.318-6.887c.08 1.672.131 3.355.238 5.044.053.844.119 1.69.21 2.537.09.848.204 1.696.353 2.545-.024-.07-.052-.207-.063-.243-.012-.035-.007.03.035.36a42.78 42.78 0 0 0 .465 2.839c.163.824.333 1.548.5 2.244l1.086 4.388-.196-.405c.039.146.222.716.392 1.196s.327.87.313.657a72.353 72.353 0 0 1-.893-3.077 43.85 43.85 0 0 1-.665-2.894c.285 1.051.883 3.333 1.37 4.998l-.038-.039.072.15-.033-.11.19.142c.38 1.046.703 2.122 1.053 3.186.175.532.357 1.062.556 1.582.2.52.416 1.033.661 1.532a62.53 62.53 0 0 1-.84-2.454c.032.067.106.258.167.409-.419-1.095-.751-2.051-.868-2.304a36.218 36.218 0 0 1-.76-2.467 30.16 30.16 0 0 1-.437-1.868 19.82 19.82 0 0 1-.31-2.02c-.085-.448-.107-.634-.092-.665.014-.031.065.092.128.265.127.345.3.884.323.766a98.987 98.987 0 0 0-.679-2.759c-.169-.67-.342-1.341-.57-2.79-.054-.46-.052-.551-.028-.477.024.074.07.313.105.514a69.26 69.26 0 0 1-.36-2.14c.013-.057-.11-1.333-.157-2.23-.023-.447-.037-.8-.023-.854.014-.056.055.186.14.923.034.441.116 1.256.182 1.888a74.625 74.625 0 0 1-.226-3.455 66.072 66.072 0 0 1-.066-3.614c.01-1.123.05-2.11.096-2.802.047-.692.101-1.089.139-1.032l.092-2.073c.028-.564.057-1.294.25-3.048.03-.821-.032-.796-.056-1.046a4.844 4.844 0 0 1 .008-.722c.027-.403.086-1.015.21-1.975a72.355 72.355 0 0 0-.455 3.022c-.045.628-.07 1.151-.11 1.837.086-1.057.193-2.112.324-3.164-.095 1-.114 1.414-.103 1.652.011.237.052.3.074.598-.226 2.43-.329 3.982-.424 5.235-.087 1.254-.154 2.21-.16 3.452-.064-.759-.071-1.795-.083-2.519a10.672 10.672 0 0 0-.029-.779c-.008-.066-.017-.094-.03-.075a.771.771 0 0 0-.05.206c.093-1.225.1-1.905.108-2.635.016-.73.03-1.513.222-2.927l-.014.549a26.4 26.4 0 0 1 .216-2.411c.082-.602.171-1.153.26-2.105.007.148.06-.103.116-.342.308-2.053.253-1.745.16-1.443-.04.152-.088.303-.084.157.003-.145.058-.586.223-1.617.193-.906.325-1.428.416-1.718.09-.29.138-.346.162-.323.027.024.036.13.057.168.021.039.054.01.128-.233-.305 1.517-.408 2.277-.45 2.658-.042.381-.012.387.01.407.024.02.044.056-.008.498-.048.443-.177 1.291-.369 2.947.05.001.107-.16.178-.458.07-.297.154-.728.256-1.269.204-1.08.48-2.595.866-4.328-.145.562-.215.748-.25.76-.035.01-.036-.155-.044-.297a.756.756 0 0 0-.02-.17c-.012-.034-.03-.038-.061.014-.06.104-.168.43-.362 1.179.502-2.622.732-3.828 1.006-5.107a26.403 26.403 0 0 1 1.812-5.362l-.031.144a42.27 42.27 0 0 1 .884-2.286 44.28 44.28 0 0 1 1.66-2.948c-.449.948-.972 1.991-1.444 2.993-.473 1.003-.895 1.964-1.14 2.748l2.056-4.409a37.67 37.67 0 0 1 1.073-2.077 28.54 28.54 0 0 1 1.628-2.55c.62-.771.77-.896.63-.67-.138.23-.557.82-1.02 1.529a35.05 35.05 0 0 0-1.34 2.19c-.37.658-.61 1.145-.563 1.164.209-.424.66-1.181 1.066-1.78.403-.601.749-1.051.688-.91a32.197 32.197 0 0 0-1.252 1.99c-.264.465-.417.781-.586 1.106l-.603 1.2c-.267.532-.636 1.253-1.146 2.364.456-1.101.404-1.025.252-.727-.153.297-.406.815-.352.595-.108.335-.615 1.553-1.126 3.107a77.487 77.487 0 0 0-1.482 5.045c-.005.095.003.123.023.097.019-.027.05-.11.09-.235.082-.25.203-.675.35-1.183.292-1.017.708-2.362 1.066-3.327.265-.931.594-1.847.962-2.737.37-.89.778-1.754 1.203-2.581.847-1.654 1.752-3.148 2.49-4.442.566-.88.89-1.315 1.031-1.496.071-.09.098-.116.094-.097a.942.942 0 0 1-.09.173c-.21.356-.678 1.127-.599 1.027 1.077-1.531 1.322-1.852 1.336-1.95.01-.047-.031-.032-.031-.066 0-.033.042-.116.217-.36a38.398 38.398 0 0 1 2.182-2.688 33.535 33.535 0 0 1 1.643-1.698c1-.96 1.881-1.743 3.403-3.1.6-.602 1.459-1.377 2.499-2.237 1.04-.86 2.26-1.803 3.585-2.74a87.557 87.557 0 0 1 4.149-2.772 135.213 135.213 0 0 1 4.08-2.468c-.146.104-.211.16-.222.184-.011.023.032.014.104-.012.145-.052.405-.172.573-.236 1.46-.985 1.926-1.3 2.5-1.653.574-.353 1.255-.745 3.144-1.884l-3.305 1.734c1.294-.746 2.45-1.446 3.594-2.108a51.717 51.717 0 0 1 3.516-1.888c-.416.193-.662.3-.772.336-.11.036-.082.002.05-.086.265-.176.95-.57 1.798-1.047 1.695-.956 4.043-2.253 4.986-2.847 1.362-.722 2.683-1.52 3.85-2.238 1.167-.719 2.181-1.357 2.929-1.76l-.348.237a76.92 76.92 0 0 0 3.743-2.51l-.312.5a32.715 32.715 0 0 0 1.928-1.4 32.21 32.21 0 0 0 1.637-1.36c.454-.406.798-.737.976-.925.089-.094.136-.152.135-.166-.002-.013-.052.018-.158.102 1.244-1.071 1.486-1.31 1.498-1.276.005.015-.053.091-.086.148-.017.029-.027.052-.02.06.007.008.031.002.083-.03a41.331 41.331 0 0 1-2.737 2.59c-.52.448-1.038.863-1.49 1.199-.451.336-.837.593-1.094.723.227-.142.785-.55.893-.668-1.72 1.262-2.75 1.944-3.338 2.368-.59.42-.749.566-.791.647-.045.079.028.093-.11.232-.14.14-.49.404-1.38.98.94-.58 1.772-1.075 2.606-1.607a35.322 35.322 0 0 0 2.613-1.83 49.086 49.086 0 0 0 2.728-2.21c.408-.353.702-.688 1.1-1.061-.248.216-.503.45-.742.646a46.223 46.223 0 0 1-2.67 2.002 26.845 26.845 0 0 0 1.711-1.388c.426-.374.82-.73 1.516-1.285l-.412.41a48.226 48.226 0 0 0 1.63-1.583c.172-.066 1.304-1.145 2.049-1.946.376-.396.661-.715.722-.759.06-.046-.1.188-.658.858 1.037-1.166 1.165-1.41 1.294-1.606.117-.205.234-.364 1.063-1.517a34.312 34.312 0 0 1-1.764 2.17 39.226 39.226 0 0 1-1.916 2.023l-.035-.166c.676-.752 1.1-1.214 1.545-1.695.44-.484.907-.985 1.587-1.876l-.244.055a31.49 31.49 0 0 0 2.347-3.206c-.172.185.149-.37.527-1.086.38-.714.799-1.597.956-1.993.463-.998.592-1.162.777-1.507a5.84 5.84 0 0 0 .333-.804c.138-.408.304-1.001.504-1.92l-.083.258c.239-1.048.38-1.89.515-2.844.132-.955.256-2.027.336-3.544.023.164.003 1.003-.022 1.42.111-1.063.14-2.288.105-3.552a41.153 41.153 0 0 0-.285-3.779c-.284-2.435-.694-4.541-.76-5.495.098.153.206.661.309 1.14.102.478.198.927.273.96.22 1.602.339 2.692.44 3.539l.25 2.094a25.02 25.02 0 0 1 .14 4.143 28.324 28.324 0 0 1-.239 2.506c-.09.08-.175.532-.288 1.184-.113.652-.255 1.505-.464 2.387-.2.883-.469 1.79-.75 2.552-.285.762-.581 1.374-.808 1.684.333-.7.635-1.486.889-2.26a20.84 20.84 0 0 0 .593-2.194c.28-1.315.35-2.197.29-1.931a25.88 25.88 0 0 1-.483 2.232 24.905 24.905 0 0 1-1.599 4.403 23.963 23.963 0 0 1-.829 1.603c.458-.739.644-.98.675-.876.027.103-.11.548-.37 1.134.27-.514.556-1.084.843-1.708a28.424 28.424 0 0 0 1.608-4.331 28.91 28.91 0 0 0 .589-2.505c.165-.862.29-1.741.378-2.625a34.91 34.91 0 0 0 .158-2.654 38.885 38.885 0 0 0-.216-5.07l-.12.732-.293-2.26c-.013-.13-.008-.165.006-.15a.782.782 0 0 1 .065.16c.05.153.117.341.132.227.014-.114-.023-.531-.18-1.589-.146-.613-.3-1.223-.46-1.829l-.033-.265a98.226 98.226 0 0 0-.796-3.001c.232 1.066.333 1.346.424 1.658.09.311.17.654.358 1.847.078.532.107.794.104.878-.003.085-.039-.008-.091-.186-.105-.356-.278-1.05-.392-1.339-.096-.73-.448-2.351-.67-3.405-.111-.527-.19-.912-.189-.972.002-.06.084.204.294.975-.48-1.833-.993-3.644-1.5-5.446.078.022.402 1.205.574 1.753l-.5-1.967a39.762 39.762 0 0 0-.574-2.023l.07.138c-.257-.794-.545-1.648-.821-2.518a41.843 41.843 0 0 1-.754-2.612 16.97 16.97 0 0 1-.433-2.41c-.068-.716-.062-1.443-.053-2.018-.123 1.294-.094 1.776-.125 1.788-.022.023-.065-.419-.063-1.032-.002-.608.052-1.37.116-1.95.062-.58.124-.98.075-.874.093-.468.204-.845.301-1.088.097-.242.179-.35.212-.278.035.071.023.32-.03.795-.052.475-.148 1.178-.22 2.157-.056.26-.099.624-.12 1.053-.021.426-.02.934.024 1.415.042.497.133 1.033.245 1.568.113.535.247 1.07.379 1.565-.294-1.287-.434-2.102-.52-2.83-.08-.707-.105-1.4-.032-2.397-.002.353.01.364.04.185.03-.18.076-.55.14-.963.126-.825.37-1.806.403-1.776-.002.137-.011.417-.07.973-.052.555-.166 1.392-.234 2.636-.005.231-.005.436-.004.612.003.166.007.31.014.437l.029.537c.005.112.002.16-.007.167-.008.007-.023-.028-.04-.083-.034-.11-.071-.299-.091-.394-.02-.095-.025-.097.007.168-.027.242.014.688.119 1.262.104.573.272 1.274.498 2.026.439 1.499 1.046 3.2 1.374 4.467.06.268-.195-.548-.326-.94.16.527.364 1.206.559 1.965l.554 2.188c.362 1.41.675 2.605.774 2.755l-.68-2.64-.7-2.65c-.072-.3-.072-.348-.038-.275.034.072.102.264.165.442.061.178.12.34.14.347.02.007.003-.14-.091-.581-.363-1.253-.844-2.671-1.262-4.178l.137.267c-.201-.772-.443-1.65-.64-2.556a19.7 19.7 0 0 1-.25-1.37 11.818 11.818 0 0 1-.124-1.357c-.022-.952.051-1.94.19-2.896s.344-1.878.586-2.699c-.027-.409.076-1.055.258-1.779.181-.724.441-1.524.728-2.24a19.5 19.5 0 0 1 1.169-1.634c.42-.528.871-1.04 1.349-1.533.478-.492.983-.965 1.513-1.417.53-.451 1.084-.881 1.66-1.288.575-.408 1.17-.795 1.782-1.163a33.49 33.49 0 0 1 1.885-1.049 47.092 47.092 0 0 1 4.007-1.817c-.056-.008-.072-.033-.045-.075a.83.83 0 0 1 .22-.18c.791-.291 1.92-.716 2.846-1.047.927-.33 1.652-.568 1.635-.485.838-.378 2.482-1.022 3.796-1.558a40.4 40.4 0 0 0 1.576-.673c.173-.08.29-.14.331-.174.043-.033.01-.04-.113-.012l.65-.254a44.835 44.835 0 0 0 4.126-1.474 40.545 40.545 0 0 0 2.92-1.352 31.46 31.46 0 0 0 3.53-2.128c.49-.354.753-.58.854-.71.05-.064.061-.105.041-.125-.02-.02-.072-.02-.146-.003a23.01 23.01 0 0 0 1.498-1.176 8.63 8.63 0 0 0 .717-.673c.224-.236.432-.477.63-.723-.28.397-.513.727-.881 1.134-.2.214-.384.394-.63.623-.242.224-.529.475-.885.761.316-.248.625-.504.93-.768l.451-.4c.168-.155.323-.31.47-.466a16.773 16.773 0 0 0 1.537-1.935c.23-.332.45-.67.66-1.015l.195-.324.213-.376a16.5 16.5 0 0 0 .396-.76c.247-.509.46-1.021.61-1.516.081-.248.133-.49.148-.712a1.408 1.408 0 0 0-.072-.6c.097.206.151.45.135.734a1.76 1.76 0 0 0-.018-.507c-.027-.137-.081-.279-.154-.34h-.103c.04.034.087.06.113.117.04.118.061.244.068.372.01.26-.045.524-.116.757-.072.233-.16.436-.216.575a1.213 1.213 0 0 1-.137.255c-.024.023-.026-.02 0-.138.109-.32.216-.633.263-.918a1.91 1.91 0 0 0-.004-.756c-.006-.136-.106-.139-.17-.192-.042-.025-.092-.048-.14-.072zm21.715 153.954l.024-.323-.033.39zM105.36.03c.271.004.519.014.74.037.061.028-3.38.222-6.569.395-.885 0-1.771.004-2.657.004a7.91 7.91 0 0 0-.42-.04C95.168.325 91.81.192 87.94.044l14.998.086-.635-.076c1.21.02 2.242-.034 3.057-.024zM35.22.287L47.17.38c-1.365.033-2.772.06-4.437.045.388.018.81.028 1.233.037L41.65.463c-2.39.001-4.779-.001-7.168-.001a119.03 119.03 0 0 1 4.874-.067L34.27.342zM51.564.41l2.061.015-.294.004c-.97 0-1.492-.008-1.767-.019zm80.65.216c.071 0 .144-.002.22.002.029-.006.02.016.014.035l-.013.056-.028.114a5.697 5.697 0 0 1-.153.487c-.04.11-.098.224-.16.34-.062.116-.128.234-.18.35-.033.073-.042.129-.077.203-.069.147-.172.304-.249.455-.14.264-.233.527-.386.78a18.9 18.9 0 0 1-.335.534c.272-.44.498-.879.721-1.314.118-.223.224-.437.325-.658.22-.49.414-.966.508-1.362-.212-.009-.484-.009-.745-.01-.135 0-.268.016-.385-.005.055.003.128.008.22.009.043 0 .116-.004.165-.004.159-.002.323-.006.538-.012zm-1.493 3.718c-.36.582-.742 1.161-1.167 1.709a10.487 10.487 0 0 1-1.387 1.483c.09-.08.187-.15.277-.233l-.313.27c.014-.01.023-.025.036-.037-.441.393-.887.778-1.349 1.134-.557.43-1.127.833-1.706 1.215-.198.057-.342.09-.395.078-.053-.011-.016-.067.148-.186.141-.09.282-.182.422-.274l.065-.042.067-.043-.028.016a27.251 27.251 0 0 0 1.612-1.16c.523-.407 1.03-.835 1.521-1.286.322-.296.672-.686 1.026-1.128.326-.364.745-.878 1.17-1.516zM112.2 15.812c-1.47.541-2.88 1.06-4.141 1.546l-.333-.016a55.491 55.491 0 0 0-4.65 1.921c-.718.34-1.412.692-2.088 1.062-.675.37-1.332.756-1.976 1.165-.64.411-1.269.843-1.886 1.304-.617.462-1.222.953-1.814 1.483a24.268 24.268 0 0 0-3.379 3.725c.209-.387.694-1.014 1.146-1.547-.21.257-.53.588-.685.801-.36.505-.6.904-.832 1.302-.229.396-.442.787-.712 1.322a26.897 26.897 0 0 0-.993 2.18c.506-1.419.772-1.867.76-1.89-.003-.018-.229.413-.437.877-.21.462-.4.954-.438 1.004-.02.04.015-.18.245-.792-.286.755-.53 1.531-.729 2.317-.2.787-.355 1.584-.467 2.381-.131.944-.2 1.89-.191 2.818.005.458.04.914.096 1.367.056.453.133.902.22 1.345.18.886.403 1.749.636 2.584.234.835.48 1.643.706 2.422.228.778.441 1.528.618 2.248l.493 2.003a1.866 1.866 0 0 1-.038-.28c.002-.031.017-.006.04.058.05.131.135.426.23.766.19.678.413 1.533.442 1.603.146.653.174.874.133.8-.04-.074-.149-.443-.275-.968.267 1.295.393 2.062.429 2.454.017.196.013.298-.009.326-.021.028-.06-.02-.108-.121-.39-1.755-.82-3.5-1.253-5.243.211.947.347 1.658.478 2.34-.282-1.179-.571-2.35-.854-3.51-.345-1.408-.857-2.957-1.325-4.527-.118-.485-.169-.766-.076-.544-.275-.88-.552-1.99-.71-3.01a15.75 15.75 0 0 1-.193-2.433c-.024.751.009 1.146.001 1.288-.001.14-.033.027-.07-.247a6.183 6.183 0 0 1-.047-.486c-.003-.06-.008-.122-.009-.182v-.009c-.018-.919.046-1.885.18-2.863.015.026.016.163.034.17.017.008.051-.115.13-.61.068-.433.166-.86.26-1.288a5.306 5.306 0 0 1-.105.368 3.524 3.524 0 0 0-.098.369c.008-.147.018-.294.03-.441a21.09 21.09 0 0 1 .418-1.661c.163-.547.347-1.085.553-1.608.205-.523.432-1.031.68-1.516.247-.486.515-.949.803-1.383.5-.755 1.035-1.461 1.602-2.124a22.364 22.364 0 0 1 1.792-1.862c.627-.58 1.28-1.123 1.96-1.632.678-.51 1.381-.985 2.104-1.433a34.982 34.982 0 0 1 2.227-1.266 44.61 44.61 0 0 1 2.327-1.128 76.126 76.126 0 0 1 4.864-1.969 43.102 43.102 0 0 1 2.503-.722 44.446 44.446 0 0 1 1.782-.408zm-19.797 40.97c.055.193.083.266.104.291.02.025.034.001.06-.002.21.837.444 1.782.675 2.862a56.23 56.23 0 0 1 .663 3.669l-.042-.152c.101.968.175 1.94.212 2.914.037.974.038 1.951-.005 2.928l-.039-.718a31.41 31.41 0 0 1-.168 3.445.026.026 0 0 0-.023-.005c-.054.02-.103.245-.146.46-.05.245-.092.476-.127.37-.152.52-.317 1.248-.541 2.109-.224.86-.506 1.854-.891 2.902a24.813 24.813 0 0 1-2.348 4.78c-.323.51-.665 1.003-1.021 1.47l.357-.625c-.325.544-.825 1.257-1.455 2.046a30.656 30.656 0 0 1-2.238 2.502 40.707 40.707 0 0 1-2.678 2.464 55.162 55.162 0 0 1-2.628 2.088l.097-.109c.959-.773 1.498-1.275 1.695-1.485.103-.112.106-.138.023-.093.738-.62 1.458-1.26 2.154-1.922a39.51 39.51 0 0 0 2.013-2.057c.087-.072.314-.291.633-.615a48.332 48.332 0 0 0 1.547-2.036 29.734 29.734 0 0 0 1.87-2.855c.57-.99 1.081-2.021 1.527-3.095a24.68 24.68 0 0 0 .704-1.923c-.062.296-.203.811-.383 1.35.337-.888.618-1.792.848-2.708.23-.917.41-1.844.543-2.779.133-.935.22-1.876.265-2.818.045-.943.049-1.887.015-2.827l-.005-.01a41.624 41.624 0 0 0-.14-2.457c-.07-.82-.164-1.639-.275-2.458a72.347 72.347 0 0 0-.852-4.902zm-26.63 44.528l-7.149 4.19s.118-.095.478-.305c-4.033 2.23-4.385 2.438-7.528 4.314l.933-.64c-.307.12-1.089.58-2.102 1.216-1.014.637-2.26 1.45-3.497 2.272-.708.532-2.253 1.659-3.246 2.29l.323-.333c-.232.122-.953.61-1.928 1.339a62.825 62.825 0 0 0-3.462 2.785l.696-.67a72.085 72.085 0 0 1 3.042-2.414 85.095 85.095 0 0 1 3.154-2.256 104.928 104.928 0 0 1 3.248-2.127 137.27 137.27 0 0 1 3.325-2.024 252.378 252.378 0 0 1 6.808-3.856c2.294-1.26 4.603-2.508 6.905-3.78zM21.724 170.7c.03.294.056.571.066.732z" fill="#ef2e31" paint-order="fill markers stroke"/></svg>