<svg xmlns="http://www.w3.org/2000/svg" width="193" height="90" viewBox="0 0 51.065 23.813"><path d="M16.466 0c-.266.027-.475.167-.933.125.189-.086-.213-.062-.211-.107-.208.068-.414.14-.617.217-.304.02-.655.066-.923.158.09-.032.21-.055.362-.071-.396.221-.788.086-1.303.278l.231-.11c-.407.063-.711.196-1.009.334l-.017-.091c-.008.131-.666.372-.797.463.453-.204.668-.24.875-.277.208-.035.41-.072.866-.233-.32.211-.564.301-.9.526-.142.036-.204.032-.224.008-.104.086-.115.174-.318.28l-.081-.026c-.628.167-.476.392-1.058.584-.159-.063.428-.352.762-.546-.315-.005.568-.258.192-.29l-.153.132c-.184.065-.185-.003-.072-.047-.235.111-.185.067-.254.157-.918.377.042-.19-.882.136.09-.074.342-.174.267-.216l.503-.169-.024-.09c-.631.233-.945.508-1.154.773.507-.33.099.06.401-.026a.4.4 0 0 1-.267.113c-.028.042-.29.186-.233.215-.228-.154-1.375.46-1.224.124-.366.119-1.291.833-1.924 1.335l.14-.181c-.801.354-.502.58-.843.932.28-.338-.355.174-.527.249-.24.317-.383.618-.766 1.003-.142.02-.264-.074-.508.181l-.097.232c-.24.256-.477.663-.658.806l.023-.043c-.277.286-.172.38.023.148l-.176.33-.031-.007c-.238.435-.374.887-.73 1.566.02-.226-.435.43-.12-.196-.06.198.133-.053.189-.067.144-.206.18-.451.231-.551-.088.042-.154-.086-.139-.24-.076.255-.327.666-.52 1.056-.196.389-.335.75-.247.854-.28.558-.516 1.335-.751 2.005.018-.025.055-.073.067-.053-.09.186-.178.374-.26.566l.013-.143-.168.38c-.048.033-.053-.132-.022-.3.009-.098.064-.175.053-.08.03-.45-.125.35-.141.048.04-.102.055-.245.08-.32-.192.48-.084.744-.278 1.026.034.256.045.752-.063 1.205-.044-.184-.025.502-.118.263.043.182-.046.597.026.669-.024-.066-.02-.27.013-.409.02.194.085.218.07.45-.011.03-.029.013-.029.013.062.303.224.102.243.624.153 1.37-.262-.175-.29.014.053.051.14.66.131.942l-.034-.063c.04.14.114.34.086.498.102.072.215.219.294.303.045.2.095.401.151.6l-.08-.113c.055.132.089.251.126.37-.051.07-.084-.11-.157-.288-.035.114 0 .236.105.358l-.017-.075c.078.146.35.666.235.223.165.307.071.45.184.66-.045.044-.135-.155-.135-.028.067.221.117.366.215.53-.052-.176.068.028-.009-.252.07.092.194.355.217.333-.05-.08-.098-.13-.125-.295.143.274.275.564.375.866a.201.201 0 0 1-.07-.053c.266.326.548.87.794 1.037l-.044-.113a.735.735 0 0 1-.195-.32c.177.248-.015-.236.185.015.262.349.376.738.617.86-.23-.343-.459-.852-.588-.97l.13.232c-.15-.146-.293-.298-.437-.453.038-.047-.282-.466-.19-.5.106.183.194.354.281.494.014-.052-.242-.507-.32-.715l.089.266c-.29-.414-.506-1.019-.708-1.463.184.34-.085-.483.08-.213.083.103.073.315.075.254.09.01-.074-.284-.042-.396-.068-.03-.223-.5-.209-.204-.006-.162-.17-.485-.155-.712-.084.083-.139-.39-.19-.464a.828.828 0 0 1 .012-.25c.057.199.136.437.23.679.004.104.045.292.054.232l.037-.004c.195.48.434.93.556 1.157l-.086-.1c.232.317.252.714.495 1.033-.023-.007-.047-.045-.02.022.184.442.42.531.537.9l-.07-.016c.021.025.172.199.2.13-.175-.265-.224-.308-.342-.568.096.082.248.284.341.443l-.016.004.025.007-.006-.009.09-.028c.202.153.204.434.417.577l-.095-.265c.008.005.021.022.033.035-.075-.1-.14-.185-.174-.198-.256-.33-.233-.584-.22-.664-.06-.182.137.006.178-.042-.157-.258-.241-.196-.39-.465-.026-.093.021-.05.045-.015l-.14-.184c.02-.022-.157-.51.02-.251l.073.182c-.116-.413-.267-1.122-.156-1.13-.04-.221-.076-.146-.136-.5-.113-.143-.146.052-.283-.324l.033.31-.015-.029.016.038v-.004c.03.058.06.106.09.17l-.088-.314c.081.193.113.147.196.187.133.476.059.643.108.897-.105-.129-.172-.393-.227-.27.002-.265-.158-.248-.162-.555l.038.05c-.128-.217-.05-.269-.155-.449.021.011.026-.017.031-.044-.123-.416-.03.142-.196-.27-.052-.385.124-.148.15-.26.23.605.14-.033.371.612.12-.03.073-.287.003-.636-.013.24-.202-.12-.232.204-.146-.528-.379-.46-.32-1.092l.02.014-.102-.252.04-.355c.129.216.079.485.165.65.102-.428-.157-.563-.136-1.062.156-.405.07.503.201.498-.035-.097.03-.363.066-.33-.046.452.072.273.028.778-.056-.243-.038.04-.094-.003.044.07.1.539.13.871.1.063.032-.296.054-.508-.137-.388.026-.805-.083-1.108-.001-.429.087-.03.099-.056.052-.38-.07-.168-.086-.291-.034-.587.152-.637.212-1.041-.076-.358.136-1.183.33-1.74.019.08.074.015.122-.007-.047-.384-.027-.244.028-.695l-.185.333c.081-.29.062-.564.256-.786-.288.283.089-.5.151-.723v-.001c-.015.103.055.128.118-.075-.042.037-.118.134-.117.074.188-.256.242-.586.41-.69l-.015.04c.08-.129.163-.257.248-.384l.096.123c.206-.235.331-.61.235-.547.216-.25.121-.08.204-.082-.069.178-.175.574-.333.608.023-.016.063-.072.056-.095-.494.688.01.325-.166.704.114-.185.257-.286.343-.502.051-.093.24-.49.326-.7-.119.287-.257.38-.429.555.119-.165.068-.238.204-.357l-.01.06.08-.212c.088.019.384-.474.27-.143.16-.254-.005-.13.136-.368-.118.137-.233.278-.346.42l-.071-.061c.064-.2.148-.2.275-.38L4.186 7.9l.31-.257c-.084-.004.126-.224.17-.297.172-.14.2.07.373-.265l-.026.013a1.78 1.78 0 0 1 .41-.487c.001.024-.046.093-.07.128.323-.27.708-.85.956-.863.03.084-.131.165-.075.24-.55.355-.226.413-.795.904-.181-.116-.332.55-.576.53.208-.21.378-.587.327-.563-.177.21-.42.507-.556.644.158-.089.212.027.193.165.226-.381.86-.883 1.32-1.29l-.138-.042c.326-.435.032.128.34-.152l.074-.192.027-.01.157-.288c-.161.148-.027.147-.239.27-.185.112-.056-.075-.058-.17.133-.072.514-.429.323-.156.117-.156.24-.309.363-.461.026.038-.06.133-.089.189l.31-.275v.024c.229-.25.609-.52.774-.736-.526.248.167-.241.092-.269.183-.102.348.047.034.357-.137.005-.331.251-.503.384.255-.128.293-.226.472-.355-.098.133.285-.1.307-.057-.005.047-.025.183-.28.303-.348.232-.102-.07-.192.017-.162-.035-.465.358-.684.489-.028.008.03-.055.058-.085-.172.136-.528.43-.5.516.127-.133.254-.264.386-.392.11-.054-.087.162.077.094.084-.093.197-.191.337-.272l-.003.046c.303-.144.71-.456 1.014-.685-.025-.2.088-.398.136-.654.5-.3 1.048-.577 1.628-.8a.115.115 0 0 1-.023-.111c.18-.03.466-.19.493-.1.137-.16.616-.42.49-.467l.065-.03c.25.016.596-.031 1.186-.182.115-.032.115-.095.065-.173.132-.01.256-.018.376-.045-.081.063-.126.128-.298.182.307-.075.615-.141.925-.197l-.063.057.35-.135c-.2.063-.522.109-.465.002.402-.16.657-.105.994-.278.023.166.147.173.043.286a.118.118 0 0 1-.042-.002 1.82 1.82 0 0 1-.585.32c.762-.085.558-.11 1.228-.154.067.085-.595.179-.432.225-.207.014-.414.031-.621.055.102-.026.112-.05.159-.074-.41.147-.582.096-.871.28-.211.005.293-.147.07-.111.181-.061.342-.208.418-.3-.497.067-.252.179-.652.318h-.327c-.181.067.074.032.092.056-.218.085-.32.05-.49.101.057.005.178-.003.16.04-.302.012-.56.149-.864.11.17.01-.115.218-.223.282.19-.024.38-.043.57-.06.654-.26 1.089-.317 1.808-.536l-.032.06c.592-.035.82-.123 1.03-.24.211-.111.404-.245.914-.278.035.13.471-.038.436.094-.306 0-.242.049-.153.107.174-.051.29-.15.632-.099-.126.067.171.126-.161.148.458.032.707.036.951-.063.764-.043.211.155.96.184l-.115.034.463.053-.142-.09c.187.003.374.012.562.023.352-.002-.121-.111-.068-.153l-.131.072c-.22-.065-.546-.03-.583-.103.366.04.291-.046.444-.06l-.356-.018-.103-.088c-.349-.052-.618-.094-.833-.03.14.048.241-.05.365.019-.184.1-.612.072-1.03.1-.01-.029-.142-.04-.085-.063.009-.011.082-.008.122-.002v-.002c-.024-.053.202-.082-.189-.124.143-.083.45-.211.442-.24.236-.011.569.008.754.059l-.017.016c.201.03.645.005.667.097.126-.002.475.03.133-.076.196.015.391.034.588.057-.125.131.404.27-.184.28.013 0 .215.026.381.047-.21.065.07.15.37.234l.094-.067c.25.114.387.23.739.298l-.472.041-.12.05c.18.016.36.036.54.06-.08.02.171.082.048.096.041.005.23.047.186.01l-.105-.03c.308-.03.158-.131.64-.068-.257-.165-.404-.14-.57-.134l-.131-.024c.299-.021.602-.034.908-.04l.247.067c.09.085.46.187.284.227.021.051-.105.024-.254-.051-.02-.02.02-.011 0-.03-.063.033-.103.086.064.211-.188-.083-.21-.102-.356-.114l.19.081c-.295-.09-.775-.118-.791-.043.12-.074.272.087.419.16-.125-.023-.393-.05-.206.026.081-.02.622.11.267-.062.166.03.395.058.562.155-.227-.031-.103.055-.187.1.207.01.23-.06.272-.082.498.293.632.557 1.248.754.083.022-.369-.13-.284-.17.48.081.504.37.894.501l-.052-.157c.124.037.412.156.554.217.018.053.373.325.065.21.598.386.676.062 1.382.487-.32-.21-.361-.225-.625-.363.312.09.068-.024.137-.08.134.156.71.393.292.278.223.125.666.383.794.399l-.176-.146c.323.182.677.301.852.303-.408-.22-.469-.082-.973-.379-.516-.379.174-.001-.135-.305l-.439-.14.181.112c-.115.07-.608-.34-.625-.185-.353-.309-.504-.31-.906-.625-.127-.008.036.075.16.145-.226-.117-.299.002-.56-.217-.143-.088-.089.068.177.194-.225-.114-.452-.196-.697-.325l.219.201-.266-.12.201.15c-.512-.225-1.087-.484-1.315-.702.482.085 1.203.447 1.523.43-.08-.085-.4-.064-.476-.239l-.17.018c-.167-.044-.542-.165-.54-.257.454.12.596.104.845.134-.002.003-.006.006-.003.014l.118.003h.002l.008.002h-.005c.132.05.337.155.464.192.143.088.018.084-.006.092.467.342.945.274 1.452.62-.03.07.378.306.23.271.303.186.519.2.749.268.012.084.465.284.272.26l.34.064c.176.147.612.33.64.438.227.104.12-.067.398.139-.022.007-.004.03-.064-.01.115.11.44.302.61.336-.198-.142-.037-.047-.278-.206.03-.037.342.069.597.283-.444-.126.247.276.034.224.607.37 1.04.444 1.608.65.615.337 1.354.81 1.889.985l-.062-.038.32.099c.168.091-.055.109.22.221-.138.048-.463-.227-.764-.305.405.341-.472-.14-.21.1.274-.09.988.503 1.447.607.381.223-.221-.011-.032.1l.156.005c.147.097.189.142.164.181a4.46 4.46 0 0 0 1.305.526c-.483-.17.2-.02-.257-.231.154.03.459.149.744.271-.286-.092.305.303-.288 0 .04.137.307.117.574.247-.155-.023-.491-.098-.468-.076.463.054 1.296.635 1.492.597.333.027.821.13 1.22.177.34.204.765.299 1.175.459l-.088.015c.228.1.61.177.956.302l.055.1c.25.05.708.17 1.082.271.016-.043-.33-.128-.154-.138-.185-.051-.344-.087-.291-.02-.185-.052-.172-.128-.313-.206l.729.149c.055.02.074.032.076.04l.075-.069c.185.05.234.084.194.11.412.07.578-.006 1 .113a1.316 1.316 0 0 1-.63-.017l.489.114c-.244.033-1.082-.2-.97-.038.55.089 1.356.19 1.85.175.234.145.63.094 1.043.196.054.03.18.074.096.105l-.118-.014a6.47 6.47 0 0 0 1.709.05l.252.112c.861.06-.156-.155.722-.172.212.113 1.08.011 1.123.086.165-.024.24-.028.254-.095-.149.01-.476.055-.296-.035.296-.055.444-.02.68-.056-.013.02-.176.097-.086.071.289-.06.703-.137 1.101-.263.399-.122.78-.291 1.006-.47-.19.085-.19.156-.467.208-.009-.045.134-.084.184-.126-.06-.071-.253.149-.55.162.146-.076.29-.154.43-.236l-.279.002c.323-.174.63-.366.918-.574-.806.27-1.116.68-1.851.712.106-.048-.008-.049-.039-.065-.215.083-.486.121-.619.195l-.364.036c0-.047.13-.169.494-.215-1.27.154-2.29.363-3.6.142-.052-.029.178-.008.081-.034-.178.01-.472.001-.463.031.018-.015.056-.046.17-.035-.685-.041-1.017-.246-1.46-.259-.014-.06.336.025.285-.007-.65-.168-1.028-.07-1.691-.231.237-.025-.127-.116-.292-.208-.558-.065-1.704-.381-2.523-.604.276-.117-.889-.312-.894-.502-.177-.064-.461-.138-.504-.084.11.007.33.143.287.165-.263-.083-.658-.228-.723-.165l-.287-.201c-.043.052-.174.085-.349.015-.328-.309 0 .126-.523-.186.152-.01.283-.01.349-.04-.262-.124-.24-.073-.435-.137-.042-.073.24-.048.456.002l-.322-.187c-.366-.044-.996-.167-1.501-.45.11-.012.278.069.178-.071-.233-.085-.58-.13-.847-.329.043.014.023-.008.066.006-.553-.182-.374-.218-.83-.47.012-.004.02-.014.038-.016l-.31-.096c-.658-.187-.605-.443-.924-.69l.084.03c-.17-.206-.916-.524-1.094-.675.214.196.05.1.179.295.228.104.224-.041.566.201-.097.061-.571-.17-.704-.157-.206-.111-.263-.329-.254-.39-.51-.28-.765-.495-1.4-.826-.256-.069-.532.016-.98-.402l.046-.015c-.05.046-.243-.16-.372-.177.126.195-.257-.066-.087.145-.307-.167-.287-.32-.274-.413-.287.004-.565-.409-1.074-.594.113-.007.63.265.454.087l-.684-.186.269.145c-.511-.153-.58-.335-.826-.517-.033-.066.15.013.281.085a3.382 3.382 0 0 0-.577-.252c-.162-.033-.679-.23-.911-.254l-.076-.046a.068.068 0 0 1 .045 0 1.09 1.09 0 0 0-.108-.039l-.24-.139.059.005-.104-.031-.25-.139.046.01c.002-.032-.343-.253-.367-.18l.318.168-.147-.029.065.034c-.071.09-.416.024-.784-.144.023.015.212.11.484.248l-.107-.008c-.405-.203-.79-.383-1.156-.542.144.03.29.07.452.146-.351-.27-1.03-.326-1.174-.531.664.088.934.27 1.59.491.283.24-.436-.108-.481-.053l.349.176c-.021-.086.714.261.591.044a14.83 14.83 0 0 0-2.279-.95c.308-.173.623-.338.944-.497.003-.01.022-.021.066-.032-.725-.25-.445.162-.628.127-.162-.044-.318-.023-.44-.118l.088-.016c-.465-.1-.173.063-.574-.067-.345-.028.283.097.057.099-.427-.142-.319.122-.97-.13.04-.026-.047-.143.354-.06L20.01.61c.471.07.187.013.661.122.245-.048.211-.127.438-.16-.187-.022-.174.07-.439-.006-.317-.109.064-.04.106-.064-.46.01-.455-.23-.87-.2.049.14-.024.118.233.26-.28-.024-.611-.175-.565-.278L19.5.37c-.06-.037-.279-.077-.29-.104l.073-.024c-.057.006-.077.014-.073.023l-.103.033c.192.11.346.174.7.209-.154.037.154.204-.296.136-.192-.038-.012-.06-.019-.091-1.018-.102-.994-.335-1.814-.353.207-.031.696.08 1.092.065-.222-.12-.51-.038-.735-.071.207-.025.246-.056.01-.121l-.105.05c-.143-.015-.402-.025-.42-.055-.007.022.055.042.183.07-.368.055-1.043.062-1.683.045.04-.137.916-.086.447-.182zm7.972 2.765l.638.219-.447-.199.88.103c-.243-.14-.268-.048-.521-.15.059.015.089.005.106-.002a32.403 32.403 0 0 0-1.192-.556c.022.053.347.253.107.171.084.086.41.195.478.168l-.111.015c.307.058.426.285.229.24l.023.011zm1.072.123l.084.054c.017-.016.06-.026.122-.027zm.206.027l.276.038a1.115 1.115 0 0 0-.276-.038zm-.122.027c-.015.014-.016.032.011.055l.045-.017zm.076.296c.043.01.067.008.048-.013-.065-.006-.109-.02-.174-.026zm7.68 4.402l.094.03c-.052-.027-.077-.032-.094-.03zM16.993 2.104c.003.005.003.01.01.014.031-.005.016-.01-.01-.014zM10.37 3.141c-.1.137-.437.33-.817.523l.142-.125c-.315.14-.398.263-.502.365.005-.024-.023-.021-.08-.014-.257.168-.34.34-.173.316l.071-.077.225-.028c-.016-.19.575-.398.848-.61-.178.17-.283.397-.594.447L9.56 4c-.222.131-.446.16-.526.305l.25-.165.018.043c.18-.109.386-.3.584-.343l-.017.018.032-.023-.01.003c.126-.129.233-.285.663-.458l-.007.023c.224-.278.847-.25 1.043-.395.073-.2-.503.117-.672.121.158-.134.387-.13.195-.155.404-.24.305.028.625-.205l-.217.036c.135-.13.421-.183.563-.306-.012-.114-.278.091-.6.17l.11-.13a16.18 16.18 0 0 0-.586.323c-.127.201.038.132-.299.381-.155.002-.284-.035-.339-.102zm-.501.717l-.17.127a.819.819 0 0 0 .17-.127zM2.497 8.061a.137.137 0 0 0 .054-.044c-.022-.004-.038.014-.054.044zm7.231-6.076c.01-.014-.008-.017-.073-.002 0 0 .03.005.073.002zM17.241.01c-.231-.022-.414.078-.354.101l.446.012c-.11-.096-.124-.004-.382-.035zm.373.014zM17.53.05c-.007.002-.007.005-.01.008l.01-.008zm-1.926.542c.104-.003.22-.003.357 0 .07.094-.25-.012-.372.047l.261.083c-.117.008-.341.105-.339.01-.001.048-.179.134.16.074l-.251.087c.015.01.035.019.058.024l-.228.03c-.099-.022-.272-.001-.429-.056-.014-.027.145-.055.235-.078a1.598 1.598 0 0 0-.57.067c.365-.03.177.042.266.11-.217.06-.577.096-.706.141-.307.02-.575-.014-.386-.125-.188.075-.4.084-.584.215.36-.176.053.186.51-.038.168.097-.39.163-.651.179.124-.052.005-.068.028-.11-.363.138-.162.182.11.15l-.411.177.043-.01-.422.152c-.084-.082-.115-.143.01-.155l-.25.004.346-.132c-.171-.037-.397.104-.578.163-.221.01.444-.224.638-.406.189-.121.663-.153.597-.093-.021-.141.656-.227.9-.336.62-.104.434.11.977-.012l-.208-.052c.366-.066.575-.102.889-.11zm.47.192c.038-.003.092-.003.17.001-.023.026-.002.041.039.052l-.324.025c.035-.034.003-.069.116-.078zm1.352.042c.336.004.691.044.893.096l-.105.003c-.785-.086-1.015-.04-.931.03.082.071.474.19.919.352a14.741 14.741 0 0 0-1.572-.157l.066.051c-.17-.02-.305.048-.399-.012-.014-.032.848-.311 1.13-.363zm1.945.024c.112-.015.607.091.48.145-.338-.112-.353.145-.644-.06-.062.059.016.1.137.137-.044.006-.072.016-.08.031l-.35-.07c-.097-.025-.185-.05-.154-.073.043-.109.467-.042.611-.11zm3.257.03l-.199.098c-.008.03.149.057.32.097-.046.02-.097.045.098.115.368.204.637.147.91.28l-.091-.024c.248.141.583.28.807.313.152.214-.76-.305-.405-.02-.267-.167-.718-.25-.944-.332.365.178.63.436.495.463.82.267.117-.269.828-.008l.461.246.228-.056c.283.136-.226.024.21.224.148-.005.396.192.5.194-.027.024-.049.054.168.17.022-.01.029-.07.2.02.049.19-.453-.202-.315.02.511.27.354.026.487.04-.023.008-.043-.016-.107-.054.027-.039.214.106.22.044a1.172 1.172 0 0 0-.248-.105c.17.036-.196-.212-.346-.289-.374-.11-1.07-.489-1.564-.688.045.012.135.037.091-.006-.695-.303-.969-.47-1.804-.742zm-11.12.028c-.252.06-.532.192-.632.284l.103-.024-.396.275c.26-.191 1.005-.444.924-.535zm2.247.053a.653.653 0 0 0-.095.045.739.739 0 0 0 .095-.045zm9.11.144c.105.03.202.068.255.115zm-9.939.096a1.65 1.65 0 0 0-.38.116c.058.005.416-.067.38-.116zm-1.754.31h.03zm10.1.086c.076.047.09.084.1.126l-.194-.07zm-11.647.206l-.13.054c.04-.015.084-.033.13-.054zm-.131.054c-.28.103-.455.084-.443.043-.245.208.527-.053.074.243.655-.231-.097-.077.369-.286zm12.305.029l.03.008c.099.034.15.057.175.074zm-7.775.02l-.087.03a.794.794 0 0 0 .087-.03zm.469.013c-.026.01-.038.02-.027.026l.027-.026zm2.781.18l.322.013-.026-.013zm1.64.086l.194.014a.838.838 0 0 0-.195-.014zm-2.562.03c-.004-.001-.014.002-.038.013l-.175.05.22.008c-.047-.012.004-.064-.007-.07zm3.221.005c.08.01.073.007.18.022l-.019.011a.09.09 0 0 0-.049.017c-.064-.02-.105-.022-.112-.05zm-9.047.03c.152 0 .265.032.373.066l-.42.211-.063-.066c-.714.276-1.095.715-1.788 1.062.053-.122.333-.227.28-.242-.42.217-.252.372-.7.517.546-.37-.372.179.093-.2-.64.538-1.452.912-1.863 1.283.14-.045-.122.204-.122.228-.113.085-.112.013-.024-.062-.247.144-.331.123-.34.04.144-.129.29-.256.44-.38-.162.1-.279.12-.404.212a.812.812 0 0 0-.173.173c-.055.089-.032.085-.006.116-.1.166-.227.372-.38.636v-.023c-.142.149-.283.298-.42.452l.022-.083-.196.313c-.063-.07-.107.053-.14-.006-.278.06-.487.65-.841.997l.012-.086c-.097.264-.559.747-.806 1.102l-.007-.023c.11-.24.095-.314-.008-.235.034-.087.103-.214.133-.296.087-.117.303-.47.393-.447-.178.248-.152.23-.027.15.111-.288.503-.697.382-.756.268-.33.103-.083.332-.284.055-.004.011.096-.032.196.249-.322.511-.635.786-.938-.036-.113-.613.51-.415.116.052-.097-.07-.194.262-.467.013.006-.006.038-.031.072.124-.15.172-.147.337-.278.113.026-.138.229-.188.375.08-.11.162-.242.275-.338v.05l.311-.318c.086-.179-.257.22-.312.196l.17-.237c.224-.24.889-.822 1.212-.885.333-.187.134-.178.175-.283.14-.2.376-.238.543-.391-.048-.059.18-.2.136-.285l.326-.181c.105-.229-.393.214-.506.221-.235.007.208-.186.06-.176-.234.169-.215.236-.319.33-.13.102-.22.127-.243.085.41-.22.15-.225.476-.418l.026.017c-.044-.086.443-.328.595-.467.41-.12-.215.292-.186.312l.415-.284c-.156.165.063.104-.157.303.245-.181.319-.124.542-.317-.217.282.407-.105.48-.04-.288.188-.91.381-.84.325.025.018-.338.22-.492.277l-.129.234c.224-.141.504-.376.474-.232l.282-.233c-.233.336-.22.32-.463.56.648-.248.975-.757 1.54-.902l-.073.052c.619-.33.979-.421 1.231-.42zM7.828 3.52l-.026.011-.008.024zM5.988 4.92l.05-.083c.135-.11.214-.18.16-.186l-.085.063c.057-.1.022-.063-.032.024-.085.074-.063.09-.062.113zm8.314-2.633a.4.4 0 0 0-.087.03zm-3.967.066l-.06.002-.226.146zm8.573.115l.046.03.247.005-.046-.03zm-6.652.108c-.084.062-.176.209.152.059-.066.015-.179.006-.152-.059zm-2.572.06c-.052-.017-.266.113-.362.146.133-.06.292-.004.362-.145zm16.308.318c.069.017.14.04.21.07.094.176.18.206-.127.163.28.081.226-.05.606.15-.175-.03-.272.062.081.27.95.393 1.695.457 2.6.797-.012.092.643.448.944.648-.166.01-.41-.103-.66-.228l.596.365.17-.112c.876.49-.285.001.095.265.248.126.368.116.528.184-.715-.35.209-.141-.502-.515.162-.05.568.176.785.34.205.258-.276-.059-.396.008.287.145.25.098.4.108.422.278.973.39 1.15.682.328.154.336.092.547.137.099-.092-.434-.32-.5-.474.019.023.054.068.032.076l-.258-.177c.235.185-.1.091-.242.021-.102-.055-.304-.165-.26-.18l.167.064c-.175-.148-.478-.168-.65-.349.004-.031.09.002.11-.006-.276-.058-.497-.193-.872-.341l.264.007c-.346-.04-.949-.44-1.347-.76.037.047.117.112.052.102-.271-.123-.421-.31-.269-.3-.302-.054-.914-.633-1.332-.709-.639-.111-1.28-.216-1.922-.306zm-14.482.272c-.064.02-.163.062-.22.06.005.068.283-.081.22-.06zm-.51.169c-.345.111-.435.14-.444.073-.323.124-.226.203-.401.316.344-.179.428-.186.845-.39zm12.53.013c.016.003.041.01.068.02l-.102-.015c.006-.006.016-.008.033-.005zM8.092 3.5l-.35.206.05-.15-.03.03c-.548.42-.13-.092-.679.364.016-.026.02-.042.027-.06-.215.198-.663.486-.648.607.074-.065.515-.32.481-.22.145-.14.429-.25.507-.324-.3.141-.08-.052.087-.204.185-.086.013.089.169.01zm-1.149.777a.316.316 0 0 0-.077.102.308.308 0 0 0 .077-.102zm.167-.386a.589.589 0 0 0 .078-.083c-.053.038-.068.061-.078.083zm3.044-.108l-.12.064a.85.85 0 0 0 .12-.064zm17.402.213l.104.055.168.064zm.668.142c.018.02.04.036.06.053a.245.245 0 0 0-.06-.053zm.06.053c.06.09-.362-.02.148.205-.042-.017-.023.007-.065-.01.276.237.457.21.724.364.135.134-.299-.085-.159.019.355.155 1.01.657 1.078.49.247.13.26.183.315.253.476.06 1.367.891 1.486.676-.143-.07-.366-.205-.595-.278l.085-.144c-.305-.167-.1.091-.527-.156l.122.08c-.333-.131-.858-.469-1.225-.678.067-.02-.189-.183-.106-.227-.258-.13-.515-.26-.686-.263-.141-.114-.413-.188-.594-.331zm.75.165l.272.122-.018-.023zm.539.423c-.005 0-.005.004-.008.006l.08.04zm-.932.022c.265.153.14.104.428.249-.094-.118-.345-.216-.428-.249zm-23.991.15l-.058.074-.056.174zm21.523.27c.135.13-.151-.006-.196.01l.567.313c.015-.032.09-.036.095-.07zm.37.323c-.01.025.013.066.132.152.031-.011.102.004.18.023zm4.268-.034l.018.024.25.098-.019-.024zm.224.016l.076.037a.826.826 0 0 0-.076-.037zm-25.827.029c-.084.08-.19.14-.23.214.13-.075.158-.123.23-.214zm21.883.119c.168.148.038.118-.121.074a.179.179 0 0 0-.062-.016l-.054-.014.036.02c-.008.01-.007.026.01.058.265.116.414.303.575.397-.075-.24.571.286.802.361l.244.124.089.051c.008.027-.029.032-.18-.018.129.037.498.268.491.2l.862.502a.331.331 0 0 1 .06.067c.035.008.044.004.045-.006 1.257.729 2.54 1.454 3.878 2.116-.192-.11-.344-.231-.537-.352.354.056-.32-.189-.182-.238.153.037.345.15.452.233.069-.025-.078-.154-.03-.2-.464-.316-.659-.13-1.12-.423.05-.046.224-.015-.093-.178l.086.031c-.534-.21-.317-.34-.715-.36l.053-.076c-.259-.065-.693-.311-.943-.44l.024-.008c-.734-.302-.395-.2-1.178-.607l.405.111c-.24-.192-.358-.125-.54-.245.022-.007.013-.092.2-.002l-1.003-.396c-.254-.068.01.085.024.139-.111.005-.49-.257-.481-.319.065.01.292.115.176.004l-.388-.055c-.37-.322.414.016.647.092-.415-.265-.59-.255-1.04-.516.125.088.191.17.246.238-.038.098-.434-.186-.738-.35zm5.666.29c-.008.063.142.07.244.123a1 1 0 0 0-.244-.122zm-.64.39c.063.02.113.033.158.043a.455.455 0 0 0-.158-.044zm.158.043c.338.144.959.6 1.424.705.278.016.217-.197.297-.344-.016-.052-.58-.377-.655-.292.234.212-.418-.117.065.183.012.084-.265.034-.484-.126.05-.046.25.09.137-.047-.192-.02-.227-.098-.22.017-.292-.093-.354-.05-.564-.096zM5.67 6.62l-.025.01-.143.208.025-.01zm-2.934.873c0-.012-.02.002-.082.058-.154.249-.05.175.005.163-.119.064.076-.188.077-.221zm1.899.131a.598.598 0 0 0-.1.072c.015.005.051-.023.1-.072zm.016.238l-.168.121-.014.06zm30.562.718c.082.043.1.083.12.127.036-.01.285.07.251.01zm.12.127c-.007.002-.008.007.012.021zm-32.976.006l-.1.347-.123.077-.012.221c.132-.188.421-.572.543-.617-.273.446-.612 1.195-.764 2.166 0 0-.011-.022-.002-.066-.172.46-.177.505-.28.88l-.01-.13c-.088.045-.111.371-.182.68.014.1.005.306-.069.418l-.042-.06c-.058.045-.129.354-.185.706l-.032-.153a.995.995 0 0 1-.017-.337.888.888 0 0 1-.073.268 12.38 12.38 0 0 1-.06-.666c-.096.313.065.395-.031.777-.104-.045-.172-.028-.169-.465.096-.362.058.033.144-.143-.07-.307.19-.326.118-.652.087-.35.134-.218.207-.316-.09.343.153-.127.052.306.163-.327-.04-.285.095-.563l.123-.01c.116-.252.378-.78.465-1.148-.194.26.005-.197-.077-.178.068.09-.168.459-.207.438.068-.244.319-.834.403-.937-.09.134-.178.27-.265.408.014-.178.192-.772.188-.794.13-.147.258-.403.362-.457zm-.93 3.557l-.005-.027a.456.456 0 0 0-.029.156zm32.49-2.919v.001c.602.414-.463-.132-.32.087l.374.136-.046.017.438.2c-.063-.098-.127-.133-.08-.182.57.298.149.157.544.43l.667.283-.062-.006a.231.231 0 0 0 .109.024c.764.312 1.504.577 2.264.84.428.1-.188-.19.147-.17-.476-.17-1.149-.502-1.235-.398.022-.011.066-.031-.023-.083l-.31-.008.246.133c-.305 0-1.204-.398-1.33-.53.518.183.311-.038.993.314-.02-.043-.128-.148.037-.1-.844-.298-1.544-.68-2.413-.988zm-31.872.03a.08.08 0 0 0-.032.015l-.07.216c.012-.037.15-.236.102-.232zm1.175.081l-.209.14c-.194.486-.202.735-.382 1.223.372-.579.209-.906.591-1.363zm.08.137c-.14.314.014.188-.136.459l.168-.083c-.136.024.07-.403-.033-.376zm.204.033a.866.866 0 0 0-.076.15c.034-.062.057-.11.076-.15zm32.826.707l.14.049a1.462 1.462 0 0 0-.14-.049zm14.024.677c-.185.07-.588.173-.688.251.09-.06.413-.084.505-.175l-.009.02zm-11.875.235l.117.098.106-.01zm.223.088l.222.087a.178.178 0 0 0-.04-.103zm.222.087c.014.081.032.17.368.257l-.03-.128zm.338.13l.249.093-.252-.109zm10.404-.288c-.014.009-.022.019-.025.03.002-.01.012-.02.025-.03zm-49.049.009l-.098.245.01.14zm.153.1l-.022.14.025.044zm48.56.027c-.158.046-.176.063-.155.074a.971.971 0 0 0 .154-.074zm-8.004.096c-.035.011-.156-.001-.034.031zm-.202.468l-.087.189c.348.053.355-.053.183-.147.322.035.136.15.377.099.011-.074-.381-.13-.473-.14zm-.675.01c-.018.042.165.066.258.077-.071-.024-.168-.066-.258-.078zm1.547.213l-.452.02.663.149.067-.076c-.063.01-.305-.002-.387-.056zm.288.084l-.01.01c.017-.002.023-.006.01-.01zm-41.072.107c-.033.05-.085.125-.115.13-.026.115-.006.204-.015.324.015-.134.055-.285.13-.454zm41.185.022c.69.134 1.386.244 2.09.32a29.819 29.819 0 0 1-2.09-.32zm4.951.438l.168.032a.476.476 0 0 0-.168-.032zm-45.4 2.622c-.001.066-.012.159.026.252.055-.025-.01-.171-.026-.252zm.538 3.715l.019.075a.293.293 0 0 0-.019-.075zm-1.13.836c-.006-.002-.008 0-.007.01a.774.774 0 0 1 .098.088c-.04-.048-.077-.092-.092-.098zm1.7.295c.195.287.433.591.56.848l-.147-.043c-.111-.314-.27-.447-.425-.725.106.213.218.424.336.632.124.321-.02.149-.181-.065.035.055.062.108.058.131.046.01.546.584.194.052.104-.041.276.303.402.42-.054-.112.094.006.103-.047-.062-.058-.146-.119-.22-.234.004-.08.153.067.236.207-.075-.193.223.147.088-.103-.39-.455-.65-.786-1.003-1.073zm-.61.18c-.003-.003-.003-.004 0 0zm.311.17c-.005.004-.007.016-.006.037.08.073.21.291.242.212-.055.04-.203-.282-.236-.25zm.013.154l.08.183c.025.005.04-.02.106.075zm.324.002l.105.14a1.13 1.13 0 0 0-.105-.14zm-.82.3l.006.013c.008.008.017.019.024.023zm1.159.346c-.009.003-.014.013-.014.034.232.27.25.327.449.447.195.259.333.452.408.59.075.062.13.031.222.113l-.059-.06.103-.11c-.092-.053-.144-.135-.22-.217.158.092.316.18.476.265-.012-.215-.404-.533-.483-.727.061.272-.178-.112.056.326l-.272-.114c-.085-.121-.168-.244-.248-.367-.04.025-.265-.212-.166-.012.032.03.095.089.133.145-.097.021-.327-.334-.385-.313zm-1.156.006l.007.029.187.208-.006-.028zm.348.082a.04.04 0 0 0-.026.003c.142.11.228.181.381.399-.09.19-.298-.324-.505-.332.267.421.488.447.748.755-.068-.187-.453-.8-.598-.825zm1.882 1.104c.03.028.061.066.1.122.115.106.171.241.112.216.27.18.225.236.343.174.189.095.288.306.083.186.16.116.324.227.488.337l-.248-.25c.14-.012.397.396.563.372a15.547 15.547 0 0 1-.48-.407l.047-.005c-.132-.068-.324-.27-.381-.35.023 0 .036-.029.117.046-.53-.538-.28-.005-.744-.44z"/></svg>