<svg xmlns="http://www.w3.org/2000/svg" width="80" height="83" viewBox="0 0 21.167 21.96"><path d="M9.705 1.245c-.822.051-1.49.847-1.76 1.612-.086.247.27.343.4.158.457-.656 1.272-.828 1.963-1.128.266-.115.262-.445-.011-.55a1.409 1.409 0 0 0-.592-.092zm5.187 1.3c-.297.005-.558.23-.755.472-.109.132-.22.272-.306.42-.041.071-.08.146-.104.224a1.226 1.226 0 0 0-.022.21c-.115.26.205.544.423.312-.037-.002-.023-.006.041-.014l.087-.04c.072-.037.138-.089.2-.14.102-.086.206-.166.32-.238.308-.197.638-.36.637-.777a.412.412 0 0 0-.214-.355.636.636 0 0 0-.307-.075zm-3.985.274c-.204-.004-.429.104-.59.324-.203.278-.303.547-.616.737-.346.211-.75.256-1.146.179-.265-.052-.517.295-.275.493.53.437 1.219.593 1.884.364.03-.01.06-.022.092-.035-.05.26-.023.513.041.815.063.294.117.694.228 1.022-.174.05-.349.1-.521.152-.462.137-.915.294-1.368.456-.187.066-.273.379-.052.47.588.246 1.19.38 1.83.344.53-.03 1.26-.072 1.6-.542.351-.484.05-1.197-.093-1.708-.043-.152-.085-.302-.132-.448.046-.224.04-.466.044-.706.006-.534-.012-1.064.021-1.597.02-.326-.462-.425-.616-.19a.497.497 0 0 0-.33-.13zm5.047.124c-.196.022-.381.21-.318.444.11.404-.088.798-.124 1.2l-.663.25c-.242.093-.401.335-.324.597.07.237.353.412.599.323l.628-.227c.008.036.016.07.027.106.051.167.119.328.191.487.036.087.076.17.122.253.065.111.058.111-.022 0-.231.21-.844.27-1.143.367-.32.104-.617.186-.866.417-.187.173-.053.434.146.509.425.161.956.015 1.388-.087.44-.103.993-.19 1.34-.505.301-.274.359-.629.23-1.003-.078-.23-.198-.435-.25-.676-.06-.276-.06-.56-.112-.838a.465.465 0 0 0-.03-.1c-.013-.469-.282-.964-.505-1.354a.31.31 0 0 0-.314-.163zm-11.405.365c-.24.003-.48.027-.702.124-.201.088-.36.389-.137.561.268.205.564.303.89.377.35.08.725.215 1.073.072.438-.181.476-.68.104-.952-.286-.21-.65-.172-.989-.18a6.344 6.344 0 0 0-.24-.002zm1.56 2.026c-.32-.017-.54.16-.601.517-.098.57.725 1.136.387 1.682C5.48 8.2 3.49 7.455 3.702 8.67c.006.033.044.055.075.055.258-.005.558.142.806.195.303.065.607.106.917.083.55-.04 1.103-.25 1.452-.69.347-.436.405-1.015.289-1.545-.112-.507-.422-1.297-.988-1.414a.945.945 0 0 0-.144-.02zm8.65 3.765c-.135.012-.256.117-.188.27.678 1.53.93 3.18 1.47 4.752.075.217.255.433.496.474.303.052.435.002.673-.192.196-.161.212-.454.165-.678-.355-1.683-1.415-3.166-2.4-4.535a.237.237 0 0 0-.216-.09zm-1.666 1.307c-.14-.008-.286.12-.229.275.492 1.313.854 2.618 1.197 3.974.2.791 1.328.414 1.195-.354-.247-1.423-1.022-2.82-2.034-3.837a.194.194 0 0 0-.13-.058zm-6.816.026a.265.265 0 0 0-.236.125c-.545.8-1.035 1.61-1.504 2.458-.372.67-.92 1.358-.574 2.13.077.174.299.206.46.177.821-.15 1.084-1.206 1.351-1.873.355-.887.593-1.761.743-2.704a.26.26 0 0 0-.24-.313zm-2.027.074c-.097-.016-.203.02-.278.136-.56.866-1.49 1.51-1.722 2.56-.072.323.261.539.54.397 1.031-.522 1.27-1.709 1.67-2.686a.29.29 0 0 0-.21-.407zm13.53.129c-.157-.01-.326.157-.27.327.134.404.414.678.659 1.023.198.28.368.586.504.903-.076.525.133 1.032.28 1.552-.424.442-.712.99-1.095 1.472-.445.561-.987 1.052-1.541 1.504-.491.401-1.289 1.331-1.97 1.164-.77-.19-1.202-1.01-1.744-1.505-.082-.074-.192-.012-.201.087-.046.512.167 1.056.488 1.521.196.49.39.98.575 1.474.224.596.556 1.113 1.22 1.265 1.49.34 2.961-.806 3.978-1.742 1.05-.966 2.124-2.143 2.424-3.581.254-1.223-.055-3.6-1.557-3.931a3.39 3.39 0 0 0-.282-.375c-.384-.445-.957-.652-1.323-1.083a.202.202 0 0 0-.145-.075zm-9.992.045a.127.127 0 0 0-.098.035c-.575.573-.736 1.531-.935 2.285-.234.89-.548 1.891-.532 2.816.004.225.141.515.365.605.124.05.225.086.36.09.226.006.52-.148.608-.364.362-.878.434-1.914.512-2.857.067-.81.211-1.81-.192-2.555a.107.107 0 0 0-.088-.055zm-6.443.72a.34.34 0 0 0-.328.342l.009.445c.003.174.16.338.342.327a.339.339 0 0 0 .327-.341l-.009-.445c-.004-.174-.16-.339-.341-.327zm8.637 3.47c-.126 0-.249.087-.255.26-.013.388-.116.804-.258 1.22a.469.469 0 0 0-.16.033c-.78.315-1.266 1.021-1.723 1.698-.289.427-.903 1.643-1.5 1.675-.327.017-.717-.356-.981-.507a9.541 9.541 0 0 0-.285-.157 7.209 7.209 0 0 0-.322-.295c-.714-.602-1.418-1.55-2.394-1.683a.622.622 0 0 0-.303.032c-.078-.01-.147.044-.18.118a.51.51 0 0 0-.134.339c-.055 1.33 1.534 2.363 2.473 3.09 1.041.807 2.156 1.629 3.53 1.1 1.182-.455 1.99-1.628 2.488-2.74.263-.591.421-1.19.488-1.834.078-.762-.12-1.366-.21-2.1a.27.27 0 0 0-.274-.25z" opacity=".6" fill="#fff"/><path d="M13.177.001A.224.224 0 0 0 12.93.2a.223.223 0 0 0 .198.245c.2.021.396.047.58.074a.222.222 0 0 0 .067-.44 13.897 13.897 0 0 0-.598-.076zm1.845.351a.225.225 0 0 0-.188.16v.001a.22.22 0 0 0 .02.169.222.222 0 0 0 .055.065.22.22 0 0 0 .079.041c.19.054.375.114.547.179a.223.223 0 0 0 .287-.13V.835a.221.221 0 0 0 .015-.087.223.223 0 0 0-.145-.199 7.433 7.433 0 0 0-.582-.19.215.215 0 0 0-.088-.009zM6.666.654a6.376 6.376 0 0 0-.596.08.223.223 0 0 0 .044.44l.036-.003c.183-.034.37-.058.554-.074a.222.222 0 0 0 .203-.24.222.222 0 0 0-.24-.203zm3.03.413c-.15-.004-.272 0-.387.01-.15.015-.28.045-.396.091-.3.12-.561.314-.768.555a2.12 2.12 0 0 0-.497 1.16 2.07 2.07 0 0 0-.007.329 1.862 1.862 0 0 0 .19.727c.055.11.12.214.194.31v.001a1.943 1.943 0 0 0 .644.54c-.352.492-.536 1.168-.52 1.944.005.256.032.515.08.768a.224.224 0 0 0 .255.179c.85-.14 1.988-.302 3.114-.306a.232.232 0 0 0 .159-.066.22.22 0 0 0 .063-.158v-.074c-.011-.543-.129-1.807-.92-2.549a2.126 2.126 0 0 0 .474-.608 1.893 1.893 0 0 0 .161-1.355v-.002a1.871 1.871 0 0 0-.241-.548 2.068 2.068 0 0 0-.239-.3c-.394-.411-.933-.637-1.36-.648zm-4.866.041a.214.214 0 0 0-.086.017 6.825 6.825 0 0 0-.558.26.225.225 0 0 0-.109.132.22.22 0 0 0 .016.17c.01.02.023.036.037.05v.001a.223.223 0 0 0 .265.042c.169-.09.344-.17.519-.244a.224.224 0 0 0 .121-.12.222.222 0 0 0 .017-.083v-.001a.223.223 0 0 0-.222-.224zm11.93.043a.222.222 0 0 0-.18.171h-.001a.223.223 0 0 0 .088.23 3.877 3.877 0 0 1 .431.356.225.225 0 0 0 .316-.005.224.224 0 0 0 .063-.158v-.001a.22.22 0 0 0-.068-.155v-.001a4.283 4.283 0 0 0-.483-.399.222.222 0 0 0-.167-.038zm-7.242.36h.165c.174.006.409.071.64.197-.665.29-1.531.69-2.127 1.391-.036.043-.07.088-.105.133l-.005-.046c-.04-.694.369-1.354.994-1.604a.954.954 0 0 1 .273-.061c.051-.005.105-.008.165-.01zm1.2.49c.24.24.42.57.43 1.002.012.54-.286 1.045-.72 1.332h-.001l-.001.001c-.219.144-.47.234-.737.243l-.024.001a1.55 1.55 0 0 1-1.406-.79c.47-.855 1.396-1.312 2.387-1.74a.222.222 0 0 0 .072-.05zm-7.52.098a.223.223 0 0 0-.163.049 7.18 7.18 0 0 0-.459.408.223.223 0 0 0-.004.315.226.226 0 0 0 .165.066.22.22 0 0 0 .151-.063c.137-.133.281-.261.43-.382a.222.222 0 1 0-.119-.393zm11.774.142l-.027.001a1.37 1.37 0 0 0-.362.063c-.728.23-1.205.966-1.135 1.751.05.558.37.95.775 1.165-.277.295-.414.722-.403 1.279.003.159.018.327.045.512a.222.222 0 0 0 .226.19.261.261 0 0 0 .055-.008c.538-.148 1.108-.202 1.66-.255.26-.024.53-.05.795-.084a.222.222 0 0 0 .193-.227c-.018-.689-.242-1.272-.634-1.677.26-.245.438-.578.455-.983a2.538 2.538 0 0 0-.008-.323c-.027-.328-.192-.634-.43-.88l-.001-.004a.22.22 0 0 0-.16-.144 1.644 1.644 0 0 0-1.044-.376zm3.05.357a.216.216 0 0 0-.155.078.223.223 0 0 0-.053.16c.002.029.01.057.024.085a5.68 5.68 0 0 1 .227.52.223.223 0 0 0 .412.015.221.221 0 0 0 .006-.17 5.348 5.348 0 0 0-.247-.566.222.222 0 0 0-.214-.122zm-3.043.088c.159-.003.318.038.468.104-.528.232-1.001.553-1.385.947-.06.06-.115.125-.17.19-.008-.537.331-1.042.826-1.198a.91.91 0 0 1 .261-.043zm-10.312.346a2.01 2.01 0 0 0-.4.061 1.455 1.455 0 0 0-.875.671.22.22 0 0 0-.107.154c-.002.018.002.034.003.05v.001c-.092.219-.141.46-.129.713.03.593.386 1.08.893 1.3-.407.357-.608.934-.592 1.726.002.123.01.254.023.39a.222.222 0 0 0 .264.198c.918-.173 1.745-.27 2.528-.296a.226.226 0 0 0 .158-.073.225.225 0 0 0 .056-.165c-.056-.818-.387-1.513-.912-1.945.405-.29.647-.755.651-1.202a1.51 1.51 0 0 0-.454-1.113c-.3-.297-.724-.477-1.107-.47zm11.21.066c.158.169.268.373.285.584.008.099.01.187.007.267-.026.619-.636 1.02-1.185 1.021-.362-.004-.74-.18-.944-.51.435-.61 1.08-1.086 1.838-1.362zm-11.204.379h.002c.262-.004.57.13.786.342.07.07.145.165.205.286a14.735 14.735 0 0 1-1.254-.211c-.163-.033-.331-.061-.498-.092a.983.983 0 0 1 .465-.278c.119-.031.21-.045.294-.047zm-2.84.043a.223.223 0 0 0-.143.094c-.115.17-.222.347-.32.525a.222.222 0 1 0 .393.212c.09-.165.19-.33.298-.489a.222.222 0 0 0-.228-.342zm1.84.69c.214.037.427.076.651.12.466.094.948.19 1.447.235h.009l.002.047c-.004.5-.469 1.048-1.125 1.051A1.034 1.034 0 0 1 3.605 4.66c-.008-.158.019-.31.067-.45zm15.005.218a.218.218 0 0 0-.17.039.221.221 0 0 0-.088.23c.042.188.082.38.121.576a.222.222 0 0 0 .08.13c.04.031.09.05.143.049a.22.22 0 0 0 .121-.04.225.225 0 0 0 .093-.228c-.04-.198-.08-.393-.122-.585a.225.225 0 0 0-.178-.17zm-8.157.365c.488.41.8 1.189.847 2.14-.985.02-1.958.15-2.735.274a4.178 4.178 0 0 1-.038-.482c-.014-.73.166-1.35.507-1.766.181.047.373.07.57.066l.033-.001c.29-.01.567-.095.816-.231zm5.267.419c.383.36.51.862.547 1.227-.19.022-.383.04-.57.058-.489.046-.991.094-1.487.206a3.165 3.165 0 0 1-.011-.212c-.011-.536.128-.893.424-1.091.005-.003.007-.01.012-.013a1.64 1.64 0 0 0 .325.028c.258-.005.522-.078.76-.203zm-14.752.047a.225.225 0 0 0-.188.16 5.802 5.802 0 0 0-.133.602.223.223 0 0 0 .224.26.224.224 0 0 0 .216-.186c.032-.186.073-.373.124-.557a.221.221 0 0 0-.243-.28zm4.104.775c.01.01.018.023.031.032.451.304.754.842.849 1.5-.662.033-1.357.115-2.11.248a4.47 4.47 0 0 1-.003-.115c-.016-.781.188-1.278.624-1.518a.216.216 0 0 0 .077-.076l.045.003h.043c.158-.003.306-.03.444-.074zM.861 7.167a.224.224 0 0 0-.205.24c.018.205.046.411.085.612.021.108.117.182.224.18.013 0 .025-.002.038-.004.12-.023.2-.14.176-.26a5.237 5.237 0 0 1-.077-.564.221.221 0 0 0-.24-.204zm13.657.924c-.124.002-.412.079-.399.732.001.059.007.116.014.172a1.505 1.505 0 0 0-1.004-.347c-.68.013-.707.376-.696.965.005.215.03.43.07.643.005.03.013.058.019.087-.383-.499-.67-.597-1.026-.59-.468.01-.764.28-.756.692.005.23.413 1.622.998 2.937.044.099.092.193.138.29a.674.674 0 0 0-.251-.048c-.434.008-.866.336-.851 1.05.026 1.27 2.372 6.056 4.055 6.022a.858.858 0 0 0 .142-.015c1.556-.287 5.579-4.476 5.565-5.153-.008-.382-.004-.772-.002-1.15.003-.381.006-.775-.002-1.164-.025-1.254-.072-3.589-1.924-3.552-.246.005-.495.047-.735.087-.263.044-.507.087-.733.078a.221.221 0 0 0-.202.114c-.583-.79-1.287-1.534-2.332-1.838a.269.269 0 0 0-.088-.012zm.068.472c1.159.387 1.871 1.441 2.502 2.374.498.736.968 1.43 1.601 1.73a.225.225 0 0 0 .298-.105.222.222 0 0 0-.106-.297c-.523-.247-.96-.893-1.422-1.577a39.037 39.037 0 0 0-.286-.417c.252.004.518-.04.774-.083.225-.037.456-.075.67-.08.844-.017 1.417.506 1.47 3.115.008.382.004.773.001 1.151-.003.381-.006.775.002 1.15-.094.486-4.087 4.704-5.27 4.727-.553.011-1.425-.887-2.275-2.343-.806-1.38-1.316-2.757-1.325-3.242-.008-.369.147-.592.413-.597.55-.011 1.474 2.007 1.918 2.978.139.304.258.567.361.768a.224.224 0 0 0 .4-.2c-.099-.194-.217-.453-.355-.753-.407-.89-.794-1.702-1.178-2.291a.22.22 0 0 0-.022-.173c-.906-1.51-1.556-3.759-1.57-3.962-.002-.069-.005-.231.317-.238.573-.011 1.077.72 3.108 5.32a.223.223 0 0 0 .409-.18 96.78 96.78 0 0 0-1.366-2.987.217.217 0 0 0-.008-.122l-.125-.309c-.308-.756-.626-1.538-.642-2.315-.01-.507-.01-.507.258-.512.864-.017 1.496.755 3.327 5.13a.223.223 0 0 0 .412-.171c-.642-1.534-1.148-2.674-1.595-3.503a.22.22 0 0 0-.02-.169 11.904 11.904 0 0 0-.214-.36c-.243-.398-.474-.775-.483-1.207a1.105 1.105 0 0 1 .021-.25zm-7.995.934c-.572.01-1.213.66-1.955 1.566.093-.314.151-.64.144-.984a.55.55 0 0 0-.587-.561c-.534.01-.938.279-1.263.65-.038.043-.072.092-.108.138a2.726 2.726 0 0 0-.571-.037c-1.394.028-2.278.908-2.25 2.243.007.363.067.743.125 1.11.057.359.116.73.123 1.076.006.273-.025.462-.055.646a2.67 2.67 0 0 0-.047.516c.015.763 4.465 5.7 6.197 5.666.616-.012 1.451-.58 2.126-1.444.412-.528 1.074-1.575 1.158-2.915a.22.22 0 0 0 .057-.166 4.017 4.017 0 0 1-.012-.229c-.008-.403.04-.826.093-1.275.052-.45.105-.917.095-1.365-.024-1.213-.412-1.504-.734-1.535-.234-.022-.483.101-.73.338.158-.94.352-2.132.348-2.35-.013-.655-.36-1.008-.977-.996a1.17 1.17 0 0 0-.557.14c-.017.01-.034.023-.05.034a.673.673 0 0 0-.57-.266zm.008.444c.09-.002.165.02.224.112-.596.665-1.207 2.163-2.419 5.236a.223.223 0 0 0 .416.163c1.754-4.447 2.202-5.403 2.957-5.418.306-.006.512.087.522.56.004.223-.392 2.607-.485 3.113-.441.754-.842 1.84-1.113 3.099a.223.223 0 0 0 .437.093c.256-1.196.6-2.107.936-2.744a.22.22 0 0 0 .144-.16l.023-.136c.342-.566.66-.84.843-.819.116.01.315.255.332 1.1.008.42-.044.87-.094 1.306-.048.412-.094.836-.094 1.241a.216.216 0 0 0-.037.12c.046 2.264-1.888 4.254-2.857 4.274-1.521.03-5.665-4.705-5.742-5.23-.003-.154.019-.285.043-.436.031-.194.067-.413.06-.726-.007-.377-.069-.764-.128-1.137-.058-.369-.114-.716-.12-1.05-.022-1.096.655-1.765 1.812-1.788.107-.002.193.002.275.007-.145.237-.276.483-.396.714-.26.5-.507.973-.774 1.086a.222.222 0 1 0 .173.41c.416-.175.685-.692.997-1.29.406-.78.866-1.662 1.669-1.678.065-.001.128.007.13.125.02.938-.501 1.783-1.005 2.599-.227.367-.461.747-.644 1.132a.222.222 0 0 0 .206.318.224.224 0 0 0 .196-.127c.174-.363.39-.716.621-1.09l.067-.11c.008-.006.017-.01.024-.017.185-.19.418-.489.688-.833.626-.8 1.572-2.008 2.113-2.02z" fill="#1a1a1a"/></svg>