<svg xmlns="http://www.w3.org/2000/svg" width="114" height="110" viewBox="0 0 30.162 29.104">
    <path d="M17.191.58c-.398.018-.799.164-1.374.37-1.204.434-2.441-.05-3.593.202l-.158.015c.32 3.21 3.558 3.59 6.122 2.621 1.476-.557 2.492-.95 4.11-.496 1.464.41 2.815.487 4.399.25.23-1.385-6.998-1.943-8.145-2.562-.566-.306-.962-.416-1.36-.399zm-13.4 5.058c-.5.024-1.225.413-1.585.636-.216.133-.352.276-.54.437-.26.223-.52.492-.814.664-.185.108-.4.113-.573.25-.607.482-.054 1.806.14 2.455.063.21.2.429.249.654l3.493-4.25c.213-.333.211-.752-.172-.833a.772.772 0 0 0-.198-.013zm11.267.705a.554.554 0 0 0-.103 0l-.159.82c.066.66.104 1.277-.007 1.93-.08.48-.745 1.318.132 1.314.428-.002 1.395-.77 1.07-1.268-.385.018-.458.484-.764.63-.107-.576.842-3.344-.168-3.426zm4.406.817c-.727-.076-.815 1.577-.772 2.023l.05 2.085c.087.235.467.385.663.214.178-.157.2-.82.216-1.07.04-.62-.212-1.304-.314-1.894-.08-.465.056-.44.332-.707.19-.184.372-.456-.021-.612a.591.591 0 0 0-.154-.039zm-7.02.801c-.19.53.97 3.694-.794 2.654l-.302.192c.055 1.395 1.759.39 2.028-.386.314-.899-.022-2.07-.931-2.46zm5.222.245c-.2.049-.439.264-.627.412-.288.226-.354.491-.572.789l-.16.016c-.001.54.384 1.014.903.994.536-.02 1.197-.42 1.096-1.03-.249.025-1.484.941-1.545.15-.023-.307.38-.441.557-.62.192-.191.356-.431.348-.711zm7.174.52c-.342.006-.588.042-.673.096-.601.381-.46 1.349-.46 1.962 0 1.499.783 3.064.78 4.56-.004 1.844.47 3.559.477 5.421.003.984-.567.857-.34 3.058.105 1.02-1.13 1.26-2.244 1.572-1.802.503-3.34.732-5.243.923-1.06.107-2.093.093-3.104.064-.885-.026-1.8-.24-2.685-.099-1.29.206-1.84 1.658-.197 1.765.731.047 1.58.189 2.264.26 3.416.294 9.26-.11 13.078-.854-.131-2.648-.442-5.315-.467-7.988-.017-1.845-.217-3.793-.408-5.644-.099-.958-.318-1.998-.298-2.964l-.094-.813.866-.271 2.494.1.195-.217c-1.022-.726-2.915-.954-3.94-.932zm-7.62 2.449c-.159.01-.33.1-.446.228-.348.386-.25.966-.202 1.45l.076.354c.139-.28.233-.798.395-1.037.198-.293.721-.254.55-.746a.346.346 0 0 0-.373-.25zm-1.666 1.54c-.18.018-.216.225-.371.28-.161.056-.319-.096-.487-.033-.25.092-.329.467-.565.653-.311.242-.544.163-.87.13a.734.734 0 0 0-.21.025l-.12.012c.124.21.428.484.692.495.366.014.412-.44.72-.438.121 0 .206.211.337.26.144.053.323-.014.456-.047.35-.09.652-.229.743-.605.068-.287.035-.769-.325-.732zm3.51 1.755c-.887.014-1.805.25-2.652.443-.62.142-1.75.152-2.136.71l-.882.813c.656-.045.369 1.12.96 1.417.725.364 2.529 0 3.28-.075.518-.052 1.18-.048 1.586-.317.232-.154.452-.497.694-.654.73-.473 1.086-.529.434-1.375 1.128-.705-.333-.918-.905-.954-.125-.008-.251-.01-.378-.008z" opacity=".6" fill="#fff" />
    <path style="line-height:normal;font-variant-ligatures:normal;font-variant-position:normal;font-variant-caps:normal;font-variant-numeric:normal;font-variant-alternates:normal;font-feature-settings:normal;text-indent:0;text-align:start;text-decoration-line:none;text-decoration-style:solid;text-decoration-color:#000;text-transform:none;text-orientation:mixed;shape-padding:0;isolation:auto;mix-blend-mode:normal" d="M17.708.003a.613.613 0 0 0-.119.003h-.002c-.14.014-.155.038-.207.059-.053.02-.11.044-.179.072a9.603 9.603 0 0 1-.533.21 7.531 7.531 0 0 1-1.77.4 7.734 7.734 0 0 1-1.814-.03 9.51 9.51 0 0 1-.559-.095l-.188-.035c-.055-.009-.075-.03-.212-.016a.443.443 0 0 0-.001 0c-.18.018-.222.072-.275.108a1.448 1.448 0 0 0-.144.114c-.09.079-.18.17-.266.259-.147.152-.24.26-.276.3-.03.015-1.082.538-4.639 1.955a.443.443 0 0 0-.002.002 7.15 7.15 0 0 0-.366.161c-.042.02-.044.014-.12.059-.535.316-1.173.983-2.258 1.663-.102.063-.335.154-.586.243-.252.089-.522.176-.77.334A57.454 57.454 0 0 0 .285 7.194a.443.443 0 0 0-.015.01s-.213.12-.26.438c-.03.216.024.294.052.372.017.048.023.06.035.085 0 0 .65 1.952.808 2.408.158.457.302.828.462 1.081.011.019.089.184.163.354.075.172.156.361.245.524-.004-.006.05.126.084.228.034.102.061.19.061.19a.443.443 0 0 0 .406.316l.115.004a.443.443 0 0 0 .148-.018c.61-.186 1.04-.556 1.423-.67-.035.01.034.001.159.023s.305.076.555.004c.213-.061.338-.179.417-.244.047-.038.074-.056.085-.064.018 0 .063.002.13.011.102.015.244.057.462.006a.443.443 0 0 0 .001 0c.458-.108.86-.182 1.14-.202.137-.01.244-.005.3.004.03.045.112.198.176.438.07.258.129.586.178.932.1.692.161 1.44.232 1.927a.443.443 0 0 0 0 .002c.136.933.13.961.231 1.903.115 1.07.138 2.985.657 4.194.053.122.066.174.073.199a.722.722 0 0 0-.17.28.443.443 0 0 0-.005.246c.049.188.12.343.2.462.021.032.039.054.059.08-.079.117-.167.193-.206.376a.841.841 0 0 0 .047.47c.048.115.094.18.121.233.055.106.094.167.05.455-.065.42-.12 1.31-.09 2.454.007.293-.008.669-.005.987.001.16.006.3.03.442.011.07.023.142.072.239.05.097.196.27.416.285 1.528.1 3.43.428 5.054.422.843-.004 1.44.108 3.566-.106 1.135-.114 2.244-.254 3.266-.354 1.563-.038 2.725-.159 3.5-.275a15.137 15.137 0 0 0 1.12-.21l.06-.011c.008-.002-.001 0-.026.002a.497.497 0 0 0 .23-.077.52.52 0 0 0 .182-.221c.06-.143.045-.206.045-.272 0-.13-.013-.273-.018-.538a.443.443 0 0 0 0-.002c-.003-.16-.032-.37-.076-.759-.045-.388-.105-.904-.177-1.492-.142-1.176-.323-2.646-.478-3.976-.058-.498-.223-.907-.274-1.264-.016-.107.018-.343.07-.613.053-.27.126-.576.065-.923a54.015 54.015 0 0 1-.714-5.523c-.05-.702-.07-1.274-.07-1.678 0-.202.005-.363.013-.47l.002-.02a1.39 1.39 0 0 1 .28-.062c.283-.035.697-.04 1.173-.021.953.038 2.16.167 3.248.273a.443.443 0 0 0 .281-.067s.065-.046.104-.086a.722.722 0 0 0 .113-.16c.07-.131.116-.309.116-.528 0-.197-.024-.365-.039-.484-.014-.117.002-.19-.022-.11V9.05c.069-.224.06-.418.055-.53-.004-.112.015-.11-.017-.055h-.002c.16-.272.189-.558.188-.777-.001-.219-.017-.388.006-.56.028-.208.006-.403-.022-.637-.028-.235-.07-.491-.113-.733-.079-.432-.146-.735-.163-.81l.005-.034c.012-.082.049-.171-.025-.375-.109-.3-.341-.377-.341-.377a.443.443 0 0 0-.016-.008c-.243-.107-.292-.184-.47-.363a2.618 2.618 0 0 0-.953-.606c-.517-.2-.943-.206-1.278-.332a.443.443 0 0 0-.002 0c-.089-.033-.099-.05-.189-.12a1.167 1.167 0 0 0-.495-.226.443.443 0 0 0-.003 0 4.946 4.946 0 0 1-1.207-.379c-.327-.147-.552-.287-.804-.375a.443.443 0 0 0-.002-.002c-.056-.019-.049-.014-.076-.021l-.106-.028a86.86 86.86 0 0 0-.592-.151l-.104-.025c-.027-.006-.021-.008-.075-.018h-.004C19.362.833 18.651.613 18.628.606c-.058-.05-.128-.114-.272-.228a4.086 4.086 0 0 0-.3-.22 1.3 1.3 0 0 0-.161-.092c-.046-.021-.089-.055-.187-.063zm-.498 1.082a2.28 2.28 0 0 1-.25.516c-.299.453-.811.916-1.847 1.011a.354.355 0 0 0-.006 0c-1.033.113-1.628-.242-2.011-.63a2.296 2.296 0 0 1-.326-.422c.072.012.115.022.197.033a8.396 8.396 0 0 0 3.997-.412c.103-.037.16-.062.246-.096zm.72.091l.206.172a.443.443 0 0 0 .163.092l.038.01c-.124.39-.382.893-.815 1.334-.525.537-1.297.995-2.434 1.102-1.05.102-1.874-.197-2.49-.628a3.59 3.59 0 0 1-1.032-1.113l.056-.026a.443.443 0 0 0 .133-.101l.023-.028a.443.443 0 0 0 .002-.002s.129-.142.258-.278c.009.018.012.03.022.048.11.207.28.47.532.724.504.51 1.359.97 2.591.835 1.23-.116 1.975-.731 2.367-1.325.196-.298.311-.588.378-.811l.001-.005zm1.1.438c.563.125 1.6.335 3.262.641 0 .749-.017 2.023-.023 3.32-.004.736-.002 1.45.01 2.025.011.574.01.944.082 1.242v.002c.064.263.199.401.345.57.147.167.32.334.49.492.17.158.34.306.47.422.043.038.075.07.11.104-.005.11-.011.21-.011.354 0 .434.022 1.024.074 1.743a54.8 54.8 0 0 0 .724 5.617c.017.1-.01.329-.061.595-.052.266-.128.566-.079.909a.443.443 0 0 0 0 .002c.072.495.23.897.27 1.238.156 1.334.337 2.807.48 3.982.07.588.133 1.1.178 1.485.044.384.07.687.07.679.003.15.006.19.01.28l-.012.002c-.188.04-.466.094-.839.15-.745.11-1.872.232-3.42.268a.443.443 0 0 0-.034.002c-1.038.102-2.146.239-3.268.352-2.08.21-2.562.098-3.482.102-1.403.005-3.142-.271-4.676-.393-.002-.044-.005-.062-.005-.116l.001-.179.093-.846-.09-.01c-.027-1.085.034-1.97.078-2.262a1.647 1.647 0 0 0-.135-.996c-.041-.079-.062-.112-.075-.137.02-.059.078-.154.2-.314a.443.443 0 0 0 .004-.532c-.105-.141-.176-.222-.206-.267-.004-.006-.006-.02-.01-.025.026-.034.04-.039.065-.089.122-.247.083-.563-.073-.926v-.002c-.373-.871-.466-2.793-.59-3.94-.1-.935-.099-.997-.235-1.933v-.002c-.062-.427-.126-1.196-.231-1.925a9.28 9.28 0 0 0-.192-1.004c.037-.058.048-.077.108-.169.108-.167.245-.377.382-.598.137-.222.273-.452.382-.666.11-.213.203-.374.223-.634v-.002c.023-.305-.036-.68-.117-1.267a94.64 94.64 0 0 0-.316-2.065C8.741 5.53 8.52 4.237 8.402 3.5A95.868 95.868 0 0 0 10.92 2.44c.254.47.676.981 1.274 1.4.736.514 1.742.872 2.963.753 1.296-.123 2.241-.667 2.872-1.31a4.068 4.068 0 0 0 1-1.668zm4.146.82l.198.05.293.077.1.026c.024.007.065.021.02.006.074.026.363.18.73.345.37.166.845.345 1.42.443.07.013.038.001.102.051.064.05.21.172.423.252.511.192.93.196 1.27.327.391.152.499.26.646.407.117.118.336.287.59.438a.443.443 0 0 0 0 .194s.093.405.176.865c.042.23.082.476.106.682.025.205.024.39.021.412a.443.443 0 0 0 0 .002c-.038.29-.014.522-.013.68 0 .16-.008.228-.063.32a.443.443 0 0 0 0 .003c-.13.221-.108.42-.104.536a.72.72 0 0 1-.016.241.443.443 0 0 0 0 .002c-.068.224-.027.349-.011.48.013.104.022.203.027.301-.985-.097-2.044-.21-2.936-.245-.502-.02-.947-.02-1.318.027a2.14 2.14 0 0 0-.512.118 1.12 1.12 0 0 0-.182.092c-.112-.099-.226-.199-.347-.31a6.054 6.054 0 0 1-.423-.426c-.111-.126-.166-.257-.151-.198a13.4 13.4 0 0 1-.06-1.05c-.01-.56-.01-1.27-.007-2.002.006-1.206.02-2.356.021-3.145zM7.562 3.844c.127.78.32 1.917.527 3.191.12.747.233 1.471.311 2.045a15.1 15.1 0 0 1 .112 1.08c.004-.05-.039.123-.13.3-.09.177-.216.39-.346.601-.069.111-.13.205-.196.308a.851.851 0 0 0-.426-.188 2.128 2.128 0 0 0-.517-.016c-.368.026-.8.11-1.28.224.046-.01-.022-.003-.132-.02-.11-.016-.265-.053-.482.004a.443.443 0 0 0-.002 0c-.217.058-.34.177-.42.242-.074.061-.102.073-.094.07-.014-.002-.074-.003-.164-.019-.127-.022-.311-.073-.56 0a.443.443 0 0 0-.003 0c-.504.15-.827.38-1.143.538-.02-.054-.033-.102-.064-.161a.443.443 0 0 0-.003 0 7.21 7.21 0 0 1-.21-.454c-.074-.172-.133-.324-.225-.471a.443.443 0 0 0-.002-.004 6.961 6.961 0 0 1-.372-.898c-.147-.424-.8-2.388-.802-2.394a58.47 58.47 0 0 1 1.96-1.306c.104-.066.337-.156.587-.245.249-.088.516-.175.76-.328 1.169-.733 1.978-1.495 2.24-1.65a.443.443 0 0 0 .003-.002c-.056.033 0 0 .035-.016l.13-.057c.094-.042.216-.094.198-.086.282-.113.456-.186.71-.288zm21.531 1.104c.012.006.012.013.024.018l-.014-.006-.01-.012zm-14.53 1.21c-.079.377-.151.753-.22 1.115-.408.03-.803.001-1.194.078.012.116.016.22.039.321.013.072.039.15.057.21.17.093.331.059.489.037.163-.023.326-.058.506-.089-.004.02 0 .056-.009.094-.037.304-.086.61-.117.914-.032.286-.07.572-.073.861.002.203.03.409.104.598.14.36.578.507.884.439.512-.157 1.023-1.11 1.1-1.192.037-.067.06-.116.09-.173.026.067.056.133.092.198.187.343.473.566.891.518.194-.026.386-.076.537-.22.141-.14.28-.284.408-.436.02.206.038.412.052.617.026.446.095.881.217 1.31.192.32.903.143.954-.027.024-.139.02-.236.014-.346-.01-.171-.034-.34-.044-.512-.024-.298-.308-2.394-.276-2.557a1.13 1.13 0 0 1 .155-.41c.079-.13.177-.25.33-.308.119-.05.156-.04.204.07.025.066.05.131.057.198.034.279.057.565.085.845.01.11-.031.182-.143.23-.164.078-.278.218-.374.369-.085.131-.044.354.093.433.045.02.327.083.547-.11.15-.15.224-.214.323-.322.122-.135.153-.255.216-.477.145-.026.368-.067.526-.015.083.022.163.033.233-.067-.045-.025-.072-.048-.104-.063-.2-.084-.41-.038-.629-.023.004-.154-.051-.276-.03-.426.03-.243-.096-.464-.247-.626a.755.755 0 0 0-.572-.262.386.386 0 0 0-.146.015c-.298.092-.552.245-.701.53-.021.034-.05.062-.077.088a23.11 23.11 0 0 0-.21-.439c-.016-.035-.055-.062-.089-.09-.047-.044-.106-.081-.154-.131-.176-.167-.238-.172-.43-.067.013.128.031.248.037.37.027.569.04 1.139.122 1.702.014.093.023.188.034.282-.158.17-.332.326-.51.478a.84.84 0 0 1-.316.148c-.341.084-.523-.082-.51-.44.015-.216.061-.423.158-.617.018-.007.035-.016.054-.018.615-.16.849-.834.875-.936.056-.171.076-.345-.04-.517-.043-.063-.119-.087-.144-.151-.034-.102-.112-.143-.212-.158-.08-.01-.312.007-.543.085a.798.798 0 0 0-.36.393c-.135.302-.257.616-.366.928-.067.186-.09.37-.08.55-.055.111-.109.221-.157.333-.107.275-.26.518-.452.74-.1.114-.198.235-.303.344-.078.081-.173.115-.309.104-.055-.117-.043-.241-.042-.357 0-.13.036-.256.047-.387.006-.24.29-1.57.301-1.823 0-.067.031-.12.096-.139.054-.018.109-.023.162-.034.23-.042.474.008.687-.131.098-.065.289-.182.374-.314-.428-.036-.848-.074-1.275-.105.001-.166 0-.307.01-.45a.499.499 0 0 0-.356-.498c-.108-.032-.22-.051-.346-.081zm-2.325.006c-.197-.009-.474.054-.776.208-.317.15-.511.531-.422.872.051.204.115.407.238.59.093.133.556.835.654 1.077.033.088.062.19.09.285.017.048.034.095.046.15.044.197.089.402.14.6l.067.306c.012.06.025.127.03.188.01.158 0 .417-.236.447-.091.01-.32-.122-.363-.197-.238-.467-.109-.591.2-.942.058-.085.056-.165-.004-.22-.06-.05-.14-.053-.22.004-.07.05-.139.093-.2.155-.272.224-.237.749-.225.81.048.29.227.492.48.632a.445.445 0 0 0 .456.016c1.112-.536 1.166-1.15 1.183-1.299a.835.835 0 0 0-.05-.364c-.117-.381-.252-.742-.533-1.033-.129-.128-.242-.283-.384-.404-.2-.17-.374-.367-.53-.578-.251-.417.01-.634.22-.796a.204.204 0 0 1 .218-.028c.083.028.145.096.136.182.023.293-.033.348-.134.5-.053.084-.049.127.047.166.128.055.233-.005.28-.138.078-.205.08-.426.108-.638.036-.255-.105-.431-.347-.518a.537.537 0 0 0-.169-.033zm5.27 1.094c.047.005.081.034.1.092.12.393.073.724-.248 1.009a1.23 1.23 0 0 1-.439.27c.021-.155.07-.216.122-.38.06-.13.104-.361.416-.988.018-.003.034-.004.05-.003zm2.403 1.334c-.004.148.009.27-.01.388-.008.105-.212.212-.309.172-.081-.022-.1-.081-.066-.176.038-.115.187-.272.385-.384zm-4.127 2.184c-.061-.01-.125.016-.22.068.012.127.03.249.037.37.025.547.04 1.095.113 1.635a.791.791 0 0 1-.04.072c-.132.21-.255.4-.394.598-.032.047-.095.157-.162.152-.033-.02-.027-.083-.018-.108.035-.206.068-.425.109-.632.046-.207.174-.951.213-1.176a.102.102 0 0 0-.099-.125c-.074-.006-.146.008-.22.01-.08.003-.119.037-.142.113-.016.081-.403.808-.564 1.094-.135.248-.264.488-.412.724a.643.643 0 0 1-.352.28c.028-.082.04-.144.072-.202.112-.227.18-.467.247-.708a2.77 2.77 0 0 0 .149-.775c.001-.05-.08-.435-.144-.57a.2.2 0 0 0-.112-.087c-.116-.049-.246-.073-.363-.13-.097-.044-.316.21-.348.318-.094.348-.206.697-.294 1.05-.082.327-.093.66.008.988a.548.548 0 0 0 .345.382c.392.115.935-.222 1.116-.499a2.37 2.37 0 0 1 .119-.214c.064-.099.198-.346.271-.237-.007.05-.004.087-.013.119-.05.305.095.512.43.564a.35.35 0 0 0 .34-.15c.111-.176.192-.35.301-.523.035.285.058.573.078.859.008.138.022.274.038.41l-2.606.263-.076.008.1 1.001-.624.063.421.712-.28.699 1.704-.171-.306-.234 4.605-.465-.253.29 1.703-.171-.414-.629.272-.782-.767.077-.1-1-2.29.23c-.046-.435-.293-2.278-.262-2.433a1.12 1.12 0 0 1 .155-.41c.08-.13.177-.25.332-.309.117-.049.155-.04.203.072.024.065.05.13.056.197.034.279.057.565.085.846.01.109-.03.18-.142.229-.164.078-.279.218-.374.369-.085.131-.045.355.093.433a.58.58 0 0 0 .546-.11c.15-.152.225-.214.324-.322.121-.135.152-.255.216-.477.107-.02.258-.046.394-.038a9.347 9.347 0 0 0-.004.47c.004.13.016.258.035.385.015.102.05.129.15.141.028.003.058.012.09.02.044.01.135-.025.147-.063.02-.058.035-.117.047-.176.03-.134-.005-.28.058-.409.003-.01 0-.021.003-.03.03-.131-.023-.258-.04-.387-.005-.05-.01-.096-.052-.135-.008-.008-.011-.026-.014-.04-.003-.065-.008-.127-.005-.19.01-.13-.066-.23-.195-.242a3.345 3.345 0 0 0-.103-.01 2.417 2.417 0 0 0-.032.147c-.012.05-.021.102-.03.152-.013.072-.03.143-.041.214-.124-.003-.251.014-.382.023.002-.154-.053-.278-.031-.428.03-.242-.095-.463-.247-.625a.756.756 0 0 0-.572-.262.395.395 0 0 0-.146.015c-.297.09-.552.246-.7.531a.514.514 0 0 1-.078.088 20.22 20.22 0 0 0-.21-.44c-.016-.035-.055-.062-.089-.09-.047-.043-.106-.08-.154-.131-.088-.083-.148-.127-.209-.136zm1.763 1.803c-.003.148.009.27-.01.388-.008.105-.212.213-.307.173-.083-.023-.101-.082-.068-.177.038-.115.188-.272.385-.384zm1.25 1.016a.092.092 0 0 0-.041.013 1.308 1.308 0 0 1-.144.069c-.053.02-.109.055-.111.126.02.029.049.05.049.07.003.068.046.074.093.077l.129.006c.131.007.169-.025.193-.15.003-.021-.005-.045-.002-.065.012-.05-.011-.08-.052-.103-.037-.02-.075-.045-.115-.043zm6.448 12.472l-.07.006.087.881.07-.006zm-.29.027l-.224.024.088.881.224-.021zm.003 0l.089.882h.004l-.088-.882zm-.44.045l-.07.006.09.883.068-.008zm-.287.028l.09.883.004-.002-.09-.881zm-.004.002l-.149.013-.074.008.088.882.076-.008.15-.014zm-.435.043l-.07.008.09.881.068-.008zm-.282.028l-.004.002.088.88h.004zm-.008.002l-.224.02.089.884.223-.023zm-.435.043l-.07.008.087.881.07-.006zm-.29.029l-.01.002-.216.021.09.882.214-.022.01-.002zm.003 0l.089.881h.004l-.089-.88zm-.44.045l-.071.006.09.881.069-.006zm-.287.027l.09.884.004-.002-.09-.882zm-.004.002l-.224.022.09.881.224-.021zm-.435.043l-.07.008.087.882.071-.008zm-.282.028l-.004.002.088.881h.004zm-.008.002l-.224.022.088.883.224-.024zm-.437.043l-.069.008.088.881.07-.008zm-.289.03l-.225.021.088.883.226-.023zm.002 0l.09.88h.005l-.09-.88zm-.439.043l-.07.008.09.88.069-.005zm-.29.03l-.224.023.09.88.222-.023zm.004 0l.088.88h.004l-.088-.88zm-.44.044l-.07.006.088.881.071-.006zm-9.642.008l-.096.881H9.7l.096-.881zm9.356.02l.09.882.003-.002-.088-.88zm-.003.002l-.226.021.09.882.224-.022zm-9.138.002l-.096.88.07.009.095-.881zm.283.031l-.096.882.223.023.096-.881zm8.418.01l-.069.007.088.882.069-.008zm-8.191.013l-.096.882.004.002.096-.882zm7.908.014l-.004.002.09.881h.003zm-.007.003l-.105.009-.119.012.088.883.12-.012.106-.011zm-7.685.008l-.096.881.07.008.096-.881zm.28.03l-.092.882.223.024.092-.882zm6.97.005l-.071.008.088.881.07-.006zm-6.743.02l-.092.88h.004l.092-.88zm6.452.01l-.224.023.089.882.223-.024zm.004 0l.088.88h.004l-.088-.88zm-6.24.012l-.092.883.07.006.093-.881zm.282.03l-.092.883.223.02.093-.88zm5.517.001l-.069.008.088.881.07-.006zm-5.29.024l-.091.881h.003l.093-.88zm5.002.006l-.226.024.09.881.224-.022zm.003 0l.089.881h.004l-.09-.88zm-4.789.016l-.09.881.068.008.093-.881zm.282.03l-.091.88.225.024.09-.881zm4.066 0l-.07.005.09.884.069-.008zm-3.838.023l-.09.88h.003l.09-.88zm3.552.004l.088.883.004-.002-.088-.881zm-.003.002l-.224.021.088.882.224-.022zm-3.332.017l-.091.882.068.006.092-.882zm2.927.01l-.07.002.023.885.07-.002zm-.284.006l-.004.002.024.886h.004zm-.008.002l-.223.006.022.886.225-.006zm-.437.01l-.07.003.023.887.07-.002zm-1.915.003l-.092.881.223.023.092-.88zm1.623.006l-.226.006.024.887.225-.006zm.004 0l.024.887h.003l-.023-.887zm-.441.012l-.07.002.023.887.069-.002zm-.959.006l-.092.881h.004l.092-.881zm.667.002l-.226.006.024.887.225-.006zm.003 0l.024.887h.004l-.023-.887zm-.443.012l-.068.002.023.885h.07z" color="#000" font-weight="400" font-family="sans-serif" white-space="normal" overflow="visible" fill="#1a1a1a" />
    <path d="M19.014 14.744l-.273.029-.232.377h-.002l-.036-.35-.22.022.085.85.22-.023-.036-.368h.002l.322.34.286-.03-.413-.41zm-1.1.111l-.22.022.086.85.485-.049-.02-.186-.264.026zm-.609.062l-.241.024-.24.883.235-.024.043-.153.304-.031.07.142.235-.024zm-.455.046l-.23.023-.105.565h-.002l-.222-.532-.176.018-.123.567h-.001l-.203-.534-.23.023.338.824.225-.022.118-.509h.002l.197.476.225-.022zm-2.034.198c-.14.014-.284.118-.268.276.015.156.164.2.227.22l.014.005.075-.167c-.083-.029-.1-.041-.104-.082-.004-.039.03-.069.067-.073.067-.007.079.046.087.074l.212-.02a.254.254 0 0 0-.073-.161.302.302 0 0 0-.237-.072zm2.393.03h.002l.118.262-.184.018zm-2.77.007l-.383.41h-.002l-.458-.326.028.279.459.327.207-.225.003.002.034.413.198-.02zm.497.324l-.072.164c.064.022.085.039.09.078a.082.082 0 0 1-.074.09c-.027.002-.089-.008-.099-.106l-.213.022.003.027c.01.107.086.26.33.236.222-.022.28-.165.267-.288-.01-.097-.057-.167-.221-.22l-.011-.003zm-1.302.14l.048.48.198-.02-.037-.31zm1.699.157a.076.076 0 0 0-.07.085.078.078 0 0 0 .085.069.078.078 0 0 0 .069-.085.077.077 0 0 0-.084-.068zm0 .012c.036-.004.065.022.069.06.003.036-.02.066-.055.07-.035.004-.065-.023-.068-.059a.062.062 0 0 1 .055-.071zm.008.02l-.035.003.01.088h.014l-.004-.04.013-.003.029.038.014-.001-.029-.038c.015 0 .023-.012.02-.026-.001-.016-.011-.024-.032-.022zm0 .011c.008 0 .017.001.018.011.002.012-.006.015-.017.016l-.016.002-.004-.027z" fill="#fff" />
</svg>