<svg xmlns="http://www.w3.org/2000/svg" width="189" height="82" viewBox="0 0 50.006 21.696"><path d="M37.234 0c-.549.019-.641.267-1.473.263-.033-.134-.514.025-.475-.103.336 0 .268-.046.17-.107-.195.05-.319.148-.696.114.136-.073-.197-.116.172-.156-.513-.01-.793.022-1.044.155-.816.177-.26-.13-1.073.011l.115-.06-.507.07.173.047-.59.146c-.358.117.16.065.118.125l.113-.111c.244-.005.577-.123.634-.06-.394.055-.291.121-.444.176L32.8.432l.13.06c.373-.034.663-.04.88-.137-.157-.025-.247.088-.39.046.175-.136.64-.184 1.095-.246.013.028.158.03.098.057-.009.011-.089.014-.133.012-.003-.004-.005-.007-.011-.012-.034.007-.018.011.01.013.034.052-.211.097.214.11-.15.09-.458.25-.445.279-.245.037-.59.07-.789.057l.014-.02c-.214.005-.657.136-.701.054-.129.033-.484.1-.114.108l-.596.117c.082-.165-.49-.126.093-.324l-.586.123.014-.018c.02-.01.035-.02.043-.033.072-.005.115-.016.13.01.198-.134-.117-.125-.448-.088l-.066.097c-.289-.009-.47-.06-.84.036l.441-.242.097-.093-.553.175c.068-.055-.202.002-.09-.066-.043.014-.243.063-.184.075l.115-.021c-.278.171-.09.188-.565.365.317.02.439-.069.591-.151.053-.017.097-.028.142-.04l-.819.467-.252.066c-.123-.029-.498.081-.367-.047-.046-.032.079-.077.25-.089.028.006-.013.02.016.026.038-.061.046-.128-.17-.147.212-.028.241-.022.38-.087l-.214.027c.309-.078.769-.28.75-.353-.079.121-.297.052-.471.063.127-.043.393-.15.179-.125-.069.055-.633.22-.217.187-.168.058-.39.152-.59.16.22-.095.061-.102.112-.184-.193.1-.172.174-.198.215-.6.026-.876-.113-1.515.105-.083.032.39-.12.343-.037-.451.225-.65.012-1.052.159l.143.089c-.123.05-.43.143-.58.19-.048-.03-.506.001-.19-.116-.724.11-.555.404-1.352.568.37-.063.411-.08.697-.155-.289.142-.034.064-.047.152-.203-.026-.775.19-.397-.008-.245.058-.734.171-.835.247l.223-.013c-.352.086-.68.243-.803.361.433-.119.382-.262.94-.388.622-.072-.123.12.302.132l.407-.194-.205.04c.035-.13.667-.159.578-.284.469-.006.587-.105 1.102-.123.104-.075-.076-.033-.217-.008.25-.054.232-.194.578-.188.17-.02.029-.11-.264-.04.251-.054.487-.132.769-.178l-.305-.025.294-.068-.26.005c.56-.142 1.213-.257 1.534-.197-.47.186-1.288.325-1.534.54.117.018.364-.194.533-.097l.13-.116c.165-.064.555-.179.607-.1-.457.156-.563.258-.784.381.002.018-.039.037-.105.056h-.003c-.136.039-.364.081-.488.132-.168.02-.066-.055-.053-.076-.584.024-.907.39-1.506.47-.025-.072-.477.026-.347-.047-.342.067-.505.204-.713.31-.065-.054-.519.109-.368-.006l-.28.187c-.223.014-.65.179-.743.12-.227.08-.037.13-.369.171.01-.02-.017-.025.05-.037-.153 0-.508.081-.649.173.233-.032.058.008.332-.04.005.046-.284.184-.605.2.392-.21-.355-.033-.173-.14-.667.142-1.015.379-1.549.605-.654.16-1.48.278-1.978.476l.07-.009-.296.124c-.18.033-.026-.119-.297-.037.074-.122.479-.108.745-.24-.503-.007.427-.19.09-.21-.142.247-1.023.231-1.424.42-.413.049.172-.124-.034-.1l-.119.09c-.165.01-.223-.002-.226-.05a4.74 4.74 0 0 0-1.285.307c.466-.121-.143.128.323.053-.135.06-.436.128-.725.173.273-.072-.394-.096.227-.153-.102-.094-.3.066-.579.09.136-.058.437-.17.408-.177-.392.208-1.338.102-1.485.222-.286.133-.74.262-1.099.391-.374-.04-.775.05-1.19.059l.07-.049c-.235-.004-.596.068-.94.068l-.082-.076a9.055 9.055 0 0 1-1.036.076c-.003.048.33.028.174.09.18-.005.332-.02.266-.069.18-.007.19.069.34.098l-.696.08c-.056-.003-.076-.01-.08-.016l-.049.087c-.181.003-.234-.018-.204-.053-.392.039-.528.154-.943.126.176-.073.29-.12.582-.124h-.471c.216-.076 1.03-.068.888-.198-.514.068-1.267.138-1.724.223-.236-.109-.598-.007-.99-.084-.052-.026-.17-.064-.093-.099l.11.006c-.517-.064-1.112-.074-1.578-.083l-.214-.14c-.76-.204.112.195-.684.035-.167-.141-.938-.33-.934-.432-.143-.043-.204-.072-.245-.018.12.058.41.141.225.153-.27-.068-.37-.17-.57-.253.022-.01.186 0 .104-.02a6.3 6.3 0 0 1-.918-.428c-.327-.18-.636-.381-.878-.498.152.121.207.087.382.275-.033.034-.133-.058-.191-.078-.032.088.237.129.418.334a5.484 5.484 0 0 1-.425-.195c.05.075.1.151.154.225A4.916 4.916 0 0 1 0 3.438c.28.372.586.545.865.683.28.14.541.247.83.47-.113-.03-.027.044-.011.076.224.073.474.188.626.19.11.048.222.094.335.138-.019.04-.194.103-.54-.053.604.276 1.18.392 1.747.483.57.09 1.136.151 1.773.27.052.028-.174.006-.08.033.177-.006.464-.007.455-.037-.017.017-.053.048-.166.04.67.023 1.015.18 1.45.131.022.06-.33.023-.277.047.661.078 1.009-.093 1.67-.097-.219.082.148.083.329.126.544-.079 1.7-.153 2.514-.284-.198.224.913-.077.997.084.183-.018.463-.08.475-.147-.097.043-.35.018-.32-.02.264-.042.669-.094.695-.181l.339.042c.011-.067.106-.157.286-.18.425.107-.059-.107.527-.1-.12.086-.23.152-.27.212.28-.023.236-.057.43-.102.073.04-.174.166-.382.23l.365-.003c.331-.15.906-.383 1.464-.443-.08.074-.26.103-.101.161.234-.062.532-.228.855-.228-.043.015-.014.02-.055.035.534-.187.418-.05.918-.132-.006.01-.005.022-.018.035l.292-.118c.607-.27.728-.043 1.122-.06l-.081.03c.259.049 1.007-.206 1.233-.214-.284-.004-.103-.041-.323-.102-.232.074-.134.182-.54.224.03-.109.524-.25.61-.348.22-.054.404.07.438.12.549-.135.872-.15 1.54-.34.225-.126.36-.377.953-.379l-.023.042c.004-.068.277-.05.379-.126-.22-.055.223-.127-.038-.165.326-.088.415.037.47.113.196-.199.666-.087 1.145-.295-.074.081-.617.233-.374.244l.601-.327-.285.075c.46-.232.628-.142.921-.17.067.027-.113.09-.252.123.15-.032.385-.112.57-.194.136-.082.633-.263.82-.388l.086-.01a.068.068 0 0 1-.034.026c.041-.012.074-.024.104-.036l.264-.038-.048.032.097-.038.272-.042.13-.064-.068.011c.001-.114.306-.268.693-.335-.027 0-.23.028-.523.075l.089-.057c.435-.07.844-.13 1.226-.183a2.236 2.236 0 0 1-.445.116c.424.033 1.016-.257 1.236-.139-.597.24-.905.222-1.547.4-.355-.043.405-.153.413-.219l-.374.044c.062.055-.71.192-.487.3a143.25 143.25 0 0 0 2.32-.371l-.533.88-.001.003c-.009-.03-.141.023-.292.074.026-.041.053-.09-.131-.05-.384.013-.557.208-.829.248l.08-.03c-.26.019-.582.097-.762.203-.233-.087.723-.19.305-.22.288-.017.669-.194.885-.242-.368.04-.708-.021-.622-.12-.762.25.06.283-.608.483l-.475.08-.127.184c-.28.068.144-.16-.283-.046-.1.096-.393.102-.467.168.004-.035 0-.073-.221-.02-.01.02.024.07-.15.114-.156-.113.438-.141.203-.22-.524.13-.261.213-.361.29.01-.022.04-.018.108-.032.007.047-.217.062-.18.112.087-.017.168-.052.239-.085-.138.084.269.031.418-.004.324-.158 1.038-.293 1.506-.414-.04.016-.119.048-.063.058.67-.153.957-.167 1.72-.35l.074-.124c.673-.127.273-.353.433-.41.149-.034.267-.123.407-.09l-.065.054c.421-.108.116-.134.5-.18.297-.112-.275.024-.088-.068.413-.037.222-.248.874-.241-.026.04.087.115-.284.18l.374.03c-.423.096-.164.048-.6.121-.186.139-.128.199-.299.318.16-.052.114-.132.36-.163.301-.015-.038.058-.062.099.375-.182.452.047.786-.116-.085-.116-.016-.122-.279-.168.245-.075.574-.028.563.085l.04-.106c.061.017.26-.003.276.021l.08-.058c-.193-.056-.345-.077-.658 0 .12-.083-.198-.148.214-.22.179-.02.028.054.043.082.92-.18.947.068 1.67-.048-.178.058-.628.029-.97.136.218.067.45-.07.657-.075-.179.06-.206.099.01.122l.084-.067c.128-.01.357-.033.376-.003.005-.024-.053-.036-.17-.047.315-.107.922-.18 1.493-.146-.039.127-.81.098-.393.184.23-.03.419-.175.823-.106-.17.075.183.077.178.123l.56-.144c.268.024.578.046.827.022a1.612 1.612 0 0 1-.326-.01c.39-.135.694.093 1.175.08l-.225.029c.355.066.644.055.935.049l-.023.09c.057-.123.674-.048.817-.055-.882-.073-.732-.24-1.602-.244.337-.096.572-.09.941-.155.133.03.182.059.188.09.12-.029.169-.106.383-.1l.053.062c.574.173.578-.099 1.129.09.078.144-.52.02-.878.025.24.16-.567-.06-.289.155l.18-.04c.173.038.14.097.033.078.232.025.172.038.27-.001.867.203-.123.117.695.392-.102.003-.33-.064-.302.015l-.44-.138-.03.09c.562.138.915.124 1.218.062-.531-.074-.025-.111-.278-.236a.31.31 0 0 1 .248.083c.046-.015.307.056.29-.003.024.126.306.288.53.445.226.157.394.303.231.352.13.096.426.22.754.382.323.157.71.374 1 .572l-.194-.058c.483.584.617.254.995.48-.344-.179.203.286.267.44.298.168.587.268.905.625-.001.135-.101.243.083.472l.19.103c.18.234.466.515.519.707l-.028-.03c.137.302.262.242.138.014l.214.24-.02.024c.26.331.582.616.84 1.249-.144-.136.006.533-.22-.022.102.145.052-.121.074-.169-.061-.214-.236-.354-.286-.436v.002c-.019.085-.156.079-.269.01.162.154.329.522.454.86.131.337.225.643.358.665.106.518.241 1.21.171 1.82.012-.025.035-.073.052-.059a7.125 7.125 0 0 1-.136.518l-.011-.12a8.467 8.467 0 0 1-.11.331c-.045.03-.066-.105-.064-.243-.006-.08.03-.15.04-.071-.054-.366-.063.295-.133.055.023-.086.01-.201.017-.263-.087.397.04.606-.137.834.051.202.056.62-.12.962-.01-.155-.11.393-.159.18.012.156-.176.445-.132.523-.004-.059.056-.211.116-.31-.025.155.03.196-.051.37-.02.019-.03 0-.03 0-.042.252.184.166.002.574-.476 1.075-.14-.255-.264-.122.034.061-.152.538-.313.71l.004-.06c-.038.112-.087.286-.199.364.04.107.037.27.042.374-.093.15-.19.299-.29.445l.025-.118c-.053.11-.114.198-.176.285-.083-.005.027-.117.099-.264-.101.034-.16.12-.182.26l.043-.05c-.047.13-.284.586-.017.29-.136.277-.303.26-.41.436-.057-.022.053-.174-.047-.125-.138.14-.233.23-.323.367.122-.102.009.07.203-.09-.04.093-.206.286-.18.298.047-.068.068-.126.192-.206-.16.22-.359.424-.592.58-.002-.016.01-.045.024-.076-.19.324-.622.655-.744.894l.1-.05a.661.661 0 0 1 .257-.218c-.192.2.218-.045.025.179-.28.3-.643.412-.75.641.325-.207.776-.482.859-.628l-.196.154c.116-.159.226-.32.332-.483.057.031.34-.36.397-.29-.13.148-.26.268-.369.376.056.008.401-.335.553-.474l-.208.157c.282-.37.697-.785.93-1.167-.162.318.33-.306.214-.04-.033.122-.21.217-.16.19.042.08.186-.202.29-.237-.011-.07.235-.455.025-.276.119-.096.235-.407.392-.543-.111-.003.149-.348.147-.434a.821.821 0 0 1 .152-.167c-.064.175-.146.391-.238.615-.064.072-.165.218-.118.187l.028.023c-.192.445-.423.88-.554 1.096l.038-.123c-.14.359-.481.55-.68.879-.001-.024.024-.059-.028-.012-.34.313-.368.561-.703.749V18.856c-.018.025-.16.2-.088.219.23-.219.257-.276.476-.454a1.583 1.583 0 0 1-.356.433l.044.084c-.122.233-.405.272-.537.494l.263-.122c-.003.008-.02.024-.032.037.096-.087.175-.166.184-.202.297-.308.545-.357.631-.367.17-.113.027.137.083.163.23-.236.144-.299.363-.54.083-.062.056 0 .029.036l.132-.208c.03.014.427-.382.25-.094l-.15.152c.373-.277.939-.85 1.002-.77.176-.187.095-.16.36-.469.049-.197-.127-.075.079-.466l-.226.261.013-.03-.02.04.004-.004c-.029.064-.048.122-.084.19l.202-.297c-.102.206-.047.196-.028.292-.327.456-.53.49-.735.682.069-.166.264-.386.126-.357.233-.165.126-.284.373-.495l-.017.064c.095-.25.185-.23.253-.442.006.023.03.006.054-.01.219-.41-.119.087.057-.35.224-.34.195-.036.292-.11-.267.658.146.07-.191.763.101.067.29-.174.491-.538-.184.203-.064-.237-.321.02.261-.555.028-.618.429-1.165l.01.023.036-.287.195-.328c.03.268-.15.51-.166.708.318-.37.153-.62.348-1.114.292-.372-.11.543-.008.585.014-.113.18-.367.2-.322-.233.458-.04.323-.34.817.081-.27-.053.02-.08-.05.007.092-.214.58-.424.89.034.12.228-.244.374-.438.121-.443.471-.803.492-1.174.161-.464.094-.005.115-.028.192-.404-.005-.207.023-.346.142-.653.32-.682.435-1.153-.023-.415.15-1.374.135-2.068.043.083.075-.009.114-.052-.181-.407-.102-.263-.252-.763a8.359 8.359 0 0 1-.024.432c-.04-.343-.188-.597-.148-.919-.081.429-.197-.512-.327-.737.057.095.13.068.035-.145-.004.06.004.192-.035.143v-.002c-.034-.348-.254-.635-.231-.841l.023.041a8.496 8.496 0 0 0-.171-.468l.158-.003c-.084-.345-.383-.674-.366-.547-.136-.336-.022-.156.014-.236.14.155.452.508.392.675 0-.032-.03-.105-.054-.113.314.909.289.22.5.662-.075-.244-.08-.45-.227-.686a4.522 4.522 0 0 0-.506-.75c.23.276.253.474.322.745-.087-.218-.179-.216-.227-.415l.052.047-.165-.2c.064-.078-.32-.621-.034-.34-.196-.288-.127-.063-.32-.312.102.18.2.36.292.545l-.086.037c-.167-.162-.134-.243-.27-.448l-.076.073a8.805 8.805 0 0 0-.166-.408c-.025.082-.194-.204-.262-.268-.112-.212.11-.192-.216-.452l.01.03c-.174-.158-.278-.247-.482-.508a.442.442 0 0 1 .133.088c-.27-.388-.916-.778-.974-1.025.082-.036.195.127.264.066.435.582.48.229 1.01.913-.13.16.565.48.496.744-.18-.29-.567-.548-.545-.487.21.224.478.563.583.753-.056-.193.071-.214.212-.14-.335-.385-.818-1.183-1.327-1.689l-.03.145c-.504-.356.137-.035-.208-.367l-.219-.073-.015-.028-.336-.142c.188.155.165.012.332.23.151.19-.07.062-.168.071-.095-.137-.556-.484-.228-.322-.19-.104-.38-.202-.57-.295.03-.034.153.032.218.053l-.375-.257.024-.004c-.326-.175-.745-.459-1.026-.53.466.407-.304-.07-.301.019-.186-.122-.139-.357.326-.173.07.13.391.224.592.357-.23-.212-.344-.214-.549-.339.18.046-.243-.237-.218-.275.043-.014.202-.048.443.16.388.262-.022.123.105.182.037.165.55.346.757.547.017.027-.066-.018-.107-.04.201.137.604.457.684.42a15.082 15.082 0 0 0-.519-.332c-.09-.1.196.055.072-.099a2.228 2.228 0 0 1-.402-.278l.048-.01c-.265-.272-.757-.57-1.175-.767-.177.108-.431.095-.688.186a18.951 18.951 0 0 0-1.804-.772.11.11 0 0 1-.059.098c-.164-.102-.507-.16-.473-.245-.22.032-.786-.026-.701.087l-.074-.01c-.208-.147-.544-.302-1.177-.417-.125-.02-.151.04-.135.131a2.038 2.038 0 0 0-.378-.104c.102-.027.172-.075.36-.053a19.787 19.787 0 0 0-.987-.142l.08-.035-.394.03c.221-.009.56.048.467.133-.446.028-.689-.087-1.068.015.01-.168-.117-.2.014-.29a.113.113 0 0 1 .043.01 1.67 1.67 0 0 1 .693-.169c-.83-.112-.619-.038-1.347-.102-.063-.101.677-.084.51-.154.23.025.459.054.688.086-.118-.001-.134.02-.191.032.481-.038.646.066 1.017-.007.222.07-.362.036-.115.079a1.046 1.046 0 0 0-.534.156c.535.085.317-.098.784-.09l.335.128c.21.013-.061-.06-.07-.09.257.012.345.086.537.118-.053-.03-.18-.076-.141-.106.308.12.631.13.898.325-.157-.1.228-.124.37-.112-.193-.09-.388-.177-.585-.26-.787-.101-1.267-.228-2.114-.233l.054-.05a3.431 3.431 0 0 0-.747-.076zm4.44 1.317c.176-.033.592.066 1.026.25l-.203-.031c.341.157.499.155.659.184-.024.009-.002.032.042.077.315.123.522.12.393-.021l-.116-.022-.178-.182c-.15.11-.753-.252-1.138-.3.268.014.54-.05.815.178v-.094c.28.106.46.287.646.286l-.323-.133.025-.04c-.225-.098-.537-.152-.729-.278l.026.002-.044-.01.008.006c-.205-.014-.407 0-.893-.175l.022-.011c-.38.044-.918-.358-1.195-.346-.183.121.536.193.687.307-.226.004-.428-.134-.271.002-.505-.044-.262-.207-.691-.188l.221.088c-.197.033-.49-.072-.686-.03-.045.105.307.05.643.164l-.171.05c.234.018.47.04.706.07.237-.081.048-.134.506-.108.136.103.215.22.213.306zm5.98 6.677a.098.098 0 0 0-.005-.06c-.015.016-.01.036.005.06zm-20.135-6.39l.105-.057c-.001-.005.001-.01-.007-.015l-.101.072zm7.65-1.596c.071.016-.053.103.051.058l.195-.05zm2.377.212l-.102.008a.578.578 0 0 0 .102-.008zm-5.253.003l-.26.072.059.015.258-.071zm1.882.036l-.349.031.03.009zM32.427.51l-.202.045c.1-.015.16-.03.202-.045zm8.297.011c.072.022.192.047.245.084.037-.06-.319-.105-.245-.084zm-3.531.006a.212.212 0 0 0-.034.02c.03-.004.043-.012.034-.02zm2.34.032c.073.015.178.079.12.122.11-.012.275-.1-.12-.122zm-1.798.099a.823.823 0 0 0-.096.008zm3.572.045c.389.14.485.191.444.245.366.139.343.016.577.07-.426-.135-.504-.192-1.021-.315zm-6.14.378a.16.16 0 0 1 .079.024c.008.022-.822.34-1.072.438-.318.035-.656.06-.855.05l.098-.024c1.502-.103.866-.23-.064-.379.506-.03 1.037-.033 1.564-.037l-.068-.049c.127.01.234-.028.319-.023zm7.452.11l.237.058a.924.924 0 0 0-.237-.057zm-6.362.207c.092.031.26.031.4.108.01.03-.143.036-.23.047.219.045.415.035.543.02-.345-.033-.16-.072-.233-.154.215-.029.563.008.692-.004.294.05.527.163.327.217.19-.024.382.032.589-.031-.378.054.01-.2-.474-.119-.13-.142.408-.047.648.034-.13.007-.028.062-.062.094.37 0 .21-.117-.05-.179l.437-.018-.042-.008.438.032c.04.11.04.18-.074.136l.218.105-.353-.026c.133.102.384.07.562.104.19.091-.473-.008-.709.095-.204.034-.626-.094-.55-.127-.026.134-.649.012-.894.07-.58-.027-.374-.203-.896-.165l.185.081c-.46.017-.655.033-1.164 0-.062-.097.233.018.349-.03l-.242-.097c.111-.006.329-.086.32.007.004-.047.179-.121-.146-.083l.244-.071a.15.15 0 0 0-.053-.027zm-.684.038c-.045.045.023.09-.272.073.02-.025.002-.04-.038-.05zm-2.832.187c.097 0 .183.002.16.033-.014.112-.417.16-.526.27-.096.042-.565.1-.47.01.332-.004.271-.252.593-.14.041-.072-.041-.092-.162-.091.038-.02.06-.037.063-.054zm7.979 0l.462.087.007.092c.707.245 1.297.223 2 .61-.133.02-.385-.144-.365-.091.42.216.463-.008.827.312-.605-.294.346.234-.222.018.811.283 1.426.953 1.867 1.265-.074-.128.225.075.25.072.105.097.033.108-.057.037.187.216.176.303.096.325-.147-.119-.295-.236-.447-.348.13.131.172.238.277.342l.001.001c.048.046.106.09.192.138.092.04.086.018.113-.012.173.078.39.177.66.323h-.023c.152.14.303.283.447.431l-.082-.027.3.222c-.076.055.04.114-.022.14.023.273.568.581.777 1.045l-.078-.04c.228.172.487.797.636 1.193l-.024-.006c-.143-.218-.215-.236-.201-.112-.055-.07-.13-.187-.188-.248-.056-.129-.285-.447-.232-.52.155.25.15.222.127.078-.21-.21-.484-.68-.576-.576-.246-.32-.051-.115-.194-.37.007-.055.095.005.183.066-.257-.303-.531-.59-.82-.861-.1.029.448.618.085.406-.092-.05-.19.059-.432-.25.006-.012.037.004.07.027-.14-.113-.135-.16-.262-.308.024-.112.222.115.36.16-.103-.075-.231-.146-.326-.247l.048-.004-.324-.265c-.178-.06.23.218.206.277L45.6 4.87c-.235-.193-.882-.675-1.031-.943-.261-.246-.2-.063-.307-.065-.22-.054-.327-.249-.522-.333-.034.067-.237-.063-.292.012l-.277-.18c-.228.032.334.212.373.316.082.196-.226-.09-.168.031.216.118.27.076.386.126.13.073.176.145.146.18-.313-.268-.245-.045-.508-.231l.007-.03c-.053.071-.423-.204-.599-.24-.268-.257.321.004.324-.022-.133-.061-.266-.12-.4-.175.197.029.051-.112.309-.046-.254-.097-.246-.188-.507-.244.329-.005-.292-.25-.294-.336.316.082.776.474.693.45.003-.031.332.153.437.26l.249-.002c-.205-.133-.524-.239-.392-.29-.107-.037-.215-.07-.323-.103.384.002.369.002.68.094-.508-.451-1.1-.397-1.55-.7l.083.016c-1.011-.334-1.218-.534-1.396-.79zm4.695 2.721l-.087-.033c-.128-.105-.21-.164-.206-.112l.076.068c-.106-.032-.064-.006.029.024.085.065.096.042.118.036zm-7.66-2.712a.594.594 0 0 0-.097.018.655.655 0 0 0 .097-.018zm.763.012c-.031.002-.05.01-.046.025.137.024.248.034.376.03a1.002 1.002 0 0 0-.33-.055zm-13.978.131l-.615.157c.011.035-.04.09-.02.118l.501-.134c-.183-.003.112-.098.134-.14zm-.615.157c-.009-.025-.053-.039-.195-.02-.014.03-.074.067-.141.106zm6.567-.093l-.056.09c-.086-.008-.115-.035-.143-.067zm-.637.076l-.03.008a.938.938 0 0 1-.182.02zm11.327.022l.045.037.26.035zm-17.677.055c-.266.097-.496.064-.672.105.214.123-.589.184-.797.287l-.252.076-.095.023c-.024-.014-.002-.043.136-.11-.114.061-.522.144-.472.188l-.925.212a.282.282 0 0 1-.086-.01c-.03.017-.033.027-.027.035-1.345.3-2.693.573-4.044.81.202-.022.382-.014.592-.032-.29.167.342-.042.27.08a1.149 1.149 0 0 1-.465.084c-.036.061.146.077.137.144.526-.026.558-.295 1.065-.351-.007.067-.152.153.174.08l-.08.03c.51-.173.438.063.734-.176l.009.093c.224-.117.687-.213.945-.281l-.012.02c.708-.26.406-.109 1.216-.335l-.354.191c.293-.019.33-.149.536-.183-.01.021.052.077-.136.137l.956-.39c.22-.124-.063-.056-.11-.086.074-.08.511-.147.547-.096-.052.038-.279.116-.124.117l.305-.225c.474-.019-.297.273-.51.376.466-.09.58-.218 1.07-.337-.148.022-.248.008-.332-.004-.041-.098.425-.163.749-.252-.218.007-.107-.06.034-.137a.17.17 0 0 0 .054-.03l.047-.027-.039.01c0-.012-.012-.024-.044-.036zm16.538.139l.024.015zm1.846.018a.184.184 0 0 0-.052.01c.023.049.258.11.344.16-.112-.05-.178-.174-.292-.17zm-7.155.06l-.395.025c.106.085.11-.01.34.002l-.248.102c.204 0 .358-.11.303-.13zm-.56.119zm-1.498.114l-.057.043c.049-.022.064-.035.057-.043zm6.947.016c-.065.005-.103.02-.098.05.216.063.484.088.603.064l-.088-.034.429-.02c-.214.003-.65-.074-.846-.06zm-11.636.049l-.343.05-.042.02c.018.026.408.001.385-.07zm13.385.1c-.016.004-.006.018.046.049 0 0-.017-.023-.046-.05zm-14.097.029c-.168.064-.369.127-.603.226l.45-.125-.702.475c.287-.052.193-.153.533-.239-.106.029-.13.071-.141.092.402-.098.805-.19 1.21-.279-.047-.03-.407-.002-.179-.076-.114-.02-.423.088-.457.15l.075-.078c-.262.139-.487.036-.315-.051l-.023.006zm14.337.159c-.094-.015.139.18-.174.06.24.11.322.246.287.266.281.022-.34-.325.123-.222a1.081 1.081 0 0 0-.236-.104zm1.833.083c.113.068.226.137.335.209l-.152.024.04.012c.585.309-.027.146.573.46-.028-.005-.045-.002-.062-.002.253.117.634.45.743.406-.075-.055-.435-.389-.335-.389-.173-.09-.37-.31-.469-.352.237.222-.018.09-.216.005-.15-.127.075-.05-.059-.154a8.65 8.65 0 0 0-.398-.219zM26.198 3l-.115.052c-.037.022-.053.038-.026.042.05-.039.09-.056.14-.094zm17.385.1l.022.017.023-.005zm-14.206.024a.595.595 0 0 1-.25.033zm-3.093.07l-.022.042.065-.008c.001-.02-.01-.034-.043-.034zm.043.034c-.002.024-.026.059-.07.1l.163-.113zm-.07.1l-.216.15c.09-.048.166-.102.217-.15zm-.216.15a1.28 1.28 0 0 1-.191.086c-.182-.07-.261-.035-.019-.206-.249.125-.126.187-.521.293.141-.095.148-.23-.235-.145-.924.35-1.48.818-2.34 1.191-.054-.076-.753.114-1.101.172.11-.12.358-.204.618-.285l-.665.142-.046.196c-.952.235.203-.195-.244-.13-.262.077-.34.165-.501.223.745-.226-.053.246.704.038-.08.147-.523.258-.79.281-.321-.053.238-.142.279-.273-.303.087-.244.097-.36.191-.49.079-.973.359-1.296.254-.347.098-.312.15-.502.253-.015.134.537-.039.688.033-.03-.005-.086-.015-.075-.037l.31-.036c-.298.016.014-.134.166-.176.112-.027.333-.08.31-.039l-.164.063c.227-.006.462-.194.706-.176.019.025-.065.057-.075.078.24-.143.49-.193.856-.34l-.193.175c.275-.206.971-.325 1.465-.367-.058-.008-.156 0-.105-.038.272-.096.504-.062.39.035.249-.168 1.061-.167 1.398-.394zm-.529-.232l-.064.015zm18.566.299c.052.033.078.038.1.038a.53.53 0 0 0-.1-.038zm.51.056a.311.311 0 0 0 .118.04.291.291 0 0 0-.119-.04zm-28.317.009c-.09.01-.182.023-.285.049zm.21.022l-.351.105.024-.04-.435.084c.1.046.168.039.16.106-.59.07-.197-.045-.639-.057l-.65.11.05-.027a.205.205 0 0 0-.095.034 57.7 57.7 0 0 1-2.195.319c-.395.093.234.092-.052.218.465-.048 1.167-.066 1.19-.2-.013.02-.04.06.056.062l.256-.14h-.26c.256-.137 1.13-.237 1.298-.198-.49.109-.224.2-.926.227.035.029.17.068.016.107.808-.147 1.545-.201 2.366-.453-.678.01.417-.16.187-.257zm7.781.125l-.109.03-.16.069zm-1.295.155c-.288.071-.168.022-.466.113.145.021.386-.079.466-.113zm.655.078c-.039.006-.11.028-.237.074.04-.016.012-.02.051-.037-.351.016-.459.16-.748.23-.184-.004.265-.142.097-.121-.35.13-1.148.21-1.083.379-.262.073-.308.042-.393.028-.376.283-1.57.26-1.516.497.152-.041.403-.09.616-.19l.035.166c.33-.081.012-.135.482-.24l-.14.024c.325-.128.922-.237 1.32-.336-.033.061.255.005.229.093l-.083.026.081-.016c.002-.004.001-.006.002-.009.268-.082.534-.164.655-.279.175-.014.414-.146.636-.166-.076-.019.111-.14-.004-.122zm-23.12.066c.163.142.525.41.66.426-.115-.026-.355-.27-.485-.303L.7 4.174c-.065-.04-.134-.076-.198-.119zm23.202.054a.796.796 0 0 0-.078.002.207.207 0 0 0 .078-.002zm-20.066.036a.3.3 0 0 0 .121.073zm7.47.245c-.05-.002-.111.002-.19.013l.07.107.333-.009c.018.03.035.06.073.08l.147-.087-.22.007c-.031-.053-.066-.106-.214-.11zm.433.104l.222-.009-.137-.042zM1.203 4.48c-.01.005-.023.005-.04.002.016.004.03.003.04-.002zm8.547.026c-.051.005-.113.018-.154.027.067 0 .163.012.243-.006.002-.023-.038-.026-.09-.02zm13.244 0l-.272.097.029.005zm-12.006.006l-.243.005.252.008zm-1.704.021c-.314.047-.296.15-.122.194-.29.054-.155-.109-.354.005.008.075.367.024.449.007zm37.89.038l.012.028.222.178-.01-.028zm-41.002.02c.534.034 1.03.061 1.872.04-.628.011-1.254 0-1.872-.04zm2.658.029l-.61.013-.045.089c.054-.022.268-.066.352-.033l-.088.06zm-.655.102c-.014.006-.02.01-.007.011zm-6.66-.098c.153.071.179.066.169.045-.06-.018-.115-.037-.17-.045zm19.422.246l-.244.096.03.005.243-.096zm-3.213.048l-.088.036c.055-.012.078-.024.088-.036zm28.373.107c.08.077.137.178.208.216-.071-.125-.118-.151-.208-.216zm-26.635.093a1.57 1.57 0 0 0-.146.07.44.44 0 0 0 .146-.07zm-.146.07c-.343.115-1.102.164-1.528.37-.226.16-.047.289-.017.455.045.033.693-.072.696-.187-.315-.014.396-.176-.167-.1-.062-.057.182-.194.45-.212-.008.067-.246.09-.073.123.16-.107.235-.07.156-.154.28-.118.298-.192.483-.295zm-10.09.018l-.023.04c.03-.02.141-.042.023-.04zm6.307.005l.02.012c.004-.006.003-.01-.02-.012zm.02.012c-.023.028-.27.097-.209.13l.376-.09c-.09.01-.126-.015-.167-.04zm.332 0l-.165.04a.78.78 0 0 0 .165-.04zm30.248.169l.09.071zm-.62.214l.066.045.157.036zm-26.315.211c-.053.006-.14.062-.225.08a.964.964 0 0 0 .265-.065c-.009-.013-.023-.017-.04-.015zm28.928.064a.778.778 0 0 0 .049.128c.008-.014-.011-.061-.05-.128zm.246.074l.078.222.056.04zm-1.058 1.635c-.01-.004-.01.018.008.087.127.21.118.104.138.054-.007.117-.119-.128-.146-.14zm2.208.55c.018.058.039.12.069.186a1.55 1.55 0 0 0-.07-.186zm-1.232.063c.18.466.48 1.159.785 2.087 0 0-.02-.014-.032-.057.047.485.053.528.073.915l-.05-.119c-.067.069.008.38-.01.694l-.01-.026c-.012.026-.005.113-.001.157.006-.043.01-.086.011-.13.034.096.053.303-.011.42l-.048-.054c-.053.05-.092.355-.161.695l-.03-.148a1.109 1.109 0 0 1-.026-.323.678.678 0 0 1-.063.255 7.874 7.874 0 0 0-.106-.614c-.06.288.11.358.013.715-.107-.044-.16-.035-.181-.423.064-.327.062.027.131-.135-.104-.266.15-.317.013-.597.004-.323.077-.22.123-.324.002.329.118-.154.129.263.076-.339-.11-.249-.069-.53l.114-.049c.031-.26.038-.84-.106-1.177-.018.307-.104-.157-.163-.095.11.03.109.446.059.447-.05-.23-.196-.799-.209-.92.017.149.033.297.042.445-.082-.144-.33-.637-.356-.642-.004-.175-.101-.41-.077-.513.064.088.127.177.188.269l-.033.131.143.147c-.024-.209-.117-.644-.082-.764zm.915.036l-.03.27c.218.526.376.755.496 1.335-.017-.795-.376-.963-.466-1.605zm.184.028c-.01-.004-.019 0-.025.013.148.366.157.143.25.492l.06-.202c-.064.108-.215-.278-.285-.303zm-1.046.763c-.008-.008-.018-.001-.027.031l.087.187c-.011-.029-.033-.193-.06-.218zm-.319 2.009l-.023.21.047.104a6.616 6.616 0 0 0-.024-.314zm.177.04l.02.115.036.029zm.662.783c-.026.052-.067.128-.098.137-.012.11.017.19.015.305.008-.128.034-.272.083-.442zm-.083.442v.01zm.274 2.877c-.034.068-.093.159-.111.273.062.001.087-.182.111-.273zm-3.813 2.545a.51.51 0 0 1-.04.11c.036-.065.066-.121.04-.11zm1.194.762l-.067.05a.315.315 0 0 0 .067-.05zm-1.918.282l-.01.005c-.007.01-.015.019-.018.026zm-.324.019l-.026.006-.172.178.026-.005zm-.118.19c-.368.244-.392.452-.698.662.085-.01.251-.092.408-.187-.175-.1.304-.269.29-.475zm-.29.475h.001c.002 0 .003-.003.006-.004a.022.022 0 0 0-.007.004zm.007-.004c.209-.128.4-.28.356-.351-.092.134-.154.22-.356.35zm1.375-.411l-.002.025.009-.008zm-.173.15c-.06.091-.267.245-.185.268-.05-.053.353-.296.185-.268zm-.114.036l-.172.096c-.003.025.024.04-.066.113zm.55.2c-.268.262-.585.543-.863.682l.05-.152c.33-.134.461-.316.729-.525-.207.15-.418.293-.632.429-.336.142-.151-.01.06-.19-.055.04-.108.072-.132.069-.001.05-.614.571-.052.2.045.107-.326.292-.463.411.124-.05-.017.096.038.107.07-.06.142-.145.269-.223.086.003-.082.16-.243.24.217-.069-.188.226.1.096.538-.4.889-.723 1.14-1.143zm-1.205.486c-.287.225-.347.234-.495.422a3.043 3.043 0 0 1-.674.304c-.08.059-.064.12-.172.189l.076-.043.08.128c.081-.077.177-.112.28-.17-.132.138-.268.275-.41.41.227.05.676-.284.892-.348-.3.027.154-.16-.355.01l.177-.255c.14-.07.28-.14.418-.216-.019-.04.244-.258.03-.166a.983.983 0 0 1-.164.124c-.007-.11.488-.38.317-.389zm-1.353.92a.7.7 0 0 1-.15.065c-.14.08-.291.086-.247.039-.27.195-.309.126-.297.262-.172.14-.415.14-.21.004-.179.1-.36.194-.544.285l.351-.104c-.056.14-.561.165-.636.315.212-.069.422-.144.63-.225l-.02.046c.13-.088.41-.183.51-.21-.008.022.013.045-.096.093.745-.316.13-.253.71-.57z"/></svg>