<svg xmlns="http://www.w3.org/2000/svg" width="300" height="120" viewBox="0 0 79.375 31.75"><path d="M63.21 2.23c-.453-.117-.383-.025-1.049-.223-.802-.25.139-.007.227-.01-1.098-.206-1.173-.42-2.161-.561.165.144-.02.093.654.327-.689-.143-1.547-.398-1.464-.47l-.158.047c-.156-.054-.703-.17-.735-.194l-.24-.007c.494.158.893.269 1.767.439-.364-.028.448.24-.68.005-.485-.108-.049-.058-.075-.088a53.915 53.915 0 0 1-2.469-.508C56.26.859 55.758.743 54.746.635c.509.025 1.731.25 2.702.365-.569-.173-1.257-.186-1.82-.276.507.037.595.021.008-.098l-.251.014c-.356-.052-.994-.125-1.04-.153-.018.016.137.046.458.103-.902-.052-2.583-.2-4.17-.335.12-.103 2.27.116 1.123-.057-.653-.034-1.191.039-2.315-.077.482-.035-.511-.087-.496-.12-.524.017-1.047.04-1.57.07a26.676 26.676 0 0 0-2.327-.01c.233-.013.539-.016.916-.006C44.897.173 44 .013 42.65.1l.622-.057c-1.021-.003-1.83.066-2.64.141l.02-.075c-.104.104-1.855.22-2.243.282 2.485-.216 2.142-.05 4.554-.203-.905.126-1.556.17-2.533.311-.373.012-.522.001-.552-.02-.316.058-.406.127-.984.19l-.178-.03c-1.65.074-1.483.253-3.055.408-.327-.058 1.346-.304 2.31-.408-.751-.038 1.573-.148.69-.214l-.47.09c-.492.033-.441-.022-.135-.046-.65.065-.493.033-.733.1-1.264.115-1.198.096-1.129.046.07-.042.143-.11-1.09.038.275-.067.959-.149.818-.186.445-.045.891-.086 1.34-.112l.02-.077c-1.703.137-2.665.411-3.399.65 1.481-.31.175.049.961-.037-.286.08-.56.104-.73.11.036-.013-.005-.015-.168.002 0 0 .066.003.167-.001-.107.039-.85.18-.745.203-.39-.111-3.583.448-2.883.136-.457.047-1.379.214-2.429.344-1.05.134-2.232.208-3.2.163l.527-.032c-1.01-.105-1.447-.137-1.792-.116-.341.01-.593.06-1.198-.018 1.066.112-.923-.23-1.343-.365-.958-.112-1.747-.165-3.092-.404-.27-.116-.284-.247-1.15-.387l-.599-.02C15.341.37 14.166.311 13.601.237h.121c-.994-.09-1.035.025-.265.072-.315-.002-.63 0-.945.01L12.48.298c-.626.015-1.232.074-1.923.173-.69.105-1.47.246-2.428.527.496-.225-1.505.309.238-.23-.497.169.298-.009.407.007.639-.13 1.211-.28 1.497-.323-.216-.015-.042-.139.301-.23-.642.115-1.881.293-2.954.67-1.078.359-1.947.9-2.023 1.063a9.742 9.742 0 0 0-2.111 1.684c-.664.7-1.257 1.47-1.736 2.28.045-.062.136-.184.126-.139-.294.446-.55.916-.77 1.402l.124-.347a11.38 11.38 0 0 0-.43.967c-.064.095.029-.309.185-.721.083-.24.201-.438.113-.208.203-.54.099-.325-.025-.062-.122.263-.25.58-.147.216.115-.259.253-.6.347-.782A7.353 7.353 0 0 0 .684 7.69c-.12.4-.21.74-.356 1.12a34.148 34.148 0 0 0-.268 3.057c-.02-.23-.024.091-.017.396.006.304.02.593-.043.299.054.455.144 1.524.248 1.69-.054-.16-.14-.678-.154-1.037.081.487.136.538.239 1.127.007.078-.016.038-.016.038.105.378.171.43.243.554.08.123.151.321.385.96.333.83.561 1.187.605 1.31.053.12-.055-.003-.204-.218-.31-.424-.694-1.258-.618-1.01.045.055.214.459.457.911.24.458.565.948.762 1.245l-.118-.129c.227.297.6.695.839 1.01.206.12.56.37.785.5.405.35.84.666 1.295.944l-.301-.147c.314.19.592.35.877.5.097.112-.317-.115-.741-.362.194.183.477.349.838.475l-.175-.097c.372.191 1.776.69.703.205.827.308 1.053.488 1.636.643.046.064-.488-.09-.208.035a8.99 8.99 0 0 0 1.407.362c-.45-.117.137-.007-.57-.204.279.05 1.005.187.98.156-.233-.034-.399-.046-.796-.17.769.161 1.57.29 2.357.416-.03.007-.11.01-.201.008 1.039.057 2.58.145 3.267.06l-.296-.024.076-.005-.116.002.023.003c-.25.019-.742.002-.938-.032.77.012-.54-.111.273-.111 1.115.007 2.103.103 2.71-.002-1.058.003-2.482-.09-2.914-.071l.683.031c-.52.025-1.044.04-1.568.042-.056-.041-1.383-.103-1.347-.184.538.058 1.029.102 1.45.126-.099-.032-1.436-.14-1.995-.251.234.045.469.088.704.126-1.277-.084-2.888-.46-4.067-.904.471.152.181.03-.126-.113-.306-.143-.625-.313-.255-.173.305.097.766.338.634.269.114-.021-.703-.295-.904-.461-.144 0-1.262-.626-.634-.204-.35-.22-1.148-.681-1.54-1.102.04.084-.172-.079-.402-.293-.23-.214-.474-.482-.555-.552a4.024 4.024 0 0 1-.37-.518c.337.408.79.874 1.314 1.288H3.66c.19.19.585.495.48.39l.026-.016c.81.567 1.707.953 2.375 1.19.114.047.229.091.344.135l-.056-.013.085.024c2.444.913 5.251 1.064 7.895 1.076 3.616.017 7.337-.319 10.36-.197.722.029 1.424.103 2.11.215.226.059.45.121.674.188a17.659 17.659 0 0 0-2.794-.154c1.144.074 1.978.152 2.762.258.781.11 1.511.255 2.396.592-.287-.071-.026.033.043.074a6.11 6.11 0 0 0-.423-.1c.404.116.463.127.428.102.58.155 1.25.41 1.61.508.295.12.59.244.883.372-.026.033-.397-.042-1.303-.4 3.171 1.26 5.524 2.47 8.614 4.025.125.08-.425-.18-.196-.056.427.184 1.134.482 1.115.447-.044-.005-.136-.015-.411-.14 1.642.718 2.482 1.174 3.585 1.532.042.068-.837-.287-.706-.219 1.643.67 2.563.833 4.277 1.311-.585-.092.362.171.823.32.718.148 1.842.374 3.07.537 1.23.172 2.56.249 3.664.29-.295.064.32.103 1.03.13.712.027 1.518.033 1.608.103.494.008 1.261-.024 1.314-.078-.273.032-.941-.011-.853-.04.72-.004 1.818-.04 1.914-.112l.892.026c.037-.04.198-.091.468-.13.175-.013.35-.024.522-.038.279.004.353-.006.37-.03.228-.021.448-.047.67-.071-.247.064-.466.12-.561.16.754-.06.647-.084 1.176-.16.18.018-.51.178-1.085.26.325-.02.65-.04.975-.067.926-.192 2.517-.555 3.98-.92-.224.11-.703.224-.301.195.629-.175 1.437-.499 2.26-.747-.11.045-.038.028-.146.073.7-.287.96-.397 1.213-.485.25-.092.492-.162 1.109-.465-.016.017-.017.027-.049.052.244-.14.483-.285.718-.437.734-.487 1.138-.756 1.489-.959.346-.207.635-.354 1.051-.691l-.17.164c.28-.186.805-.668 1.258-1.206.459-.534.836-1.122 1.009-1.378-.456.615-.176.192-.561.599-.189.273-.24.38-.33.53-.093.145-.222.337-.621.728.022-.08.271-.376.51-.702.24-.325.465-.68.52-.816.344-.507.647-.82.72-.852.361-.691.59-1.261.78-1.889a8.274 8.274 0 0 0 .35-2.284c-.02-.342-.08-.641-.141-1.048-.064-.407-.125-.922-.22-1.704l.045.08c-.056-.043-.14-.751-.268-1.048.061.545-.23-.63-.132.028-.252-.875-.217-1.05-.176-1.162-.324-.568-.598-1.73-1.39-2.904.086.094.326.471.497.762.172.29.287.487.168.19a16.133 16.133 0 0 0-1.031-1.494c.147.223.291.449.428.679-.79-1.116-.958-1.465-1.423-2.112-.073-.142.27.25.503.566A11.434 11.434 0 0 0 74.4 9.567c-.152-.143-.482-.468-.845-.787-.361-.32-.755-.633-.993-.795l-.172-.155a.449.449 0 0 1 .09.057 6.257 6.257 0 0 0-.234-.183c-.18-.158-.365-.311-.552-.462l.124.075-.229-.16a23.27 23.27 0 0 0-.592-.453l-.33-.196.152.11c-.054.016-.282-.095-.608-.275a25.38 25.38 0 0 0-2.236-1.29c-.949-.553-2.354-1.033-2.767-1.304.811.262 1.394.507 1.976.776.581.272 1.162.57 1.953 1 .375.272.119.136-.242-.059-.362-.196-.836-.437-.873-.426.296.163.59.33.88.504-.045-.058.39.177.778.396.39.219.736.418.548.224-1.858-1.254-3.897-2.194-5.71-2.851.653.017 1.31.053 1.974.113.003-.008.04-.006.132.013l-.132-.013c-.01.025.369.16.785.333-.097-.014-.2-.026.282.196.941.507 1.515.681 2.184 1.085l-.213-.111c.622.386 1.415.892 1.906 1.18.21.217-.224-.09-.613-.34-.388-.25-.722-.455-.266-.11-.658-.475-1.704-.972-2.26-1.248.916.497 1.623 1.06 1.34.961.968.548.992.517.995.447-.001-.062-.024-.158.798.388.366.269.725.548 1.075.84l.442.209c.626.538-.441-.264.512.563.296.186.846.796 1.04.954-.044-.005-.071-.002.365.48.04.024.037-.054.37.334.07.173-.145-.074-.347-.293-.202-.219-.387-.41-.224-.156.514.57.665.726.734.753.068.03.044-.062.164.055-.04-.026-.081-.092-.205-.246.04-.015.406.492.4.413a6.55 6.55 0 0 0-.467-.541c.318.312-.409-.61-.727-.924-.374-.348-.936-.885-1.568-1.41a21.217 21.217 0 0 0-1.903-1.43c.104.063.307.19.193.09a27.647 27.647 0 0 0-2.044-1.279 23.178 23.178 0 0 0-2.339-1.154l-.273-.026c-1.8-.743-.955-.132-1.4-.288-.401-.148-.761-.218-1.094-.382l.202.035c-1.15-.36-.384-.04-1.4-.378-.84-.205.722.238.18.123-1.089-.348-.717-.062-2.408-.583.09-.005-.167-.152.84.103a41.63 41.63 0 0 0-.966-.315c1.17.266.46.087 1.647.407.569.076.456-.016.98.07zm-4.686-1.085l.173.005c-.142-.015-.187-.014-.173-.005zm9.035 2.734c.254.113.493.23.634.324zm-7.261-1.895c.08.027.104.045.03.045-.873-.238-.831-.018-1.623-.307-.14.028.068.092.383.17-.109-.012-.175-.013-.19-.002l-.906-.19c-.254-.054-.48-.106-.406-.115.082-.08 1.165.126 1.503.122v.001c.205.021.966.192 1.209.275zm3.764 1.32c.207.092.258.137.305.184-.001 0-.003 0-.004-.002l-.5-.183zm-10.4-2.93c-.568-.074-1.02-.03-.873 0l1.101.111c-.271-.1-.305-.034-.941-.115zm2.792 1.038l-.265-.03c-1.97-.294-2.575-.303-2.4-.237-.241-.027-.49-.05-.737-.076.447 0 .872 0 1.11.013.86.088 1.77.223 2.292.33zm13.956 4.6c.076.081.866.67.312.315.226.189.965.687 1.09.738l-.226-.111c.669.424.998.872.58.573l.052.04c.612.394 1.206.825 1.779 1.29-.568-.575-.495-.384-1.22-1.023.23.199.316.238.358.257a21.738 21.738 0 0 0-2.725-2.079zm3.587 2.846l.176.192c.028.002.105.051.22.14zm.396.333c.176.15.349.306.52.465a5.747 5.747 0 0 0-.52-.465zm.52.465c.128.128.261.27.391.423.205.401.36.575-.186.03.503.56.398.28 1.057 1.207-.296-.339-.426-.378.158.53a20.829 20.829 0 0 1 1.778 3.136c.456 1.025.828 2.084 1.033 3.387-.03.052.018.59.015 1.248a9.696 9.696 0 0 1-.19 1.95c.006-.396.09-1.155.067-1.927a10.05 10.05 0 0 1-.193 1.942l.09.281c-.16.697-.284.988-.319 1.068-.04.08-.008-.052.032-.232.08-.36.177-.906-.005-.285-.215.75-.283 1.024-.468 1.478.225-.515.312-.762.366-.862.052-.1.06-.057.07-.015.01.043.021.087.076-.017.052-.105.159-.355.293-.917.01.171-.07.585-.223 1.037-.15.453-.375.938-.571 1.277-.254.367-.173.19-.037-.109.137-.298.306-.73.298-.84-.352.846-.286.699-.415 1.072-.696 1.264-1.651 2.502-2.377 2.967-.757.692-.688.67-1.128 1.067-.018.075.302-.134.657-.408.293-.223.597-.486.792-.636-.037.025-.063.038-.051.017.224-.2.443-.41.654-.627-.622.597.018-.148.3-.508.219-.253.607-.795.574-.706-.093.142-.187.284-.286.42.434-.496.775-1.22 1.135-1.814.038-.022-.074.218-.081.26.3-.724.622-1.416.85-2.552-.018.225-.044.45-.078.676.085-.462.25-1.2.326-2.022.08-.824.068-1.69.02-2.396 0 .158.012.44-.023.273-.099-.821-.162-1.442-.037-1.075-.107-.393-.24-1.15-.462-1.924-.217-.774-.521-1.561-.802-2.034a17.117 17.117 0 0 0-3.1-3.84zm-.74-.606c-.024-.003-.02.02.039.091l.079.043zm-3.9-2.883c-.026-.011-.041-.013-.044-.005.26.173.515.355.77.541l.103.064c-.006-.038-.654-.524-.83-.6zM50.43.57c.16.088-.635-.058-.955-.032l.651.114c-.3-.017-.894.02-.867-.054-.013.037-.49.073.392.088l-.663.024c.035.01.085.02.143.028l-.594-.015c-.248-.033-.7-.048-1.085-.115-.028-.024.387-.022.625-.023a12.283 12.283 0 0 0-1.478-.038c.94.031.438.06.642.128-.577.013-1.516-.011-1.864.007-.797-.029-1.453-.089-.922-.152-.51.034-1.047.012-1.585.094 1.005-.096.027.155 1.306.035.077.02.064.034.013.045-.412.005-.831.014-1.253.024a45.545 45.545 0 0 1-.507-.01c.346-.026.054-.053.137-.084-.696.047-.653.089-.333.113-.51.016-1.025.035-1.549.06L40.058.78l.952-.067c-.399-.05-1.058.04-1.549.067-.554-.017 1.264-.134 1.863-.254.483-.067 1.477-.047 1.553-.014C43.029.41 44.65.427 45.288.38c1.594.006 1.047.148 2.467.136l-.51-.074c1.26.01 1.796.015 3.184.129zM42.877.512c-.006.004-.015.008-.016.013.022-.005.025-.01.016-.013zm8.248.268c-.061.016-.01.031.095.048l-.837-.044c.125-.026-.053-.08.742-.005zM71.82 7.316c.395.284.844.635 1.372 1.075a20.22 20.22 0 0 0-.974-.823zM44.717.505a4.869 4.869 0 0 0-.262.023c.09-.006.175-.013.262-.023zM74.16 9.329c.072.067.16.153.243.236.082.077.125.111.085.054-.121-.105-.204-.189-.328-.29zM42.505.588c-.378.005-.68.018-1.024.047.143.01 1.085-.004 1.024-.047zm-3.26-.402c-.64.018-1.406.096-1.718.16l.264-.008c-.385.058-.784.117-1.174.19.796-.15 2.751-.256 2.628-.342zM75.479 10.81l.105.146zM40.678.805l-.179.01c.038-.007.095-.01.179-.01zm-5.288.418c-2.574.357-5.05.946-7.597 1.182l.187-.065-.107.018c-.888.098-.928.058-.973.037-.045-.028-.094-.036-1.003.007.07-.01.103-.02.143-.028-.743.064-2.1-.072-2.268-.021.173.029.836.092 1.162.139a17.05 17.05 0 0 1-1.875-.18c-.164-.025-.333-.054-.499-.081-.134-.034-.263-.067-.417-.097h-.002a7.489 7.489 0 0 0-.625-.093c-.064-.005-.068-.002-.1-.003-.91-.161-1.838-.333-2.775-.5.143-.06-2.012-.414-.919-.334.273.021.258-.108 1.324.116.012.013-.081.004-.188-.009.49.073.565.116 1.09.228.147.106-.66-.064-1.02-.073.343.045.73.084 1.102.158l-.093.012 1.128.188c.473.025-.852-.162-.905-.219l.73.084 1.913.318c.743.13 1.47.218 1.844.291.96.082.541-.03.782-.07.578-.056 1.114.012 1.68-.053-.022-.056.648-.105.665-.185.308-.023.615-.05.923-.084.503-.17-1.108.114-1.356.068-.496-.059.675-.088.354-.121-.703.07-.752.118-1.093.153-.405.026-.62-.002-.608-.038 1.128.008.61-.094 1.526-.14l.032.02c.017-.07 1.33-.16 1.816-.278 1.018-.062-.796.232-.763.24.409-.057.817-.125 1.225-.194-.527.13.022.097-.692.247.748-.131.847-.077 1.559-.244-.799.25 1.027-.087 1.129-.04-.864.192-2.478.326-2.252.275.034.022-1.005.157-1.408.164l-.58.16c.67-.051 1.572-.218 1.331-.1l.904-.173c-.917.272-.873.26-1.72.416 1.78-.081 3.104-.577 4.556-.73l-.222.05c1.45-.275 2.342-.386 2.955-.417zm-13.247.91l.238.017c.444.073.716.11.623.066l-.27-.047c.281.01.15-.004-.1-.019-.288-.044-.275-.02-.311-.012zM33.69.896c-.746.107-1.12.096-1.05.058-.758.197 1.247-.07-.069.217 1.722-.238-.148-.065 1.12-.275zM77.473 13.89l.127.286.2.43a16.52 16.52 0 0 0-.327-.716zm.7 1.634c-.02-.01.016.136.216.755-.036-.114-.026-.04-.061-.152.188.938.343 1.298.45 2.122.025.495-.163-.794-.119-.33.093.508.15 1.318.131 1.995-.01.679-.088 1.221-.01 1.197-.115.761-.194.854-.272 1.068-.073.607-.49 1.673-1.01 2.493-.507.83-1.054 1.434-.974 1.495.283-.339.724-.917 1.018-1.501l.114.072c.242-.423.225-.466.242-.547.01-.084.065-.202.332-.833a9.407 9.407 0 0 1-.167.366c.187-.455.424-1.09.586-1.773.166-.68.253-1.406.263-1.986.045.132.055-.703.116-.569-.031-.795-.157-1.569-.293-1.954-.059-.484-.279-1.188-.435-1.781.019.146-.1-.124-.126-.137zm.855 3.872l.008.244-.001-.235c-.003-.009-.005-.006-.007-.009zM28.1 2.32l-.072.004-.049.016zm-.733.112c.008.002.007.004.008.007-.262.02-.525.037-.788.048.171-.018.358-.034.567-.059.131-.004.19 0 .214.004zM78.42 17.32c.134.802.072.455.18 1.302.016-.377-.121-1.074-.18-1.302zm.514.228c.052.265.096.533.132.802l.001-.076a13.856 13.856 0 0 0-.133-.726zM19.753.994l-.23-.031-.405-.004zm-.162.641c-.297-.054-.591-.133-.799-.15.366.096.504.11.8.15zm-3.656-.567c.043.02.007.028-.063.031a32.042 32.042 0 0 0-2.41-.235c.699.026 1.418.093 1.37.016 1.095.12.33.055 1.103.188zm-4.12-.81c.023-.007-.035-.013-.245-.021-.745.043-.44.067-.334.09-.307-.04.506-.053.578-.07zm1.134.539a.183.183 0 0 1 .076.025c-.535-.014-.67-.01-.592.008a17.876 17.876 0 0 0-1.618.052.735.735 0 0 0-.154-.016c.235-.035.609-.071.828-.094.332-.016 1.192-.026 1.46.025zM10.442.45c-.023-.014-.085-.012-.17 0a.947.947 0 0 0 .17 0zM8.69.898c-.291.093-.58.194-.861.31-.11.014-.22.03-.33.049-.158.08-.312.169-.466.256.28-.1.717-.24 1.125-.33.407-.093.779-.145.915-.14a9.476 9.476 0 0 0-2.413.832c-.31.156-.627.342-.942.555-1.17.719-2.24 1.72-3.174 3.093-.757 1.115-1.286 2.51-1.562 3.99l.009-.14c.016-.241.054-.522.133-.845-.043.185-.101.402-.185.696.064-.55.164-1.1.305-1.645-.151.395-.19.638-.232.9-.04.265-.085.55-.192 1.049-.064-.082-.16-.03.053-1.123.29-.925.03.064.21-.395.131-.734.387-.855.611-1.606.434-.834.362-.537.541-.775-.468.799.284-.332-.27.683.243-.4.32-.553.38-.696.061-.142.113-.27.36-.58l.147-.042c.225-.278.595-.705 1.021-1.12.422-.42.903-.82 1.282-1.122-.697.435.35-.332.22-.29-.039.073-.3.254-.54.43-.244.175-.471.34-.478.323.242-.224.695-.591 1.152-.883a7.12 7.12 0 0 1 1.066-.576 9.98 9.98 0 0 0-1.126.563c.173-.139.592-.429.995-.651.4-.228.776-.393.794-.408.477-.15 1.191-.355 1.452-.362zm-1.806.628a.385.385 0 0 0-.075.014 8.82 8.82 0 0 0-.519.275c.085-.06.668-.288.594-.29zM78.327 23.34l-.038.07c-.084.232-.178.463-.28.69l.044-.067c.1-.227.192-.459.274-.693zM2.041 4.937c-.135.176-.27.373-.394.568a8.74 8.74 0 0 0-.138.317c.158-.302.342-.608.532-.885zm.041.186c-.065.102-.13.21-.19.317l-.023.091a9.04 9.04 0 0 1 .213-.408zm73.796 21.755l-.295.33c.134-.134.236-.247.295-.33zm-.295.33c-.357.359-.967.856-1.642 1.305-.673.454-1.407.863-1.954 1.184-.59.386-.156.32-.1.443.056-.008.502-.206.928-.442.426-.233.828-.504.834-.561-.768.404.974-.694-.404.123-.148.022.463-.405 1.088-.822-.016.08-.586.443-.173.226.379-.335.55-.422.365-.379.64-.549.67-.66 1.058-1.077zm-.112.758c-.081.01-.345.3-.608.5.329-.243.422-.33.608-.5zM1.538 7.346c-.071.131-.17.33-.202.351-.101.29-.134.505-.206.807.084-.34.21-.728.408-1.158zm65.6 23.48l-.442.11c.111-.023.249-.055.442-.11zm-.442.11c-.24.047-.329.041-.43.036.013-.007.01-.01-.051-.002l.05.002c-.067.036-.735.184-.585.19.34-.07.679-.145 1.016-.227zm-37.684-8.264c-.271-.046-1.086-.279-1.395-.282l.04-.007a17.88 17.88 0 0 0-.56-.067c.525.066 1.608.313 1.915.356zm-11.528-.425c-.51-.038-2.584-.048-2.623.054.435-.044.71-.07 1.39-.076.257.145-1.114.057-1.424.188 1.252.014 1.633-.127 2.657-.166zm-2.482.207l-.07-.009-.696.028.07.01zm-4.748-.187c-.205-.01-.385-.024-.31-.003.09-.003.2 0 .31.003z"/></svg>