<svg xmlns="http://www.w3.org/2000/svg" width="86" height="87" viewBox="0 0 22.754 23.019">
    <path d="M22.552 3.807c.034.022.07.054.107.087-.064-.063-.12-.12-.107-.087M22.659 3.894l.095.092a1.758 1.758 0 0 0-.095-.092" fill="#21b5b0" />
    <path d="M13.167 5.5c-.327-.02-.66.072-.935.307-.312.268-.47.663-.464 1.066-.013.233.058.471.178.678l.007.014a1.524 1.524 0 0 0 .257.323c.39.358.943.488 1.437.276.487-.209.83-.7.868-1.229.058-.803-.629-1.39-1.348-1.435zm5.755 2.59a.662.662 0 0 0-.3.11 65.403 65.403 0 0 0-3.399 2.366c-.098.072-.095.2-.04.298-1.25.113-2.612.4-3.502 1.102-.307.243-.23.772.085.964.127.077.247.16.366.245a.584.584 0 0 0-.13.245l-.016-.014c-.052-.04-.13.008-.133.068-.006.21.069.413.12.615.05.196.096.397.157.59a.544.544 0 0 0-.212-.046.559.559 0 0 0-.524.4l-.044.03c-.155.084-.307.167-.453.266-.333.225-.157.682.236.646.188-.018.37-.053.555-.086.18-.033.346-.056.5-.161.209-.14.34-.381.284-.638a.556.556 0 0 0-.02-.065c.26.037.554-.209.376-.503a4.38 4.38 0 0 0-.191-.287c1.414.348 2.87.309 4.311.115.729-.097 2.313-.238 2.842-.971.304.05.63-.086.763-.488.473-1.422.3-3.184-.316-4.532-.108-.237-.48-.142-.489.108-.042 1.16-.217 2.209-.447 3.309a.979.979 0 0 0-1.132.386c-.295.13-.861.167-1.12.207.48-.557.326-1.588-.606-1.571-.17.003-.35.009-.534.017 1.15-.4 2.285-.83 3.411-1.293.779-.32.283-1.498-.398-1.433zM1.495 9.454c-.44.649-.392-.154-1.004.189-.115.065.2 2.327.285 2.448.156.225-.005.402.223.48a.652.652 0 0 0-.065.376c.145 1.2.495 2.375.802 3.544.308 1.17.594 2.36.995 3.502.374 1.063 2.042.772 1.761-.39-.299-1.232-.729-2.439-1.125-3.642-.378-1.145-.727-2.32-1.255-3.407zm6.667 1.372c-.153.001-.301.06-.353.183-.156.371-.32-.083-.287.302.034.387-.557-.041-.915.183-.205.129-.6 1.083-.835 1.121-.565.094.36 2.869-.17 3.074-.272.105-.544.255-.832.282-.056.127-.13.257-.142.408l-.029.056c.803.67 2.135.43 3.053.164.328-.095.635-.243.954-.364.312-.118.709-.075.888-.408.484-.895-.172-1.899-.424-2.759-.114-.39-.185-.793-.276-1.19-.06-.265-.09-.666-.25-.896-.071-.102-.229-.157-.382-.156zm10.8 3.567a.322.322 0 0 0-.278.278c-.077.888.225 1.794.426 2.651.194.824.54 1.913-.353 2.434-.026.016-.049.033-.072.05-1.175.437-2.375.797-3.57 1.18-1.31.42-2.635 1.11-4.01.613-.239-.086-.39.177-.314.376.602 1.572 2.666.997 3.845.632.939-.29 1.873-.601 2.808-.91.823-.27 1.71-.507 2.452-.967a.684.684 0 0 0 .3-.36c.44-.515.611-1.278.525-1.971-.084-.666-.37-1.31-.6-1.935-.255-.689-.474-1.394-.932-1.976a.244.244 0 0 0-.226-.095zm-8.957 4.919a.862.862 0 0 0-.172.012c-1.733.296-3.458.691-5.178 1.049-.338.07-.294.585.05.603 1.805.097 3.658.074 5.451-.181.893-.128.668-1.452-.151-1.483z" opacity=".6" fill="#fff" />
    <path d="M15.898.002a.249.249 0 0 0-.093.031l-.488.282c-1.56.901-3.174 1.833-4.765 2.772-.316.186-.63.368-.945.551-.016-.01-.031-.023-.05-.03a.246.246 0 0 0-.097-.015c-.541.026-1.077.105-1.597.182-.565.085-1.15.171-1.722.183a.248.248 0 0 0-.244.258c.018.543.04 1.077.106 1.624-.038.025-.077.05-.114.076-.348.234-.707.474-1.065.703a.251.251 0 0 0-.08.34c.162.272.33.543.496.814l.225.367-.078.019C4.59 8.349.98 9.169.189 9.364a.25.25 0 0 0-.183.291.248.248 0 0 0 0 .112c.251.997 1.23 5.106 1.415 5.873.738 3.062 1.043 4.328 1.834 4.812.497.304 1.102.252 2.044.044.272-.06.57-.134.904-.214a65.88 65.88 0 0 1 1.415-.333c.37-.082.742-.166 1.113-.25.37-.084.74-.168 1.109-.25l.29 1.057a2.024 2.024 0 0 0 .14.365 2.007 2.007 0 0 0 .322.467v.001a2.017 2.017 0 0 0 1.892.61l5.793-1.206.024-.005a2.028 2.028 0 0 0 1.175-.755 1.988 1.988 0 0 0 .292-.546c.137-.39.153-.819.04-1.222l-.765-2.706a2.044 2.044 0 0 0-.149-.38 2.014 2.014 0 0 0-2.335-1.016l-4.256 1.197a80.489 80.489 0 0 1-.822-2.827c.669-.401 1.343-.8 2.014-1.193 2.104-.111 4.223-.412 6.096-.678l.019-.004a.25.25 0 0 0 .195-.257 67.842 67.842 0 0 0-.165-2.196.25.25 0 1 0-.497.044c.062.715.112 1.331.15 1.95-1.505.213-3.162.442-4.829.574l.216-.126c1.792-1.047 3.645-2.129 5.432-3.262a.251.251 0 0 0 .079-.344 125.814 125.814 0 0 1-2.129-3.577 4.9 4.9 0 0 0 .746-.02c.025.377.06.73.14 1.09a.25.25 0 1 0 .487-.107c-.09-.407-.119-.817-.146-1.275a.248.248 0 0 0-.276-.234c-.416.047-.847.093-1.266.004l-.095-.163c-.49-.85-.999-1.73-1.508-2.586a.249.249 0 0 0-.246-.121zm-.057.588c.466.787.929 1.59 1.38 2.37.776 1.345 1.579 2.735 2.415 4.085-1.715 1.08-3.49 2.116-5.208 3.12-1.011.59-2.053 1.2-3.08 1.815-.19-.728-.354-1.378-.488-1.922-.543-2.209-.746-3.035-1.723-2.82-.09.02-.18.045-.269.068l-.135.037c-.392.1-.79.196-1.187.293-.12-.147-.243-.29-.365-.43l-.05-.056c.286-.188.548-.4.802-.608.167-.135.339-.274.51-.401a.25.25 0 0 0-.297-.403c-.18.134-.357.277-.527.416-.314.255-.64.52-.992.72a.25.25 0 0 0-.068.38c.081.095.165.189.248.283l.201.232-1.033.249c-.103-.17-.206-.34-.31-.508-.123-.2-.246-.4-.367-.6.293-.192.584-.388.868-.578.527-.354 1.073-.72 1.634-1.056.574-.344 1.164-.686 1.734-1.016.423-.245.847-.49 1.27-.74 1.591-.94 3.204-1.87 4.763-2.771zm-.236 1.101a.258.258 0 0 0-.093.033c-.255.152-.521.289-.78.421-.222.114-.453.234-.68.363a.25.25 0 0 0 .249.435c.216-.125.442-.24.66-.352.192-.1.389-.2.585-.31.237.419.467.803.741 1.176a.25.25 0 1 0 .402-.297c-.304-.414-.557-.854-.832-1.344a.248.248 0 0 0-.252-.125zM8.71 4.162c-.39.227-.78.453-1.167.684-.365.22-.72.449-1.069.68-.011-.12-.026-.24-.034-.358-.017-.24-.028-.479-.037-.72a16.617 16.617 0 0 0 1.532-.178c.255-.038.514-.076.775-.108zm8.767.794a.25.25 0 0 0-.22.407c.145.18.27.379.403.59.123.194.248.394.395.586l-.214.175c-.27.224-.525.436-.836.565a.25.25 0 0 0 .19.463c.382-.158.678-.405.965-.642.136-.113.264-.22.4-.315a.252.252 0 0 0 .04-.372c-.198-.22-.354-.467-.518-.728-.135-.213-.274-.434-.437-.637a.25.25 0 0 0-.168-.091zm-4.337.035a1.993 1.993 0 0 0-.786.13c-.794.31-1.252 1.165-1.092 2.033.047.255.147.498.29.714.143.217.328.407.546.555.397.27.86.37 1.3.283l.042-.008a1.808 1.808 0 0 0 1.251-.998c.203-.426.246-.921.117-1.39a1.8 1.8 0 0 0-.432-.77 1.8 1.8 0 0 0-1.236-.549zm-.161.5a1.292 1.292 0 0 1 1.347.953c.112.401.054.828-.157 1.17a1.28 1.28 0 0 1-.867.6 1.222 1.222 0 0 1-.923-.205 1.503 1.503 0 0 1-.625-.946c-.117-.632.21-1.253.78-1.475a1.487 1.487 0 0 1 .445-.097zM9.405 7.713c.343.034.503.562.97 2.464.307 1.247.73 2.953 1.448 5.268l-.93.261a1.998 1.998 0 0 0-1.106.788 2.043 2.043 0 0 0-.26.517 2.026 2.026 0 0 0-.088.38 2.018 2.018 0 0 0 .054.795l.214.78c-.363.08-.725.161-1.087.243-.37.085-.74.169-1.11.25a65.1 65.1 0 0 0-1.425.335c-1.36.331-2.107.513-2.57.23-.614-.376-.926-1.67-1.608-4.502-.18-.748-1.097-4.599-1.378-5.724.975-.235 4.212-.971 4.974-1.153.657-.157 1.326-.319 1.996-.482h.008l.005-.004a151.94 151.94 0 0 0 1.486-.37c.082-.022.164-.045.246-.063a.514.514 0 0 1 .16-.013zm-.672 1.18a.89.89 0 0 0-.25.023c-.067.015-.135.033-.202.051l-.102.027c-.834.212-1.69.416-2.519.614-.6.144-3.317.761-3.912.908a.188.188 0 0 0-.139.22.187.187 0 0 0 .001.083c.188.75.926 3.844 1.065 4.421.555 2.305.784 3.259 1.38 3.623.374.229.83.19 1.54.033.203-.046.429-.1.68-.161.311-.076.665-.162 1.065-.25.279-.063.559-.125.837-.189.279-.063.557-.127.836-.188a.188.188 0 0 0-.082-.368l-.837.189-.835.187c-.404.09-.76.176-1.074.252-1.023.25-1.585.387-1.934.174-.462-.284-.697-1.258-1.21-3.39-.136-.563-.827-3.459-1.039-4.309.734-.177 3.171-.73 3.746-.868.83-.199 1.688-.404 2.523-.616l.108-.028c.062-.016.123-.033.185-.047.35-.077.45.208.851 1.844.24.975.568 2.308 1.146 4.152.03.094.126.148.22.128l.015-.004a.189.189 0 0 0 .123-.237c-.573-1.832-.9-3.16-1.138-4.128-.358-1.455-.52-2.113-1.048-2.146zm-.762 1.86c-.138-.011-.319.046-.507.09l-2.84.679c-.38.09-.793.143-1.145.272-.31.115-.168.414-.077.8.28 1.175.543 2.278.82 3.448.043.18.069.443.147.571.127.21.454.076.759.004l1.89-.45-.452-1.906c-.212.045-.443.12-.643.144l-.178-.749.64-.152c-.185-.633-.258-1.125.053-1.46.226-.244.666-.36 1.123-.402.046.222.124.463.15.673-.268.089-.576.07-.666.262-.087.186.084.463.116.742.241-.05.5-.133.73-.164.035.262.063.521.08.771l-.63.15.453 1.904c.234-.055.44-.105.697-.167.22-.051.543-.078.672-.19.165-.143.038-.446-.032-.742l-.82-3.449c-.044-.187-.074-.452-.146-.57-.044-.072-.111-.103-.194-.11zm11.704.562a.253.253 0 0 0-.099.002c-.875.193-1.887.216-2.959.242-1.213.028-2.468.058-3.7.33a.25.25 0 0 0 .108.489c1.185-.262 2.414-.291 3.604-.318 1.096-.026 2.132-.05 3.054-.254a.25.25 0 0 0-.008-.492zm-.328.99c-1.468.195-2.969.286-4.42.375-.708.043-1.44.087-2.158.143a.252.252 0 0 0-.23.269.25.25 0 0 0 .269.23c.713-.056 1.443-.1 2.149-.143 1.46-.089 2.97-.18 4.455-.377l.022-.004a.25.25 0 0 0 .193-.277.25.25 0 0 0-.28-.216zm-2.202 2.232a1.521 1.521 0 0 1 1.418 1.107l.763 2.707c.116.41.058.837-.162 1.201a1.501 1.501 0 0 1-.97.696c-.007 0-.013.003-.019.004l-5.793 1.205a1.519 1.519 0 0 1-1.77-1.084l-.636-2.319a1.524 1.524 0 0 1 1.052-1.866l1.16-.327.022-.006 4.484-1.26c.15-.043.302-.062.451-.058zm.653 1.223a.25.25 0 0 0-.29.3l.09.408a.25.25 0 1 0 .488-.108l-.09-.407a.25.25 0 0 0-.198-.193zm-1.186.29a.25.25 0 0 0-.249.333l.015.044c.048.136.103.291.172.43a.249.249 0 0 0 .335.113.25.25 0 0 0 .112-.335 3.513 3.513 0 0 1-.148-.375l-.015-.044a.252.252 0 0 0-.222-.165zm-1.002.232a.25.25 0 0 0-.29.3l.11.5a.25.25 0 1 0 .488-.109l-.11-.498a.25.25 0 0 0-.198-.193zm-3.083.177c-.388-.026-.924.136-1.718.507a.252.252 0 0 0-.316.286c.014.073.029.145.045.218l.071.332c.129.609.2.944.478 1.092.138.073.289.082.491.037.236-.052.54-.175.97-.35.225-.092.487-.199.794-.318a.249.249 0 0 0 .159-.237 1.964 1.964 0 0 0-.048-.393c-.101-.46-.197-.896-.584-1.086a.898.898 0 0 0-.342-.088zm1.73.18a.251.251 0 0 0-.29.3l.02.097.022.11c.024.108.061.25.138.378a.25.25 0 1 0 .43-.257.77.77 0 0 1-.08-.228l-.02-.1-.022-.107a.25.25 0 0 0-.199-.192zm-1.84.319a.491.491 0 0 1 .231.038c.164.08.227.335.318.745.009.042.016.083.022.123-.237.093-.445.178-.627.252-.487.198-.948.385-1.04.336-.071-.038-.152-.419-.223-.754l-.06-.285c.627-.293 1.09-.445 1.379-.455zm-.121.32a.252.252 0 0 0-.096.026l-.034.017c-.127.063-.227.116-.343.126a.25.25 0 1 0 .046.499c.042-.004.082-.01.121-.019.15-.034.278-.097.4-.158l.033-.017a.25.25 0 0 0-.127-.474zm5.304.129a.25.25 0 0 0-.247.13.248.248 0 0 0-.028.09.841.841 0 0 0-.198.085.972.972 0 0 0-.17.126c-.052.048-.1.101-.142.158a1.368 1.368 0 0 0-.192.372c-.02.065-.037.13-.048.195-.01.064-.016.127-.016.186a.722.722 0 0 0 .08.342v.001a.803.803 0 0 0 .1.15v.001c.233.28.65.42.968.35.23-.051.45-.215.595-.44a1.12 1.12 0 0 0 .095-.177v-.001a1.03 1.03 0 0 0 .083-.405c0-.072-.008-.144-.025-.218a.886.886 0 0 0-.196-.399 1.315 1.315 0 0 0-.136-.14 3.26 3.26 0 0 0-.137-.115c-.082-.066-.16-.129-.218-.2a.245.245 0 0 0-.168-.091zm.029.646l.044.035c.165.134.26.217.295.372.066.296-.148.594-.368.643-.186.04-.494-.103-.535-.292-.043-.193.124-.642.417-.707a.132.132 0 0 1 .028-.005.245.245 0 0 0 .119-.047zm-2.367.147a.25.25 0 0 0-.204.108c-.61.156-.96.67-.835 1.238.13.587.627.844 1.33.69.66-.147.972-.609.834-1.238-.107-.48-.558-.8-1.125-.798zm.272.542c.175.057.323.175.364.363.05.222.055.53-.452.642-.636.14-.71-.197-.735-.308a.487.487 0 0 1 .16-.493.633.633 0 0 1 .096-.067.851.851 0 0 1 .246-.093c.076-.017.158-.025.245-.03a.247.247 0 0 0 .076-.014z" fill="#1a1a1a" />
</svg>