<svg xmlns="http://www.w3.org/2000/svg" width="90" height="88" viewBox="0 0 23.812 23.283">
    <path d="M12.728.366a.192.192 0 0 0-.168.08c-.568.77-.648 1.948-.765 2.87-.117.92-.22 1.845-.317 2.769-.072.678-.408 1.741.08 2.323.326.39.958.64 1.518.687a8.16 8.16 0 0 0-.01 1.354c.03.444.372.671.723.7.206.243.55.365.9.145.747-.47 1.55-.98 2.173-1.635.089.05.193.083.317.086 1.868.041 3.74.075 5.594-.168.681-.089.678-1.015-.018-1.065-1.862-.134-3.732-.077-5.599-.098a.6.6 0 0 0-.477.197 3.278 3.278 0 0 0-.576-.109c-.345-.033-.6.324-.607.627 0 .017.003.034.004.05-.357.168-.702.36-1.039.558a9.954 9.954 0 0 0-.32-1.429c-.099-.312-.458-.409-.706-.279.42-.383.39-.786.436-1.388.054-.722.09-1.446.13-2.168.064-1.14.398-2.937-.273-3.954-.07-.105-.243-.118-.305.005-.254.51-.237 1.083-.284 1.643-.066.78-.165 1.554-.276 2.329-.076.52-.154 1.043-.228 1.565.032-.36.067-.72.095-1.077.06-.772.151-1.542.208-2.314.05-.71.166-1.505-.07-2.188a.161.161 0 0 0-.14-.116zm-5.152 2.19a.702.702 0 0 0-.253.05 6.225 6.225 0 0 1-2.37.506c-.553.01-1.118.013-1.6.33-.82.54-1.067 1.752-1.139 2.83a5.893 5.893 0 0 0-.074-.31c-.027-.102-.174-.115-.224-.025-.703 1.254-.67 3.313-.048 4.595.332.685.906 1.115 1.544 1.505l.143.087c-1.192.246-2.225 1.313-2.73 2.364-.382.8-.587 1.651-.691 2.528-.096.808-.36 1.905.298 2.515.24.222.599.207.831-.014.518-.494.368-1.115.401-1.779.037-.726.14-1.455.384-2.145.465-1.306 1.348-2.06 2.492-2.77a.4.4 0 0 0 .162-.182c.026.005.05.007.076.011.382.194.864.376 1.024-.04.08-.21-.023-.376-.182-.482-.239-1.22-1.933-1.281-2.521-2.24-.332-.541-.488-1.149-.594-1.773.146.123.33.196.521.221-.015.576.327 1.174.681 1.612.712.884 1.875 1.312 2.397 2.354.211.421.925.103.757-.333-.335-.87-.961-1.35-1.662-1.933-.482-.401-.86-.811-1.09-1.402-.08-.203-.143-.388-.228-.564a.967.967 0 0 0 .258-.435c.114-.397.347-.886.372-1.296l.072-.251c.04-.011.084-.025.14-.043a19.36 19.36 0 0 0 1.746-.272c1.07-.22 2.416-.66 2.991-1.656.119-.203-.047-.404-.253-.424a3.004 3.004 0 0 0-.598.01c.017-.127.01-.265-.02-.411-.037-.184-.152-.307-.27-.444-.157-.185-.47-.3-.743-.294zm7.853.839c-.247.017-.49.172-.606.497-.385 1.077.618 2.632 1.835 2.47.239-.032.45-.348.213-.54-.533-.426-.795-.893-.702-1.585.065-.494-.272-.81-.634-.841a.623.623 0 0 0-.106-.001zm3.645.795a.247.247 0 0 0-.172.05c-.616.487-.483 1.72.107 2.184.337.266.77.286 1.178.213.288-.051.733-.168.96-.352.074-.06.071-.185.029-.26-.13-.225-.413-.267-.653-.314a2.937 2.937 0 0 0-.434-.053c-.096-.003-.244.02-.33-.038-.183-.124-.075-.472-.083-.658-.011-.285-.148-.608-.426-.728a.526.526 0 0 0-.176-.044zm-1.21 8.494a.97.97 0 0 0-.688.287c-.384.362-.348 1.027.024 1.382.58.554 1.518 1.216 2.261.53.244-.227.238-.69-.016-.908-.034-.03-.065-.062-.1-.09-.034-.027-.062-.047-.085-.064l-.008-.01a.305.305 0 0 1-.028-.036c-.026-.042-.047-.086-.074-.128-.157-.241-.36-.53-.586-.7a1.191 1.191 0 0 0-.7-.263zm-12.1.49a.164.164 0 0 0-.158.093c-.194.389-.23.79-.36 1.2-.154.483-.397.932-.592 1.398-.312.75-.651 1.556-.61 2.38-.274.095-.436.413-.277.74.22.449.764.785 1.144 1.101.355.297.77.656 1.23.763a.222.222 0 0 0 .267-.275 1.963 1.963 0 0 0-.335-.644c.172.1.378.128.568.046.234-.1.4-.334.417-.585.04-.558-.675-.898-1.096-.539a.65.65 0 0 0-.223.508.54.54 0 0 0 .035.207 34.014 34.014 0 0 0-.172-.193 6.132 6.132 0 0 1-.138-.16.756.756 0 0 0 .416-.468c.2-.565.373-1.139.522-1.719a.69.69 0 0 0 .606.036.77.77 0 0 0 .457-.644c.032-.44-.364-.755-.761-.752.083-.438.155-.879.213-1.32.035-.265-.299-.43-.45-.18-.125.204-.24.41-.353.617.116-.532.14-1.086-.184-1.522a.222.222 0 0 0-.166-.087z" opacity=".6" fill="#fff" />
    <path d="M13.333 0a.247.247 0 0 0-.17.06.24.24 0 0 0-.082.16c-.068.661-.136 1.307-.207 1.939-.106.95-.22 1.87-.355 2.773-.09.604-.19 1.2-.301 1.792-.056.296-.115.592-.178.887a.249.249 0 0 0 .036.187.25.25 0 0 0 .161.105c.564.101 1.15.196 1.743.283v.003c.01.72.01 1.483-.039 2.252a.247.247 0 0 0 .03.132.248.248 0 0 0 .22.128.25.25 0 0 0 .137-.044 20.716 20.716 0 0 0 2.549-2.113c1.926.197 3.985.335 6.652.445a.25.25 0 0 0 .178-.065.247.247 0 0 0 .078-.171V8.75c.012-.394.02-.787.023-1.18.005-.393.005-.784.004-1.172-.003-.777-.014-1.541-.027-2.281l-.022-1.227v-.027c-.013-.765-.025-1.584-.026-2.416a.242.242 0 0 0-.072-.172.247.247 0 0 0-.172-.073C20.236.173 16.767.13 13.333 0zm.213.497c3.279.12 6.582.162 9.7.193.003.762.015 1.51.027 2.21l.022 1.226c.024 1.397.043 2.88.006 4.363-2.59-.11-4.6-.248-6.488-.443l-.03-.002a.247.247 0 0 0-.168.07 20.668 20.668 0 0 1-2.158 1.847c.027-.685.021-1.357.01-1.99a.244.244 0 0 0-.21-.238 54.451 54.451 0 0 1-1.685-.267c.46-2.235.717-4.49.974-6.97zM7.023 2.063c-1.448.025-2.326.353-2.815 1.059-2.065.08-2.022 2.523-2.009 3.332.017.963.147 1.726.348 2.351l.008.028c.494 1.515 1.416 2.183 2.203 2.75.49.35.892.644 1.124 1.076-1.844.238-3.145 1.145-3.873 2.705-.663 1.418-.649 2.99-.643 3.66 0 .116.002.236-.003.27a.261.261 0 1 0 .519.065c.009-.069.008-.171.006-.339-.03-3.495 1.316-5.448 3.995-5.83.093.328.122.661.132.927a.26.26 0 0 0 .25.25l.337.015.582.024.355.01h.01a.262.262 0 0 0 .248-.195c.082-.31.178-.64.35-.949 2.227.625 2.461 3.032 2.725 5.754l.166 4.023a.26.26 0 0 0 .264.234h.021a.261.261 0 0 0 .234-.286l-.165-4.022c-.23-2.377-.466-4.816-2.26-5.857a3.79 3.79 0 0 0-1.014-.392c.1-.486.437-.794.88-1.201.843-.773 1.998-1.83 1.946-4.865-.055-3.22-2.009-4.63-3.92-4.596zm13.129.136a1.187 1.187 0 0 0-.954.507c-.083.12-.143.256-.174.4v.001a1.084 1.084 0 0 0-.024.224 1.317 1.317 0 0 0 .085.468 1.067 1.067 0 0 0 .25.378v.001a1.1 1.1 0 0 0 .211.16c-.239.342-.38.8-.417 1.37a.25.25 0 0 0 .062.18.246.246 0 0 0 .173.08l.13.007c.548.022 1.065.045 1.59.166a.247.247 0 0 0 .301-.234c.002-.114.004-.23.002-.346-.007-.435-.08-.955-.5-1.306.042-.033.085-.065.123-.104a1.164 1.164 0 0 0 .332-.817v-.001a1.098 1.098 0 0 0-.089-.413c-.012-.03-.03-.057-.046-.086-.017-.033-.032-.068-.052-.099a1.182 1.182 0 0 0-.879-.531c-.041-.004-.08-.009-.124-.005zm-3.528.02a1.31 1.31 0 0 0-.585.146c-.119.061-.227.14-.318.237a.93.93 0 0 0-.254.538c-.046.402.073.773.335 1.042.072.074.155.133.242.185-.32.329-.504.802-.504 1.344a.243.243 0 0 0 .247.245c.523-.005 1.136.003 1.719.096.015.002.03.004.044.004a.247.247 0 0 0 .238-.204c.02-.117.029-.238.027-.357-.009-.493-.197-.911-.513-1.177h.002c.28-.204.49-.538.487-.937a1.194 1.194 0 0 0-.239-.721 1.108 1.108 0 0 0-.619-.404 1.258 1.258 0 0 0-.31-.037zm-9.592.365c1.092-.019 2.32.517 2.957 1.932-1.273.583-2.484.894-3.603.912a5.716 5.716 0 0 1-1.558-.182.257.257 0 0 0-.2.03.257.257 0 0 0-.12.163c-.26 1.1-.824 2.11-1.57 2.834a8.223 8.223 0 0 1-.217-1.828c-.042-2.49.867-2.794 1.554-2.805h.07a.259.259 0 0 0 .232-.127c.247-.418.75-.9 2.455-.93zm13.128.105c.02-.004.047 0 .071.002.336.03.614.322.62.65a.665.665 0 0 1-.194.468.68.68 0 0 1-.477.208h-.002a.694.694 0 0 1-.498-.187.676.676 0 0 1-.19-.497c.002-.38.348-.64.67-.644zm-3.533.018c.063 0 .126.008.189.023.332.082.483.387.484.655.002.38-.34.64-.587.66a.694.694 0 0 1-.559-.203.781.781 0 0 1-.2-.648c.033-.286.368-.481.665-.486h.008zm3.741 1.78c.014.01.026.024.042.033.393.202.478.566.486 1.05a.6.6 0 0 0 .001.035 9.889 9.889 0 0 0-1.253-.113c.057-.414.181-.737.373-.961.009-.011.012-.025.02-.037.049.005.097.013.148.012h.003a1.15 1.15 0 0 0 .18-.02zm-3.776.043c.027 0 .054.007.081.007l.08-.004h.002c.02.02.042.039.07.052.305.145.49.489.498.919v.03a10.873 10.873 0 0 0-1.276-.067c.053-.387.23-.705.502-.893.018-.012.03-.028.043-.044zm-6.42.473a5.93 5.93 0 0 1 .25 1.666c.048 2.801-.964 3.728-1.777 4.473-.468.429-.91.837-1.042 1.496a6.18 6.18 0 0 0-.844-.043c-.11.002-.218.008-.325.014-.27-.653-.804-1.042-1.37-1.448-.722-.52-1.507-1.088-1.96-2.337C3.957 8.076 4.62 7 4.95 5.81c1.545.335 3.333.05 5.22-.808zM7.559 7.32a.26.26 0 0 0-.222.294c.032.23.125.436.214.637.09.202.176.394.19.585a1.51 1.51 0 0 0-.096.04.388.388 0 0 1-.063.026.255.255 0 0 0-.25.264.265.265 0 0 0 .27.255c.106 0 .192-.04.26-.073.022-.008.054-.024.066-.026h.002a.332.332 0 0 0 .236-.1c.104-.108.1-.245.099-.336l-.001-.021c-.005-.31-.128-.584-.235-.825-.078-.176-.153-.34-.175-.499a.262.262 0 0 0-.295-.22zm.749 2.415a.261.261 0 0 0-.195.041 2.606 2.606 0 0 1-.421.235c-.421.18-.834.194-1.186.025a.263.263 0 0 0-.35.123.259.259 0 0 0 .123.346c.248.119.515.176.793.171.437-.008.9-.17 1.337-.471a.26.26 0 0 0-.101-.47zm11.135 1.076a.243.243 0 0 0-.132.033c-.585.339-1.159.718-1.714 1.084-.273.18-.545.36-.82.536a.245.245 0 0 0 0 .41c.332.217.657.442.974.668-1.214 2.008-3.566 2.75-5.354 3.015a.245.245 0 0 0-.207.278c.019.123.126.21.247.209.01 0 .021 0 .032-.003 1.884-.28 4.364-1.07 5.68-3.21.342.25.675.499.978.73a.248.248 0 0 0 .253.027.242.242 0 0 0 .14-.21c.018-.371.024-.746.03-1.107.01-.754.021-1.465.128-2.18a.245.245 0 0 0-.235-.28zm-.311.71c-.056.584-.065 1.17-.073 1.742l-.012.623a38.173 38.173 0 0 0-1.69-1.214l.512-.336c.412-.273.834-.553 1.263-.816zM6.768 13.114c.307-.005.588.013.847.049a4.34 4.34 0 0 0-.269.727c-.24-.007-.48-.018-.722-.029l-.1-.004a4.131 4.131 0 0 0-.112-.723c.118-.007.234-.018.356-.02zm-.121 2.391a1.01 1.01 0 0 0-.305.065.906.906 0 0 0-.55 1.018.997.997 0 0 0 .422.634c.2.135.433.185.655.141l.02-.005a.9.9 0 0 0 .582-.41.99.99 0 0 0 .107-.783.9.9 0 0 0-.931-.66zm.01.25a.652.652 0 0 1 .68.477c.055.2.026.414-.08.585a.643.643 0 0 1-.438.3.62.62 0 0 1-.465-.103.754.754 0 0 1-.314-.473.656.656 0 0 1 .617-.786zm-.344 2.693a.93.93 0 0 0-.277.059.825.825 0 0 0-.5.926.902.902 0 0 0 .383.577.792.792 0 0 0 .597.128l.018-.004a.82.82 0 0 0 .529-.373.897.897 0 0 0 .098-.712.804.804 0 0 0-.683-.594.9.9 0 0 0-.165-.007zm.01.227a.591.591 0 0 1 .617.434.668.668 0 0 1-.072.532.588.588 0 0 1-.397.274.565.565 0 0 1-.423-.094.687.687 0 0 1-.287-.431.596.596 0 0 1 .562-.715z" fill="#1a1a1a" />
</svg>