<svg xmlns="http://www.w3.org/2000/svg" width="60" height="90" viewBox="0 0 15.875 23.813">
        <path d="M8.014 0c-.019 0-.038.001-.058.006-.263.067-.35.671-.351.891l-.118.593c-.07.351.036.844-.13 1.17-.157.308-.575.592-.77.935-.34.604-.774 1.27-.37 1.963.564.973 2.104 1.694 2.392.138.098-.53-.029-1.046-.222-1.501-.165-.386-.204-.203-.128-.585a1.4 1.4 0 0 1 .272-.613c.482-.612 1.364-1.145 1.857-1.848C11.411-.308 8.748.918 8.44.889 8.396.665 8.292.013 8.014 0zM4.843 5.68a1.323 1.323 0 0 0-.728.202c-.667.421-.792 1.176-1.212 1.834C2.256 8.73 1.038 9.26.32 10.214c-.256.341-.462.835-.195 1.36 1.006 1.992 1.367 2.33 1.514 3.005l1.037 6.286c-.427.249-.435.95.118 1.481.616.592 1.565 1.09 2.406 1.252 1.663.32 3.92.45 5.208-.843.53-.532.787-1.16 1.157-1.724.752-1.148 1.528-2.272 2.234-3.423.323-.527.437-.897.642-1.483.244-.697.903-1.287 1.168-2.05.308-.888.438-1.99-.11-2.811-.583-.875-1.618-.469-2.412.103-.698.502-.709.89-.292 1.57.494.81.646 1.132-.065 1.938-.367.415-.683.854-1.024 1.272-.4.491-.496 1.103-.678 1.721-.173.589-.043 1.66-.41 2.118-.226.282-.748.284-.996.468-.242.18-.367.44-.518.704-.188.328-.348.786-.754.938-.519.195-1.487-.031-2.024-.177-.95-.258-1.896-.697-2.807-1.048-.261-.101-.48-.116-.657-.075.119-1.571-.239-7.398.246-7.35.267.417.88.754 1.235.927 1.472.715 3.472.902 5.045.377.303-.1.893-.25.652-.722-.213-.419-1.772-.422-2.143-.588-.136-.06-.37-.291-.482-.315-.19-.04-.366.104-.518.078-.39-.067-.827-.3-.847-.714-.648-.153-1.377.307-1.872-.178.002-.022.002-.043.007-.065.144-.659.643-.576.707-1.517.07-1.038-.126-1.686.37-2.456.343-.534.811-.96.56-1.836-.148-.52-.556-.749-.98-.758z" opacity=".6" fill="#fff" />
        <path d="M7.797.507a.04.04 0 0 0-.031.008c-.085.06-.093.436-.133.75a2.21 2.21 0 0 1-.033.197c-.026.12-.064.21-.122.237-.188.072-.61-.165-.88-.304a1.132 1.132 0 0 0-.205-.09 1.076 1.076 0 0 0-.127-.02c-.13-.014-.267 0-.323.086-.061.095.807.495 1.142.865a.744.744 0 0 1 .067.084.42.42 0 0 1 .044.082c.01.028.016.054.017.08 0 0-.203.144-.416.299a6.998 6.998 0 0 0-.471.358 1.188 1.188 0 0 0-.118.148A1.29 1.29 0 0 0 6 3.941 1.787 1.787 0 0 0 6 4.11c.012.335.11.653.19.872.052.145.097.247.102.28-.274.314-.508.484-.607.703-.035.008-.275.033-.547.096a2.933 2.933 0 0 0-.543.175c-.91.393-1.143 1.087-1.202 1.43a1.44 1.44 0 0 0-.019.146l-.002.055c-.59.092-1.127.418-1.651.719-.242.138-.587.487-.852.95a3.314 3.314 0 0 0-.125.242c-.33.708-.44 1.616.194 2.453.038.049.077.098.12.147.027.03.052.06.073.092.065.095.106.197.144.31.047.14.128.593.224 1.2.097.608.208 1.369.317 2.125.217 1.512.422 3.002.462 3.192.132.626.3 1.244.448 1.867a.88.88 0 0 0 .502.635c2.165 2.1 7.798 1.412 8.371.845a.947.947 0 0 0 .084-.162c.035-.078.076-.18.123-.303.655-1.722 2.397-7.437 2.499-7.564.104-.13.301-.296.512-.529.07-.078.143-.163.214-.256.283-.376.547-.89.609-1.62.094-1.105-.338-1.98-.914-2.407-.1-.075-.201-.15-.31-.21-.26-.144-.35-.338-.325-.653.056-.742-.13-1.415-.744-1.903.012-.07.017-.133.032-.193.119-.492-.058-.888-.395-1.233-.032-.033-.071-.06-.104-.094-.303-.314-.61-.626-.908-.945-.299-.318-.492-.689-.484-1.136a1.972 1.972 0 0 0-.022-.297.585.585 0 0 0-.051-.2c-.064-.07-.227.09-.448.343-.087.085-.189.215-.32.283a.393.393 0 0 1-.143.043c-.164-1.332-.938-1.399-1.567-1.497.182-.315.422-.558.611-.695.165-.12.317-.363.263-.43-.143-.176-1.268.86-1.448.856-.18-.003-.381-1.308-.565-1.334zm.753 2.052c.173-.008.352.01.52.04.32.059.577.233.703.554.034.085.064.167.092.248.191.563.234 1.021.17 1.631-.018.128-.04.539-.174.964a2.69 2.69 0 0 1-.064.182c-.167.424-.46.823-.985.927a1.41 1.41 0 0 1-.24.026.795.795 0 0 1-.127-.008c-.303-.044-.623-.26-.88-.552-.367-.418-.833-.975-.95-1.916a3.7 3.7 0 0 1-.022-.609c.004-.058.011-.115.02-.17.059-.33.215-.601.514-.82.374-.273.807-.405 1.253-.479.056-.009.113-.015.17-.018zm.37.734a.15.15 0 0 0-.063.016c-.148.07-.14.214-.123.301.032.154.105.205.227.175.129-.032.14-.148.128-.259.005-.013-.037-.236-.169-.233zm2.145.527c.01.586.633 1.253.916 1.584.122.142.29.324.432.444a1.28 1.28 0 0 1 .259.3c.08.124.148.268.19.426.042.157.057.328.03.503v.001c-.01.058-.024.117-.043.177-.115.357-.418.724-1.036 1.038a3.777 3.777 0 0 1-1.147.3 6.846 6.846 0 0 1-.397.032c-.75.041-1.492.018-2.222-.193a4.37 4.37 0 0 1-.368-.124 4.896 4.896 0 0 1-.69-.334 5.922 5.922 0 0 1-.328-.206c-.283-.19-.452-.472-.588-.773-.254-.558-.134-.944.385-1.383.065.11.131.215.2.315.478.7 1.026 1.15 1.304 1.31.331.189.733.248 1.099.106.378-.146.668-.36.865-.735.177-.337.315-.68.397-1.045.027-.12.048-.244.062-.37.024-.218.088-.43.124-.646.05-.305.28-.597.556-.727zm-3.478.007c-.123-.03-.484.214-.309.374.09.082.219-.075.267-.13.042-.047.164-.213.042-.244zm1.411.567c-.07-.002-.127.023-.12.091.014.184.368.188.387.067.01-.075-.149-.154-.267-.158zm-1.485.546c-.045-.01-.09 0-.13.044-.082.091.022.223.076.271.047.042.268.16.298.036.022-.092-.11-.319-.244-.351zm1.095.18c-.072-.002-.226-.01-.218.063.007.072.076.145.118.146.069.005.237-.012.263-.098.027-.086-.112-.108-.163-.11zm.822.641c-.075-.016-.128.137-.172.182-.044.046-.044.125.077.162.12.038.228-.237.128-.326a.076.076 0 0 0-.033-.018zm-1.202.208c-.077 0-.138.037-.134.136.01.265.393.26.417.084.014-.109-.156-.218-.283-.22zm-2.644.403c.043.16.197.711.296.883.706 1.226 2.402 1.517 3.26 1.57.341.02.683.042 1.026.048.565.01 1.113-.104 1.649-.279.146-.048.284-.123.425-.188.127-.059.25-.129.377-.183.129-.053.451-.292.572-.334.085.06.154.144.21.244.018.033.035.068.051.104.093.218.134.484.137.724.001.08-.002.157-.009.229-.013.143-.04.263-.077.338-.206.42-1.281 1.173-3.45 1.448-1.248.16-2.505-.39-3.425-.645-.172-.069-2.284-.68-2.894-2.513.1-1.442 1.718-1.408 1.852-1.446zM11.28 7.86c-.071.017-.217.15-.668.117-.37-.046-.318.165-.29.176.055.07.184.128.648.06.348-.05.401-.246.364-.32-.016-.032-.03-.039-.054-.033zm-2.479.089c-.243-.029-.278.202-.256.218.037.08.15.166.617.206.35.03.536-.146.516-.227-.032-.134-.184.014-.759-.167a.528.528 0 0 0-.118-.03zm-5.394.348c.027.002.043.008.047.02 1.401 2.797 5.92 2.945 6.433 2.957 2.177-.083 3.886-1.146 4.028-1.276.905.487 1.025 1.709.868 2.303-.13.493-.284 1.271-1.794 1.875-.78.213-1.956.424-3.315.535-.278.026-2.193.062-4.348-.343-1.007-.335-3.575-1.052-4.087-2.434-.97-2.617 1.769-3.665 2.168-3.637zm3.025 1.138a.076.076 0 0 0-.06.03c-.025.022-.037.094-.02.12.042.063.048.348.596.554.329.124.703.1.72.019.016-.082-.563-.127-1.094-.63-.017-.016-.08-.093-.142-.093zm1.983.642c-.035.003-.06.017-.065.05-.022.134.15.318.566.446.282.099.785.014.768-.177-.018-.19-.549.076-.945-.212-.027-.02-.22-.117-.324-.107zm3.164.007c-.117-.036-.39.28-.802.16-.043-.014-.409-.055-.385.078.024.133.247.248.682.229.299-.001.625-.255.545-.428-.01-.022-.024-.034-.04-.04zm-7.724 2.502c-.136.025.111.535.42.754.33.234 1.05.368 1.09.24.04-.13-.482-.26-.792-.478-.427-.3-.486-.467-.686-.514a.091.091 0 0 0-.032-.002zm2.278.48a.076.076 0 0 0-.064.022c-.027.018-.05.086-.038.115.031.07.093.425.604.713.23.13.56.169.724.148a.315.315 0 0 0 .067-.016c.016-.007.027-.015.03-.025.03-.078-.748-.263-1.197-.843-.014-.017-.065-.104-.126-.114zm-4.394.07l.027.015c.209.149.538.368.967.61l.007.034c.076.286 1.04 7.91.954 7.864-.215.001-.56-.293-.61-.334-.047-.1-.143-.44-.17-.555-.118-.5-.485-3.046-.698-3.972-.04-.575-.489-3.52-.477-3.661zm6.134.136c-.016-.005-.027-.005-.033 0-.14.137.356.623.806.777.233.125.575.147.745.1.163-.017.404-.131.375-.21-.027-.078-.624-.112-1.097-.23-.338-.153-.686-.405-.796-.438zm2.563.025c-.04-.001-.067.01-.075.043-.012.05.023.12.094.197a.995.995 0 0 0 .082.079c.123.106.301.216.505.296.274.12 1.018.015 1.014-.177-.004-.191-.892.026-1.266-.29-.026-.023-.237-.144-.354-.148zm-7.404.627c.497.26 1.099.534 1.784.76l.002.022c.043.762.224 7.296.216 7.39-.257.026-.906-.152-1.003-.38-.148-.345-.353-2.126-.422-2.636-.203-1.503-.387-3.01-.499-4.522-.013-.187-.049-.371-.07-.557a1.563 1.563 0 0 1-.008-.077zm10.692.728c-.491 1.61-2.221 7.112-2.279 7.216-.102.185-.288.289-.547.26.022-.155.184-1.016.22-1.147.096-.363.195-.726.31-1.082.266-.834.57-1.655.77-2.51.04-.18.138-.347.192-.525l.482-2.021c.376-.074.665-.143.852-.191zm-8.592.131c.559.167 1.168.299 1.815.37l-.573 7.225-.74-.114c-.306-.081-.353-.147-.357-.52-.026-.527-.135-5.585-.145-6.961zm7.457.113l-.841 3.258c-.134.367-.26.737-.375 1.111-.188.613-.649 2.3-.772 2.926-.033.164-.51.213-.78.225a1.79 1.79 0 0 1-.174.002c.04-.361.106-1.107.166-1.458.104-.6.224-1.199.352-1.795.087-.41.636-3.066.948-4.06.567-.06 1.063-.135 1.476-.21zm-1.828.243c-.026.162-.052.344-.078.504 0 0-.432 2.157-.499 2.414-.079.301-.756 4.058-.814 4.366-.033.17-.877.123-1.118.095-.137-.116.156-1.833.223-2.62.047-.244.6-3.875.722-4.673a23.07 23.07 0 0 0 1.564-.086zm-3.508.042c.064.005.127.01.192.013.542.03 1.06.04 1.552.033l-.483 2.932c-.137.69-.234 1.387-.342 2.082-.046.293-.085.588-.11.883-.028.311-.15 1.418-.192 1.42-.107.023-1.049-.017-1.13-.097-.08-.08.456-6.732.456-6.732.012-.08.024-.32.057-.534z" fill="#1a1a1a" />
</svg>