<svg xmlns="http://www.w3.org/2000/svg" width="100" height="100" viewBox="0 0 26.458 26.458">
    <path d="M13.476 0c.104.066-.488.09-.394.14.423-.027.196-.073.582-.067zm-.273.008a2.653 2.653 0 0 0-.212.01c.065-.002.135-.003.212-.01zm-.59.006c-.121-.001-.245.004-.39.031a7.12 7.12 0 0 0-.942.201c.368-.104.57-.088.868-.086-.252.018-.286.078-.503.076l.067-.026-.266.075c-.05-.054-.747.112-.347-.03-.366.084-.118.072-.446.162.22-.042.44-.078.661-.109V.37c-.233.082-.298.05-.56.108l.036.06c-.158.017-.317.032-.475.054.067.027-.29.101-.384.14-.26.048-.128-.1-.537.092L9.43.82a7.454 7.454 0 0 1-.72.282c.013-.018.104-.064.15-.086-.497.147-1.195.593-1.443.622.012-.066.217-.138.2-.197.374-.141.491-.217.624-.308.134-.087.282-.192.732-.334.082.105.728-.334.941-.249-.361.082-.796.32-.729.313a7.346 7.346 0 0 1 1-.302c-.211.01-.168-.078-.032-.161-.524.167-1.506.4-2.223.73l.114.038c-.585.34.04-.107-.437.118l-.181.16-.033.01c-.104.08-.204.164-.305.246.238-.132.098-.127.38-.235.248-.1.017.058-.028.133-.173.06-.723.397-.405.151-.192.141-.38.285-.563.435-.012-.028.11-.122.164-.172-.143.092-.282.19-.42.288l.008-.02c-.323.256-.779.604-.982.849.574-.393-.214.26-.134.26-.189.158-.347.101.023-.288.138-.058.387-.332.602-.497-.296.187-.358.285-.566.461.125-.152-.309.196-.322.173.012-.042.052-.172.345-.374.415-.325.089.024.203-.083.154-.028.575-.454.857-.61.031-.012-.05.053-.09.086.223-.16.714-.46.726-.523-.192.125-.38.258-.564.394-.134.067.153-.156-.044-.065a5.745 5.745 0 0 1-.45.316l.018-.041c-.367.206-.874.626-1.215.968-.001.16-.136.38-.195.616a16.699 16.699 0 0 0-1.44 1.638c.027.005.043.025.04.066-.149.153-.344.49-.388.448-.078.221-.362.796-.248.72l-.038.075c-.186.202-.433.533-.738 1.199-.056.132-.027.166.037.157a3.525 3.525 0 0 0-.197.4c.017-.113.009-.195.088-.396-.15.348-.286.704-.406 1.064v-.092c-.03.147-.065.293-.091.44.051-.248.191-.615.218-.505-.114.495-.248.757-.27 1.193-.105-.027-.155.113-.183-.042a.21.21 0 0 1 .017-.048c-.024-.172.004-.526.065-.793-.15.457-.185.633-.221.793l-.152.72c-.08.061.08-.78.003-.594.068-.258.14-.515.222-.768-.033.132-.024.152-.03.217.1-.543.22-.714.287-1.128.114-.237-.09.4.014.133a1.71 1.71 0 0 0-.058.606c.211-.584.027-.362.181-.872l.196-.35c.083-.225-.062.06-.082.067.095-.277.177-.363.268-.564-.04.053-.115.183-.121.139.19-.316.323-.655.563-.911-.13.152.01-.25.08-.392-.143.189-.281.38-.413.578-.374.814-.628 1.32-.873 2.258L.75 9.316c-.267.718-.28 1.047-.285 1.338.005.295.02.56-.046 1.2-.093.028-.037.597-.114.543.03-.39-.004-.314-.053-.205.013.23.065.38.025.818-.041-.163-.083.224-.092-.21-.031.6-.002.93.09 1.228.16.96-.082.301.091 1.255l-.052-.135c.032.198.072.395.114.592l.005-.202c.058.23.124.459.195.685.147.412.01-.185.058-.138l-.092-.129c-.047-.282-.17-.67-.132-.737.087.459.116.34.176.517-.039-.143-.07-.288-.105-.432l.024-.15C.492 14.72.47 14.384.4 14.126c-.011.184.07.292.051.456-.102-.205-.158-.752-.188-1.285.018-.014.023-.184.039-.112.007.01.006.104.004.156-.003.003-.005.004-.008.012.005.04.007.02.008-.012.036-.037.058.252.077-.244.052.18.155.546.173.532.026.286.06.686.068.916l-.013-.017c.015.25.15.762.104.812.039.148.133.557.086.131.052.23.112.457.176.682-.124-.092.013.565-.23-.103.008.023.073.275.204.67l-.015-.015a.15.15 0 0 0-.033-.048c-.02-.082-.035-.132-.021-.15-.13-.224-.062.139.047.515l.082.072c.071.329.09.538.276.947a13.404 13.404 0 0 1-.301-.486l-.09-.106c.09.209.187.414.289.617-.06-.074.07.228-.012.107.021.047.128.266.114.2l-.056-.128c.216.297.152.091.455.597-.114-.348-.213-.476-.322-.64-.03-.058-.052-.109-.076-.158.195.299.398.59.615.867l.15.265c.032.136.279.521.133.397 0 .054-.086-.075-.171-.257-.009-.03.019.012.01-.02-.057-.033-.107-.035-.022.198-.115-.223-.12-.257-.223-.4l.11.229c-.192-.323-.5-.817-.54-.791.11.077.148.326.23.516-.084-.134-.258-.422-.157-.186.061.073.411.673.212.222.11.18.27.41.37.623-.165-.225-.097-.055-.175-.1.155.198.196.163.235.187.308.634.369.948.89 1.56.07.078-.31-.375-.226-.342.41.42.397.655.756 1.019l-.036-.158c.112.11.377.385.514.513.012.055.36.47.058.206.292.325.467.422.65.528.185.104.38.217.762.53l-.661-.563c.317.218.066.012.133 0 .136.192.746.615.312.35.233.199.726.563.862.615l-.204-.175c.358.258.751.449.933.49-.463-.279-.507-.181-1.067-.593-.568-.494.174.065-.171-.293-.153-.092-.302-.19-.451-.289l.19.165c-.116.013-.625-.54-.634-.429-.351-.42-.497-.504-.855-.986-.119-.083.028.079.14.206-.203-.224-.284-.175-.501-.513-.119-.164-.094-.004.144.264-.2-.23-.398-.448-.596-.723.053.105.112.206.168.31-.074-.095-.151-.187-.223-.283l.16.26c-.441-.529-.863-1.202-.977-1.553.345.483.903 1.292 1.2 1.488-.059-.117-.346-.325-.378-.514l-.15-.113c-.137-.155-.417-.545-.39-.61.338.453.47.54.675.742-.003 0-.007 0-.006.009l.103.086.003.002.004.005-.005-.004c.104.13.27.346.38.455.117.159.006.075-.016.066.388.562.84.778 1.333 1.284-.03.044.383.41.236.317.313.278.532.37.771.504.02.074.512.373.312.295.12.05.237.102.358.148.204.168.693.404.75.49.262.12.105-.026.447.174-.02.002.004.023-.069-.017.147.105.544.29.732.33-.25-.127-.054-.038-.352-.184.02-.023.373.093.708.265-.504-.121.348.217.111.165.765.294 1.25.322 1.922.402.777.165 1.762.296 2.386.237l-.082-.004c.124-.01.247-.022.37-.037.213 0 .003.083.335.055-.11.075-.579.02-.92.052.584.092-.547.041-.16.114.229-.114 1.257.015 1.764-.113.496-.025-.222.077.025.065l.154-.056c.197-.007.263 0 .262.03a5.664 5.664 0 0 0 1.542-.327c-.55.156.174-.104-.375.015.162-.055.515-.15.848-.244-.317.109.458-.022-.265.148.118.042.353-.102.67-.192-.153.077-.505.218-.47.216.229-.11.616-.211.965-.318.348-.105.657-.212.733-.281.31-.197.79-.482 1.142-.749.407-.168.801-.455 1.21-.728l-.056.074c.237-.148.567-.432.889-.688l.103-.02c.207-.195.594-.56.892-.872-.017-.023-.294.264-.187.104-.15.153-.28.28-.202.252-.155.149-.197.117-.341.219.196-.195.388-.392.572-.598.049-.044.069-.059.074-.058l.001-.083c.148-.155.2-.191.192-.15.295-.358.341-.528.653-.9-.088.191-.146.32-.37.583.122-.14.24-.285.354-.431-.107.24-.762.956-.594.886.4-.474.917-1.216 1.15-1.704.211-.202.372-.6.618-1 .042-.049.125-.168.108-.078.283-.521.51-1.137.639-1.633l.154-.246c.307-.897-.14.14.115-.791.138-.205.294-1.149.347-1.18.022-.18.036-.261-.002-.289-.026.16-.076.518-.089.308.034-.327.09-.477.115-.738.011.02.024.21.027.108.024-.32.056-.778.047-1.232-.008-.454-.056-.902-.136-1.198.028.227.07.25.06.555-.029-.005-.03-.165-.05-.232-.054.04.055.312.013.63-.02-.176-.05-.352-.079-.527l-.002.02a12.4 12.4 0 0 0-3.246-7.907c.322.254.528.616.822.914-.02-.008-.053-.044-.007.021.304.432.51.552.693.942l-.057-.028c.023.028.177.23.184.168-.196-.302-.246-.35-.414-.623.1.09.276.317.385.498h-.011l.02.012-.007-.01.063-.012c.194.204.25.49.43.703a9.376 9.376 0 0 0-.115-.301c.007.007.02.028.032.045a1.364 1.364 0 0 0-.173-.252c-.269-.4-.337-.65-.351-.735-.11-.2.108.026.123-.017-.215-.3-.258-.243-.482-.533-.062-.098-.006-.052.028-.013l-.19-.196c.009-.023-.375-.521-.108-.258l.145.188c-.273-.438-.845-1.128-.782-1.15-.188-.214-.154-.136-.466-.464-.186-.107-.052.08-.438-.223l.265.271-.029-.02.04.03-.003-.003c.063.047.118.083.185.136-.1-.09-.196-.182-.297-.27.202.155.185.108.272.125.453.427.501.617.696.861-.154-.119-.373-.365-.33-.235-.177-.257-.271-.21-.495-.49l.061.035c-.24-.166-.234-.232-.439-.36.021.003.002-.024-.017-.05-.411-.315.097.127-.335-.163-.352-.296-.057-.168-.139-.27.654.433.054-.096.74.41.05-.06-.192-.295-.557-.572.21.213-.217-.03.053.26-.556-.388-.596-.23-1.173-.71h.021l-.289-.118-.346-.245c.269.06.524.267.722.343-.392-.353-.63-.307-1.148-.596-.394-.317.561.24.594.18-.114-.043-.38-.24-.336-.24.476.304.328.123.839.494-.274-.142.026.047-.042.045.09.024.588.341.905.61.111.012-.256-.26-.459-.43-.442-.234-.825-.6-1.199-.721-.478-.249-.01-.069-.034-.09-.415-.253-.209-.056-.351-.115-.673-.284-.706-.41-1.19-.61-.43-.095-1.427-.44-2.157-.579.094-.008.002-.049-.037-.083-.455.026-.29.006-.844-.003.152.03.302.07.453.105-.37-.047-.673-.007-1.004-.097.438.136-.598.019-.87.06-.376-.042-.75.043-.956-.005l.05-.007c-.182.004-.363.015-.544.027l.057-.1c-.38-.004-.832.135-.699.144-.394.035-.165-.01-.229-.045.215-.067.688-.207.834-.141a.326.326 0 0 0-.135.015c1.036-.045.328-.145.847-.202-.136.003-.256-.004-.377-.005zM2.996 5.56c.06-.175.325-.57.67-.96l-.123.188c.28-.31.357-.453.458-.597-.005.022.022.004.077-.034.248-.277.346-.46.177-.355l-.073.103-.222.147c.007.143-.553.669-.767 1.035.139-.255.221-.515.521-.75l-.069-.006c.21-.25.436-.397.524-.563-.085.093-.173.184-.255.28l-.017-.025c-.185.195-.373.485-.559.652-.107.194-.197.382-.545.844l.001-.023c-.147.373-.659.876-.763 1.163.001.197.356-.529.505-.666-.097.226-.282.417-.12.272-.25.509-.253.244-.42.688l.151-.22c-.063.205-.25.501-.3.711.052.058.153-.318.37-.653l-.037.182c.11-.241.225-.48.35-.715.052-.246-.071-.064.155-.515.134-.125.252-.193.311-.182zM14.26.188c-.462-.01-.748.087-1.273.044l.27.066c.62-.043.902-.096 1.54-.055a3.543 3.543 0 0 0-.537-.055zM13.77.28a1.084 1.084 0 0 0-.145.003c.062.013.209.035.14.048.09-.012.109-.044.005-.051zM10.75.325l-.065.03zm-.066.03l-.314.05.25-.02zm-.4.188c-.025.003-.059.01-.1.017.04-.002.085-.005.145-.015-.004-.004-.02-.004-.045-.001zm1.876.153l-.016.013c-.23.046-.303.082-.257.1-.232.03-.461.068-.688.11 0-.006-.038-.009-.108-.01-.11.037-.261.077-.403.117-.312.072-.62.155-.922.25a1.14 1.14 0 0 1 .153-.087c-.43.141-.853.306-1.264.492-.001.002 0 .002.001.004a12.36 12.36 0 0 0-1.085.524c.038-.036.037-.047.027-.065.165-.13.376-.29.658-.477l-.013.017c.211-.102.425-.198.642-.287l-.07.056c.122-.066.245-.13.37-.191.011.06.129-.018.12.03.275.011.857-.33 1.419-.403l-.077.045c.281-.129 1.033-.21 1.513-.238zm2.991.008s-.02.009-.07.007c.547.075.596.08 1.028.158l-.14.003c.068.059.424.082.768.17l-.028.001c.028.014.125.032.174.04-.047-.013-.093-.028-.14-.04.109.005.335.041.459.115l-.062.017c.05.047.387.15.757.29l-.125-.016a12.373 12.373 0 0 0-3.626-.733c.312-.01.642-.016 1.005-.013zM8.79.918l-.03.005-.278.14.031-.005zm11.593 1.09c.07.046.163.117.277.165-.003-.046-.186-.119-.277-.166zm-13.017.186c.051-.005.063.016.05.048-.187.107-.371.22-.553.336.116-.06.205-.096.292-.131-.29.172-.574.354-.847.549-.062.03-.107.047-.09.02-.17.14-.456.306-.542.39.204-.13.148-.067.048.032-.082.067-.165.132-.245.2-.01-.012.032-.07-.07.006-.13.114-.257.23-.381.35.111-.101.226-.199.34-.295l-.024.057A12.527 12.527 0 0 0 3.211 6.16a1.906 1.906 0 0 1-.446.383c.093-.164.183-.321.27-.46l.066.001c.503-.69.783-1.258 1.431-1.88-.053.123-.304.348-.254.332.377-.378.227-.427.661-.738-.54.528.361-.301-.1.2.625-.72 1.52-1.22 2.037-1.553-.151.052.189-.178.2-.196.143-.077.113-.02 0 .048.147-.068.237-.098.289-.102zM3.354 4.646l-.028.04.011-.011zm19.277.022c.054.047.132.11.171.148l-.097-.066-.074-.082zm-19.433.101a1.724 1.724 0 0 0-.105.136zm-.106.136c-.295.394-.371.464-.689.962.27-.372.353-.457.37-.414.267-.342.172-.33.32-.548zm.858.242c-.105.12-.25.174-.286.324.045-.02.207-.244.286-.324zm19.777.126l.049.079a.686.686 0 0 0-.05-.079zm-20.34.53l-.196.3.047-.043zm-1.2.391c-.023-.043-.208.312-.162.24.047-.072.116-.19.162-.24zm22.408.351c.231.35.47.759.59 1.083l-.119-.103c-.123-.372-.272-.566-.46-.897.137.251.262.508.382.767.127.383.005.144-.15-.128a.57.57 0 0 1 .062.155c.04.02.468.814.156.124.078-.006.24.426.33.608-.042-.143.072.05.078-.002-.049-.09-.112-.193-.178-.347-.002-.083.125.138.19.327-.062-.24.174.265.064-.067-.314-.675-.593-1.127-.945-1.52zm-.429.064zm.277.232c-.002.004-.002.014.003.036.079.09.213.35.225.279-.032.024-.208-.34-.228-.315zm.04.16l.091.203c.02.013.031-.01.092.106zM1.71 7.417c-.015-.008-.055.05-.137.257.038-.075.118-.18.126-.115.016-.059.027-.134.011-.142zm23.357.45c-.006 0-.01.01-.01.03.185.37.192.434.335.65.13.357.203.623.232.799.042.104.087.107.133.242l-.029-.092.089-.044c-.056-.108-.079-.22-.123-.345.1.183.196.37.288.559.04-.22-.2-.789-.254-1.03.026.313-.117-.212.015.365-.06-.09-.122-.18-.186-.268-.052-.167-.11-.332-.17-.498-.03.006-.202-.337-.124-.088.023.044.072.132.098.209-.067-.028-.25-.487-.294-.488zM2.091 8.06c.046-.006.058.02.005.11l.012-.018c-.09.202-.173.408-.251.615-.033.05-.07.118-.111.21.04-.16.085-.319.132-.477l-.02.045c.057-.16.115-.317.177-.47a.267.267 0 0 1 .056-.015zm-.337.98a12.4 12.4 0 0 0-.172.531c-.011-.061.079-.317.172-.531zm24.006.564c.015.044.03.1.045.178.053.174.057.335.025.273.128.348.08.367.172.396.089.225.08.484-.004.226.06.22.115.441.165.665-.017-.135-.031-.272-.052-.407.093.098.079.65.172.77a14.035 14.035 0 0 0-.113-.737l.03.034a4.834 4.834 0 0 1-.122-.604c.015.016.031 0 .06.13-.196-.882-.165-.213-.378-.924zM.221 12.237l-.024.285c.015-.081.061.07.04-.055zm.686.266c.003-.004.077.408.148.775.001.106.007.213.011.32l-.005.007c-.04.097-.088.542-.093 1.072a12.482 12.482 0 0 1-.05-1.794l-.035.075c.016-.193-.023-.35.024-.455zm-.58 1.194c.009.136.015.271.028.407l.005-.034c-.015-.124-.022-.25-.034-.373zm.145 2.127v.067l.093.3v-.067zm25.813.249a.803.803 0 0 0-.064.17zM2.037 18.005l.029.07v.002zm.225.538l.017.03c.05.104.073.161.084.192zm22.89.652zm-.461.834l-.055.093.055-.093zm-.055.093zm-.312.489zm-21.73-1.378c.092.134.183.274.282.444-.031-.072-.075-.151-.116-.23.212.364.443.715.69 1.053a2.846 2.846 0 0 1-.37-.477c.013.027.134.228.324.508l-.084-.078a12.387 12.387 0 0 1-.726-1.22zm.5 1.672c.012-.002.043.03.086.083zm20.678.37c0-.001-.002 0-.007.007l.001.01a.054.054 0 0 0 .006-.016zm-.006.017c-.031.061-.175.288-.262.35l.042-.107c-.085.14-.17.283-.26.422.17-.19.331-.387.49-.586zm-.513.595c-.04-.025-.319.32-.386.397l.066.122c.257-.302.19-.334.021-.198.225-.284.185-.09.299-.321zm-.562.112c-.015.034-.101.137-.002.038zm-.04.676c-.062.057-.155.132-.224.207.015.026.156-.127.224-.207zm-.785.672l-.317.24c.094-.068.196-.143.317-.24zm-.317.24l-.258.172.012.002zm-.246.174c-.113.076-.225.156-.34.229.062.013.135.027.446-.217zm-.34.228c-.028-.006-.055-.013-.099 0l-.13.145zm-.23.145l-.232.142.154-.058zm-15.326-.42c.206.158.417.31.632.456.01-.021.09 0 .088-.026-.176-.117-.35-.237-.52-.362.156.153-.157-.061-.2-.068zm.632.456c-.007.016.023.056.164.162a.93.93 0 0 1 .194.072zm.358.233l.041.027c-.007.005-.002.018.021.048.306.166.508.346.706.453-.145-.197.685.334.962.407l.302.117.112.047c.018.02-.02.021-.199-.03.15.044.628.234.597.182.367.134.74.253 1.118.354.034.014.068.028.092.043.041.004.05 0 .046-.007 1.65.424 3.383.523 5.068.295-.25.024-.47.023-.728.031.38-.101-.424.018-.315-.062.172-.033.425-.044.577-.044.053-.04-.164-.049-.143-.093-.632.003-.722.173-1.348.146.026-.043.218-.073-.188-.077l.103-.006c-.652.024-.498-.114-.914-.032l.016-.058c-.297.022-.867-.054-1.186-.109l.021-.009c-.452-.05-.576-.081-.714-.113l-.78-.207c.156.025.314.043.47.063-.33-.121-.427-.073-.666-.157.022-.006-.02-.063.21-.005a12.92 12.92 0 0 1-1.198-.319c-.29-.072.039.064.072.106-.117-.003-.604-.24-.612-.29.072.019.344.121.187.026-.143-.028-.284-.062-.426-.094-.48-.307.439.083.71.148-.518-.239-.699-.257-1.237-.547.155.093.243.17.319.23-.013.073-.508-.22-.858-.433.209.16.067.104-.11.027a.383.383 0 0 0-.068-.031zm.58.12l.197.115a3.386 3.386 0 0 0-.197-.115zm12.944.06c-.499.29-1.296.594-1.311.683.013-.018.04-.053-.071-.017l-.284.187.304-.098c-.28.205-1.323.537-1.527.535.586-.198.267-.175 1.09-.417-.044-.006-.203.012-.027-.065-.931.368-1.81.555-2.825.766.82-.047-.523.13-.26.176.147-.029.294-.054.44-.087l-.034.029c.18-.029.36-.06.54-.097-.118-.019-.201-.006-.184-.052.717-.12.234.01.769-.052.265-.063.527-.138.788-.217l-.06.03a.384.384 0 0 0 .115-.047 13.188 13.188 0 0 0 2.522-1.094c.42-.271-.277.068.015-.163zm-1.804.153a.904.904 0 0 1-.165.083c-.057.007-.064.012-.095.018l.26-.1zm-.384.145c-.002.028.016.067-.354.158l.1-.069c.086-.028.17-.059.254-.09zm-2.115 1.406c-.118.018-.236.039-.355.052.11-.009.226-.027.355-.052z" />
</svg>