<svg xmlns="http://www.w3.org/2000/svg" width="93" height="70" viewBox="0 0 24.606 18.521">
    <path d="M9.55.817c-.124-.004-.25 0-.381.013-.264.026-.334.337-.163.512.573.59 1.06 1.417 1.404 2.159.393.845.48 1.724 1.441 2.042.352.116.713-.163.876-.447.534-.926-.451-2.42-1.05-3.13C11.088 1.27 10.41.846 9.549.818zM7.717 2.735c-.068-.002-.137 0-.205.006-.17.014-.242.285-.065.35.225.083.35.243.411.432-.349-.205-.85-.172-1.143.161-.3.342-.395.777-.722 1.11-.273.28-.653.452-.899.758a.406.406 0 0 0 .045.56c.51.432 1.32.237 1.85-.06.193-.11.38-.25.552-.409.013.047.027.093.048.141.4.93 1.847.42 1.48-.545-.068-.179.13-.615.132-.84.002-.354-.082-.734-.28-1.03-.277-.412-.728-.62-1.204-.634zm13.87 2.148c-.24-.029-.389.257-.203.429.062.057.118.12.172.187-.542.075-1.105.291-1.589.415-.975.249-1.952.592-2.942.766-.252.045-.35.284-.306.478-.29.039-.582.08-.873.121-1.979.283-3.907.693-5.866 1.07-.343.066-.32.588.045.559 3.703-.297 7.429-.436 11.14-.666-.015.89.187 1.86.244 2.652.083 1.152.167 2.303.257 3.453-1.946.434-3.902.796-5.863 1.153-1.018.187-2.043.333-3.062.51-.932.16-2.015.216-2.826.732-.089.056-.117.164-.094.26a8.494 8.494 0 0 0-1.485.432c-.36.145-.275.604.057.71 1.97.628 4.21.315 6.242.166a72.985 72.985 0 0 0 6.416-.756c1.496-.244 3.404-.238 3.356-2.2a55.521 55.521 0 0 0-.123-2.474.735.735 0 0 0 .202-.33c.252-.83.047-1.758-.09-2.596-.078-.474-.666-2.72-.77-3.188-.363-.945-.939-1.751-2.038-1.883zm2.268 2.584l.017.06c-.005-.02-.01-.04-.017-.06zM6.307 8.826c-.925.04-2.099.449-2.496 1.28-.008.016-.011.033-.017.05-.128-.074-.256-.15-.382-.226-.346-.21-2.04-1.52-2.365-.79-.507 1.139 1.275 2.6 2.077 3.096 1.172.724 3.334 1.416 4.4.225.402-.45.236-1.237-.312-1.484-.644-.29-1.261-.087-1.934-.213a3.189 3.189 0 0 1-.246-.056c.092-.009.183-.017.275-.02.43-.016.846.056 1.276.06 1.071.013 1.183-1.833.102-1.916a3.258 3.258 0 0 0-.378-.006zm6.339 3.876a.984.984 0 0 0-.391.113c-.254.134-.35.35-.545.54-.205.201-.487.329-.751.43-.41.156-1.03.2-1.314.577l-.013.02a.355.355 0 0 0-.02.414c.38.634 1.691.492 2.27.326.757-.215 1.66-.86 1.575-1.737-.047-.477-.417-.709-.811-.683z" opacity=".6" fill="#fff" />
    <path d="M6.236.002C5.892.01 5.545.052 5.2.128A6.513 6.513 0 0 0 1.62 2.274c.034-.087.066-.174.102-.26l-.15.317a6.173 6.173 0 0 0-.603.873C.08 4.764-.09 6.606.488 8.393c.85 2.635 3.417 4.273 6.113 4.052.245-.02.492-.061.739-.113.034.274.066.554.1.826.171 1.37.349 2.787.493 4.19a.273.273 0 0 0 .188.228.282.282 0 0 0 .099.011l.014-.001c5.4-.75 9.118-1.04 12.107-1.275a175.6 175.6 0 0 0 3.418-.288.269.269 0 0 0 .239-.302c-.09-.723-.187-1.463-.29-2.222-.31-2.278-.68-4.73-1.12-7.434-.163-.995-1.067-2.004-2.156-1.922-2.599.198-5.228.523-7.77.839-.186.023-.38.045-.567.069a6.775 6.775 0 0 0-.28-1.185l-.03-.093c-.82-2.32-3.136-3.835-5.549-3.77zm.018.536C8.44.48 10.54 1.852 11.283 3.953l.028.083c.116.348.2.704.255 1.078-.733.09-1.466.183-2.199.268-1.327.153-2.633 1.15-2.52 2.556l.002.023c.01.114.023.228.034.342-.003.023-.009.045-.006.068.003.02.011.036.018.054.11 1.13.242 2.256.379 3.372a5.423 5.423 0 0 1-3.74-.524 5.316 5.316 0 0 1-2.54-3.047c-.53-1.64-.375-3.328.436-4.754.81-1.428 2.227-2.455 3.885-2.82.312-.068.626-.106.939-.114zM6.14 2.366a1.79 1.79 0 0 0-.243.008 1.89 1.89 0 0 0-1.282.713 2.2 2.2 0 0 0-.32.549 2.19 2.19 0 0 0-.15.614v.001a2.134 2.134 0 0 0 .036.633c.074.341.235.636.448.876a2.1 2.1 0 0 0 .616.472c-1.206.561-1.89 2.019-1.79 3.275.005.058.008.122.011.187l.013.225c.052.636.255.805.905.752.305-.025.596-.109.879-.19.314-.091.607-.177.904-.178a.266.266 0 0 0 .266-.27.267.267 0 0 0-.267-.268c-.365 0-.717.102-1.05.199-.27.077-.522.15-.775.171-.18.015-.257.01-.289.004a1.016 1.016 0 0 1-.04-.263c-.006-.07-.01-.14-.013-.21a6.118 6.118 0 0 0-.013-.202c-.096-1.204.7-2.695 2-2.908a.264.264 0 0 0 .167-.102c.04 0 .08 0 .118-.003h.01c.128-.011.254-.036.376-.074.246-.075.48-.203.688-.375a2.134 2.134 0 0 0 .616-.834c.08-.195.131-.4.15-.61v-.001a2.15 2.15 0 0 0-.005-.426c-.056-.52-.284-.943-.701-1.293a2.114 2.114 0 0 0-1.02-.446 1.85 1.85 0 0 0-.245-.026zm-4.882.068l-.022.026zm4.875.47c.054.002.108.008.162.018.313.053.572.163.77.329.308.26.47.557.512.938.047.427-.079.846-.353 1.179-.26.314-.635.517-.992.547-.59.044-1.458-.382-1.555-1.3a1.636 1.636 0 0 1 .353-1.19c.24-.297.567-.48.92-.516.007 0 .015 0 .022-.002.054-.004.107-.005.161-.003zm-5.704.9c-.04.055-.207.455-.157.444.062-.162.113-.29.157-.443zm20.176.873c.668.035 1.329.69 1.457 1.475l.01.063-7.726.958-6.953.863-.014-.143c-.087-1.08.973-1.853 2.05-1.977.818-.095 1.638-.197 2.453-.298.005 0 .01.002.014.001.005 0 .008-.003.013-.004.271-.034.55-.066.817-.1 2.371-.294 4.823-.598 7.24-.797l.506-.04c.044-.002.089-.003.133-.001zm-20.59.426c-.007.04-.012.08-.015.121.008-.052.012-.088.015-.121zm12.172 1.142h-.013a.317.317 0 0 0-.302.352.353.353 0 0 0 .373.33v.001a.301.301 0 0 0 .12-.036c.128-.032.241-.145.226-.34-.003-.035-.038-.337-.404-.307zm-1.382.112a.39.39 0 0 0-.143.008.312.312 0 0 0-.272.226.314.314 0 0 0-.03.155c.018.21.23.334.419.318a.312.312 0 0 0 .119-.033.37.37 0 0 0 .183-.452.33.33 0 0 0-.276-.222zm-1.607.267a.562.562 0 0 0-.1.02.339.339 0 0 0-.25.358.353.353 0 0 0 .019.09c.046.142.189.277.37.262a.318.318 0 0 0 .144-.047c.192-.116.222-.266.214-.37-.013-.166-.143-.334-.397-.313zm12.958.121a255.8 255.8 0 0 1 1.278 8.769c-.99.094-2.035.176-3.134.262-2.945.23-6.598.516-11.866 1.24a205.202 205.202 0 0 0-.465-3.925 179.69 179.69 0 0 1-.523-4.52l4.926-.611zm-2.164 2.172c-.349.006-.71.024-1.103.056-.769.064-1.544.171-2.293.274-.408.055-.814.112-1.221.162a.27.27 0 0 0-.233.299.267.267 0 0 0 .297.234c.408-.05.818-.105 1.23-.163.742-.102 1.51-.207 2.263-.27A14.385 14.385 0 0 1 20 9.455a.268.268 0 0 0 .262-.273.267.267 0 0 0-.27-.264zm-7.459.607c-.49.049-.985.11-1.462.17a44.18 44.18 0 0 1-1.873.207l-.09.007a.288.288 0 0 0-.185.096.273.273 0 0 0-.06.202c.075.677.132 1.343.172 1.847l.068.869.068.87c.032.402.066.801.105 1.201a.265.265 0 0 0 .279.242c.25-.01.52-.03.827-.055.272-.022.545-.047.817-.072.27-.026.54-.051.812-.073.201-.017.305-.023.406-.03l.355-.027.475-.04a.269.269 0 0 0 .24-.311c-.257-1.61-.46-3.222-.663-4.869a.271.271 0 0 0-.29-.234zm-.206.562c.18 1.464.364 2.902.589 4.34l-.188.017-.347.026c-.102.007-.208.014-.414.031-.272.022-.544.047-.817.073-.47.044-.96.087-1.368.112a76.613 76.613 0 0 1-.08-.935l-.067-.87c-.022-.29-.046-.58-.07-.87a66.746 66.746 0 0 0-.143-1.589 48.087 48.087 0 0 0 1.714-.194c.39-.048.792-.098 1.191-.14zm7.706.158a.263.263 0 0 0-.102.024c-.201.093-1.135.185-1.958.267-.814.081-1.656.166-2.28.28a.268.268 0 0 0 .068.531l.026-.003c.603-.11 1.472-.196 2.238-.272 1.144-.114 1.859-.19 2.128-.314a.27.27 0 0 0 .131-.357.266.266 0 0 0-.25-.156zm.216 1.445a59.957 59.957 0 0 1-3.327.36c-.344.029-.69.054-1.039.078a.268.268 0 0 0 .04.536c.348-.024.695-.05 1.041-.078a61.74 61.74 0 0 0 3.357-.363.269.269 0 0 0-.072-.533zm.068 1.314c-.472.039-1.011.115-1.487.182-.372.051-.694.096-.911.114-.156.012-.31.017-.473.022a9.76 9.76 0 0 0-.496.024c-.196.016-.67.083-.829.115a.269.269 0 0 0 .072.53l.03-.002c.143-.028.597-.093.77-.107a9.48 9.48 0 0 1 .47-.022c.162-.005.33-.01.499-.024.233-.02.56-.065.942-.119.468-.066 1-.14 1.457-.177a.269.269 0 0 0 .243-.29.267.267 0 0 0-.287-.246z" fill="#1a1a1a" />
</svg>