<svg xmlns="http://www.w3.org/2000/svg" width="175" height="175" viewBox="0 0 46.302 46.302">
    <path d="M23.012 0l-.984 2.07a1.122 1.122 0 0 1-1.912.188L18.744.42l-.585 2.216a1.122 1.122 0 0 1-1.844.535l-1.688-1.558-.167 2.286a1.12 1.12 0 0 1-1.714.864L10.8 3.539l.258 2.278A1.12 1.12 0 0 1 9.53 6.979l-2.137-.844.672 2.19A1.118 1.118 0 0 1 6.78 9.749L4.524 9.31l1.065 2.03a1.116 1.116 0 0 1-1.002 1.633l-2.3-.018 1.423 1.8a1.116 1.116 0 0 1-.684 1.79l-2.263.403 1.73 1.51a1.115 1.115 0 0 1-.342 1.883L0 21.151l1.979 1.168c.727.43.734 1.477.011 1.914L.025 25.424l2.16.786c.795.289.995 1.317.366 1.88L.839 29.618l2.268.376c.834.14 1.22 1.112.705 1.781l-1.4 1.818 2.298-.046a1.117 1.117 0 0 1 1.022 1.622L4.69 37.213l2.253-.466a1.117 1.117 0 0 1 1.302 1.407l-.647 2.2 2.128-.87a1.12 1.12 0 0 1 1.54 1.143l-.23 2.28 1.93-1.244a1.121 1.121 0 0 1 1.726.843l.194 2.283 1.668-1.578a1.123 1.123 0 0 1 1.852.514l.611 2.209 1.35-1.856a1.122 1.122 0 0 1 1.914.165l1.009 2.06.984-2.072a1.122 1.122 0 0 1 1.911-.188l1.372 1.84.585-2.216a1.122 1.122 0 0 1 1.845-.535l1.688 1.556.166-2.285c.062-.84 1-1.312 1.715-.863l1.946 1.222-.258-2.277a1.12 1.12 0 0 1 1.526-1.163l2.138.844-.673-2.19a1.117 1.117 0 0 1 1.286-1.422l2.257.438-1.066-2.03a1.117 1.117 0 0 1 1.002-1.634l2.3.018-1.422-1.8a1.116 1.116 0 0 1 .683-1.79l2.264-.403-1.73-1.51a1.114 1.114 0 0 1 .342-1.883l2.151-.81-1.98-1.168a1.114 1.114 0 0 1-.01-1.914l1.964-1.191-2.16-.785a1.115 1.115 0 0 1-.365-1.88l1.712-1.53-2.268-.377a1.115 1.115 0 0 1-.705-1.78l1.4-1.817-2.299.045a1.117 1.117 0 0 1-1.021-1.622l1.041-2.043-2.252.466a1.118 1.118 0 0 1-1.303-1.407l.647-2.199-2.127.87a1.12 1.12 0 0 1-1.54-1.144l.23-2.28-1.932 1.245a1.12 1.12 0 0 1-1.724-.843l-.194-2.284-1.669 1.578c-.613.58-1.626.299-1.851-.514L27.284.368l-1.35 1.855a1.122 1.122 0 0 1-1.913-.165zm.156 7.148c2.545 0 5.077.613 7.336 1.773l-1.71 1.99a13.396 13.396 0 0 0-5.631-1.23c-.35 0-.705.015-1.055.041-6.061.468-11.072 4.924-12.226 10.857l-2.618.202C8.356 13.47 14.49 7.769 21.91 7.197c.418-.033.84-.049 1.257-.049zm13.269 7.008a15.945 15.945 0 0 1 2.727 7.76 15.905 15.905 0 0 1-1.731 8.56l-1.998-1.704a13.42 13.42 0 0 0 1.194-6.66 13.27 13.27 0 0 0-1.92-5.945zM10.715 28.433a13.473 13.473 0 0 0 12.425 8.186 13.586 13.586 0 0 0 7.02-1.953l2.018 1.722a16.082 16.082 0 0 1-9.047 2.765c-6.734 0-12.77-4.219-15.072-10.515z" />
</svg>