<svg xmlns="http://www.w3.org/2000/svg" width="62" height="81" viewBox="0 0 16.404 21.431">
    <path d="M3.074.002c-.262-.028-.53.24-.595.596-.078.414-.158.803-.24 1.178 5.474 1.109 9.173 1.398 14.107 1.507 0-.383.005-.78.017-1.198.012-.363-.193-.68-.455-.709-4.719-.09-7.913-.351-12.834-1.374zm6.284 1.335a.604.604 0 1 1-.007 1.201.605.605 0 0 1 .007-1.201zM2.006 2.79c-.142.598-.285 1.167-.422 1.738.715.057 2.347.028 3.598-1.15-1-.165-2.053-.36-3.176-.588zm4.209.751C4.619 5.493 2.25 5.466 1.388 5.38a26.105 26.105 0 0 0-.48 2.914C.527 11.915.276 14.975 0 18.401a13.286 13.28 0 0 0 5.622 2.73l2.065-8.034.996-9.232c-.803-.09-1.62-.197-2.468-.324zm3.507.432L8.639 14.006l.274 7.425a13.286 13.28 0 0 0 6.127-1.746c.435-3.183.861-6.397 1.217-9.748.116-1.092.148-2.04.147-2.95-.866-.099-3.185-.578-4.324-2.83a70.36 70.36 0 0 1-2.358-.184zm3.397.24c.969 1.427 2.56 1.804 3.277 1.9-.012-.587-.029-1.175-.04-1.79-1.13-.025-2.2-.059-3.237-.11z" />
</svg>