<svg xmlns="http://www.w3.org/2000/svg" width="90" height="84" viewBox="0 0 23.813 22.225">
    <path d="M11.806 0c-1.223 0-2.372.797-3.235 1.527L3.087 6.16c-.297.251-.46.585-.46.94s.163.689.46.94c.297.251.693.39 1.113.39.42 0 .815-.139 1.112-.39l5.483-4.633c.27-.227.629-.353 1.011-.353.382 0 .742.125 1.01.352L18.3 8.04c.297.251.692.39 1.113.39.42 0 .815-.139 1.112-.39.297-.251.46-.585.46-.94s-.163-.689-.46-.94l-5.484-4.633C14.18.797 13.03 0 11.806 0zM8.213 7.725a2.448 2.448 0 0 0-2.453 2.442 2.448 2.448 0 0 0 2.453 2.442 2.447 2.447 0 0 0 2.451-2.442 2.447 2.447 0 0 0-2.451-2.442zm7.442.774a2.31 2.31 0 0 0-2.314 2.306 2.31 2.31 0 0 0 2.314 2.304 2.31 2.31 0 0 0 2.315-2.304 2.31 2.31 0 0 0-2.315-2.306zm-14.58.03a1.094 1.094 0 0 0-1 1.499c.063.158 1.407 3.484 5.348 4.85v5.505s1.619 1.842 5.579 1.842v-5.082c1.358 1.323 1.663 3.025 1.733 3.68l.052 1.27s1.268-.098 2.232-.36l-.057-.91c-.199-2.453-1.496-6.529-6.75-7.502-2.634-.488-5.023-1.89-6.072-4.097-.164-.345-.558-.705-1.065-.695zm21.603.734c-.307.025-.66.182-.886.65-1.004 2.079-3.245 3.408-5.733 3.87-1.024.19-1.886.5-2.616.894 2.152 1.957 2.782 5.355 2.886 6.837 0 0 1.568-.414 2.364-1.438v-4.823c3.719-1.292 4.99-4.43 5.048-4.58a1.037 1.037 0 0 0-1.063-1.41z" />
</svg>