<svg xmlns="http://www.w3.org/2000/svg" width="69" height="62" viewBox="0 0 18.256 16.404">
    <path d="M15.43 0a2.661 2.661 0 0 0-1.065.195 3.64 3.64 0 0 0-3.069.49C8.1 2.927 4.529 4.121 3.211 4.524c-.79-.159-3.757.393-3.123 4.206.495 2.981 3.17 6.285 5.99 7.335 1.869.695 4.547.554 4.753-2.716 1.14-1.345 3.09-3.496 5.463-5.502 1.348-1.14 1.853-2.522 1.559-3.93.358-.603.412-2.014-.303-2.852C16.884.284 16.107.015 15.43.001zm-.844 1.049l.407.569-1.38 1.01.347.485c.039-.033.089-.072.15-.118.062-.05.116-.091.164-.126.162-.118.318-.208.467-.269.15-.062.292-.1.424-.111a.95.95 0 0 1 .49.087c.153.07.295.197.426.38.11.154.184.32.221.495.038.173.036.347-.006.522-.049.19-.134.367-.257.532a2.305 2.305 0 0 1-.487.465c-.237.172-.45.298-.641.38-.188.083-.35.14-.485.169l.084.117-2.313 1.69-.352-.491c.085-.259.163-.525.235-.8.075-.275.128-.504.159-.688.048-.272.064-.49.049-.656a.84.84 0 0 0-.146-.417.472.472 0 0 0-.355-.219c-.14-.012-.29.041-.452.16-.122.088-.231.207-.33.356a2.22 2.22 0 0 0-.233.466l-.063.046-.474-.662c.064-.11.173-.251.325-.425.154-.176.323-.33.506-.464.37-.27.707-.397 1.013-.382.306.014.562.165.767.451.134.188.215.4.243.639.028.236.011.514-.051.834-.04.2-.086.391-.14.575-.055.182-.095.31-.12.385l1.324-.967-.147-.206.083-.06c.171-.017.344-.05.517-.104a1.561 1.561 0 0 0 .714-.455.61.61 0 0 0 .155-.275.593.593 0 0 0 .011-.2.519.519 0 0 0-.106-.224.392.392 0 0 0-.175-.143.442.442 0 0 0-.206-.035.798.798 0 0 0-.318.102 2.233 2.233 0 0 0-.608.46 6.515 6.515 0 0 0-.242.268l-.088.064-1.202-1.68 2.096-1.53zM8.882 4.95l.33.462c.126-.084.28-.17.463-.259.185-.09.338-.15.46-.18l.412.575-.088.064a1.783 1.783 0 0 0-.423.103c-.15.054-.3.129-.447.223l.364.507.18-.083c.34-.16.624-.23.85-.213.226.016.415.13.568.344.16.225.205.486.134.785-.072.298-.256.57-.55.818l.52.726-.345.251-.511-.713a3.803 3.803 0 0 1-.551.32 2.294 2.294 0 0 1-.548.203l-.418-.584.089-.065c.17-.022.346-.07.532-.145.187-.076.362-.165.526-.266l-.391-.548-.224.097a3.58 3.58 0 0 1-.406.147c-.129.037-.252.051-.37.044a.765.765 0 0 1-.334-.1.986.986 0 0 1-.3-.289c-.142-.198-.174-.433-.095-.706.078-.272.265-.54.562-.8l-.333-.466.344-.252zm-5.868.611c.455 0 .962.103 1.49.3 2.465.919 4.776 3.809 5.235 6.41.404 2.284-.869 3.78-3.301 2.823-2.496-.983-4.878-3.88-5.336-6.531-.358-2.073.546-3 1.912-3.002zm6.262.605a.715.715 0 0 0-.186.24c-.042.087-.038.166.011.235a.211.211 0 0 0 .172.097c.07.002.181-.034.335-.108l-.332-.464zm1.452.833a.772.772 0 0 0-.332.082l.354.495a.707.707 0 0 0 .17-.239.241.241 0 0 0-.032-.242.216.216 0 0 0-.16-.096zm-4.868.873L4.328 9.27c-.482.383-.396 1.306.192 2.062.588.756 1.456 1.059 1.938.676l1.69-1.16A8.833 8.833 0 0 0 5.86 7.871zm11.864.153l-3.613 3.427c.2 1.899-.057 3.164-.057 3.164.03.176.11.288.219.329 0 0 1.438.547 1.96.737.125.047.267.048.423-.082l1.2-1c.274-.229.447-.698.389-1.051l-.521-5.524z" />
</svg>