<svg xmlns="http://www.w3.org/2000/svg" width="69" height="85" viewBox="0 0 18.256 22.49"><path d="M9.166 0C7.777 0 6.652 1.111 6.652 2.485c0 1.37 1.125 2.481 2.514 2.481 1.389 0 2.514-1.111 2.514-2.481C11.68 1.11 10.555 0 9.166 0zM4.315 3.834c-1.389 0-2.514 1.111-2.514 2.484C1.8 7.689 2.926 8.8 4.315 8.8c1.388 0 2.514-1.11 2.514-2.482 0-1.373-1.126-2.484-2.514-2.484zm9.645 0c-1.39 0-2.514 1.111-2.514 2.484 0 1.371 1.125 2.482 2.514 2.482 1.388 0 2.513-1.11 2.513-2.482 0-1.373-1.125-2.484-2.513-2.484zM9.166 5.617c-.501 0-.98.041-1.427.123.032.188.053.38.053.578 0 .993-.432 1.887-1.117 2.515 1.076.339 1.883.934 2.368 1.747h.188c.485-.813 1.291-1.408 2.369-1.747a3.403 3.403 0 0 1-1.117-2.515c0-.202.02-.397.055-.589a8.043 8.043 0 0 0-1.372-.112zM4.315 9.452c-2.373 0-4.297.847-4.297 3.192v.792h8.594v-.792c0-2.345-1.925-3.192-4.297-3.192zm9.645 0c-2.374 0-4.298.847-4.298 3.192v.792h8.594v-.792c0-2.345-1.924-3.192-4.296-3.192zM0 14.522c.416 2.04 1.928 3.798 4.047 4.892l-.412.919 2.24-.648-1.02-2.073-.42.937c-1.771-.927-3.044-2.363-3.45-4.027H0zm17.271 0c-.407 1.668-1.683 3.107-3.46 4.033l-.424-.943-1.018 2.073 2.238.648-.409-.913c2.125-1.094 3.641-2.854 4.058-4.898h-.985zm-8.873.022v.733c-2.229.547-2.653 3.604.696 3.987.468.053.733.198.842.298.312.28.143 1.109-.818 1.109-.395 0-.732-.2-.88-.482H6.694c.145.779.816 1.41 1.702 1.637l.002.664 1.44-.002v-.661c2-.387 2.836-3.457-.505-3.887-.677-.087-.92-.271-1.045-.382-.272-.239-.129-1.126.832-1.126.529 0 .958.36.958.8l1.497.002c-.001-.923-.732-1.702-1.737-1.958v-.732h-1.44z"/></svg>