<svg xmlns="http://www.w3.org/2000/svg" width="73" height="76" viewBox="0 0 19.315 20.108">
    <path d="M6.87.001a.556.556 0 0 0-.099.003c-.27.034-.448.273-.4.516l.423 2.398c.026.135.197.217.383.195.186-.025.33-.15.32-.286L7.291.401a.44.44 0 0 0-.42-.4zM3.603 1.458a.482.482 0 0 0-.265.103c-.214.164-.246.46-.08.646l1.582 1.855c.092.103.282.09.43-.024.148-.114.21-.294.131-.408L3.988 1.642a.427.427 0 0 0-.386-.184zm8.647.558c-.535 0-1.013.25-1.32.64a1.657 1.657 0 0 0-.84-.22c-1.142 0-1.642.98-1.673 1.556a1.607 1.607 0 0 0-1.974 1.177c.151.076.421.295.544.409.14-.21.408-.722 1.112-.75.518-.02.94.228 1.175.464V4.105c0-.448.364-.812.815-.812h.001c.521 0 .82.43.82.812v1.949c.183.008.36.039.524.098V3.685c0-.45.365-.813.816-.813h.001c.55 0 .82.469.818.813l.001 5.042c.182.068.359.143.524.23V4.585c0-.45.367-.815.819-.815.54 0 .817.477.817.814v5.449c.17-.21.35-.455.514-.749.491-.877 1.123-1.162 1.654-1.162.528 0 .957.283 1.045.54.128.376-1.24.935-2.138 3.304-.488 1.286-1.08 2.313-2.07 2.95.045.332.064.652.056.957 1.512-.766 2.265-2.148 2.82-3.605.5-1.32 1.147-1.989 1.573-2.43.352-.366.79-.819.574-1.452-.224-.65-1.006-1.12-1.86-1.12-.322 0-.806.068-1.307.385V4.585c0-.803-.642-1.672-1.678-1.672a1.7 1.7 0 0 0-.621.118c-.18-.501-.78-1.015-1.54-1.015zM1.353 4.235a.462.462 0 0 0-.413.318c-.089.256.047.52.287.586l2.346.69c.132.037.285-.078.346-.254.061-.177.012-.36-.114-.413l-2.276-.895a.412.412 0 0 0-.176-.032zM8.101 5.76a.984.984 0 0 0-.161.02c-.583.12-.802.688-.705 1.115l1.11 4.836c-.3.033-.588.116-.588.116l-1.214-5.29a.941.941 0 0 0-1.12-.7.937.937 0 0 0-.704 1.115l1.29 5.622c-.186.121-.364.25-.527.39L4.364 8.109c-.17-.656-.734-.78-1.12-.699-.607.127-.79.737-.705 1.114l1.395 6.075a6.118 6.118 0 0 1-.765-.705c-.617-.681-1.235-.919-1.76-.919-.791 0-1.369.538-1.408.91-.048.45 1.6.741 3.23 3.141 2.362 3.48 4.322 3.294 6.47 2.837 2.419-.516 4.265-2.384 3.59-5.32L11.67 7.564c-.094-.409-.544-.763-1.02-.638-.5.13-.73.619-.64 1.015l.93 4.045a4.774 4.774 0 0 0-.661-.191l-1.22-5.314a.92.92 0 0 0-.958-.72z" />
</svg>