<svg xmlns="http://www.w3.org/2000/svg" width="84" height="68" viewBox="0 0 22.225 17.992">
    <path d="M4.848 0a2.716 2.716 0 0 0-2.76 2.946A2.725 2.725 0 0 0 5.045 5.41a2.716 2.716 0 0 0 2.48-2.936A2.721 2.721 0 0 0 4.848 0zm12.72 0a2.716 2.716 0 0 0-2.76 2.946 2.724 2.724 0 0 0 2.957 2.464 2.715 2.715 0 0 0 2.48-2.936A2.72 2.72 0 0 0 17.568 0zM9.673 2.38a.262.262 0 0 0-.246.168.243.243 0 0 0 .01.193l.415.73c.05.084.145.09.207.063.069-.029.127-.108.095-.192l-.247-.808a.25.25 0 0 0-.234-.155zm3.053 0a.25.25 0 0 0-.234.154l-.247.809c-.032.084.027.162.095.191.063.027.158.02.208-.063l.416-.73a.243.243 0 0 0 .008-.193.263.263 0 0 0-.246-.168zm-1.59 1.229a2.271 2.271 0 0 0-2.272 2.256c0 .294.084.742.455 1.352.35.627.406.76.475 1.008.047.17.05.25.05.312 0 .237.07.327.216.327h2.154c.137 0 .235-.112.215-.297 0-.058.027-.234.052-.348.062-.278.206-.567.474-1.002.372-.601.45-1.032.454-1.34.01-.945-.637-2.268-2.272-2.268zm.092.737c.166 0 .324.02.471.06a.048.048 0 0 1 .036.052.05.05 0 0 1-.046.045 2.071 2.071 0 0 0-1.897 1.69.05.05 0 1 1-.098.003 1.268 1.268 0 0 1-.036-.293c0-.859.705-1.557 1.57-1.557zM7.714 4.4a.257.257 0 0 0-.24.17.249.249 0 0 0 .157.329l.819.204c.098.022.157-.032.19-.106a.16.16 0 0 0-.076-.2l-.76-.38a.25.25 0 0 0-.09-.017zm6.845 0a.243.243 0 0 0-.09.018l-.76.378a.161.161 0 0 0-.076.201c.033.074.092.128.19.106l.82-.204a.249.249 0 0 0 .147-.127.255.255 0 0 0 .01-.201.258.258 0 0 0-.24-.171zM3.31 5.948A2.953 2.953 0 0 0 .4 8.626L0 12.773s1.963 4.183 5.663 5.219l.213-3.572c-1.06-.776-1.877-1.794-2.356-3.03l.816-.305c.948 2.3 3.193 3.82 5.892 4.054.727.046 1.261-.468 1.317-1.096a1.208 1.208 0 0 0-1.105-1.306c-2.136-.186-3.796-1.56-4.089-3.89-.186-1.482-1.19-2.754-2.722-2.887a3.313 3.313 0 0 0-.32-.012zm15.7.002c-.1-.002-.202.002-.305.01-1.322.178-2.446.92-2.73 2.937-.316 2.243-1.884 3.585-3.93 3.82a2.073 2.073 0 0 1 .018 2.418c.015-.001.03-.005.044-.007 1.65-.143 3.127-.78 4.246-1.768l.154 4.631s3.314-1.311 5.719-5.756v-.265l-.286-3.3a2.995 2.995 0 0 0-2.93-2.72zm-10.357.88a.184.184 0 0 0-.059.008l-.812.25a.243.243 0 0 0-.135.135.259.259 0 0 0 .239.356.235.235 0 0 0 .108-.025l.732-.417c.062-.034.107-.124.062-.207-.036-.067-.08-.099-.135-.1zm4.97.002a.162.162 0 0 0-.125.098.164.164 0 0 0 .005.15.137.137 0 0 0 .056.056l.736.42a.258.258 0 0 0 .34-.13.257.257 0 0 0 .005-.203.247.247 0 0 0-.138-.137l-.807-.249a.141.141 0 0 0-.073-.006zm-3.527 2.434c-.138 0-.206.123-.206.205 0 .113.092.204.206.204a.205.205 0 1 0 0 .41h.342l.095.238a.1.1 0 0 0 .085.06h1.042a.1.1 0 0 0 .086-.06l.094-.238h.34a.205.205 0 0 0 0-.41.205.205 0 0 0 .205-.204c0-.08-.063-.205-.206-.205z" />
</svg>