<svg xmlns="http://www.w3.org/2000/svg" width="66" height="83" viewBox="0 0 17.462 21.96">
    <path d="M11.74.001A38.797 38.797 0 0 0 8.078.47a38.92 38.92 0 0 0-3.614.846c-.552.175-.898.793-.787 1.407l2.378 13.162c.112.613.652 1.072 1.243 1.043a40.655 40.655 0 0 0 3.86-.506c1.264-.228 2.118-.442 3.417-.807.314-.1.558-.346.692-.65a1.868 1.868 0 0 1-1.4-.841L6.91 15.389 4.607 2.655l7.457-1.344.934 5.164.858-.598-.874-4.833C12.872.43 12.331-.028 11.74.001zm3.782 2.085a.687.687 0 0 0-.318.051c-.349.154-.912.494-1.027.557l.495 2.742 1.456-1a1.263 1.263 0 0 0 .376-1.749c-.233-.358-.636-.581-.982-.601zM1.072 3.87c-.325.01-.6.108-.76.247-.483.42 1.083 2.249.483 6.274a16.293 16.293 0 0 0-.093 4.289c.087.844.306 1.592.624 2.247L0 18.886s1.59 2.424 5.713 3.074l.917-1.888c1.022.015 2.016-.24 2.831-.772l4.48-2.598c-.888.236-1.628.406-2.626.586a41.584 41.584 0 0 1-3.943.516c-1.053.08-1.992-.705-2.184-1.764l-1.9-10.515c-.54-1.283-1.5-1.678-2.216-1.654zm8.528.658l-1.375.248.127.707C6.32 6.4 6.448 9.423 9.714 9.214c.455-.029.733.066.856.142.347.218.33 1.046-.587 1.212-.377.067-.734-.066-.926-.313l-1.474.266c.275.726 1.026 1.222 1.912 1.288l.117.64 1.375-.25-.115-.638c1.843-.717 2.105-3.826-1.161-3.665-.662.032-.926-.105-1.064-.19-.302-.184-.32-1.064.597-1.23.506-.091.98.182 1.057.608l1.428-.257c-.161-.89-.995-1.517-2-1.59zm5.553 1.66a1.124 1.124 0 0 0-.59.173l-.74.5a1.119 1.119 0 0 0-.334 1.55c.372.57 1.1.623 1.55.33l.741-.5c.52-.336.668-1.03.332-1.548a1.102 1.102 0 0 0-.959-.506zm.851 2.553a1.13 1.13 0 0 0-.591.174l-1.096.715a1.12 1.12 0 0 0-.332 1.55c.371.57 1.099.622 1.55.33l1.096-.715a1.12 1.12 0 0 0 .333-1.548 1.105 1.105 0 0 0-.96-.506zm.429 2.793a1.02 1.02 0 0 0-.535.157l-.99.646c-.471.304-.605.93-.301 1.4.335.517.993.564 1.401.3L17 13.39c.47-.303.605-.93.3-1.4a.997.997 0 0 0-.866-.456z" />
</svg>