<svg xmlns="http://www.w3.org/2000/svg" width="76" height="79" viewBox="0 0 20.108 20.902">
    <path d="M9.59 0l-.08 11.056.88-1 .036-9.203 1.624.01L10.8 9.59a2.1 2.1 0 0 1 .94-.609l1.007-7.04c.495.349 1.247.004 1.08-.734l4.505.65c-.372.527.097 1.212.69 1.046L17.312 14.82l-4.122-.603-1.617 1.963-2.088 2.956c.624.701 1.736.01 1.736.01l.158-1.761c.615.416 1.562-.15 1.562-.15l.195-2.171 4.899.706L20.108 1.26 17.616.9l.005-.846zm5.445 5.336a2.288 2.288 0 0 0-2.147 2.627 2.28 2.28 0 0 0 2.59 1.926 2.29 2.29 0 0 0 1.915-2.604 2.28 2.28 0 0 0-2.358-1.949zm-6.678.992a131.77 131.77 0 0 0-3.152 2.654l-2.744 6.36L0 16.852c.96 2.35 3.787 4.05 3.787 4.05l2.345-.438C7.2 20.24 7.7 19.8 8.088 19.23l2.398-3.373 3.183-3.674c.234-.265.331-.612.276-.982-.054-.365-.256-.725-.568-1.013-.347-.32-.752-.488-1.143-.469a1.113 1.113 0 0 0-.795.38l-3.17 3.547-.381-3.04s.183-.14.479-.384z" />
</svg>